<svg width="51" height="720" viewBox="0 0 51 720" fill="none" xmlns="http://www.w3.org/2000/svg">
  <path
    d="M42.5361 544.632C42.5361 545.963 43.2882 546.542 44.1561 546.715L44.1561 547.641C42.7096 547.41 41.7261 546.368 41.7261 544.632C41.7261 542.607 43.3461 541.103 45.7761 541.103C48.264 541.103 49.8262 542.607 49.8262 544.632C49.8262 546.368 48.8426 547.352 47.3961 547.641L47.3961 546.715C48.264 546.542 49.0162 545.963 49.0162 544.632C49.0162 543.012 47.7433 542.087 45.7761 542.087C43.8668 542.087 42.5361 543.012 42.5361 544.632Z"
    fill="white" fill-opacity="0.5" />
  <path
    d="M41.7269 551.286C41.7269 549.782 42.8262 548.683 44.6198 548.683C46.4134 548.683 47.5127 549.782 47.5127 551.286C47.5127 552.79 46.4134 553.89 44.6198 553.89C42.8262 553.89 41.7269 552.848 41.7269 551.286ZM42.4791 551.286C42.4791 552.385 43.2891 553.022 44.6198 553.022C45.9505 553.022 46.7605 552.385 46.7605 551.286C46.7605 550.187 45.9505 549.55 44.6198 549.55C43.2891 549.55 42.4791 550.245 42.4791 551.286Z"
    fill="white" fill-opacity="0.5" />
  <path
    d="M46.4132 556.378C47.1074 556.667 47.5703 557.361 47.5703 558.171C47.5703 559.386 46.8182 560.138 45.4874 560.138L41.9002 560.138L41.9002 559.213L45.256 559.213C46.2974 559.213 46.8182 558.75 46.8182 557.882C46.8182 557.014 46.2974 556.378 44.9667 556.378L41.9002 556.378L41.9002 555.452L47.3967 555.452L47.3967 556.32L46.4132 556.32L46.4132 556.378Z"
    fill="white" fill-opacity="0.5" />
  <path
    d="M47.5127 564.246C47.5127 565.461 46.8184 566.271 45.6612 566.445L45.6612 565.577C46.4134 565.404 46.8184 564.998 46.8184 564.246C46.8184 563.147 45.9505 562.568 44.6777 562.568C43.4048 562.568 42.5369 563.205 42.5369 564.246C42.5369 564.998 42.9419 565.461 43.6941 565.577L43.6941 566.445C42.4791 566.271 41.8426 565.461 41.8426 564.246C41.8426 562.684 42.9419 561.643 44.7355 561.643C46.4134 561.643 47.5127 562.684 47.5127 564.246Z"
    fill="white" fill-opacity="0.5" />
  <path
    d="M41.7269 570.206C41.7269 568.644 42.8262 567.544 44.6198 567.544C46.4134 567.544 47.5127 568.701 47.5127 570.148C47.5127 571.768 46.182 572.52 44.7934 572.52L44.4462 572.52L44.4462 568.412C43.1733 568.47 42.4791 569.106 42.4791 570.206C42.4791 570.958 42.8262 571.421 43.5205 571.652L43.5205 572.462C42.3633 572.231 41.7269 571.305 41.7269 570.206ZM45.1405 568.47L45.1405 571.652C46.1241 571.652 46.8184 571.131 46.8184 570.148C46.8184 569.28 46.2398 568.644 45.1405 568.47Z"
    fill="white" fill-opacity="0.5" />
  <path
    d="M39.9331 574.95L39.9331 574.024L47.3967 574.024L47.3967 574.892L46.4132 574.892C46.9917 575.124 47.5703 575.818 47.5703 576.744C47.5703 578.132 46.4132 579.232 44.6774 579.232C42.9417 579.232 41.7845 578.19 41.7845 576.744C41.7845 575.818 42.3052 575.182 42.8838 574.892L39.9331 574.892L39.9331 574.95ZM44.5617 574.95C43.2888 574.95 42.4788 575.587 42.4788 576.628C42.4788 577.727 43.3467 578.364 44.6774 578.364C45.9503 578.364 46.876 577.727 46.876 576.628C46.876 575.529 46.0081 574.95 44.7931 574.95L44.5617 574.95Z"
    fill="white" fill-opacity="0.5" />
  <path
    d="M41.9577 583.397C41.842 582.992 41.7841 582.645 41.7841 582.414C41.7841 581.43 42.247 580.909 43.2884 580.909L46.702 580.909L46.702 580.099L47.3963 580.099L47.3963 580.909L48.8428 580.909L48.8428 581.835L47.4542 581.835L47.4542 583.282L46.7599 583.282L46.7599 581.835L43.4041 581.835C42.8255 581.835 42.652 582.124 42.652 582.645C42.652 582.877 42.652 583.108 42.7677 583.455L41.9577 583.455L41.9577 583.397Z"
    fill="white" fill-opacity="0.5" />
  <path
    d="M41.9 588.547L42.8836 588.547C42.1893 588.257 41.7264 587.621 41.7264 586.811C41.7264 585.538 42.4786 584.844 43.8093 584.844L47.3965 584.844L47.3965 585.769L44.0407 585.769C42.9993 585.769 42.4786 586.175 42.4786 587.042C42.4786 587.852 43.0571 588.489 44.3879 588.489L47.3965 588.489L47.3965 589.415L41.9 589.415L41.9 588.547Z"
    fill="white" fill-opacity="0.5" />
  <path
    d="M42.8262 594.68C42.1898 594.448 41.7848 593.696 41.7848 592.77C41.7848 591.787 42.3633 590.977 43.3469 590.977C44.3884 590.977 44.8512 591.787 45.0248 592.886L45.2562 594.68L45.5455 594.68C46.4134 594.68 46.8184 594.159 46.8184 593.407C46.8184 592.655 46.4134 592.192 45.777 592.134L45.777 591.266C46.8763 591.382 47.5127 592.25 47.5127 593.407C47.5127 594.737 46.8763 595.605 45.5455 595.605L43.0576 595.605C42.6526 595.605 42.2476 595.605 41.9005 595.721L41.9005 594.795C42.1898 594.68 42.5369 594.68 42.8262 594.68ZM44.0412 594.622L44.5619 594.622L44.3884 593.117C44.2726 592.423 44.0991 591.845 43.3469 591.845C42.8262 591.845 42.4212 592.192 42.4212 592.886C42.4791 593.754 42.9998 594.622 44.0412 594.622Z"
    fill="white" fill-opacity="0.5" />
  <path d="M41.8999 597.457L50 597.457L50 598.383L41.8999 598.383L41.8999 597.457Z" fill="white" fill-opacity="0.5" />
  <path
    d="M45.7766 609.318C43.4044 609.318 41.8423 607.755 41.8423 605.499L41.8423 602.722L49.7109 602.722L49.7109 605.499C49.7109 607.755 48.1488 609.318 45.7766 609.318ZM48.9588 603.648L42.7101 603.648L42.7101 605.499C42.7101 607.35 43.9251 608.334 45.8345 608.334C47.7438 608.334 48.9588 607.293 48.9588 605.499L48.9588 603.648V603.648Z"
    fill="white" fill-opacity="0.5" />
  <path
    d="M41.7269 613.078C41.7269 611.516 42.8262 610.417 44.6198 610.417C46.4134 610.417 47.5127 611.574 47.5127 613.021C47.5127 614.641 46.182 615.393 44.7934 615.393L44.4462 615.393L44.4462 611.285C43.1733 611.343 42.4791 611.979 42.4791 613.078C42.4791 613.831 42.8262 614.293 43.5205 614.525L43.5205 615.393C42.3633 615.103 41.7269 614.178 41.7269 613.078ZM45.1405 611.343L45.1405 614.525C46.1241 614.525 46.8184 614.004 46.8184 613.021C46.8184 612.153 46.2398 611.516 45.1405 611.343Z"
    fill="white" fill-opacity="0.5" />
  <path
    d="M43.5205 617.418C42.7683 617.476 42.4212 618.17 42.4212 618.922C42.4212 619.674 42.7683 620.253 43.3469 620.253C43.7519 620.253 44.0412 619.964 44.1569 619.269L44.3305 618.286C44.5041 617.418 44.8512 616.724 45.8348 616.724C46.7605 616.724 47.5127 617.534 47.5127 618.749C47.5127 620.021 46.992 620.774 45.8927 620.889L45.8927 620.021C46.4713 619.964 46.7605 619.443 46.7605 618.691C46.7605 617.939 46.4134 617.476 45.8348 617.476C45.372 617.476 45.1405 617.823 45.0248 618.459L44.7934 619.559C44.6198 620.484 44.1569 621.005 43.2891 621.005C42.3055 621.005 41.6112 620.079 41.6112 618.864C41.6112 617.534 42.1898 616.55 43.4048 616.434L43.4048 617.418L43.5205 617.418Z"
    fill="white" fill-opacity="0.5" />
  <path
    d="M49.6533 622.625L49.6533 623.667L48.554 623.667L48.554 622.625L49.6533 622.625ZM47.3969 622.683L47.3969 623.609L41.9004 623.609L41.9004 622.683L47.3969 622.683Z"
    fill="white" fill-opacity="0.5" />
  <path
    d="M43.0574 629.394C42.5367 629.163 42.0159 628.527 42.0159 627.543C42.0159 626.154 43.0574 625.113 44.7931 625.113C46.471 625.113 47.5703 626.154 47.5703 627.543C47.5703 628.527 46.9917 629.163 46.471 629.394L47.3967 629.394L47.3967 630.32L42.3052 630.32C40.5695 630.32 39.8173 629.163 39.8173 627.717C39.8173 626.386 40.3381 625.46 41.4374 625.287L41.4374 626.212C40.7431 626.386 40.5116 626.964 40.5116 627.717C40.5116 628.816 41.0902 629.394 42.2474 629.394L43.0574 629.394ZM44.9088 629.452C46.066 629.452 46.8182 628.758 46.8182 627.717C46.8182 626.617 46.0081 625.981 44.7931 625.981C43.5781 625.981 42.7102 626.617 42.7102 627.717C42.7102 628.758 43.5203 629.452 44.6196 629.452L44.9088 629.452Z"
    fill="white" fill-opacity="0.5" />
  <path
    d="M46.4132 633.155C47.1074 633.445 47.5703 634.139 47.5703 634.949C47.5703 636.164 46.8182 636.916 45.4874 636.916L41.9002 636.916L41.9002 635.99L45.256 635.99C46.2974 635.99 46.8182 635.527 46.8182 634.66C46.8182 633.792 46.2974 633.155 44.9667 633.155L41.9002 633.155L41.9002 632.23L47.3967 632.23L47.3967 633.097L46.4132 633.097L46.4132 633.155Z"
    fill="white" fill-opacity="0.5" />
  <path
    d="M42.5361 644.322C42.5361 645.653 43.2882 646.231 44.1561 646.405L44.1561 647.33C42.7096 647.099 41.7261 646.058 41.7261 644.322C41.7261 642.297 43.3461 640.792 45.7761 640.792C48.264 640.792 49.8262 642.297 49.8262 644.322C49.8262 646.058 48.8426 647.041 47.3961 647.33L47.3961 646.405C48.264 646.231 49.0162 645.653 49.0162 644.322C49.0162 642.702 47.7433 641.776 45.7761 641.776C43.8668 641.776 42.5361 642.702 42.5361 644.322Z"
    fill="white" fill-opacity="0.5" />
  <path
    d="M41.7269 650.975C41.7269 649.471 42.8262 648.372 44.6198 648.372C46.4134 648.372 47.5127 649.471 47.5127 650.975C47.5127 652.48 46.4134 653.579 44.6198 653.579C42.8262 653.579 41.7269 652.48 41.7269 650.975ZM42.4791 650.975C42.4791 652.075 43.2891 652.711 44.6198 652.711C45.9505 652.711 46.7605 652.075 46.7605 650.975C46.7605 649.876 45.9505 649.24 44.6198 649.24C43.2891 649.24 42.4791 649.876 42.4791 650.975Z"
    fill="white" fill-opacity="0.5" />
  <path
    d="M47.5125 661.332C47.5125 662.605 46.7024 663.241 45.4296 663.241L41.9002 663.241L41.9002 662.316L45.256 662.316C46.2974 662.316 46.8182 661.968 46.8182 661.101C46.8182 660.291 46.2396 659.654 44.9667 659.654L41.9002 659.654L41.9002 658.728L45.256 658.728C46.2974 658.728 46.8182 658.381 46.8182 657.513C46.8182 656.703 46.2396 656.067 44.9667 656.067L41.9002 656.067L41.9002 655.141L47.3967 655.141L47.3967 656.009L46.4132 656.009C47.1074 656.298 47.5703 656.935 47.5703 657.745C47.5703 658.671 47.1074 659.191 46.4132 659.423C47.1074 659.77 47.5125 660.522 47.5125 661.332Z"
    fill="white" fill-opacity="0.5" />
  <path
    d="M39.9331 666.018L39.9331 665.093L47.3967 665.093L47.3967 665.961L46.4132 665.961C46.9917 666.192 47.5703 666.886 47.5703 667.812C47.5703 669.201 46.4132 670.3 44.6774 670.3C42.9417 670.3 41.7845 669.258 41.7845 667.812C41.7845 666.886 42.3052 666.25 42.8838 665.961L39.9331 665.961L39.9331 666.018ZM44.5617 665.961C43.2888 665.961 42.4788 666.597 42.4788 667.638C42.4788 668.738 43.3467 669.374 44.6774 669.374C45.9503 669.374 46.876 668.738 46.876 667.638C46.876 666.539 46.0081 665.961 44.7931 665.961L44.5617 665.961Z"
    fill="white" fill-opacity="0.5" />
  <path
    d="M41.7269 674.119C41.7269 672.556 42.8262 671.457 44.6198 671.457C46.4134 671.457 47.5127 672.614 47.5127 674.061C47.5127 675.681 46.182 676.433 44.7934 676.433L44.4462 676.433L44.4462 672.325C43.1733 672.383 42.4791 673.019 42.4791 674.119C42.4791 674.871 42.8262 675.334 43.5205 675.565L43.5205 676.433C42.3633 676.144 41.7269 675.16 41.7269 674.119ZM45.1405 672.383L45.1405 675.565C46.1241 675.565 46.8184 675.044 46.8184 674.061C46.8184 673.193 46.2398 672.499 45.1405 672.383Z"
    fill="white" fill-opacity="0.5" />
  <path
    d="M41.9577 680.541C41.842 680.136 41.7841 679.789 41.7841 679.557C41.7841 678.574 42.247 678.053 43.2884 678.053L46.702 678.053L46.702 677.243L47.3963 677.243L47.3963 678.053L48.8428 678.053L48.8428 678.921L47.4542 678.921L47.4542 680.367L46.7599 680.367L46.7599 678.921L43.4041 678.921C42.8255 678.921 42.652 679.21 42.652 679.731C42.652 679.962 42.652 680.194 42.7677 680.541L41.9577 680.541V680.541Z"
    fill="white" fill-opacity="0.5" />
  <path
    d="M49.6533 681.93L49.6533 682.971L48.554 682.971L48.554 681.93L49.6533 681.93ZM47.3969 682.045L47.3969 682.971L41.9004 682.971L41.9004 682.045L47.3969 682.045Z"
    fill="white" fill-opacity="0.5" />
  <path
    d="M41.9577 687.484C41.842 687.079 41.7841 686.732 41.7841 686.5C41.7841 685.517 42.247 684.996 43.2884 684.996L46.702 684.996L46.702 684.128L47.3963 684.128L47.3963 684.938L48.8428 684.938L48.8428 685.864L47.4542 685.864L47.4542 687.31L46.7599 687.31L46.7599 685.864L43.4041 685.864C42.8255 685.864 42.652 686.153 42.652 686.674C42.652 686.905 42.652 687.137 42.7677 687.484L41.9577 687.484Z"
    fill="white" fill-opacity="0.5" />
  <path
    d="M49.6533 688.872L49.6533 689.914L48.554 689.914L48.554 688.872L49.6533 688.872ZM47.3969 688.93L47.3969 689.856L41.9004 689.856L41.9004 688.93L47.3969 688.93Z"
    fill="white" fill-opacity="0.5" />
  <path
    d="M41.7269 694.022C41.7269 692.517 42.8262 691.418 44.6198 691.418C46.4134 691.418 47.5127 692.517 47.5127 694.022C47.5127 695.526 46.4134 696.625 44.6198 696.625C42.8262 696.625 41.7269 695.526 41.7269 694.022ZM42.4791 694.022C42.4791 695.121 43.2891 695.757 44.6198 695.757C45.9505 695.757 46.7605 695.121 46.7605 694.022C46.7605 692.922 45.9505 692.286 44.6198 692.286C43.2891 692.286 42.4791 692.922 42.4791 694.022Z"
    fill="white" fill-opacity="0.5" />
  <path
    d="M46.4132 699.055C47.1074 699.345 47.5703 700.039 47.5703 700.849C47.5703 702.064 46.8182 702.816 45.4874 702.816L41.9002 702.816L41.9002 701.89L45.256 701.89C46.2974 701.89 46.8182 701.428 46.8182 700.56C46.8182 699.692 46.2974 699.055 44.9667 699.055L41.9002 699.055L41.9002 698.13L47.3967 698.13L47.3967 698.998L46.4132 698.998L46.4132 699.055Z"
    fill="white" fill-opacity="0.5" />
  <path
    d="M46.7021 706.461L47.3964 706.461L47.3964 707.271L48.4378 707.271C49.4793 707.271 50 707.908 50 708.891C50 709.065 50 709.354 49.9421 709.528L49.19 709.528C49.19 709.412 49.2478 709.181 49.2478 708.949C49.2478 708.544 49.0743 708.197 48.4378 708.197L47.3964 708.197L47.3964 709.412L46.7021 709.412L46.7021 708.197L41.8999 708.197L41.8999 707.271L46.7021 707.271L46.7021 706.461Z"
    fill="white" fill-opacity="0.5" />
  <path
    d="M41.7269 712.768C41.7269 711.263 42.8262 710.164 44.6198 710.164C46.4134 710.164 47.5127 711.263 47.5127 712.768C47.5127 714.272 46.4134 715.371 44.6198 715.371C42.8262 715.371 41.7269 714.272 41.7269 712.768ZM42.4791 712.768C42.4791 713.867 43.2891 714.503 44.6198 714.503C45.9505 714.503 46.7605 713.867 46.7605 712.768C46.7605 711.668 45.9505 711.032 44.6198 711.032C43.2891 711.032 42.4791 711.668 42.4791 712.768Z"
    fill="white" fill-opacity="0.5" />
  <path
    d="M46.6448 720C46.7027 719.884 46.7027 719.653 46.7027 719.537C46.7027 718.669 46.0084 717.859 44.6198 717.859L41.9005 717.859L41.9005 716.934L47.397 716.934L47.397 717.801L46.0662 717.801C46.992 718.033 47.5127 718.727 47.5127 719.537C47.5127 719.653 47.5127 719.826 47.4548 719.942L46.6448 719.942L46.6448 720Z"
    fill="white" fill-opacity="0.5" />
  <path
    d="M36.5771 618.633L36.5771 619.559L33.1057 619.559L33.1057 624.129L36.5771 624.129L36.5771 625.113L28.7085 625.113L28.7085 624.187L32.2957 624.187L32.2957 619.616L28.7085 619.616L28.7085 618.691L36.5771 618.691L36.5771 618.633Z"
    fill="white" fill-opacity="0.5" />
  <path
    d="M28.5921 629.394C28.5921 627.832 29.6914 626.733 31.485 626.733C33.2786 626.733 34.3779 627.89 34.3779 629.337C34.3779 630.957 33.0472 631.709 31.6586 631.709L31.3115 631.709L31.3115 627.601C30.0386 627.659 29.3443 628.295 29.3443 629.394C29.3443 630.147 29.6914 630.609 30.3857 630.841L30.3857 631.709C29.1707 631.419 28.5921 630.436 28.5921 629.394ZM31.9479 627.659L31.9479 630.841C32.9315 630.841 33.6258 630.32 33.6258 629.337C33.6258 628.469 33.0472 627.774 31.9479 627.659Z"
    fill="white" fill-opacity="0.5" />
  <path
    d="M29.6336 636.627C28.9971 636.395 28.5921 635.643 28.5921 634.717C28.5921 633.734 29.1707 632.924 30.1543 632.924C31.1957 632.924 31.6586 633.734 31.8322 634.833L32.0636 636.627L32.4108 636.627C33.2786 636.627 33.6836 636.106 33.6836 635.354C33.6836 634.602 33.2786 634.139 32.6422 634.081L32.6422 633.213C33.7415 633.329 34.3779 634.197 34.3779 635.354C34.3779 636.685 33.7415 637.552 32.4108 637.552L29.865 637.552C29.46 637.552 29.055 637.552 28.7078 637.668L28.7078 636.742C28.9971 636.685 29.4021 636.627 29.6336 636.627ZM30.9065 636.627L31.4272 636.627L31.2536 635.122C31.1379 634.428 30.9643 633.849 30.2122 633.849C29.6914 633.849 29.2864 634.197 29.2864 634.891C29.2864 635.759 29.8071 636.627 30.9065 636.627Z"
    fill="white" fill-opacity="0.5" />
  <path
    d="M33.4524 642.47C33.5103 642.355 33.5103 642.123 33.5103 642.007C33.5103 641.14 32.816 640.33 31.4274 640.33L28.7081 640.33L28.7081 639.404L34.2046 639.404L34.2046 640.272L32.8739 640.272C33.7996 640.503 34.3203 641.197 34.3203 642.007C34.3203 642.123 34.3203 642.297 34.2625 642.412L33.4524 642.412L33.4524 642.47Z"
    fill="white" fill-opacity="0.5" />
  <path
    d="M28.7655 646.463C28.6498 646.058 28.592 645.71 28.592 645.479C28.592 644.495 29.0548 643.975 30.0963 643.975L33.5099 643.975L33.5099 643.165L34.2042 643.165L34.2042 643.975L35.5928 643.975L35.5928 644.9L34.2042 644.9L34.2042 646.347L33.5099 646.347L33.5099 644.9L30.1541 644.9C29.5755 644.9 29.402 645.19 29.402 645.71C29.402 645.942 29.402 646.173 29.5177 646.52L28.7655 646.52L28.7655 646.463Z"
    fill="white" fill-opacity="0.5" />
  <path
    d="M28.5921 652.538C28.5921 651.033 29.6914 649.934 31.485 649.934C33.2786 649.934 34.3779 651.033 34.3779 652.538C34.3779 654.042 33.2786 655.141 31.485 655.141C29.6914 655.141 28.5921 654.042 28.5921 652.538ZM29.2864 652.538C29.2864 653.637 30.0964 654.273 31.4272 654.273C32.7579 654.273 33.5679 653.637 33.5679 652.538C33.5679 651.438 32.7579 650.802 31.4272 650.802C30.1543 650.802 29.2864 651.438 29.2864 652.538Z"
    fill="white" fill-opacity="0.5" />
  <path
    d="M33.5683 656.067L34.2626 656.067L34.2626 656.877L35.304 656.877C36.3455 656.877 36.8662 657.513 36.8662 658.497C36.8662 658.671 36.8662 658.96 36.8084 659.133L36.0562 659.133C36.0562 659.018 36.1141 658.786 36.1141 658.555C36.1141 658.15 35.9405 657.803 35.304 657.803L34.2626 657.803L34.2626 658.96L33.5683 658.96L33.5683 657.803L28.7082 657.803L28.7082 656.877L33.5683 656.877L33.5683 656.067Z"
    fill="white" fill-opacity="0.5" />
  <path
    d="M28.7655 665.093C28.6498 664.688 28.592 664.341 28.592 664.109C28.592 663.126 29.0548 662.605 30.0963 662.605L33.5099 662.605L33.5099 661.795L34.2042 661.795L34.2042 662.605L35.5928 662.605L35.5928 663.531L34.2042 663.531L34.2042 664.977L33.5099 664.977L33.5099 663.531L30.1541 663.531C29.5755 663.531 29.402 663.82 29.402 664.341C29.402 664.572 29.402 664.803 29.5177 665.151L28.7655 665.151L28.7655 665.093Z"
    fill="white" fill-opacity="0.5" />
  <path
    d="M34.3786 669.259C34.3786 670.474 33.6264 671.226 32.2957 671.226L28.7085 671.226L28.7085 670.3L32.0642 670.3C33.1057 670.3 33.6264 669.837 33.6264 668.969C33.6264 668.101 33.1057 667.465 31.7749 667.465L28.7085 667.465L28.7085 666.539L36.8086 666.539L36.8086 667.465L33.2214 667.465C33.9157 667.754 34.3786 668.391 34.3786 669.259Z"
    fill="white" fill-opacity="0.5" />
  <path
    d="M28.5921 675.334C28.5921 673.771 29.6914 672.672 31.485 672.672C33.2786 672.672 34.3779 673.829 34.3779 675.276C34.3779 676.896 33.0472 677.648 31.6586 677.648L31.3115 677.648L31.3115 673.54C30.0386 673.598 29.3443 674.234 29.3443 675.334C29.3443 676.086 29.6914 676.549 30.3857 676.78L30.3857 677.648C29.1707 677.417 28.5921 676.433 28.5921 675.334ZM31.9479 673.598L31.9479 676.78C32.9315 676.78 33.6258 676.259 33.6258 675.276C33.6258 674.466 33.0472 673.771 31.9479 673.598Z"
    fill="white" fill-opacity="0.5" />
  <path
    d="M29.4023 684.707C29.4023 686.037 30.1544 686.616 31.0223 686.789L31.0223 687.715C29.5759 687.484 28.5923 686.442 28.5923 684.707C28.5923 682.682 30.2123 681.177 32.6423 681.177C35.1302 681.177 36.6924 682.682 36.6924 684.707C36.6924 686.442 35.7088 687.426 34.2623 687.715L34.2623 686.789C35.1302 686.616 35.8824 686.037 35.8824 684.707C35.8824 683.087 34.6095 682.161 32.6423 682.161C30.6752 682.161 29.4023 683.087 29.4023 684.707Z"
    fill="white" fill-opacity="0.5" />
  <path
    d="M29.6336 692.402C28.9971 692.17 28.5921 691.418 28.5921 690.492C28.5921 689.509 29.1707 688.699 30.1543 688.699C31.1957 688.699 31.6586 689.509 31.8322 690.608L32.0636 692.402L32.4108 692.402C33.2786 692.402 33.6836 691.881 33.6836 691.129C33.6836 690.377 33.2786 689.914 32.6422 689.856L32.6422 688.988C33.7415 689.104 34.3779 689.972 34.3779 691.129C34.3779 692.46 33.7415 693.328 32.4108 693.328L29.865 693.328C29.46 693.328 29.055 693.328 28.7078 693.443L28.7078 692.518C28.9971 692.46 29.4021 692.402 29.6336 692.402ZM30.9065 692.402L31.4272 692.402L31.2536 690.897C31.1379 690.203 30.9643 689.625 30.2122 689.625C29.6914 689.625 29.2864 689.972 29.2864 690.666C29.2864 691.534 29.8071 692.402 30.9065 692.402Z"
    fill="white" fill-opacity="0.5" />
  <path
    d="M26.7407 696.105L26.7407 695.179L34.2044 695.179L34.2044 696.047L33.2208 696.047C33.7994 696.278 34.3779 696.972 34.3779 697.898C34.3779 699.287 33.2208 700.386 31.485 700.386C29.7493 700.386 28.5921 699.345 28.5921 697.898C28.5921 696.972 29.1129 696.336 29.6914 696.047L26.7407 696.047L26.7407 696.105ZM31.4272 696.047C30.1543 696.047 29.3443 696.683 29.3443 697.725C29.3443 698.824 30.2122 699.46 31.5429 699.46C32.8158 699.46 33.7415 698.824 33.7415 697.725C33.7415 696.625 32.8736 696.047 31.6586 696.047L31.4272 696.047Z"
    fill="white" fill-opacity="0.5" />
  <path
    d="M36.5195 701.89L36.5195 702.932L35.4202 702.932L35.4202 701.89L36.5195 701.89ZM34.2052 701.948L34.2052 702.874L28.7087 702.874L28.7087 701.948L34.2052 701.948Z"
    fill="white" fill-opacity="0.5" />
  <path
    d="M28.7655 707.387C28.6498 706.982 28.592 706.635 28.592 706.403C28.592 705.42 29.0548 704.899 30.0963 704.899L33.5099 704.899L33.5099 704.089L34.2042 704.089L34.2042 704.899L35.5928 704.899L35.5928 705.825L34.2042 705.825L34.2042 707.271L33.5099 707.271L33.5099 705.825L30.1541 705.825C29.5755 705.825 29.402 706.114 29.402 706.635C29.402 706.866 29.402 707.098 29.5177 707.445L28.7655 707.445L28.7655 707.387Z"
    fill="white" fill-opacity="0.5" />
  <path
    d="M29.6336 712.131C28.9971 711.9 28.5921 711.148 28.5921 710.222C28.5921 709.238 29.1707 708.428 30.1543 708.428C31.1957 708.428 31.6586 709.238 31.8322 710.338L32.0636 712.131L32.4108 712.131C33.2786 712.131 33.6836 711.611 33.6836 710.858C33.6836 710.106 33.2786 709.643 32.6422 709.586L32.6422 708.718C33.7415 708.833 34.3779 709.701 34.3779 710.858C34.3779 712.189 33.7415 713.057 32.4108 713.057L29.865 713.057C29.46 713.057 29.055 713.057 28.7078 713.173L28.7078 712.247C28.9971 712.189 29.4021 712.131 29.6336 712.131ZM30.9065 712.131L31.4272 712.131L31.2536 710.627C31.1379 709.933 30.9643 709.354 30.2122 709.354C29.6914 709.354 29.2864 709.701 29.2864 710.396C29.2864 711.263 29.8071 712.131 30.9065 712.131Z"
    fill="white" fill-opacity="0.5" />
  <path d="M28.7085 714.909L36.8086 714.909L36.8086 715.834L28.7085 715.834L28.7085 714.909Z" fill="white"
    fill-opacity="0.5" />
  <path
    d="M33.626 717.917L33.626 719.074L32.411 719.074L32.411 717.859L33.626 717.859L33.626 717.917ZM29.9231 717.917L29.9231 719.074L28.708 719.074L28.708 717.859L29.9231 717.859L29.9231 717.917Z"
    fill="white" fill-opacity="0.5" />
  <path
    d="M17.7157 595.49L17.7157 591.729L15.5171 590.861L15.5171 589.935L23.3857 593.06L23.3857 594.101L15.5171 597.283L15.5171 596.3L17.7157 595.49ZM18.5257 592.018L18.5257 595.142L22.46 593.58L22.46 593.522L18.5257 592.018Z"
    fill="white" fill-opacity="0.5" />
  <path
    d="M23.3857 600.06L23.3857 601.044L16.5006 603.763L23.3857 606.54L23.3857 607.524L15.5171 604.342L15.5171 603.243L23.3857 600.06Z"
    fill="white" fill-opacity="0.5" />
  <path
    d="M23.3281 608.623L23.3281 609.665L22.2288 609.665L22.2288 608.623L23.3281 608.623ZM21.0717 608.681L21.0717 609.607L15.5752 609.607L15.5752 608.681L21.0717 608.681Z"
    fill="white" fill-opacity="0.5" />
  <path
    d="M17.1943 611.921C16.4422 611.979 16.095 612.674 16.095 613.426C16.095 614.178 16.4422 614.756 17.0207 614.756C17.4258 614.756 17.715 614.467 17.8308 613.773L18.0043 612.789C18.1779 611.921 18.5251 611.227 19.5086 611.227C20.4344 611.227 21.1865 612.037 21.1865 613.252C21.1865 614.525 20.6658 615.277 19.5665 615.393L19.5665 614.525C20.1451 614.467 20.4344 613.946 20.4344 613.194C20.4344 612.442 20.0872 611.979 19.5086 611.979C19.0458 611.979 18.8143 612.326 18.6986 612.963L18.4672 614.062C18.2936 614.988 17.8308 615.509 16.9629 615.509C15.9793 615.509 15.285 614.583 15.285 613.368C15.285 612.037 15.8636 611.053 17.0786 610.938L17.0786 611.921L17.1943 611.921Z"
    fill="white" fill-opacity="0.5" />
  <path
    d="M23.3281 617.128L23.3281 618.17L22.2288 618.17L22.2288 617.128L23.3281 617.128ZM21.0717 617.186L21.0717 618.112L15.5752 618.112L15.5752 617.186L21.0717 617.186Z"
    fill="white" fill-opacity="0.5" />
  <path
    d="M15.4007 622.278C15.4007 620.774 16.5 619.674 18.2936 619.674C20.0872 619.674 21.1865 620.774 21.1865 622.278C21.1865 623.782 20.0872 624.881 18.2936 624.881C16.5 624.881 15.4007 623.782 15.4007 622.278ZM16.1529 622.278C16.1529 623.377 16.9629 624.014 18.2936 624.014C19.6244 624.014 20.4344 623.377 20.4344 622.278C20.4344 621.179 19.6244 620.542 18.2936 620.542C16.9629 620.542 16.1529 621.179 16.1529 622.278Z"
    fill="white" fill-opacity="0.5" />
  <path
    d="M20.0294 627.311C20.7237 627.601 21.1865 628.295 21.1865 629.105C21.1865 630.32 20.4344 631.072 19.1036 631.072L15.5164 631.072L15.5164 630.147L18.8722 630.147C19.9136 630.147 20.4344 629.684 20.4344 628.816C20.4344 627.948 19.9136 627.311 18.5829 627.311L15.5164 627.311L15.5164 626.386L21.0708 626.386L21.0708 627.254L20.0294 627.254L20.0294 627.311Z"
    fill="white" fill-opacity="0.5" />
  <path
    d="M20.3769 634.717L21.0712 634.717L21.0712 635.527L22.1126 635.527C23.1541 635.527 23.6748 636.164 23.6748 637.147C23.6748 637.321 23.6748 637.61 23.6169 637.784L22.8648 637.784C22.8648 637.668 22.9227 637.437 22.9227 637.205C22.9227 636.8 22.7491 636.453 22.1126 636.453L21.0712 636.453L21.0712 637.61L20.3769 637.61L20.3769 636.453L15.5168 636.453L15.5168 635.527L20.3769 635.527L20.3769 634.717Z"
    fill="white" fill-opacity="0.5" />
  <path
    d="M15.4007 641.024C15.4007 639.52 16.5 638.42 18.2936 638.42C20.0872 638.42 21.1865 639.52 21.1865 641.024C21.1865 642.528 20.0872 643.627 18.2936 643.627C16.5 643.627 15.4007 642.528 15.4007 641.024ZM16.1529 641.024C16.1529 642.123 16.9629 642.76 18.2936 642.76C19.6244 642.76 20.4344 642.123 20.4344 641.024C20.4344 639.925 19.6244 639.288 18.2936 639.288C16.9629 639.288 16.1529 639.925 16.1529 641.024Z"
    fill="white" fill-opacity="0.5" />
  <path
    d="M20.3187 648.256C20.3765 648.14 20.3765 647.909 20.3765 647.793C20.3765 646.925 19.6822 646.115 18.2936 646.115L15.5743 646.115L15.5743 645.19L21.0708 645.19L21.0708 646.057L19.7401 646.057C20.6658 646.289 21.1865 646.983 21.1865 647.793C21.1865 647.909 21.1865 648.083 21.1287 648.198L20.3187 648.198L20.3187 648.256Z"
    fill="white" fill-opacity="0.5" />
  <path
    d="M22.5757 654.158L22.5757 651.265L23.3857 651.265L23.3857 658.092L22.5757 658.092L22.5757 655.141L15.5171 655.141L15.5171 654.215L22.5757 654.215L22.5757 654.158Z"
    fill="white" fill-opacity="0.5" />
  <path
    d="M20.3187 661.563C20.3765 661.448 20.3765 661.216 20.3765 661.101C20.3765 660.233 19.6822 659.423 18.2936 659.423L15.5743 659.423L15.5743 658.497L21.0708 658.497L21.0708 659.365L19.7401 659.365C20.6658 659.596 21.1865 660.291 21.1865 661.101C21.1865 661.216 21.1865 661.39 21.1287 661.506L20.3187 661.506L20.3187 661.563Z"
    fill="white" fill-opacity="0.5" />
  <path
    d="M16.4422 666.018C15.8057 665.787 15.4007 665.035 15.4007 664.109C15.4007 663.126 15.9793 662.316 16.9629 662.316C18.0043 662.316 18.4672 663.126 18.6408 664.225L18.8722 666.018L19.2194 666.018C20.0872 666.018 20.4922 665.498 20.4922 664.746C20.4922 663.993 20.0872 663.531 19.4508 663.473L19.4508 662.605C20.5501 662.721 21.1865 663.588 21.1865 664.746C21.1865 666.076 20.5501 666.944 19.2194 666.944L16.6736 666.944C16.2686 666.944 15.8636 666.944 15.5164 667.06L15.5164 666.134C15.8636 666.076 16.2107 666.018 16.4422 666.018ZM17.715 666.018L18.1779 666.018L18.0043 664.514C17.8886 663.82 17.715 663.241 16.9629 663.241C16.4422 663.241 16.0372 663.588 16.0372 664.283C16.095 665.151 16.6157 666.018 17.715 666.018Z"
    fill="white" fill-opacity="0.5" />
  <path
    d="M20.0294 669.664C20.7237 669.953 21.1865 670.647 21.1865 671.457C21.1865 672.672 20.4344 673.424 19.1036 673.424L15.5164 673.424L15.5164 672.556L18.8722 672.556C19.9136 672.556 20.4344 672.094 20.4344 671.226C20.4344 670.358 19.9136 669.721 18.5829 669.721L15.5164 669.721L15.5164 668.796L21.0708 668.796L21.0708 669.664L20.0294 669.664Z"
    fill="white" fill-opacity="0.5" />
  <path
    d="M17.1943 675.739C16.4422 675.796 16.095 676.491 16.095 677.243C16.095 677.995 16.4422 678.574 17.0207 678.574C17.4258 678.574 17.715 678.284 17.8308 677.59L18.0043 676.606C18.1779 675.739 18.5251 675.044 19.5086 675.044C20.4344 675.044 21.1865 675.854 21.1865 677.069C21.1865 678.342 20.6658 679.094 19.5665 679.21L19.5665 678.342C20.1451 678.284 20.4344 677.764 20.4344 677.011C20.4344 676.259 20.0872 675.796 19.5086 675.796C19.0458 675.796 18.8143 676.144 18.6986 676.78L18.4672 677.879C18.2936 678.805 17.8308 679.326 16.9629 679.326C15.9793 679.326 15.285 678.4 15.285 677.185C15.285 675.854 15.8636 674.871 17.0786 674.755L17.0786 675.739L17.1943 675.739Z"
    fill="white" fill-opacity="0.5" />
  <path
    d="M20.3769 680.367L21.0712 680.367L21.0712 681.177L22.1126 681.177C23.1541 681.177 23.6748 681.814 23.6748 682.797C23.6748 682.971 23.6748 683.26 23.6169 683.434L22.8648 683.434C22.8648 683.318 22.9227 683.087 22.9227 682.855C22.9227 682.45 22.7491 682.103 22.1126 682.103L21.0712 682.103L21.0712 683.318L20.3769 683.318L20.3769 682.103L15.5168 682.103L15.5168 681.177L20.3769 681.177L20.3769 680.367Z"
    fill="white" fill-opacity="0.5" />
  <path
    d="M15.4007 686.674C15.4007 685.17 16.5 684.07 18.2936 684.07C20.0872 684.07 21.1865 685.17 21.1865 686.674C21.1865 688.178 20.0872 689.277 18.2936 689.277C16.5 689.277 15.4007 688.178 15.4007 686.674ZM16.1529 686.674C16.1529 687.773 16.9629 688.41 18.2936 688.41C19.6244 688.41 20.4344 687.773 20.4344 686.674C20.4344 685.575 19.6244 684.938 18.2936 684.938C16.9629 684.938 16.1529 685.575 16.1529 686.674Z"
    fill="white" fill-opacity="0.5" />
  <path
    d="M20.3187 693.906C20.3765 693.79 20.3765 693.559 20.3765 693.443C20.3765 692.575 19.6822 691.765 18.2936 691.765L15.5743 691.765L15.5743 690.84L21.0708 690.84L21.0708 691.708L19.7401 691.708C20.6658 691.939 21.1865 692.633 21.1865 693.443C21.1865 693.559 21.1865 693.733 21.1287 693.848L20.3187 693.848L20.3187 693.906Z"
    fill="white" fill-opacity="0.5" />
  <path
    d="M21.1863 701.196C21.1863 702.469 20.3763 703.105 19.1034 703.105L15.5162 703.105L15.5162 702.18L18.872 702.18C19.9134 702.18 20.4341 701.833 20.4341 700.965C20.4341 700.155 19.8556 699.518 18.5827 699.518L15.5162 699.518L15.5162 698.593L18.872 698.593C19.9134 698.593 20.4341 698.245 20.4341 697.378C20.4341 696.568 19.8556 695.931 18.5827 695.931L15.5162 695.931L15.5162 695.005L21.0706 695.005L21.0706 695.873L20.087 695.873C20.7813 696.163 21.2441 696.799 21.2441 697.609C21.2441 698.535 20.7813 699.055 20.087 699.287C20.7234 699.692 21.1863 700.386 21.1863 701.196Z"
    fill="white" fill-opacity="0.5" />
  <path
    d="M23.3281 704.957L23.3281 705.998L22.2288 705.998L22.2288 704.957L23.3281 704.957ZM21.0717 705.015L21.0717 705.941L15.5752 705.941L15.5752 705.015L21.0717 705.015Z"
    fill="white" fill-opacity="0.5" />
  <path
    d="M20.0294 708.775C20.7237 709.065 21.1865 709.759 21.1865 710.569C21.1865 711.784 20.4344 712.536 19.1036 712.536L15.5164 712.536L15.5164 711.611L18.8722 711.611C19.9136 711.611 20.4344 711.148 20.4344 710.28C20.4344 709.412 19.9136 708.775 18.5829 708.775L15.5164 708.775L15.5164 707.85L21.0708 707.85L21.0708 708.718L20.0294 708.718L20.0294 708.775Z"
    fill="white" fill-opacity="0.5" />
  <path
    d="M16.6736 718.264C16.1529 718.033 15.6322 717.396 15.6322 716.413C15.6322 715.024 16.6736 713.983 18.4093 713.983C20.0872 713.983 21.1865 715.024 21.1865 716.413C21.1865 717.396 20.6079 718.033 20.0872 718.264L21.0708 718.264L21.0708 719.19L15.9793 719.19C14.2436 719.19 13.4914 718.033 13.4914 716.586C13.4914 715.256 14.0121 714.33 15.1114 714.156L15.1114 715.082C14.3593 715.256 14.1279 715.834 14.1279 716.586C14.1279 717.686 14.7064 718.264 15.8636 718.264L16.6736 718.264ZM18.5251 718.38C19.6822 718.38 20.4344 717.686 20.4344 716.644C20.4344 715.545 19.6244 714.908 18.4093 714.908C17.1943 714.908 16.3265 715.545 16.3265 716.644C16.3265 717.686 17.1365 718.38 18.2358 718.38L18.5251 718.38V718.38Z"
    fill="white" fill-opacity="0.5" />
  <path
    d="M3.01947 560.312C3.01947 561.643 3.77162 562.221 4.63949 562.395L4.63949 563.321C3.19304 563.089 2.20945 562.048 2.20945 560.312C2.20945 558.287 3.82948 556.783 6.25951 556.783C8.74741 556.783 10.3096 558.287 10.3096 560.312C10.3096 562.048 9.32598 563.031 7.87953 563.321L7.87953 562.395C8.7474 562.221 9.49956 561.643 9.49956 560.312C9.49956 558.692 8.22668 557.766 6.25951 557.766C4.3502 557.766 3.01947 558.692 3.01947 560.312Z"
    fill="white" fill-opacity="0.5" />
  <path
    d="M8.05337 567.428C8.05337 568.643 7.24335 569.396 5.97048 569.396L2.38328 569.396L2.38328 568.47L5.73905 568.47C6.78049 568.47 7.30121 568.007 7.30121 567.139C7.30121 566.271 6.78049 565.635 5.44976 565.635L2.38328 565.635L2.38328 564.709L10.4834 564.709L10.4834 565.635L6.89621 565.635C7.5905 565.924 8.05337 566.618 8.05337 567.428Z"
    fill="white" fill-opacity="0.5" />
  <path
    d="M10.1934 571.247L10.1934 572.289L9.09406 572.289L9.09406 571.247L10.1934 571.247ZM7.87904 571.363L7.87904 572.289L2.32468 572.289L2.32468 571.363L7.87904 571.363Z"
    fill="white" fill-opacity="0.5" />
  <path
    d="M3.30862 577.496C2.67218 577.264 2.26718 576.512 2.26718 575.586C2.26718 574.603 2.84576 573.793 3.82934 573.793C4.92864 573.793 5.33365 574.603 5.50722 575.702L5.73866 577.496L6.02795 577.496C6.89581 577.496 7.30082 576.975 7.30082 576.223C7.30082 575.471 6.89582 575.008 6.25938 574.95L6.25938 574.082C7.35868 574.198 7.99512 575.066 7.99512 576.223C7.99512 577.554 7.35868 578.422 6.02795 578.422L3.48219 578.422C3.07719 578.422 2.67218 578.422 2.32503 578.537L2.32503 577.611C2.67218 577.554 3.01933 577.496 3.30862 577.496ZM4.52364 577.496L5.04436 577.496L4.87079 575.991C4.75507 575.297 4.58149 574.719 3.82934 574.719C3.30862 574.719 2.90361 575.066 2.90361 575.76C2.90361 576.628 3.4822 577.496 4.52364 577.496Z"
    fill="white" fill-opacity="0.5" />
  <path
    d="M6.89558 581.199C7.58987 581.488 8.05273 582.182 8.05273 582.992C8.05273 584.207 7.24272 584.959 5.96985 584.959L2.38265 584.959L2.38265 584.034L5.73842 584.034C6.77986 584.034 7.30058 583.571 7.30058 582.703C7.30058 581.835 6.77986 581.199 5.44913 581.199L2.38265 581.199L2.38265 580.273L7.93702 580.273L7.93702 581.141L6.89558 581.141L6.89558 581.199Z"
    fill="white" fill-opacity="0.5" />
  <path
    d="M3.53981 590.745C3.01909 590.514 2.49837 589.877 2.49837 588.894C2.49837 587.447 3.53981 586.464 5.27555 586.464C6.95343 586.464 8.05273 587.505 8.05273 588.894C8.05273 589.877 7.47415 590.514 6.95343 590.745L7.93702 590.745L7.93702 591.613L2.78766 591.613C1.05192 591.613 0.299765 590.456 0.299765 589.01C0.299766 587.679 0.820489 586.753 1.91979 586.58L1.91979 587.505C1.22549 587.679 0.994064 588.257 0.994064 589.01C0.994064 590.109 1.57264 590.687 2.7298 590.687L3.53981 590.687L3.53981 590.745ZM5.39127 590.803C6.54843 590.803 7.30058 590.109 7.30058 589.067C7.30058 587.968 6.49057 587.332 5.21769 587.332C4.00268 587.332 3.13481 587.968 3.13481 589.067C3.13481 590.109 3.94482 590.803 5.10198 590.803L5.39127 590.803Z"
    fill="white" fill-opacity="0.5" />
  <path
    d="M6.0852 598.209L4.87018 596.994L2.32443 596.994L2.32443 596.068L10.251 596.068L10.251 596.994L5.96949 596.994L10.251 601.16L10.251 602.317L6.7795 598.903L2.38229 602.548L2.38229 601.391L6.0852 598.209Z"
    fill="white" fill-opacity="0.5" />
  <path
    d="M3.30862 607.061C2.67218 606.83 2.26718 606.078 2.26718 605.152C2.26718 604.168 2.84576 603.358 3.82934 603.358C4.92864 603.358 5.33365 604.168 5.50722 605.268L5.73866 607.061L6.02795 607.061C6.89581 607.061 7.30082 606.54 7.30082 605.73C7.30082 604.978 6.89582 604.515 6.25938 604.458L6.25938 603.59C7.35868 603.705 7.99512 604.573 7.99512 605.788C7.99512 607.119 7.35868 607.987 6.02795 607.987L3.48219 607.987C3.07719 607.987 2.67218 607.987 2.32503 608.103L2.32503 607.177C2.67218 607.119 3.01933 607.061 3.30862 607.061ZM4.52364 607.061L5.04436 607.061L4.87079 605.557C4.75507 604.863 4.58149 604.284 3.82934 604.284C3.30862 604.284 2.90361 604.631 2.90361 605.325C2.90361 606.193 3.4822 607.061 4.52364 607.061Z"
    fill="white" fill-opacity="0.5" />
  <path
    d="M10.1934 609.781L10.1934 610.822L9.09406 610.822L9.09406 609.781L10.1934 609.781ZM7.87904 609.838L7.87904 610.764L2.32468 610.764L2.32468 609.838L7.87904 609.838Z"
    fill="white" fill-opacity="0.5" />
  <path d="M5.85449 612.731L5.85449 615.798L5.04448 615.798L5.04448 612.731L5.85449 612.731Z" fill="white"
    fill-opacity="0.5" />
  <path
    d="M4.6971 618.17C3.42423 618.286 3.01923 619.327 3.01923 620.484C3.01923 621.584 3.53995 622.451 4.52353 622.451C5.15997 622.451 5.62283 622.104 5.79641 621.005L6.0857 619.501C6.25927 618.459 6.77999 617.476 8.11073 617.476C9.3836 617.476 10.3672 618.575 10.3672 620.195C10.3672 621.873 9.61504 622.972 8.22644 623.146L8.22644 622.22C9.09431 622.104 9.61503 621.294 9.61503 620.195C9.61503 619.038 8.97859 618.344 8.16858 618.344C7.35857 618.344 7.12714 618.806 6.89571 619.732L6.54856 621.294C6.31713 622.509 5.73855 623.261 4.52353 623.261C3.1928 623.261 2.20921 622.046 2.20921 620.426C2.20921 618.749 2.96137 617.302 4.63925 617.186L4.63925 618.17L4.6971 618.17Z"
    fill="white" fill-opacity="0.5" />
  <path
    d="M8.05337 627.659C8.05337 628.932 7.24335 629.626 5.97048 629.626L2.38328 629.626L2.38328 628.7L5.73905 628.7C6.78049 628.7 7.30121 628.237 7.30121 627.369C7.30121 626.502 6.78049 625.865 5.44976 625.865L2.38328 625.865L2.38328 624.939L10.4834 624.939L10.4834 625.865L6.89621 625.865C7.5905 626.097 8.05337 626.791 8.05337 627.659Z"
    fill="white" fill-opacity="0.5" />
  <path
    d="M2.20908 633.792C2.20908 632.229 3.30838 631.13 5.10198 631.13C6.89558 631.13 8.05273 632.287 8.05273 633.734C8.05273 635.354 6.722 636.106 5.33341 636.106L4.98626 636.106L4.98626 631.998C3.71338 632.056 3.01909 632.692 3.01909 633.792C3.01909 634.544 3.36624 635.007 4.06053 635.238L4.06053 636.106C2.78766 635.817 2.20908 634.833 2.20908 633.792ZM5.6227 632.056L5.6227 635.238C6.60629 635.238 7.30058 634.717 7.30058 633.734C7.30058 632.866 6.722 632.172 5.6227 632.056Z"
    fill="white" fill-opacity="0.5" />
  <path
    d="M4.98689 639.288L4.2926 638.594L2.38328 638.594L2.38328 637.668L10.4834 637.668L10.4834 638.594L5.27618 638.594L7.93765 641.313L7.93765 642.412L5.56547 639.982L2.38328 642.528L2.38328 641.429L4.98689 639.288Z"
    fill="white" fill-opacity="0.5" />
  <path
    d="M2.38229 649.703L9.26739 647.157L2.38229 647.157L2.38229 646.231L10.251 646.231L10.251 647.678L3.59731 650.108L10.251 652.538L10.251 653.926L2.38229 653.926L2.38229 653.001L9.26739 653.001L2.38229 650.455L2.38229 649.703V649.703Z"
    fill="white" fill-opacity="0.5" />
  <path
    d="M2.20908 658.266C2.20908 656.703 3.30838 655.604 5.10198 655.604C6.89558 655.604 8.05273 656.761 8.05273 658.208C8.05273 659.828 6.722 660.58 5.33341 660.58L4.98626 660.58L4.98626 656.472C3.71338 656.53 3.01909 657.166 3.01909 658.266C3.01909 659.018 3.36624 659.481 4.06053 659.712L4.06053 660.58C2.78766 660.291 2.20908 659.365 2.20908 658.266ZM5.6227 656.53L5.6227 659.712C6.60629 659.712 7.30058 659.191 7.30058 658.208C7.30058 657.34 6.722 656.645 5.6227 656.53Z"
    fill="white" fill-opacity="0.5" />
  <path
    d="M8.05273 668.333C8.05273 669.606 7.24272 670.242 5.96985 670.242L2.38265 670.242L2.38265 669.316L5.73842 669.316C6.77986 669.316 7.30058 668.911 7.30058 668.101C7.30058 667.291 6.722 666.655 5.44913 666.655L2.38265 666.655L2.38265 665.729L5.73842 665.729C6.77986 665.729 7.30058 665.382 7.30058 664.514C7.30058 663.704 6.722 663.068 5.44913 663.068L2.38265 663.068L2.38265 662.142L7.93702 662.142L7.93702 663.01L6.89558 663.01C7.58987 663.299 8.05273 663.936 8.05273 664.746C8.05273 665.671 7.58987 666.192 6.83772 666.424C7.58987 666.829 8.05273 667.523 8.05273 668.333Z"
    fill="white" fill-opacity="0.5" />
  <path
    d="M2.20932 674.35C2.20932 672.846 3.30862 671.689 5.10222 671.689C6.89582 671.689 7.99512 672.788 7.99512 674.35C7.99512 675.912 6.89582 677.011 5.10222 677.011C3.36648 676.954 2.20932 675.912 2.20932 674.35ZM2.96147 674.35C2.96147 675.449 3.77149 676.086 5.10222 676.086C6.43295 676.086 7.30082 675.449 7.30082 674.35C7.30082 673.251 6.43295 672.614 5.10222 672.614C3.77149 672.614 2.96147 673.251 2.96147 674.35Z"
    fill="white" fill-opacity="0.5" />
  <path
    d="M7.12701 681.64C7.18487 681.467 7.18486 681.293 7.18486 681.119C7.18486 680.252 6.49057 679.442 5.10198 679.442L2.38265 679.442L2.38265 678.516L7.93702 678.516L7.93702 679.384L6.60629 679.384C7.53201 679.615 8.05273 680.309 8.05273 681.119C8.05273 681.235 8.05274 681.409 7.99488 681.524L7.12701 681.524L7.12701 681.64Z"
    fill="white" fill-opacity="0.5" />
  <path
    d="M10.1934 682.739L10.1934 683.781L9.09406 683.781L9.09406 682.739L10.1934 682.739ZM7.87904 682.797L7.87904 683.723L2.32468 683.723L2.32468 682.797L7.87904 682.797Z"
    fill="white" fill-opacity="0.5" />
  <path
    d="M3.30862 688.93C2.67218 688.699 2.26718 687.947 2.26718 687.021C2.26718 686.037 2.84576 685.227 3.82934 685.227C4.92864 685.227 5.33365 686.037 5.50722 687.137L5.73866 688.93L6.02795 688.93C6.89581 688.93 7.30082 688.41 7.30082 687.657C7.30082 686.905 6.89582 686.442 6.25938 686.384L6.25938 685.517C7.35868 685.632 7.99512 686.5 7.99512 687.715C7.99512 689.046 7.35868 689.914 6.02795 689.914L3.48219 689.914C3.07719 689.914 2.67218 689.914 2.32503 690.03L2.32503 689.104C2.67218 688.988 3.01933 688.93 3.30862 688.93ZM4.52364 688.93L5.04436 688.93L4.87079 687.426C4.75507 686.732 4.58149 686.153 3.82934 686.153C3.30862 686.153 2.90361 686.5 2.90361 687.194C2.90361 688.062 3.4822 688.93 4.52364 688.93Z"
    fill="white" fill-opacity="0.5" />
  <path d="M2.38328 691.765L10.4834 691.765L10.4834 692.691L2.38328 692.691L2.38328 691.765Z" fill="white"
    fill-opacity="0.5" />
  <path
    d="M5.50662 698.014L2.32443 698.014L2.32443 697.088L10.251 697.088L10.251 699.981C10.251 701.717 9.44096 702.758 7.8788 702.758C6.31663 702.758 5.50662 701.717 5.50662 699.981L5.50662 698.014V698.014ZM6.31663 699.923C6.31663 701.138 6.83735 701.775 7.8788 701.775C8.9781 701.775 9.44096 701.138 9.44096 699.923L9.44096 698.014L6.31663 698.014L6.31663 699.923Z"
    fill="white" fill-opacity="0.5" />
  <path
    d="M3.30862 707.387C2.67218 707.155 2.26718 706.403 2.26718 705.478C2.26718 704.494 2.84576 703.684 3.82934 703.684C4.92864 703.684 5.33365 704.494 5.50722 705.593L5.73866 707.387L6.02795 707.387C6.89581 707.387 7.30082 706.866 7.30082 706.114C7.30082 705.362 6.89582 704.899 6.25938 704.841L6.25938 703.973C7.35868 704.089 7.99512 704.957 7.99512 706.114C7.99512 707.445 7.35868 708.313 6.02795 708.313L3.48219 708.313C3.07719 708.313 2.67218 708.313 2.32503 708.428L2.32503 707.503C2.67218 707.387 3.01933 707.387 3.30862 707.387ZM4.52364 707.329L5.04436 707.329L4.87079 705.825C4.75507 705.13 4.58149 704.552 3.82934 704.552C3.30862 704.552 2.90361 704.899 2.90361 705.593C2.90361 706.461 3.4822 707.329 4.52364 707.329Z"
    fill="white" fill-opacity="0.5" />
  <path
    d="M7.12701 713.231C7.18487 713.115 7.18486 712.883 7.18486 712.768C7.18486 711.9 6.49057 711.09 5.10198 711.09L2.38265 711.09L2.38265 710.164L7.93702 710.164L7.93702 711.032L6.60629 711.032C7.53201 711.263 8.05273 711.958 8.05273 712.768C8.05273 712.883 8.05274 713.057 7.99488 713.173L7.12701 713.173L7.12701 713.231Z"
    fill="white" fill-opacity="0.5" />
  <path
    d="M4.98689 716.008L4.2926 715.313L2.38328 715.313L2.38328 714.388L10.4834 714.388L10.4834 715.313L5.27618 715.313L7.93765 718.033L7.93765 719.132L5.56547 716.702L2.38328 719.248L2.38328 718.149L4.98689 716.008Z"
    fill="white" fill-opacity="0.5" />
  <path
    d="M36.0466 277.225L36.0466 269.645L31.6491 267.909L31.6491 266L47.4453 272.423L47.4453 274.563L31.6491 280.986L31.6491 279.019L36.0466 277.225ZM37.6089 270.282L37.6089 276.589L45.5359 273.464L45.5359 273.406L37.6089 270.282Z"
    fill="white" fill-opacity="0.5" />
  <path
    d="M47.4453 289.897L47.4453 291.864L33.5586 297.361L33.5586 297.419L47.4453 302.916L47.4453 304.883L31.6491 298.46L31.6491 296.262L47.4453 289.897Z"
    fill="white" fill-opacity="0.5" />
  <path d="M47.4453 308.933L47.4453 310.843L31.6491 310.843L31.6491 308.933L47.4453 308.933Z" fill="white"
    fill-opacity="0.5" />
  <path
    d="M36.279 317.497C33.7331 317.728 32.8652 319.811 32.8652 322.183C32.8652 324.44 33.9646 326.118 35.874 326.118C37.2048 326.118 38.0727 325.366 38.4778 323.225L39.0564 320.216C39.4614 318.075 40.445 316.166 43.1645 316.166C45.7683 316.166 47.6777 318.422 47.6777 321.663C47.6777 325.076 46.2312 327.275 43.3381 327.622L43.3381 325.771C45.1318 325.481 46.1155 323.977 46.1155 321.72C46.1155 319.406 44.8425 318.017 43.1645 318.017C41.6023 318.017 41.0237 318.885 40.6765 320.853L40.04 323.977C39.5771 326.407 38.4199 327.969 35.9319 327.969C33.2124 327.969 31.3029 325.597 31.3029 322.241C31.3029 318.827 32.8073 315.934 36.2212 315.703L36.2212 317.497L36.279 317.497Z"
    fill="white" fill-opacity="0.5" />
  <path d="M47.4453 332.83L47.4453 334.74L31.6491 334.74L31.6491 332.83L47.4453 332.83Z" fill="white"
    fill-opacity="0.5" />
  <path
    d="M31.3608 346.833C31.3608 342.435 34.7746 339.658 39.5193 339.658C44.2639 339.658 47.6777 342.493 47.6777 346.833C47.6777 351.172 44.2639 354.008 39.5193 354.008C34.7746 354.008 31.3608 351.172 31.3608 346.833ZM46.0576 346.833C46.0576 343.361 43.3381 341.567 39.5193 341.567C35.7004 341.567 32.9809 343.361 32.9809 346.833C32.9809 350.304 35.7004 352.04 39.5193 352.04C43.3381 352.04 46.0576 350.247 46.0576 346.833Z"
    fill="white" fill-opacity="0.5" />
  <path
    d="M34.8315 369.63L47.4453 369.688L47.4453 371.539L31.6491 371.539L31.6491 369.746L45.1309 360.777L45.1309 360.719L31.6491 360.719L31.6491 358.868L47.4453 358.868L47.4453 361.24L34.8315 369.63Z"
    fill="white" fill-opacity="0.5" />
  <path
    d="M18.9785 267.678L18.9785 277.804L17.3584 277.804L17.3584 269.587L11.5722 269.587L11.5722 277.052L9.95212 277.052L9.95212 269.587L3.12448 269.587L3.12448 267.678L18.9785 267.678Z"
    fill="white" fill-opacity="0.5" />
  <path
    d="M2.89206 288.971C2.89206 284.574 6.30588 281.796 11.0505 281.796C15.7952 281.796 19.209 284.632 19.209 288.971C19.209 293.311 15.7952 296.146 11.0505 296.146C6.30588 296.146 2.89206 293.311 2.89206 288.971ZM17.6467 288.971C17.6467 285.5 14.9272 283.706 11.1084 283.706C7.28952 283.706 4.57004 285.5 4.57004 288.971C4.57004 292.443 7.28952 294.179 11.1084 294.179C14.8694 294.179 17.6467 292.385 17.6467 288.971Z"
    fill="white" fill-opacity="0.5" />
  <path
    d="M3.18234 301.006L18.9785 301.006L18.9785 307.082C18.9785 310.611 17.3005 312.636 14.2917 312.636C11.7458 312.636 10.2993 310.843 9.83641 308.991L3.12448 313.331L3.12448 311.19L9.5471 307.082L9.5471 302.858L3.12448 302.858L3.12448 301.006L3.18234 301.006ZM11.1672 306.966C11.1672 309.338 12.2087 310.727 14.2917 310.727C16.259 310.727 17.4163 309.396 17.4163 306.966L17.4163 302.858L11.1672 302.858L11.1672 306.966Z"
    fill="white" fill-opacity="0.5" />
  <path
    d="M17.416 329.069L17.416 323.167L19.0361 323.167L19.0361 336.881L17.416 336.881L17.416 330.979L3.1821 330.979L3.1821 329.069L17.416 329.069Z"
    fill="white" fill-opacity="0.5" />
  <path
    d="M3.18234 341.509L18.9785 341.509L18.9785 347.585C18.9785 351.114 17.3005 353.139 14.2917 353.139C11.7458 353.139 10.2993 351.346 9.83641 349.494L3.12448 353.834L3.12448 351.693L9.5471 347.585L9.5471 343.361L3.12448 343.361L3.12448 341.509L3.18234 341.509ZM11.1672 347.527C11.1672 349.899 12.2087 351.288 14.2917 351.288C16.259 351.288 17.4163 349.957 17.4163 347.527L17.4163 343.419L11.1672 343.419L11.1672 347.527Z"
    fill="white" fill-opacity="0.5" />
  <path
    d="M7.5798 368.01L7.5798 360.43L3.18234 358.694L3.18234 356.785L18.9785 363.208L18.9785 365.348L3.18234 371.771L3.18234 369.804L7.5798 368.01ZM9.14207 361.009L9.14207 367.316L17.0691 364.191L17.0691 364.133L9.14207 361.009Z"
    fill="white" fill-opacity="0.5" />
  <path
    d="M6.36472 386.641L18.9785 386.699L18.9785 388.551L3.18234 388.551L3.18234 386.757L16.6641 377.788L16.6641 377.731L3.18234 377.731L3.18234 375.879L18.9785 375.879L18.9785 378.251L6.36472 386.641Z"
    fill="white" fill-opacity="0.5" />
  <path
    d="M7.86886 395.147C5.32296 395.378 4.45504 397.461 4.45504 399.834C4.45504 402.09 5.55441 403.768 7.46384 403.768C8.79466 403.768 9.66258 403.016 10.0676 400.875L10.6462 397.866C11.0513 395.726 12.0349 393.816 14.7544 393.816C17.3581 393.816 19.2676 396.073 19.2676 399.313C19.2676 402.727 17.821 404.926 14.928 405.273L14.928 403.421C16.7217 403.132 17.7053 401.627 17.7053 399.371C17.7053 397.056 16.4324 395.668 14.7544 395.668C13.1921 395.668 12.6135 396.536 12.2663 398.503L11.6299 401.627C11.167 404.058 10.0098 405.62 7.52171 405.62C4.80222 405.62 2.89279 403.248 2.89279 399.892C2.89279 396.478 4.39719 393.585 7.81102 393.353L7.81102 395.147L7.86886 395.147Z"
    fill="white" fill-opacity="0.5" />
  <path
    d="M18.9785 410.48L18.9785 420.606L17.3584 420.606L17.3584 412.39L11.5722 412.39L11.5722 419.854L9.95212 419.854L9.95212 412.39L3.12448 412.39L3.12448 410.48L18.9785 410.48Z"
    fill="white" fill-opacity="0.5" />
  <path
    d="M2.89206 431.773C2.89206 427.376 6.30588 424.598 11.0505 424.598C15.7952 424.598 19.209 427.434 19.209 431.773C19.209 436.113 15.7952 438.948 11.0505 438.948C6.30588 438.948 2.89206 436.113 2.89206 431.773ZM17.6467 431.773C17.6467 428.301 14.9272 426.508 11.1084 426.508C7.28952 426.508 4.57004 428.301 4.57004 431.773C4.57004 435.245 7.28952 436.981 11.1084 436.981C14.8694 436.981 17.6467 435.187 17.6467 431.773Z"
    fill="white" fill-opacity="0.5" />
  <path
    d="M3.18234 443.751L18.9785 443.751L18.9785 449.826C18.9785 453.356 17.3005 455.381 14.2917 455.381C11.7458 455.381 10.2993 453.587 9.83641 451.735L3.12448 456.075L3.12448 453.934L9.5471 449.826L9.5471 445.602L3.12448 445.602L3.12448 443.751L3.18234 443.751ZM11.1672 449.768C11.1672 452.14 12.2087 453.529 14.2917 453.529C16.259 453.529 17.4163 452.198 17.4163 449.768L17.4163 445.66L11.1672 445.66L11.1672 449.768Z"
    fill="white" fill-opacity="0.5" />
  <path
    d="M3.18234 467.705L17.0691 462.555L17.0691 462.498L3.18234 462.498L3.18234 460.704L18.9785 460.704L18.9785 463.655L5.67038 468.515L5.67038 468.573L18.9785 473.433L18.9785 476.269L3.18234 476.269L3.18234 474.417L17.0691 474.417L17.0691 474.359L3.18234 469.209L3.18234 467.705Z"
    fill="white" fill-opacity="0.5" />
  <path d="M18.9785 482.055L18.9785 483.964L3.18234 483.964L3.18234 482.055L18.9785 482.055Z" fill="white"
    fill-opacity="0.5" />
  <path
    d="M6.36472 500.57L18.9785 500.628L18.9785 502.48L3.18234 502.48L3.18234 500.686L16.6641 491.66L16.6641 491.602L3.18234 491.602L3.18234 489.75L18.9785 489.75L18.9785 492.123L6.36472 500.57Z"
    fill="white" fill-opacity="0.5" />
  <path
    d="M19.2676 514.573C19.2676 518.103 17.3003 520.186 14.4072 520.764L14.4072 518.855C16.3745 518.45 17.6475 517.003 17.6475 514.573C17.6475 511.217 15.0437 509.192 11.1091 509.192C7.17453 509.192 4.5129 511.159 4.5129 514.515C4.5129 517.177 6.13302 519.144 8.73678 519.144L9.54686 519.144L9.54686 515.383L11.0513 515.383L11.0513 520.996L3.1821 520.996L3.1821 519.491L5.84371 519.318C4.16573 518.739 2.95064 516.598 2.95064 514.515C2.95064 510.349 6.19089 507.282 11.167 507.282C16.0852 507.282 19.2676 510.407 19.2676 514.573Z"
    fill="white" fill-opacity="0.5" />
  <path
    d="M47.6772 437.155C47.6772 438.37 46.925 439.122 45.5942 439.122L42.0068 439.122L42.0068 438.196L45.3628 438.196C46.4043 438.196 46.925 437.733 46.925 436.865C46.925 435.997 46.4043 435.361 45.0735 435.361L42.0068 435.361L42.0068 434.435L50.1074 434.435L50.1074 435.361L46.52 435.361C47.2144 435.65 47.6772 436.344 47.6772 437.155Z"
    fill="white" fill-opacity="0.5" />
  <path
    d="M42.0639 443.635C41.9482 443.23 41.8904 442.883 41.8904 442.651C41.8904 441.668 42.3533 441.147 43.3948 441.147L46.8086 441.147L46.8086 440.337L47.5029 440.337L47.5029 441.147L48.8916 441.147L48.8916 442.073L47.5029 442.073L47.5029 443.519L46.8086 443.519L46.8086 442.073L43.4526 442.073C42.874 442.073 42.7004 442.362 42.7004 442.883C42.7004 443.114 42.7004 443.346 42.8161 443.693L42.0639 443.693L42.0639 443.635Z"
    fill="white" fill-opacity="0.5" />
  <path
    d="M42.0639 447.685C41.9482 447.28 41.8904 446.933 41.8904 446.702C41.8904 445.718 42.3533 445.197 43.3948 445.197L46.8086 445.197L46.8086 444.387L47.5029 444.387L47.5029 445.197L48.8916 445.197L48.8916 446.123L47.5029 446.123L47.5029 447.569L46.8086 447.569L46.8086 446.123L43.4526 446.123C42.874 446.123 42.7004 446.412 42.7004 446.933C42.7004 447.164 42.7004 447.396 42.8161 447.743L42.0639 447.743L42.0639 447.685Z"
    fill="white" fill-opacity="0.5" />
  <path
    d="M40.04 450.058L40.04 449.132L47.5041 449.132L47.5041 450L46.5205 450C47.0991 450.231 47.6777 450.926 47.6777 451.851C47.6777 453.24 46.5205 454.339 44.7847 454.339C43.0488 454.339 41.8916 453.298 41.8916 451.851C41.8916 450.926 42.4123 450.289 42.991 450L40.04 450L40.04 450.058ZM44.6689 450C43.396 450 42.5859 450.636 42.5859 451.678C42.5859 452.777 43.4538 453.414 44.7847 453.414C46.0576 453.414 46.9834 452.777 46.9834 451.678C46.9834 450.578 46.1155 450 44.9004 450L44.6689 450Z"
    fill="white" fill-opacity="0.5" />
  <path
    d="M43.6277 456.307C42.8755 456.365 42.5283 457.059 42.5283 457.811C42.5283 458.563 42.8755 459.142 43.4541 459.142C43.8591 459.142 44.1484 458.853 44.2642 458.158L44.4377 457.175C44.6113 456.307 44.9585 455.612 45.9421 455.612C46.8679 455.612 47.6201 456.422 47.6201 457.638C47.6201 458.911 47.0994 459.663 46 459.778L46 458.911C46.5786 458.853 46.8679 458.332 46.8679 457.58C46.8679 456.828 46.5208 456.365 45.9421 456.365C45.4792 456.365 45.2478 456.712 45.1321 457.348L44.9006 458.448C44.727 459.373 44.2642 459.894 43.3962 459.894C42.4126 459.894 41.7182 458.968 41.7182 457.753C41.7182 456.422 42.2969 455.439 43.512 455.323L43.5119 456.307L43.6277 456.307Z"
    fill="white" fill-opacity="0.5" />
  <path
    d="M46.9248 461.63L46.9248 462.845L45.7097 462.845L45.7097 461.63L46.9248 461.63ZM43.2217 461.63L43.2217 462.845L42.0066 462.845L42.0066 461.63L43.2217 461.63Z"
    fill="white" fill-opacity="0.5" />
  <path d="M49.123 467.127L49.123 467.821L42.0061 465.044L42.0061 464.349L49.123 467.127Z" fill="white"
    fill-opacity="0.5" stroke="white" stroke-width="0.1495" />
  <path d="M49.123 469.962L49.123 470.656L42.0061 467.879L42.0061 467.185L49.123 469.962Z" fill="white"
    fill-opacity="0.5" stroke="white" stroke-width="0.1495" />
  <path
    d="M31.6499 437.039C31.5342 436.634 31.4763 436.286 31.4763 436.055C31.4763 435.071 31.9392 434.551 32.9807 434.551L36.3945 434.551L36.3945 433.74L37.0889 433.74L37.0889 434.551L38.4775 434.551L38.4775 435.476L37.0889 435.476L37.0889 436.923L36.3945 436.923L36.3945 435.476L33.0386 435.476C32.4599 435.476 32.2864 435.766 32.2864 436.286C32.2864 436.518 32.2864 436.749 32.4021 437.096L31.6499 437.096L31.6499 437.039Z"
    fill="white" fill-opacity="0.5" />
  <path
    d="M36.3372 441.61C36.395 441.494 36.395 441.263 36.395 441.147C36.395 440.279 35.7007 439.469 34.312 439.469L31.5925 439.469L31.5925 438.543L37.0894 438.543L37.0894 439.411L35.7585 439.411C36.6843 439.642 37.2051 440.337 37.2051 441.147C37.2051 441.263 37.2051 441.436 37.1472 441.552L36.3372 441.552L36.3372 441.61Z"
    fill="white" fill-opacity="0.5" />
  <path
    d="M32.5171 446.007C31.8806 445.776 31.4756 445.024 31.4756 444.098C31.4756 443.114 32.0542 442.304 33.0378 442.304C34.0793 442.304 34.5422 443.114 34.7158 444.214L34.9473 446.007L35.2944 446.007C36.1623 446.007 36.5674 445.487 36.5674 444.734C36.5674 443.982 36.1624 443.519 35.5259 443.461L35.5259 442.593C36.6252 442.709 37.2617 443.577 37.2617 444.734C37.2617 446.065 36.6252 446.933 35.2944 446.933L32.7485 446.933C32.3435 446.933 31.9385 446.933 31.5913 447.049L31.5913 446.123C31.8806 446.065 32.2856 446.007 32.5171 446.007ZM33.79 446.007L34.3108 446.007L34.1372 444.503C34.0215 443.809 33.8479 443.23 33.0957 443.23C32.5749 443.23 32.1699 443.577 32.1699 444.271C32.1699 445.139 32.6907 446.007 33.79 446.007Z"
    fill="white" fill-opacity="0.5" />
  <path
    d="M36.1045 449.71C36.7988 450 37.2617 450.694 37.2617 451.504C37.2617 452.719 36.5095 453.471 35.1787 453.471L31.5913 453.471L31.5913 452.546L34.9473 452.546C35.9888 452.546 36.5095 452.083 36.5095 451.215C36.5095 450.347 35.9888 449.71 34.658 449.71L31.5913 449.71L31.5913 448.785L37.0881 448.785L37.0881 449.652L36.1045 449.652L36.1045 449.71Z"
    fill="white" fill-opacity="0.5" />
  <path
    d="M33.2126 455.786C32.4604 455.844 32.1133 456.538 32.1133 457.29C32.1133 458.042 32.4604 458.621 33.0391 458.621C33.4441 458.621 33.7334 458.332 33.8491 457.637L34.0227 456.654C34.1963 455.786 34.5435 455.091 35.5271 455.091C36.4529 455.091 37.2051 455.901 37.2051 457.117C37.2051 458.39 36.6843 459.142 35.585 459.257L35.585 458.39C36.1636 458.332 36.4529 457.811 36.4529 457.059C36.4529 456.307 36.1057 455.844 35.5271 455.844C35.0642 455.844 34.8328 456.191 34.717 456.827L34.4856 457.927C34.312 458.852 33.8491 459.373 32.9812 459.373C31.9975 459.373 31.3032 458.447 31.3032 457.232C31.3032 455.901 31.8818 454.918 33.0969 454.802L33.0969 455.786L33.2126 455.786Z"
    fill="white" fill-opacity="0.5" />
  <path
    d="M37.2617 463.25C37.2617 464.465 36.5674 465.275 35.4101 465.449L35.4101 464.581C36.1623 464.407 36.5674 464.002 36.5674 463.25C36.5674 462.151 35.6995 461.572 34.4265 461.572C33.1535 461.572 32.2856 462.208 32.2856 463.25C32.2856 464.002 32.6907 464.465 33.4429 464.581L33.4429 465.449C32.2278 465.275 31.5913 464.465 31.5913 463.25C31.5913 461.688 32.6907 460.646 34.4844 460.646C36.1045 460.646 37.2617 461.688 37.2617 463.25Z"
    fill="white" fill-opacity="0.5" />
  <path
    d="M34.1955 468.573L33.5012 467.879L31.5918 467.879L31.5918 466.953L39.6924 466.953L39.6924 467.879L34.4849 467.879L37.1465 470.598L37.1465 471.698L34.832 469.268L31.6496 471.813L31.6496 470.714L34.1955 468.573Z"
    fill="white" fill-opacity="0.5" />
  <path
    d="M33.2126 473.433C32.4604 473.491 32.1133 474.186 32.1133 474.938C32.1133 475.69 32.4604 476.269 33.0391 476.269C33.4441 476.269 33.7334 475.979 33.8491 475.285L34.0227 474.301C34.1963 473.433 34.5435 472.739 35.5271 472.739C36.4529 472.739 37.2051 473.549 37.2051 474.764C37.2051 476.037 36.6843 476.789 35.585 476.905L35.585 476.037C36.1636 475.979 36.4529 475.458 36.4529 474.706C36.4529 473.954 36.1057 473.491 35.5271 473.491C35.0642 473.491 34.8328 473.838 34.717 474.475L34.4856 475.574C34.312 476.5 33.8491 477.021 32.9812 477.021C31.9975 477.021 31.3032 476.095 31.3032 474.88C31.3032 473.549 31.8818 472.565 33.0969 472.45L33.0969 473.433L33.2126 473.433Z"
    fill="white" fill-opacity="0.5" />
  <path
    d="M29.624 479.567L29.624 478.641L37.0881 478.641L37.0881 479.509L36.1045 479.509C36.6831 479.74 37.2617 480.435 37.2617 481.36C37.2617 482.749 36.1045 483.848 34.3686 483.848C32.6328 483.848 31.4756 482.807 31.4756 481.36C31.4756 480.435 31.9963 479.798 32.5749 479.509L29.624 479.509L29.624 479.567ZM34.2529 479.567C32.98 479.567 32.1699 480.203 32.1699 481.245C32.1699 482.344 33.0378 482.98 34.3686 482.98C35.6416 482.98 36.5674 482.344 36.5674 481.245C36.5674 480.145 35.6995 479.567 34.4844 479.567L34.2529 479.567Z"
    fill="white" fill-opacity="0.5" />
  <path
    d="M32.5171 488.709C31.8806 488.478 31.4756 487.725 31.4756 486.8C31.4756 485.816 32.0542 485.006 33.0378 485.006C34.0793 485.006 34.5422 485.816 34.7158 486.915L34.9473 488.709L35.2944 488.709C36.1623 488.709 36.5674 488.188 36.5674 487.436C36.5674 486.684 36.1624 486.221 35.5259 486.163L35.5259 485.295C36.6252 485.411 37.2617 486.279 37.2617 487.436C37.2617 488.767 36.6252 489.635 35.2944 489.635L32.7485 489.635C32.3435 489.635 31.9385 489.635 31.5913 489.75L31.5913 488.825C31.8806 488.767 32.2856 488.709 32.5171 488.709ZM33.79 488.709L34.3108 488.709L34.1372 487.205C34.0215 486.51 33.8479 485.932 33.0957 485.932C32.5749 485.932 32.1699 486.279 32.1699 486.973C32.1699 487.841 32.6907 488.709 33.79 488.709Z"
    fill="white" fill-opacity="0.5" />
  <path
    d="M36.3372 494.553C36.395 494.437 36.395 494.206 36.395 494.09C36.395 493.222 35.7007 492.412 34.312 492.412L31.5925 492.412L31.5925 491.486L37.0894 491.486L37.0894 492.354L35.7585 492.354C36.6843 492.586 37.2051 493.28 37.2051 494.09C37.2051 494.206 37.2051 494.38 37.1472 494.495L36.3372 494.495L36.3372 494.553Z"
    fill="white" fill-opacity="0.5" />
  <path
    d="M34.1955 497.331L33.5012 496.636L31.5918 496.636L31.5918 495.71L39.6924 495.71L39.6924 496.636L34.4849 496.636L37.1465 499.356L37.1465 500.455L34.832 498.025L31.6496 500.571L31.6496 499.471L34.1955 497.331Z"
    fill="white" fill-opacity="0.5" />
  <path d="M32.8057 501.959L32.8057 503.174L31.5906 503.174L31.5906 501.959L32.8057 501.959Z" fill="white"
    fill-opacity="0.5" />
  <path
    d="M31.6499 507.63C31.5342 507.225 31.4763 506.878 31.4763 506.646C31.4763 505.662 31.9392 505.142 32.9807 505.142L36.3945 505.142L36.3945 504.332L37.0889 504.332L37.0889 505.142L38.4775 505.142L38.4775 506.067L37.0889 506.067L37.0889 507.514L36.3945 507.514L36.3945 506.067L33.0386 506.067C32.4599 506.067 32.2864 506.357 32.2864 506.878C32.2864 507.109 32.2864 507.34 32.4021 507.688L31.6499 507.688L31.6499 507.63Z"
    fill="white" fill-opacity="0.5" />
  <path
    d="M32.5766 514.052L37.0898 515.325L37.0898 516.193L31.593 514.515L31.593 513.589L36.0483 512.316L36.0483 512.259L31.593 510.986L31.593 510.002L37.0898 508.324L37.0898 509.25L32.5766 510.523L32.5766 510.581L37.0898 511.796L37.0898 512.721L32.5766 514.052Z"
    fill="white" fill-opacity="0.5" />
  <path
    d="M39.1133 379.061C39.229 379.061 39.3447 379.177 39.3447 379.293L39.3447 428.186C39.3447 428.301 39.229 428.417 39.1133 428.417C38.9976 428.417 38.8818 428.301 38.8818 428.186L38.8818 379.293C38.8818 379.119 38.9976 379.061 39.1133 379.061Z"
    fill="white" fill-opacity="0.5" />
  <path
    d="M43.0488 408.686C43.1646 408.686 43.2803 408.802 43.2803 408.918C43.2803 414.704 42.3545 416.208 41.3708 417.886C40.3872 419.564 39.3457 421.3 39.3457 428.128C39.3457 428.244 39.23 428.359 39.1142 428.359C38.9985 428.359 38.8828 428.244 38.8828 428.128C38.8828 421.127 39.9822 419.391 40.9658 417.655C41.8916 416.093 42.8174 414.588 42.8174 408.918C42.8752 408.802 42.9331 408.686 43.0488 408.686Z"
    fill="white" fill-opacity="0.5" />
  <path
    d="M35.1787 408.686C35.2944 408.686 35.4101 408.802 35.4101 408.918C35.4101 414.588 36.3359 416.035 37.2617 417.655C38.3032 419.391 39.3447 421.185 39.3447 428.128C39.3447 428.244 39.229 428.359 39.1133 428.359C38.9976 428.359 38.8818 428.244 38.8818 428.128C38.8818 421.3 37.8403 419.564 36.8567 417.886C35.873 416.266 34.9473 414.704 34.9473 408.918C34.9473 408.802 35.063 408.686 35.1787 408.686Z"
    fill="white" fill-opacity="0.5" />
  <path
    d="M38.5242 0.115967V2.14112H42.4009V6.88577H41.5908V6.24927H38.4663V10.2417H37.7141V6.24927H34.7632V7.0015H33.9531V2.14112H37.7141V0.115967H38.5242ZM34.7632 2.89331V5.55496H37.7141V2.89331H34.7632ZM38.5242 2.89331V5.55496H41.6487V2.89331H38.5242Z"
    fill="white" fill-opacity="0.5" />
  <path
    d="M42.805 14.4653V15.1597H38.5811V18.342H42.1685V19.0364H38.5811V22.7395H43.1521V23.4338H33.2578V22.7395H34.8201V17.3005H35.5723V22.7395H37.8867V15.1018H33.7786V14.4075H42.805V14.4653Z"
    fill="white" fill-opacity="0.5" />
  <path
    d="M34.3008 34.196C34.1851 34.8903 34.0693 35.9897 33.6643 36.9733C33.4329 36.9154 33.2014 36.8576 32.9121 36.7418C33.2014 36.0475 33.375 35.2953 33.5486 34.0224L34.3008 34.196ZM37.0781 33.2702L36.9624 32.9809C36.4995 33.0387 36.0366 33.0966 35.6316 33.1544V37.6677H34.8794V33.2123C34.3008 33.2702 33.7222 33.328 33.3171 33.3859L33.2014 32.6337H34.0693C34.3586 32.1708 34.648 31.7079 34.8215 31.3607C33.8379 30.6085 33.7222 30.5507 33.0857 30.1457L33.4907 29.567L34.0115 29.8564C34.3587 29.1042 34.7637 28.2362 34.9951 27.6576L35.6895 28.0048C35.4002 28.757 34.8215 29.7985 34.5901 30.2035L35.2844 30.7243C35.5737 30.2614 35.7473 30.0299 35.863 29.7985C35.9788 29.567 36.0945 29.3934 36.3838 28.8148L37.0781 29.2199C36.731 29.7406 35.2266 32.1129 34.8794 32.5758C35.5159 32.518 36.1524 32.4601 36.6731 32.4022C36.4995 32.1129 36.3838 31.7658 36.1524 31.4186L36.7888 31.1293C37.0781 31.7079 37.4832 32.4023 37.7146 33.0387L37.0781 33.2702ZM36.9624 34.0802C37.0781 34.7167 37.2517 35.4111 37.4832 36.1054C37.2517 36.1632 37.0203 36.2211 36.7888 36.279C36.5574 35.6425 36.3838 34.8324 36.2681 34.196L36.9624 34.0802ZM42.5171 28.2362V32.6915H41.7649V32.3444H39.1033V36.279C39.1033 36.684 39.3347 36.684 39.5083 36.684H41.1863C41.7649 36.684 42.0542 36.684 42.1699 36.5683C42.2857 36.4525 42.3435 36.1632 42.4593 35.5846C42.6907 35.7003 42.98 35.8161 43.2115 35.8739C43.1536 36.3947 42.9221 37.1469 42.4593 37.3205C42.2857 37.3783 41.9964 37.3783 41.5913 37.3783H40.0291C38.8718 37.3783 38.4089 37.3783 38.4089 36.5104V31.65H41.8228V28.9884H37.8882V28.2941H42.5171V28.2362Z"
    fill="white" fill-opacity="0.5" />
  <path
    d="M38.6387 41.4287L38.4651 41.6023C39.8538 43.0488 40.8953 43.5696 41.8211 44.0325C42.1682 44.1482 42.6311 44.3218 43.2676 44.4954C43.0362 44.7268 42.8626 45.074 42.7468 45.3054C42.1104 45.074 41.1846 44.7268 40.1431 44.0903V44.7268H35.5142V44.2639C34.8198 44.7268 34.1255 45.1318 33.3733 45.479C33.2576 45.2476 33.084 44.9582 32.8525 44.7268C34.2991 44.1482 35.3984 43.3381 35.7456 43.1067C36.7293 42.4123 37.1921 41.8337 37.7129 41.1394L38.6387 41.4287ZM35.1091 48.7192C34.762 49.5872 34.4148 50.2815 34.0098 50.918L33.2576 50.5129C33.7205 49.7607 34.0098 49.1821 34.2991 48.3721L35.1091 48.7192ZM40.8953 45.479L41.4739 45.9419C41.416 46.0576 40.7217 47.9092 40.4903 48.4299L39.7381 48.0828C39.9695 47.6199 40.2009 46.9834 40.4903 46.2312H34.3569V45.5369H40.8374L40.8953 45.479ZM36.6135 48.0828V50.1079C36.6135 50.4551 36.7293 50.5129 37.1921 50.5129H39.7959C39.9116 50.5129 39.9695 50.513 40.0852 50.2815C40.2009 50.1079 40.2588 49.8765 40.3745 49.4136C40.606 49.5872 40.8953 49.7608 41.1846 49.8186C40.8374 50.918 40.5481 51.0916 40.3167 51.2073C40.0852 51.2651 39.6223 51.2652 39.2752 51.2652H37.5393C36.9607 51.2652 36.5557 51.2651 36.3242 51.2073C35.8613 51.1494 35.8613 50.6865 35.8613 50.4551V48.1406H36.6135V48.0828ZM40.1431 43.9746C39.2173 43.3381 38.5808 42.8174 38.0601 42.1809C37.5393 42.7595 36.7871 43.4538 35.9771 43.9746H40.1431ZM37.8865 47.4463C38.2337 47.7356 38.7544 48.2564 39.1594 48.6614L38.5808 49.24C38.1758 48.7771 37.8286 48.4299 37.3657 48.0249L37.8865 47.4463ZM41.6475 48.1985C42.1682 48.7192 42.8047 49.5293 43.2097 50.1079L42.5154 50.6287C42.0525 49.9343 41.5318 49.2979 40.9531 48.6614L41.6475 48.1985Z"
    fill="white" fill-opacity="0.5" />
  <path
    d="M40.8963 58.6716V61.3911H38.6975V62.2012H41.9956V62.9534H38.6975V64.0527H43.1529V64.805H33.3164V64.0527H37.8875V62.9534H34.4158V62.2012H37.8875V61.3911H35.573V58.6716H40.8963ZM38.6397 57.1094H39.739C40.1441 56.5308 40.6648 55.605 40.7805 55.3735L41.5327 55.8364C41.1856 56.2993 40.8963 56.7622 40.6648 57.1094H42.7478V59.366H41.9378V57.8037H34.3001V59.366H33.49V57.1094H35.7466C35.4573 56.7043 35.168 56.2414 34.8208 55.8364L35.3994 55.3735C35.8623 55.8943 35.9202 56.01 36.4409 56.7622L35.9202 57.1094H37.7717V55.0264H38.5818V57.1094H38.6397ZM36.3252 59.366V60.6967H40.0862V59.366H36.3252Z"
    fill="white" fill-opacity="0.5" />
  <path
    d="M42.6326 69.2603V79.0389H41.8225V78.4602H34.4163V79.0967H33.6641V69.2603H42.6326ZM34.4741 69.9546V77.6502H41.8804V69.9546H34.4741ZM40.781 74.6992L41.3018 75.2779C40.9546 75.5672 40.5496 75.8565 40.2603 76.0879C40.6074 76.3194 41.0703 76.4929 41.4175 76.6086C41.186 76.7822 41.0125 77.0716 40.8967 77.303C39.7395 76.7244 39.1609 76.3772 38.4666 75.625V77.3609H37.7144V75.5672C36.6729 76.3772 36.0364 76.6665 35.2842 77.0137C35.1685 76.7823 34.9949 76.5508 34.7634 76.3772C35.6892 76.0879 36.4993 75.625 37.2515 74.9886H35.7471V73.1949H40.376V74.9886H38.7559C39.0452 75.2779 39.3345 75.5671 39.6238 75.7407L40.781 74.6992ZM38.4666 70.2439V70.8225H40.6653V71.5169H38.4666V71.9797H41.4754V72.6741H34.937V71.9797H37.7144V71.5169H35.6892V70.8225H37.6565V70.2439H38.4666ZM36.4993 73.7156V74.3521H39.6238V73.7156H36.4993Z"
    fill="white" fill-opacity="0.5" />
  <path
    d="M43.0359 83.1469V83.8412H34.5881V91.4211H43.0359V92.1154H34.5881V92.6361H33.8359V83.1469H43.0359ZM38.407 87.8915V90.4374H35.5139V87.8915H38.407ZM36.2083 88.4701V89.9166H37.7705V88.4701H36.2083ZM41.1843 84.6512V87.0235H36.6133V84.6512H41.1843ZM37.3076 85.2298V86.4449H40.5479V85.2298H37.3076ZM42.5152 87.8915V90.4374H39.5642V87.8915H42.5152ZM40.2007 88.528V89.9745H41.763V88.528H40.2007Z"
    fill="white" fill-opacity="0.5" />
  <path
    d="M36.3257 151.829V153.044H38.4087V153.738H37.7722L37.2515 155.532H38.698V156.226H36.3257V157.499H38.3508V158.193H36.3257V158.772C36.8464 159.177 37.4251 159.524 38.0615 159.756C37.9458 159.929 37.7722 160.219 37.7144 160.45C37.2515 160.219 36.7886 159.929 36.3257 159.64V162.128H35.5735V159.119C35.1685 159.698 34.6477 160.276 33.6062 161.26C33.4905 161.029 33.3169 160.797 33.0854 160.681C33.7219 160.219 34.3584 159.698 35.342 158.251H33.259V157.557H35.5156V156.284H32.9697V155.59H34.6477C34.4741 155.127 34.3005 154.432 34.0691 153.796H33.3748V153.102H35.6313V151.887H36.3257V151.829ZM34.8792 153.738C35.0527 154.375 35.2842 155.011 35.3999 155.532H36.4414C36.6729 155.011 36.8464 154.317 36.9622 153.738H34.8792ZM39.9131 155.474H43.3269V156.168H42.1697V162.07H41.4175V156.168H39.9131C39.8552 158.83 39.8552 160.45 38.1773 162.07C38.0615 161.897 37.888 161.723 37.5986 161.492C39.0452 160.161 39.2188 159.003 39.2188 156.342V152.812L39.9131 152.986C40.8389 152.754 42.054 152.349 42.8062 152.002L43.2691 152.639C42.1697 153.044 40.4917 153.564 39.9131 153.738V155.474Z"
    fill="white" fill-opacity="0.5" />
  <path
    d="M38.4075 166.062V166.815H36.9031C36.8452 167.22 36.7874 167.682 36.7295 168.088H38.2918V171.849H36.9609V174.742C36.9609 175.494 36.7874 175.609 35.5144 175.725C35.5144 175.494 35.4565 175.204 35.3408 174.915H36.093C36.2087 174.915 36.2666 174.857 36.2666 174.742V171.791H34.9358V168.03H36.093C36.1509 167.682 36.2087 167.22 36.2666 166.757H34.2993C34.2993 169.65 34.2993 170.402 34.2993 171.096C34.2415 173.411 33.8364 174.51 33.3735 175.436C33.2 175.204 33.0264 174.915 32.7949 174.799C33.605 173.121 33.605 172.716 33.605 166.062H38.4075V166.062ZM35.8037 172.659C35.5144 173.526 35.1672 174.105 34.7044 174.857C34.5308 174.684 34.3572 174.568 34.1257 174.51C34.5886 173.816 34.8779 173.295 35.1672 172.369L35.8037 172.659ZM35.688 168.666V169.592H37.5974V168.666H35.688ZM35.688 170.171V171.27H37.5974V170.171H35.688ZM37.9446 172.369C38.4075 173.237 38.6968 173.526 38.9282 173.758C38.6968 173.874 38.5232 173.989 38.3496 174.105C38.0603 173.7 37.8289 173.411 37.4238 172.659L37.9446 172.369ZM40.4905 174.394C39.5647 175.147 39.044 175.494 38.2339 175.899C38.1182 175.667 37.9446 175.494 37.771 175.262C38.9282 174.799 39.6226 174.221 39.9697 173.874L40.4905 174.394ZM43.2679 166.062V166.815H41.3006C41.2427 167.22 41.1848 167.682 41.0691 168.088H42.805V173.642H39.1018V168.088H40.4326C40.4905 167.682 40.6062 167.22 40.6062 166.815H38.7547V166.062H43.2679ZM39.854 168.724V169.765H42.1106V168.724H39.854ZM39.854 170.344V171.328H42.1106V170.344H39.854ZM39.854 171.906V172.948H42.1106V171.906H39.854ZM41.8213 173.874C42.5157 174.568 43.0364 174.915 43.5572 175.204C43.3257 175.436 43.1521 175.61 42.9785 175.899C42.1685 175.32 41.8213 175.031 41.2427 174.394L41.8213 173.874Z"
    fill="white" fill-opacity="0.5" />
  <path
    d="M41.8794 179.66V182.726H38.5813V183.479H43.2102V184.173H33.2002V183.479H37.8291V182.726H34.531V179.66H41.8794ZM36.5562 187.992C35.3411 188.802 34.3574 189.207 33.721 189.38C33.6052 189.149 33.4895 188.975 33.2581 188.744C34.3574 188.397 34.9939 188.05 36.0354 187.413L36.5562 187.992ZM41.7058 184.752V186.95H38.5813V188.513C38.5813 189.265 38.3499 189.323 36.9612 189.496C36.9612 189.265 36.8455 188.975 36.6719 188.686H37.6555C37.7712 188.686 37.8291 188.628 37.8291 188.513V186.95H34.8203V184.752H41.7058ZM35.3411 180.296V180.875H41.0694V180.296H35.3411ZM35.3411 181.453V182.09H41.0694V181.453H35.3411ZM35.5147 185.446V186.314H40.9536V185.446H35.5147ZM39.97 187.355C41.1851 188.108 41.8794 188.339 42.9788 188.744C42.8052 188.975 42.6316 189.207 42.5159 189.438C41.5323 189.091 40.375 188.513 39.565 187.992L39.97 187.355Z"
    fill="white" fill-opacity="0.5" />
  <path
    d="M35.1687 193.142V195.514H36.2102V196.208H35.1687V197.423C35.5159 197.771 35.863 198.06 36.1524 198.291C36.0366 198.465 35.9209 198.696 35.8052 198.986C35.5737 198.754 35.3423 198.581 35.1687 198.349V203.383H34.4165V198.465C34.1272 199.101 33.78 199.796 33.375 200.432C33.2593 200.143 33.0857 199.854 32.9121 199.622C33.8958 198.176 34.2429 197.018 34.4165 196.208H33.2593V195.514H34.4165V193.142H35.1687ZM38.9876 193.605V198.581H37.1939V201.127L38.4089 200.721C38.2932 200.374 38.0618 199.911 37.8882 199.449L38.5247 199.159C38.814 199.796 39.1033 200.606 39.3926 201.3L38.7561 201.589L38.6404 201.3C37.7725 201.647 36.9046 201.994 35.9788 202.342L35.7473 201.589L36.4995 201.358V193.547H38.9876V193.605ZM37.1939 194.299V195.745H38.2932V194.299H37.1939ZM37.1939 196.44V197.886H38.2932V196.44H37.1939ZM43.0957 193.605V194.299H42.3435C42.2857 196.093 42.2278 196.787 41.9964 197.886H43.3272V198.581H41.8228C41.7649 198.812 41.7071 198.986 41.6492 199.217H41.8228V202.168C41.8228 202.284 41.8228 202.399 41.9964 202.399C42.4014 202.399 42.4593 202.399 42.5171 202.284C42.6328 202.168 42.6907 201.589 42.6907 201.416C42.9221 201.532 43.1536 201.589 43.4429 201.647C43.2114 202.92 43.0957 203.152 42.4593 203.152C42.1699 203.152 41.5913 203.152 41.5335 203.152C41.2442 203.094 41.1284 202.862 41.1284 202.457V200.548C40.492 201.763 39.624 202.747 38.8718 203.325C38.6983 203.094 38.5825 202.862 38.2932 202.689C38.9876 202.168 40.3184 201.184 41.1284 198.638H39.3347V197.944H39.8555V194.357H39.4505V193.662H43.0957V193.605ZM40.5498 194.299V197.886H41.2442C41.4178 197.018 41.5335 196.382 41.5913 194.299H40.5498Z"
    fill="white" fill-opacity="0.5" />
  <path
    d="M38.6387 207.028L38.4651 207.202C39.8538 208.648 40.8953 209.169 41.8211 209.632C42.1682 209.748 42.6311 209.921 43.2676 210.095C43.0362 210.326 42.8626 210.674 42.7468 210.905C42.1104 210.674 41.1846 210.326 40.1431 209.69V210.326H35.5142V209.864C34.8198 210.326 34.1255 210.731 33.3733 211.079C33.2576 210.847 33.084 210.558 32.8525 210.326C34.2991 209.748 35.3984 208.938 35.7456 208.706C36.7293 208.012 37.1921 207.433 37.7129 206.739L38.6387 207.028ZM35.1091 214.319C34.762 215.187 34.4148 215.881 34.0098 216.518L33.2576 216.113C33.7205 215.36 34.0098 214.782 34.2991 213.972L35.1091 214.319ZM40.8953 211.079L41.4739 211.542C41.416 211.657 40.7217 213.509 40.4903 214.03L39.7381 213.682C39.9695 213.219 40.2009 212.583 40.4903 211.831H34.3569V211.136H40.8374L40.8953 211.079ZM36.6135 213.682V215.708C36.6135 216.055 36.7293 216.113 37.1921 216.113H39.7959C39.9116 216.113 39.9695 216.113 40.0852 215.881C40.2009 215.708 40.2588 215.476 40.3745 215.013C40.606 215.187 40.8953 215.36 41.1846 215.418C40.8374 216.518 40.5481 216.691 40.3167 216.807C40.0852 216.865 39.6223 216.865 39.2752 216.865H37.5393C36.9607 216.865 36.5557 216.865 36.3242 216.807C35.8613 216.749 35.8613 216.286 35.8613 216.055V213.74H36.6135V213.682ZM40.1431 209.574C39.2173 208.938 38.5808 208.417 38.0601 207.781C37.5393 208.359 36.7871 209.053 35.9771 209.574H40.1431ZM37.8865 213.046C38.2337 213.335 38.7544 213.856 39.1594 214.261L38.5808 214.84C38.1758 214.377 37.8286 214.03 37.3657 213.625L37.8865 213.046ZM41.6475 213.798C42.1682 214.319 42.8047 215.129 43.2097 215.708L42.5154 216.228C42.0525 215.534 41.5318 214.897 40.9531 214.261L41.6475 213.798Z"
    fill="white" fill-opacity="0.5" />
  <path
    d="M37.366 224.85V227.28H36.6716V229.132C37.0188 228.9 37.5396 228.611 37.8289 228.379L37.9446 229.132C37.6553 229.363 36.4402 230.173 35.8616 230.52L35.4566 229.826L35.8037 229.594V227.338H35.0515C34.9937 229.305 34.415 230.115 33.2578 230.809C33.1421 230.578 32.9685 230.347 32.7949 230.115C33.7207 229.537 34.2993 229.074 34.3572 227.338H33.4314V224.908H37.366V224.85ZM36.0352 220.51V221.494H37.7131V222.13H37.1924C37.0188 222.535 36.9031 223.056 36.7295 223.519H37.8867V224.155H33.2V223.519H34.3572C34.2415 223.056 34.0679 222.535 33.9522 222.13H33.5471V221.494H35.1672V220.51H36.0352ZM34.3572 225.486V226.586H36.6138V225.486H34.3572ZM34.7622 222.188C34.8779 222.651 35.0515 223.114 35.1094 223.577H35.9773C36.093 223.114 36.2666 222.593 36.3823 222.188H34.7622ZM42.6314 224.85V227.28H41.7634V229.652C41.7634 229.942 41.8792 229.942 41.9949 229.942C42.6314 229.942 42.6314 229.942 42.7471 229.074C42.9785 229.189 43.2678 229.305 43.4993 229.305C43.2678 230.636 42.9207 230.636 42.5735 230.636C42.2263 230.636 41.5899 230.636 41.532 230.636C41.2427 230.578 41.0691 230.347 41.0691 229.884V227.338H40.2012C40.1433 229.305 39.5647 230.115 38.176 230.867C38.0603 230.636 37.8867 230.347 37.7131 230.173C39.1018 229.536 39.449 228.842 39.449 227.338H38.8125V224.908H42.6314V224.85ZM41.0691 220.51V221.494H43.0364V222.13H42.3999C42.2263 222.535 42.1106 223.056 41.937 223.519H43.3836V224.155H38.4075V223.519H39.449C39.3333 223.056 39.1597 222.593 39.044 222.13H38.5811V221.494H40.259V220.51H41.0691ZM39.5069 225.486V226.586H41.8792V225.486H39.5069ZM39.7962 222.188C39.9119 222.593 40.0855 223.114 40.2012 223.577H41.1848C41.3006 223.172 41.4741 222.593 41.5899 222.188H39.7962Z"
    fill="white" fill-opacity="0.5" />
  <path
    d="M42.6319 234.918V244.581H41.8797V244.176H34.3577V244.581H33.6055V234.86H42.6319V234.918ZM34.3577 235.612V243.481H41.8797V235.612H34.3577ZM40.5488 236.191V237.869H38.5237V238.447H41.3589V238.968H34.8784V238.447H37.8294V237.869H35.8042V236.191H40.5488ZM40.8382 239.489V242.96H35.5728V239.489H40.8382ZM36.2092 239.952V242.44H40.2017V239.952H36.2092ZM36.4407 236.711V237.406H39.8545V236.711H36.4407ZM39.5073 240.472V241.977H36.8457V240.472H39.5073ZM37.3665 240.877V241.456H38.8709V240.877H37.3665Z"
    fill="white" fill-opacity="0.5" />
  <path d="M48.5908 0V245.101" stroke="white" stroke-opacity="0.5" stroke-width="0.7513" stroke-miterlimit="10" />
  <path d="M27.8203 0V245.101" stroke="white" stroke-opacity="0.5" stroke-width="0.7513" stroke-miterlimit="10" />
  <path
    d="M20.3555 4.22387V3.0088H15.8423L17.231 0.752185L15.7845 0.115723L14.1065 3.0088H2.76562V4.22387H11.0977L10.3455 6.24902H6.12159H5.48511H4.67505V17.3006H5.48511H6.12159H17.0574H17.7517H18.4461V6.24902H17.7517H17.0574H11.792L12.6599 4.22387H20.3555ZM6.12159 10.5308H17.0574V12.4981H6.12159V10.5308V10.5308ZM6.12159 16.0855V13.771H17.0574V16.0855H6.12159ZM17.0574 9.31571H6.12159V7.52198H17.0574V9.31571Z"
    fill="white" fill-opacity="0.5" />
  <path
    d="M6.29566 1.44652C6.29566 1.50438 6.29565 1.50439 6.35351 1.56225H6.41138L7.16358 2.71948V2.77733H7.22143C7.2793 2.71947 7.45289 2.66163 7.74219 2.5459C8.20508 2.2566 8.37867 2.19871 8.43653 2.19871H8.49439L8.37866 2.02514C8.3208 1.90941 8.14722 1.67796 7.91577 1.33079C7.80005 1.15721 7.68433 0.983651 7.56861 0.925789L7.2793 0.520752L7.16358 0.578599L6.12207 1.04148L6.29566 1.44652Z"
    fill="white" fill-opacity="0.5" />
  <path
    d="M11.7935 25.9797C11.4463 26.8477 10.6362 28.9885 8.84254 31.1294H7.8589V28.5256H10.6363V27.3105H7.8589V25.5168H6.58595V27.3105H3.63501V28.5256H6.58595V31.1294H3.17212V32.2866H7.74318C6.47023 33.5596 4.79224 34.7168 2.65137 35.5269L3.11426 36.7998C3.46143 36.6841 4.04004 36.4526 4.73437 36.0476V42.1231H5.83375H6.12306H10.4048H11.7935V41.0237V38.5935V37.552V35.5269V35.469V34.4854H7.33814C8.03248 33.9068 8.78468 33.2124 9.53688 32.3445H13.0086V31.1873H10.4627C11.3884 29.9143 12.3142 28.3521 13.0664 26.3848L11.7935 25.9797ZM10.4048 41.0816H6.12306V38.5935H10.4048V41.0816ZM10.4048 37.552H6.12306V35.5269H10.4048V37.552Z"
    fill="white" fill-opacity="0.5" />
  <path
    d="M20.4163 35.643C20.1848 34.37 19.6062 33.1549 17.9861 31.882L20.3584 26.0958H14.1094V26.9059V27.3109V42.8178H15.498V27.3109H18.449L16.5395 32.2291C19.8376 34.2543 20.3006 37.9574 16.4817 39.809L17.0603 41.0241C18.9697 40.1562 20.8792 38.3625 20.4163 35.643Z"
    fill="white" fill-opacity="0.5" />
  <path
    d="M13.0676 66.7144C10.9846 66.5986 9.53811 66.0779 8.43874 65.3836C12.1997 63.5899 16.9444 58.9031 19.1431 53.8691H11.679V50.9761H10.2324V53.8691H3.98341V55.1421H16.7708C16.1922 56.5307 13.1834 61.2754 7.22364 64.5157C6.47145 63.8213 6.00856 63.127 5.66139 62.8955L3.28906 67.5244L4.44629 68.3345L5.95069 65.4414C8.55446 67.8716 10.406 68.1609 12.8941 68.1609L19.7796 68.2187V66.7144H13.0676V66.7144Z"
    fill="white" fill-opacity="0.5" />
  <path
    d="M2.13281 90.9583L3.57935 91.6526C4.38941 89.6853 5.83595 85.1722 5.83595 82.4527L4.38942 82.3948C4.33155 84.1885 3.23218 88.7596 2.13281 90.9583Z"
    fill="white" fill-opacity="0.5" />
  <path
    d="M9.36499 92.3471V81.1219H9.30714H7.8606H7.80273V93.6779C11.3901 94.2565 13.6467 93.7357 16.1348 93.6779L15.9612 92.2313C12.6052 92.5206 11.1587 92.6364 9.36499 92.3471Z"
    fill="white" fill-opacity="0.5" />
  <path
    d="M16.4832 82.1635L15.1523 82.8578C15.1523 82.9156 19.6655 91.537 19.6655 91.537L20.9964 90.8427L16.4832 82.1635Z"
    fill="white" fill-opacity="0.5" />
  <path d="M13.7642 80.3696L9.25097 76.2036L8.3252 77.303L12.8384 81.5268L13.7642 80.3696Z" fill="white"
    fill-opacity="0.5" />
  <path
    d="M7.45559 162.185L6.12477 162.59V156.573H7.62916V155.242H6.12477V150.497H4.73609V155.242H2.94239V156.573H4.73609V162.995L2.71094 163.574L3.05811 164.905L7.57131 163.516L7.45559 162.185Z"
    fill="white" fill-opacity="0.5" />
  <path
    d="M20.4158 166.583C19.3164 165.426 18.5642 164.268 17.9278 163.053C18.9114 161.375 19.6057 159.234 19.7215 156.399L18.4485 156.226C18.3907 157.325 18.2171 159.408 17.2334 161.491C16.0762 158.54 16.0183 155.763 16.0762 154.374H20.2422V153.159C20.2422 153.159 18.3328 153.159 16.1341 153.159V150.555H14.7454V153.159C11.9102 153.159 9.07496 153.159 9.07496 153.159C9.07496 158.309 9.59571 163.979 6.35547 166.756L7.33911 167.856C8.66993 166.699 10.0007 164.442 10.2901 160.218C10.3479 159.582 10.3479 159.061 10.4058 158.54H12.7781C12.8938 159.987 12.7202 162.822 12.1416 164.037L13.4146 164.326C14.1089 162.012 13.9932 158.945 13.9353 157.383H13.646H13.1831H10.5215C10.5794 155.126 10.4636 154.374 10.4636 154.374H14.8032C14.8032 158.019 15.5554 160.855 16.4234 162.995C15.3819 164.5 13.7617 165.888 11.3315 166.699L12.0259 167.856C13.5882 167.335 15.5555 166.351 17.0598 164.384C17.9856 166.12 18.9114 167.219 19.3743 167.798L20.4158 166.583Z"
    fill="white" fill-opacity="0.5" />
  <path d="M19.8376 152.001L18.2175 150.266L17.3496 150.786L18.9119 152.754L19.8376 152.001Z" fill="white"
    fill-opacity="0.5" />
  <path
    d="M18.2749 179.949H17.6963H12.2573V176.188H10.8687V179.949H5.4297H5.14039H4.04102V188.744H5.14039H5.4297H10.8687V193.373H12.3152V188.744H17.7542H18.3328H19.1429V179.949H18.2749ZM5.4297 187.413V181.164H10.8687V187.413H5.4297ZM12.2573 187.413V181.164H17.6963V187.413H12.2573Z"
    fill="white" fill-opacity="0.5" />
  <path
    d="M20.2981 214.319H18.1572V213.451H17.0579V214.319H10.2881V215.303H17.0579V219.179H18.1572V215.303H20.2981V214.319Z"
    fill="white" fill-opacity="0.5" />
  <path d="M11.7363 216.807L14.5137 218.774L15.1502 217.675L12.3728 215.997L11.7363 216.807Z" fill="white"
    fill-opacity="0.5" />
  <path
    d="M6.93312 201.821H5.77589V203.325H3.11426V204.482H5.77589V206.102H4.44507H3.75073H3.34571V213.046H3.75073H4.44507H5.77589V215.245H2.88281V216.344H5.77589V219.063H6.93312V216.286H9.82619V215.187H6.93312V212.988H8.3218H9.42116V211.946V209.863V208.822V207.26V206.102H8.3218H6.93312V204.482H9.82619V203.325H6.93312V201.821ZM5.77589 207.26V208.822H4.44507V207.26H5.77589ZM4.44507 211.946V209.863H5.77589V211.946H4.44507ZM8.3218 211.946H6.93312V209.863H8.3218V211.946ZM8.3218 207.26V208.822H6.93312V207.26H8.3218Z"
    fill="white" fill-opacity="0.5" />
  <path
    d="M14.6853 205.119H12.1973H11.2715H11.0979L11.1558 210.326H11.3293H12.2551H14.6853V211.889L10.635 212.062L10.6929 213.104L18.7935 212.757L19.2564 213.567L20.24 213.046L18.6778 210.847L17.8098 211.252L18.157 211.831L15.8425 211.889V210.384H18.3884H18.7356H19.4299L19.3721 205.292V205.177H15.7847V203.904H19.8928V202.92H15.7847V201.763H14.6275V202.92H10.5771V203.904H14.6275V205.119H14.6853ZM14.6853 206.045V207.144H12.1973V206.045H14.6853ZM12.1973 209.401V208.07H14.6853V209.401H12.1973ZM15.8425 209.401V208.07H18.3884V209.401H15.8425ZM18.3306 206.045V207.144H15.8425V206.045H18.3306Z"
    fill="white" fill-opacity="0.5" />
  <path
    d="M12.4319 242.787V235.843H18.5074V234.513H12.4319V229.537H19.2596V228.206H3.81055V229.537H10.9854V242.787H7.39796V233.298H5.95142V242.787H3.11621V244.118H20.0117V242.787H12.4319Z"
    fill="white" fill-opacity="0.5" />
</svg>