<svg width="161" height="45" viewBox="0 0 161 45" fill="none" xmlns="http://www.w3.org/2000/svg">
<path d="M3.48123 6.70101C4.676 6.70101 5.19546 6.02571 5.3513 5.24651H6.18244C5.97466 6.54517 5.03962 7.42826 3.48123 7.42826C1.66311 7.42826 0.3125 5.97376 0.3125 3.79201C0.3125 1.55831 1.66311 0.155762 3.48123 0.155762C5.03962 0.155762 5.92271 1.03885 6.18244 2.33751H5.3513C5.19546 1.50637 4.676 0.831065 3.48123 0.831065C2.02673 0.831065 1.19559 1.97389 1.19559 3.74006C1.19559 5.50624 2.02673 6.70101 3.48123 6.70101Z" fill="white" fill-opacity="0.5"/>
<path d="M9.45478 7.42828C8.10417 7.42828 7.11719 6.4413 7.11719 4.83096C7.11719 3.22062 8.10417 2.23364 9.45478 2.23364C10.8054 2.23364 11.7924 3.22062 11.7924 4.83096C11.7924 6.4413 10.8573 7.42828 9.45478 7.42828ZM9.45478 6.75298C10.4418 6.75298 11.0132 6.02573 11.0132 4.83096C11.0132 3.6362 10.4418 2.90895 9.45478 2.90895C8.46779 2.90895 7.89638 3.6362 7.89638 4.83096C7.89638 6.02573 8.51974 6.75298 9.45478 6.75298Z" fill="white" fill-opacity="0.5"/>
<path d="M13.9737 3.22057C14.2335 2.59721 14.8568 2.18164 15.5841 2.18164C16.6749 2.18164 17.3502 2.85694 17.3502 4.05171V7.27239H16.5191V4.2595C16.5191 3.32446 16.1035 2.85694 15.3243 2.85694C14.5451 2.85694 13.9737 3.32446 13.9737 4.51923V7.27239H13.1426V2.33748H13.9218V3.22057H13.9737Z" fill="white" fill-opacity="0.5"/>
<path d="M21.0895 2.23364C22.1804 2.23364 22.9077 2.857 23.0635 3.89593H22.2843C22.1285 3.22062 21.7648 2.857 21.0895 2.857C20.1026 2.857 19.5831 3.6362 19.5831 4.77902C19.5831 5.92184 20.1545 6.70103 21.0895 6.70103C21.7648 6.70103 22.1804 6.33741 22.2843 5.66211H23.0635C22.9077 6.75298 22.1804 7.32439 21.0895 7.32439C19.687 7.32439 18.752 6.33741 18.752 4.72707C18.752 3.22062 19.687 2.23364 21.0895 2.23364Z" fill="white" fill-opacity="0.5"/>
<path d="M26.4403 7.42828C25.0378 7.42828 24.0508 6.4413 24.0508 4.83096C24.0508 3.22062 25.0897 2.23364 26.3884 2.23364C27.8429 2.23364 28.5182 3.42841 28.5182 4.67512V4.9868H24.83C24.8819 6.12962 25.4533 6.75298 26.4403 6.75298C27.1156 6.75298 27.5312 6.4413 27.739 5.81795H28.5182C28.2584 6.85687 27.3754 7.42828 26.4403 7.42828ZM24.8819 4.36345H27.739C27.739 3.48036 27.2715 2.857 26.3884 2.857C25.6092 2.857 24.9858 3.37646 24.8819 4.36345Z" fill="white" fill-opacity="0.5"/>
<path d="M30.7003 9.03857H29.8691V2.33748H30.6483V3.22057C30.8561 2.7011 31.4795 2.18164 32.3106 2.18164C33.5573 2.18164 34.5443 3.22057 34.5443 4.77896C34.5443 6.33735 33.6093 7.37628 32.3106 7.37628C31.4795 7.37628 30.9081 6.90876 30.6483 6.3893V9.03857H30.7003ZM30.7003 4.88285C30.7003 6.02568 31.2717 6.75293 32.2067 6.75293C33.1937 6.75293 33.7651 5.97373 33.7651 4.77896C33.7651 3.63614 33.1937 2.805 32.2067 2.805C31.2197 2.805 30.7003 3.58419 30.7003 4.67507V4.88285Z" fill="white" fill-opacity="0.5"/>
<path d="M38.2852 7.22044C37.9215 7.32434 37.6099 7.37628 37.4021 7.37628C36.519 7.37628 36.0515 6.96071 36.0515 6.02567V2.96084H35.3242V2.33748H36.0515V1.03882H36.8826V2.28553H38.1813V2.90889H36.8826V5.92178C36.8826 6.44125 37.1423 6.59708 37.6099 6.59708C37.8176 6.59708 38.0254 6.59709 38.3371 6.49319V7.22044H38.2852Z" fill="white" fill-opacity="0.5"/>
<path d="M42.8558 7.27256V6.38947C42.5961 7.01282 42.0247 7.4284 41.2974 7.4284C40.1546 7.4284 39.5312 6.75309 39.5312 5.55832V2.33765H40.3624V5.35054C40.3624 6.28557 40.726 6.75309 41.5052 6.75309C42.2325 6.75309 42.8039 6.23363 42.8039 5.03886V2.33765H43.635V7.27256H42.8558Z" fill="white" fill-opacity="0.5"/>
<path d="M48.3617 6.4413C48.1539 7.01271 47.4786 7.37634 46.6475 7.37634C45.7644 7.37634 45.0371 6.85687 45.0371 5.97378C45.0371 5.03875 45.7644 4.62318 46.7513 4.46734L48.3617 4.25955V3.99982C48.3617 3.22062 47.8942 2.857 47.2189 2.857C46.5436 2.857 46.128 3.22062 46.076 3.79204H45.2968C45.4007 2.80505 46.1799 2.23364 47.2189 2.23364C48.4136 2.23364 49.1928 2.80505 49.1928 3.99982V6.23352C49.1928 6.59714 49.1928 6.96077 49.2967 7.27245H48.4656C48.4136 7.01271 48.3617 6.70103 48.3617 6.4413ZM48.3617 5.35043V4.88291L47.0111 5.03875C46.3877 5.14264 45.8683 5.29848 45.8683 5.97378C45.8683 6.4413 46.1799 6.80493 46.8033 6.80493C47.5825 6.75298 48.3617 6.28546 48.3617 5.35043Z" fill="white" fill-opacity="0.5"/>
<path d="M50.8555 7.2725V0H51.6866V7.2725H50.8555Z" fill="white" fill-opacity="0.5"/>
<path d="M61.5567 3.79212C61.5567 5.92193 60.1541 7.32448 58.1282 7.32448H55.6348V0.259766H58.1282C60.1541 0.259766 61.5567 1.66232 61.5567 3.79212ZM56.4659 0.935069V6.54528H58.1282C59.7905 6.54528 60.6736 5.45441 60.6736 3.74018C60.6736 2.02594 59.7385 0.935069 58.1282 0.935069H56.4659Z" fill="white" fill-opacity="0.5"/>
<path d="M64.9325 7.42828C63.5299 7.42828 62.543 6.4413 62.543 4.83096C62.543 3.22062 63.5819 2.23364 64.8806 2.23364C66.3351 2.23364 67.0104 3.42841 67.0104 4.67512V4.9868H63.3741C63.4261 6.12962 63.9975 6.75298 64.9844 6.75298C65.6598 6.75298 66.0753 6.4413 66.2831 5.81795H67.0623C66.7506 6.85687 65.9195 7.42828 64.9325 7.42828ZM63.3741 4.36345H66.2312C66.2312 3.48036 65.7636 2.857 64.8806 2.857C64.1014 2.857 63.5299 3.37646 63.3741 4.36345Z" fill="white" fill-opacity="0.5"/>
<path d="M68.8284 5.81789C68.8803 6.49319 69.5037 6.80487 70.179 6.80487C70.8543 6.80487 71.3738 6.49319 71.3738 5.97373C71.3738 5.6101 71.114 5.35037 70.4907 5.24648L69.6076 5.03869C68.8284 4.88285 68.205 4.57118 68.205 3.68809C68.205 2.85694 68.9323 2.18164 70.0232 2.18164C71.166 2.18164 71.8413 2.64916 71.9452 3.63614H71.166C71.114 3.11668 70.6465 2.85694 69.9712 2.85694C69.2959 2.85694 68.8803 3.16862 68.8803 3.68809C68.8803 4.10366 69.192 4.31144 69.7634 4.41534L70.7504 4.62312C71.5816 4.77896 72.0491 5.19453 72.0491 5.97373C72.0491 6.85682 71.2179 7.48018 70.1271 7.48018C68.9323 7.48018 68.0492 6.96071 67.9453 5.86984H68.8284V5.81789Z" fill="white" fill-opacity="0.5"/>
<path d="M73.5039 0.311768H74.4389V1.29875H73.5039V0.311768ZM73.5559 2.33768H74.387V7.27259H73.5559V2.33768Z" fill="white" fill-opacity="0.5"/>
<path d="M79.5823 6.23346C79.3745 6.70098 78.8031 7.1685 77.92 7.1685C76.6733 7.1685 75.7383 6.23346 75.7383 4.67507C75.7383 3.16862 76.6733 2.18164 77.92 2.18164C78.8031 2.18164 79.3745 2.7011 79.5823 3.16862V2.33748H80.3615V6.90876C80.3615 8.46716 79.3226 9.14246 78.0239 9.14246C76.8292 9.14246 75.998 8.67494 75.8422 7.68796H76.6733C76.8292 8.31132 77.3486 8.5191 78.0239 8.5191C79.0109 8.5191 79.5304 7.99964 79.5304 6.96071V6.23346H79.5823ZM79.6343 4.57118C79.6343 3.53225 79.0109 2.85694 78.0759 2.85694C77.0889 2.85694 76.5175 3.58419 76.5175 4.67507C76.5175 5.76594 77.0889 6.54514 78.0759 6.54514C79.0109 6.54514 79.6343 5.81789 79.6343 4.83091V4.57118Z" fill="white" fill-opacity="0.5"/>
<path d="M82.9581 3.22057C83.2178 2.59721 83.8412 2.18164 84.5684 2.18164C85.6593 2.18164 86.3346 2.85694 86.3346 4.05171V7.27239H85.5035V4.2595C85.5035 3.32446 85.0879 2.85694 84.3087 2.85694C83.5295 2.85694 82.9581 3.32446 82.9581 4.51923V7.27239H82.127V2.33748H82.9061V3.22057H82.9581Z" fill="white" fill-opacity="0.5"/>
<path d="M92.9832 6.70101C94.178 6.70101 94.6974 6.02571 94.8533 5.24651H95.6844C95.4766 6.54517 94.5416 7.42826 92.9832 7.42826C91.1651 7.42826 89.8145 5.97376 89.8145 3.79201C89.8145 1.55831 91.1651 0.155762 92.9832 0.155762C94.5416 0.155762 95.4247 1.03885 95.6844 2.33751H94.8533C94.6974 1.55831 94.178 0.883012 92.9832 0.883012C91.5287 0.883012 90.6975 2.02583 90.6975 3.79201C90.6975 5.50624 91.5287 6.70101 92.9832 6.70101Z" fill="white" fill-opacity="0.5"/>
<path d="M98.9587 7.42828C97.6081 7.42828 96.6211 6.4413 96.6211 4.83096C96.6211 3.22062 97.6081 2.23364 98.9587 2.23364C100.309 2.23364 101.296 3.22062 101.296 4.83096C101.296 6.4413 100.309 7.42828 98.9587 7.42828ZM98.9587 6.75298C99.9457 6.75298 100.517 6.02573 100.517 4.83096C100.517 3.6362 99.9457 2.90895 98.9587 2.90895C97.9717 2.90895 97.4003 3.6362 97.4003 4.83096C97.4003 6.02573 97.9717 6.75298 98.9587 6.75298Z" fill="white" fill-opacity="0.5"/>
<path d="M108.205 2.23359C109.348 2.23359 109.919 2.96084 109.919 4.10366V7.27239H109.088V4.2595C109.088 3.32446 108.776 2.85694 107.997 2.85694C107.27 2.85694 106.698 3.37641 106.698 4.51923V7.27239H105.867V4.2595C105.867 3.32446 105.555 2.85694 104.776 2.85694C104.049 2.85694 103.478 3.37641 103.478 4.51923V7.27239H102.646V2.33748H103.426V3.22057C103.685 2.59721 104.257 2.18164 104.984 2.18164C105.815 2.18164 106.283 2.59721 106.491 3.22057C106.854 2.59721 107.477 2.23359 108.205 2.23359Z" fill="white" fill-opacity="0.5"/>
<path d="M112.464 9.03857H111.633V2.33748H112.412V3.22057C112.62 2.7011 113.243 2.18164 114.074 2.18164C115.321 2.18164 116.308 3.22057 116.308 4.77896C116.308 6.33735 115.373 7.37628 114.074 7.37628C113.243 7.37628 112.672 6.90876 112.412 6.3893V9.03857H112.464ZM112.412 4.88285C112.412 6.02568 112.983 6.75293 113.918 6.75293C114.905 6.75293 115.477 5.97373 115.477 4.77896C115.477 3.63614 114.905 2.805 113.918 2.805C112.931 2.805 112.412 3.58419 112.412 4.67507V4.88285Z" fill="white" fill-opacity="0.5"/>
<path d="M119.737 7.42828C118.335 7.42828 117.348 6.4413 117.348 4.83096C117.348 3.22062 118.387 2.23364 119.685 2.23364C121.14 2.23364 121.815 3.42841 121.815 4.67512V4.9868H118.127C118.179 6.12962 118.75 6.75298 119.737 6.75298C120.412 6.75298 120.828 6.4413 121.036 5.81795H121.815C121.555 6.85687 120.672 7.42828 119.737 7.42828ZM118.179 4.36345H121.036C121.036 3.48036 120.568 2.857 119.685 2.857C118.906 2.857 118.283 3.37646 118.179 4.36345Z" fill="white" fill-opacity="0.5"/>
<path d="M125.502 7.22044C125.138 7.32434 124.827 7.37628 124.619 7.37628C123.736 7.37628 123.268 6.96071 123.268 6.02567V2.96084H122.541V2.33748H123.268V1.03882H124.099V2.28553H125.398V2.90889H124.099V5.92178C124.099 6.44125 124.359 6.59708 124.827 6.59708C125.034 6.59708 125.242 6.59709 125.554 6.49319V7.22044H125.502Z" fill="white" fill-opacity="0.5"/>
<path d="M126.75 0.311768H127.685V1.29875H126.75V0.311768ZM126.802 2.33768H127.633V7.27259H126.802V2.33768Z" fill="white" fill-opacity="0.5"/>
<path d="M131.684 7.22044C131.32 7.32434 131.008 7.37628 130.801 7.37628C129.917 7.37628 129.45 6.96071 129.45 6.02567V2.96084H128.723V2.33748H129.45V1.03882H130.281V2.28553H131.58V2.90889H130.281V5.92178C130.281 6.44125 130.541 6.59708 131.008 6.59708C131.216 6.59708 131.424 6.59709 131.736 6.49319V7.22044H131.684Z" fill="white" fill-opacity="0.5"/>
<path d="M132.982 0.311768H133.917V1.29875H132.982V0.311768ZM133.034 2.33768H133.866V7.27259H133.034V2.33768Z" fill="white" fill-opacity="0.5"/>
<path d="M137.605 7.42828C136.255 7.42828 135.268 6.4413 135.268 4.83096C135.268 3.22062 136.255 2.23364 137.605 2.23364C138.956 2.23364 139.943 3.22062 139.943 4.83096C139.943 6.4413 138.956 7.42828 137.605 7.42828ZM137.605 6.75298C138.592 6.75298 139.164 6.02573 139.164 4.83096C139.164 3.6362 138.592 2.90895 137.605 2.90895C136.618 2.90895 136.047 3.6362 136.047 4.83096C136.047 6.02573 136.618 6.75298 137.605 6.75298Z" fill="white" fill-opacity="0.5"/>
<path d="M142.126 3.22057C142.386 2.59721 143.009 2.18164 143.736 2.18164C144.827 2.18164 145.503 2.85694 145.503 4.05171V7.27239H144.671V4.2595C144.671 3.32446 144.256 2.85694 143.477 2.85694C142.697 2.85694 142.126 3.32446 142.126 4.51923V7.27239H141.295V2.33748H142.074V3.22057H142.126Z" fill="white" fill-opacity="0.5"/>
<path d="M148.775 2.96095V2.33759H149.503V1.40255C149.503 0.467518 150.074 0 150.957 0C151.113 0 151.373 0 151.529 0.0519464V0.72725C151.425 0.72725 151.217 0.675303 151.009 0.675303C150.645 0.675303 150.334 0.831143 150.334 1.40255V2.33759H151.425V2.96095H150.334V7.2725H149.503V2.96095H148.775Z" fill="white" fill-opacity="0.5"/>
<path d="M154.437 7.42828C153.087 7.42828 152.1 6.4413 152.1 4.83096C152.1 3.22062 153.087 2.23364 154.437 2.23364C155.788 2.23364 156.775 3.22062 156.775 4.83096C156.775 6.4413 155.788 7.42828 154.437 7.42828ZM154.437 6.75298C155.424 6.75298 155.996 6.02573 155.996 4.83096C155.996 3.6362 155.424 2.90895 154.437 2.90895C153.45 2.90895 152.879 3.6362 152.879 4.83096C152.879 6.02573 153.45 6.75298 154.437 6.75298Z" fill="white" fill-opacity="0.5"/>
<path d="M160.931 3.01284C160.827 2.96089 160.619 2.96089 160.515 2.96089C159.736 2.96089 159.009 3.58425 159.009 4.83096V7.27245H158.178V2.33754H158.957V3.5323C159.165 2.70116 159.788 2.23364 160.515 2.23364C160.619 2.23364 160.775 2.23364 160.879 2.28559V3.01284H160.931Z" fill="white" fill-opacity="0.5"/>
<path d="M0.726562 12.0515H1.55771V15.1683H5.71342V12.0515H6.54456V19.1162H5.71342V15.8955H1.60965V19.1162H0.726562V12.0515Z" fill="white" fill-opacity="0.5"/>
<path d="M10.3895 19.2203C8.98698 19.2203 8 18.2333 8 16.623C8 15.0126 9.03893 14.0256 10.3376 14.0256C11.7921 14.0256 12.4674 15.2204 12.4674 16.4671V16.7788H8.7792C8.83114 17.9216 9.40255 18.545 10.3895 18.545C11.0648 18.545 11.4804 18.2333 11.6882 17.6099H12.4674C12.2077 18.7008 11.3246 19.2203 10.3895 19.2203ZM8.83114 16.2074H11.6882C11.6882 15.3243 11.2207 14.7009 10.3376 14.7009C9.55839 14.7009 8.98698 15.2204 8.83114 16.2074Z" fill="white" fill-opacity="0.5"/>
<path d="M16.8832 18.2852C16.6754 18.8567 16.0001 19.2203 15.1689 19.2203C14.2858 19.2203 13.5586 18.7008 13.5586 17.8177C13.5586 16.8827 14.2858 16.4671 15.2728 16.3113L16.8832 16.1035V15.7918C16.8832 15.0126 16.4156 14.649 15.7403 14.649C15.065 14.649 14.6495 15.0126 14.5975 15.584H13.8183C13.9222 14.597 14.7014 14.0256 15.7403 14.0256C16.9351 14.0256 17.7143 14.597 17.7143 15.7918V18.0775C17.7143 18.4411 17.7143 18.8047 17.8182 19.1164H16.9871C16.9351 18.8567 16.8832 18.493 16.8832 18.2852ZM16.8832 17.1424V16.6749L15.5326 16.8307C14.9092 16.9346 14.3897 17.0905 14.3897 17.7658C14.3897 18.2333 14.7014 18.5969 15.3248 18.5969C16.104 18.5969 16.8832 18.1294 16.8832 17.1424Z" fill="white" fill-opacity="0.5"/>
<path d="M22.1301 14.8566C22.0262 14.8046 21.8184 14.8046 21.7145 14.8046C20.9353 14.8046 20.2081 15.428 20.2081 16.6747V19.1162H19.377V14.1813H20.1561V15.3761C20.3639 14.5449 20.9873 14.0774 21.7145 14.0774C21.8184 14.0774 21.9743 14.0774 22.0782 14.1293V14.8566H22.1301Z" fill="white" fill-opacity="0.5"/>
<path d="M25.7129 19.0642C25.3493 19.1681 25.0376 19.2201 24.8298 19.2201C23.9467 19.2201 23.4792 18.8045 23.4792 17.8695V14.8046H22.752V14.1813H23.4792V12.9346H24.3103V14.1813H25.609V14.8046H24.3103V17.8175C24.3103 18.337 24.5701 18.4928 25.0376 18.4928C25.2454 18.4928 25.4532 18.4928 25.7648 18.3889V19.0642H25.7129Z" fill="white" fill-opacity="0.5"/>
<path d="M31.1677 19.2203C29.8171 19.2203 28.8301 18.2333 28.8301 16.623C28.8301 15.0126 29.8171 14.0256 31.1677 14.0256C32.5183 14.0256 33.5053 15.0126 33.5053 16.623C33.5572 18.2333 32.5702 19.2203 31.1677 19.2203ZM31.1677 18.5969C32.1546 18.5969 32.7261 17.8697 32.7261 16.6749C32.7261 15.4801 32.1546 14.7529 31.1677 14.7529C30.1807 14.7529 29.6093 15.4801 29.6093 16.6749C29.6093 17.8177 30.2326 18.5969 31.1677 18.5969Z" fill="white" fill-opacity="0.5"/>
<path d="M34.3359 14.7527V14.1293H35.0632V13.1943C35.0632 12.2593 35.6346 11.7917 36.5177 11.7917C36.6735 11.7917 36.9333 11.7917 37.0891 11.8437V12.519C36.9852 12.519 36.7774 12.4671 36.5696 12.4671C36.206 12.4671 35.8943 12.6229 35.8943 13.1943V14.1293H36.9333V14.7527H35.8943V19.1162H35.0632V14.7527H34.3359Z" fill="white" fill-opacity="0.5"/>
<path d="M42.4395 19.0642C42.0758 19.1681 41.7642 19.2201 41.5564 19.2201C40.6733 19.2201 40.2058 18.8045 40.2058 17.8695V14.8046H39.4785V14.1813H40.2058V12.9346H41.0369V14.1813H42.3356V14.8046H41.0369V17.8175C41.0369 18.337 41.2966 18.4928 41.7642 18.4928C41.9719 18.4928 42.1797 18.4928 42.4914 18.3889V19.0642H42.4395Z" fill="white" fill-opacity="0.5"/>
<path d="M46.1798 14.0255C47.2706 14.0255 47.9459 14.7008 47.9459 15.8956V19.1162H47.1148V16.1034C47.1148 15.1683 46.6992 14.7008 45.92 14.7008C45.1408 14.7008 44.5694 15.1683 44.5694 16.3631V19.1162H43.7383V11.8438H44.5694V15.0644C44.8292 14.4411 45.4006 14.0255 46.1798 14.0255Z" fill="white" fill-opacity="0.5"/>
<path d="M51.6864 19.2203C50.2839 19.2203 49.2969 18.2333 49.2969 16.623C49.2969 15.0126 50.3358 14.0256 51.6345 14.0256C53.089 14.0256 53.7643 15.2204 53.7643 16.4671V16.7788H50.0761C50.128 17.9216 50.6994 18.545 51.6864 18.545C52.3617 18.545 52.7773 18.2333 52.9851 17.6099H53.7643C53.5045 18.7008 52.6214 19.2203 51.6864 19.2203ZM50.128 16.2074H52.9851C52.9851 15.3243 52.5176 14.7009 51.6345 14.7009C50.8553 14.7009 50.2319 15.2204 50.128 16.2074Z" fill="white" fill-opacity="0.5"/>
<path d="M60.0496 18.493C61.2444 18.493 61.7638 17.8177 61.9197 17.0385H62.7508C62.543 18.3372 61.608 19.2203 60.0496 19.2203C58.2315 19.2203 56.8809 17.7658 56.8809 15.584C56.8809 13.3503 58.2315 11.9478 60.0496 11.9478C61.608 11.9478 62.4911 12.8308 62.7508 14.1295H61.9197C61.7638 13.3503 61.2444 12.675 60.0496 12.675C58.5951 12.675 57.7639 13.8178 57.7639 15.584C57.7639 17.3502 58.5951 18.493 60.0496 18.493Z" fill="white" fill-opacity="0.5"/>
<path d="M67.0101 18.2852C66.8023 18.8567 66.127 19.2203 65.2959 19.2203C64.4128 19.2203 63.6855 18.7008 63.6855 17.8177C63.6855 16.8827 64.4128 16.4671 65.3998 16.3113L67.0101 16.1035V15.7918C67.0101 15.0126 66.5426 14.649 65.8673 14.649C65.192 14.649 64.7764 15.0126 64.7245 15.584H63.8933C63.9972 14.597 64.7764 14.0256 65.8153 14.0256C67.0101 14.0256 67.7893 14.597 67.7893 15.7918V18.0775C67.7893 18.4411 67.7893 18.8047 67.8932 19.1164H67.0621C67.0101 18.8567 67.0101 18.493 67.0101 18.2852ZM66.9582 17.1424V16.6749L65.6076 16.8307C64.9842 16.9346 64.4647 17.0905 64.4647 17.7658C64.4647 18.2333 64.7764 18.5969 65.3998 18.5969C66.179 18.5969 66.9582 18.1294 66.9582 17.1424Z" fill="white" fill-opacity="0.5"/>
<path d="M70.2843 20.8826H69.4531V14.1815H70.2323V15.0646C70.4401 14.5451 71.0635 14.0256 71.8946 14.0256C73.1413 14.0256 74.1283 15.0646 74.1283 16.623C74.1283 18.1813 73.1933 19.2203 71.8946 19.2203C71.0635 19.2203 70.4921 18.7528 70.2323 18.2333V20.8826H70.2843ZM70.2843 16.6749C70.2843 17.8177 70.8557 18.545 71.7907 18.545C72.7777 18.545 73.3491 17.7658 73.3491 16.571C73.3491 15.4282 72.7777 14.597 71.7907 14.597C70.8037 14.597 70.2843 15.3762 70.2843 16.4671V16.6749Z" fill="white" fill-opacity="0.5"/>
<path d="M75.4785 12.1035H76.4136V13.0905H75.4785V12.1035ZM75.5305 14.1814H76.3616V19.1163H75.5305V14.1814Z" fill="white" fill-opacity="0.5"/>
<path d="M80.4121 19.0642C80.0485 19.1681 79.7368 19.2201 79.529 19.2201C78.6459 19.2201 78.1784 18.8045 78.1784 17.8695V14.8046H77.4512V14.1813H78.1784V12.9346H79.0096V14.1813H80.3082V14.8046H79.0096V17.8175C79.0096 18.337 79.2693 18.4928 79.7368 18.4928C79.9446 18.4928 80.1524 18.4928 80.4641 18.3889V19.0642H80.4121Z" fill="white" fill-opacity="0.5"/>
<path d="M84.725 18.2852C84.5172 18.8567 83.8419 19.2203 83.0107 19.2203C82.1276 19.2203 81.4004 18.7008 81.4004 17.8177C81.4004 16.8827 82.1276 16.4671 83.1146 16.3113L84.673 16.1035V15.7918C84.673 15.0126 84.2055 14.649 83.5302 14.649C82.8549 14.649 82.4393 15.0126 82.3874 15.584H81.6082C81.7121 14.597 82.4913 14.0256 83.5302 14.0256C84.725 14.0256 85.5042 14.597 85.5042 15.7918V18.0775C85.5042 18.4411 85.5042 18.8047 85.6081 19.1164H84.7769C84.725 18.8567 84.725 18.493 84.725 18.2852ZM84.673 17.1424V16.6749L83.3224 16.8307C82.699 16.9346 82.1796 17.0905 82.1796 17.7658C82.1796 18.2333 82.4913 18.5969 83.1146 18.5969C83.8938 18.5969 84.673 18.1294 84.673 17.1424Z" fill="white" fill-opacity="0.5"/>
<path d="M87.2188 19.1162V11.8438H88.0499V19.1162H87.2188Z" fill="white" fill-opacity="0.5"/>
<path d="M89.8672 14.7009H90.9581V15.7918H89.8672V14.7009ZM89.8672 18.0255H90.9581V19.1164H89.8672V18.0255Z" fill="white" fill-opacity="0.5"/>
<path d="M4.98686 28.986H1.61034L0.831143 30.96H0L2.85705 23.8953H3.79209L6.64914 30.96H5.76605L4.98686 28.986ZM1.92202 28.2588H4.72712L3.32457 24.7264L1.92202 28.2588Z" fill="white" fill-opacity="0.5"/>
<path d="M9.14258 23.8953H10.0257L12.4671 30.0769L14.9606 23.8953H15.8437L12.9866 30.96H11.9996L9.14258 23.8953Z" fill="white" fill-opacity="0.5"/>
<path d="M16.7793 23.9473H17.7143V24.9342H16.7793V23.9473ZM16.8312 25.9732H17.6624V30.9081H16.8312V25.9732Z" fill="white" fill-opacity="0.5"/>
<path d="M19.7913 29.4537C19.8432 30.129 20.4666 30.4407 21.1419 30.4407C21.8172 30.4407 22.3367 30.129 22.3367 29.6095C22.3367 29.2459 22.0769 28.9862 21.4536 28.8823L20.5705 28.7264C19.7913 28.5706 19.1679 28.2589 19.1679 27.3758C19.1679 26.5447 19.8952 25.8694 20.9861 25.8694C22.1289 25.8694 22.8042 26.3369 22.9081 27.3239H22.1289C22.0769 26.8044 21.6094 26.5447 20.9341 26.5447C20.2588 26.5447 19.8432 26.8564 19.8432 27.3758C19.8432 27.7914 20.1549 27.9992 20.7263 28.1031L21.7133 28.3109C22.5445 28.4667 23.012 28.8823 23.012 29.6615C23.012 30.5446 22.1808 31.1679 21.09 31.1679C19.8952 31.1679 19.0121 30.6485 18.9082 29.5576H19.7913V29.4537Z" fill="white" fill-opacity="0.5"/>
<path d="M24.4668 23.9473H25.4018V24.9342H24.4668V23.9473ZM24.5187 25.9732H25.3499V30.9081H24.5187V25.9732Z" fill="white" fill-opacity="0.5"/>
<path d="M29.0895 31.064C27.7389 31.064 26.752 30.077 26.752 28.4667C26.752 26.8564 27.7389 25.8694 29.0895 25.8694C30.4401 25.8694 31.4271 26.8564 31.4271 28.4667C31.4271 30.077 30.4401 31.064 29.0895 31.064ZM29.0895 30.3887C30.0765 30.3887 30.6479 29.6615 30.6479 28.4667C30.6479 27.2719 30.0765 26.5447 29.0895 26.5447C28.1026 26.5447 27.5311 27.2719 27.5311 28.4667C27.5311 29.6615 28.1026 30.3887 29.0895 30.3887Z" fill="white" fill-opacity="0.5"/>
<path d="M33.6085 26.9083C33.8682 26.285 34.4916 25.8694 35.2188 25.8694C36.3097 25.8694 36.985 26.5447 36.985 27.7395V30.9601H36.1539V27.9472C36.1539 27.0122 35.7383 26.5447 34.9591 26.5447C34.1799 26.5447 33.6085 27.0122 33.6085 28.207V30.9601H32.7773V25.9733H33.5565V26.9083H33.6085Z" fill="white" fill-opacity="0.5"/>
<path d="M40.2578 26.5967V25.9733H40.9851V25.0383C40.9851 24.1033 41.5565 23.6357 42.4396 23.6357C42.5954 23.6357 42.8551 23.6357 43.011 23.6877V24.363C42.9071 24.363 42.6993 24.311 42.4915 24.311C42.1279 24.311 41.8162 24.4669 41.8162 25.0383V25.9733H42.8551V26.5967H41.8162V30.9602H40.9851V26.5967H40.2578Z" fill="white" fill-opacity="0.5"/>
<path d="M45.9216 31.064C44.571 31.064 43.584 30.077 43.584 28.4667C43.584 26.8564 44.571 25.8694 45.9216 25.8694C47.2722 25.8694 48.2592 26.8564 48.2592 28.4667C48.2592 30.077 47.2722 31.064 45.9216 31.064ZM45.9216 30.3887C46.9086 30.3887 47.48 29.6615 47.48 28.4667C47.48 27.2719 46.9086 26.5447 45.9216 26.5447C44.9346 26.5447 44.3632 27.2719 44.3632 28.4667C44.3632 29.6615 44.9346 30.3887 45.9216 30.3887Z" fill="white" fill-opacity="0.5"/>
<path d="M52.4133 26.6486C52.3094 26.5966 52.1016 26.5966 51.9977 26.5966C51.2185 26.5966 50.4913 27.22 50.4913 28.4667V30.9082H49.6602V25.9733H50.4394V27.168C50.6471 26.3369 51.2705 25.8694 51.9977 25.8694C52.1016 25.8694 52.2575 25.8694 52.3614 25.9213V26.6486H52.4133Z" fill="white" fill-opacity="0.5"/>
<path d="M57.7126 24.6225H55.1152V23.8953H61.2449V24.6225H58.5956V30.96H57.7645V24.6225H57.7126Z" fill="white" fill-opacity="0.5"/>
<path d="M64.3625 26.6486C64.2586 26.5966 64.0509 26.5966 63.947 26.5966C63.1678 26.5966 62.4405 27.22 62.4405 28.4667V30.9082H61.6094V25.9733H62.3886V27.168C62.5964 26.3369 63.2197 25.8694 63.947 25.8694C64.0509 25.8694 64.2067 25.8694 64.3106 25.9213V26.6486H64.3625Z" fill="white" fill-opacity="0.5"/>
<path d="M68.3617 30.129C68.1539 30.7004 67.4786 31.064 66.6475 31.064C65.7644 31.064 65.0371 30.5446 65.0371 29.6615C65.0371 28.7264 65.7644 28.3109 66.7513 28.155L68.3617 27.9472V27.6356C68.3617 26.8564 67.8942 26.4927 67.2189 26.4927C66.5436 26.4927 66.128 26.8564 66.076 27.4278H65.2968C65.4007 26.4408 66.1799 25.8694 67.2189 25.8694C68.4136 25.8694 69.1928 26.4408 69.1928 27.6356V29.9212C69.1928 30.2848 69.1928 30.6485 69.2967 30.9601H68.4656C68.3617 30.6485 68.3617 30.3368 68.3617 30.129ZM68.3097 28.9862V28.5706L66.9591 28.7264C66.3358 28.8303 65.8163 28.9862 65.8163 29.6615C65.8163 30.129 66.128 30.4926 66.7513 30.4926C67.5825 30.4407 68.3097 29.9732 68.3097 28.9862Z" fill="white" fill-opacity="0.5"/>
<path d="M71.6339 26.9083C71.8936 26.285 72.517 25.8694 73.2442 25.8694C74.3351 25.8694 75.0104 26.5447 75.0104 27.7395V30.9601H74.1793V27.9472C74.1793 27.0122 73.7637 26.5447 72.9845 26.5447C72.2053 26.5447 71.6339 27.0122 71.6339 28.207V30.9601H70.8027V25.9733H71.5819V26.9083H71.6339Z" fill="white" fill-opacity="0.5"/>
<path d="M77.0882 29.4537C77.1401 30.129 77.7635 30.4407 78.4388 30.4407C79.1141 30.4407 79.6335 30.129 79.6335 29.6095C79.6335 29.2459 79.3738 28.9862 78.7505 28.8823L77.8674 28.7264C77.0882 28.5706 76.4648 28.2589 76.4648 27.3758C76.4648 26.5447 77.1921 25.8694 78.2829 25.8694C79.4258 25.8694 80.1011 26.3369 80.205 27.3239H79.4258C79.3738 26.8044 78.9063 26.5447 78.231 26.5447C77.5557 26.5447 77.1401 26.8564 77.1401 27.3758C77.1401 27.7914 77.4518 27.9992 78.0232 28.1031L79.0102 28.3109C79.8413 28.4667 80.3088 28.8823 80.3088 29.6615C80.3088 30.5446 79.4777 31.1679 78.3868 31.1679C77.1921 31.1679 76.309 30.6485 76.2051 29.5576H77.0882V29.4537Z" fill="white" fill-opacity="0.5"/>
<path d="M81.2441 26.5967V25.9733H81.9714V25.0383C81.9714 24.1033 82.5428 23.6357 83.4259 23.6357C83.5817 23.6357 83.8415 23.6357 83.9973 23.6877V24.363C83.8934 24.363 83.6856 24.311 83.4778 24.311C83.1142 24.311 82.8025 24.4669 82.8025 25.0383V25.9733H83.8934V26.5967H82.8025V30.9602H81.9714V26.5967H81.2441Z" fill="white" fill-opacity="0.5"/>
<path d="M86.8552 31.064C85.5046 31.064 84.5176 30.077 84.5176 28.4667C84.5176 26.8564 85.5046 25.8694 86.8552 25.8694C88.2058 25.8694 89.1928 26.8564 89.1928 28.4667C89.2447 30.077 88.2577 31.064 86.8552 31.064ZM86.8552 30.3887C87.8421 30.3887 88.4136 29.6615 88.4136 28.4667C88.4136 27.2719 87.8421 26.5447 86.8552 26.5447C85.8682 26.5447 85.2968 27.2719 85.2968 28.4667C85.3487 29.6615 85.9201 30.3887 86.8552 30.3887Z" fill="white" fill-opacity="0.5"/>
<path d="M93.3469 26.6486C93.243 26.5966 93.0352 26.5966 92.9313 26.5966C92.1521 26.5966 91.4249 27.22 91.4249 28.4667V30.9082H90.5938V25.9733H91.3729V27.168C91.5807 26.3369 92.2041 25.8694 92.9313 25.8694C93.0352 25.8694 93.1911 25.8694 93.295 25.9213V26.6486H93.3469Z" fill="white" fill-opacity="0.5"/>
<path d="M99.945 25.8693C101.088 25.8693 101.659 26.5966 101.659 27.7394V30.9601H100.828V27.9472C100.828 27.0121 100.516 26.5446 99.7372 26.5446C99.01 26.5446 98.4385 27.0641 98.4385 28.2069V30.9601H97.6074V27.9472C97.6074 27.0121 97.2957 26.5446 96.5165 26.5446C95.7893 26.5446 95.2179 27.0641 95.2179 28.2069V30.9601H94.3867V25.9732H95.1659V26.8563C95.4256 26.233 95.9971 25.8174 96.7243 25.8174C97.5554 25.8174 98.023 26.233 98.2308 26.8563C98.5944 26.2849 99.2177 25.8693 99.945 25.8693Z" fill="white" fill-opacity="0.5"/>
<path d="M103.27 23.9473H104.205V24.9342H103.27V23.9473ZM103.321 25.9732H104.153V30.9081H103.321V25.9732Z" fill="white" fill-opacity="0.5"/>
<path d="M106.698 26.9083C106.958 26.285 107.581 25.8694 108.309 25.8694C109.4 25.8694 110.075 26.5447 110.075 27.7395V30.9601H109.244V27.9472C109.244 27.0122 108.828 26.5447 108.049 26.5447C107.27 26.5447 106.698 27.0122 106.698 28.207V30.9601H105.867V25.9733H106.646V26.9083H106.698Z" fill="white" fill-opacity="0.5"/>
<path d="M115.27 29.9212C115.062 30.3887 114.491 30.8562 113.608 30.8562C112.361 30.8562 111.426 29.9212 111.426 28.3628C111.426 26.8564 112.361 25.8694 113.608 25.8694C114.491 25.8694 115.062 26.3888 115.27 26.8564V25.9733H116.049V30.5446C116.049 32.103 115.01 32.7783 113.711 32.7783C112.517 32.7783 111.686 32.3107 111.53 31.3238H112.361C112.517 31.9471 113.036 32.1549 113.711 32.1549C114.698 32.1549 115.218 31.6354 115.218 30.5965V29.9212H115.27ZM115.322 28.2589C115.322 27.22 114.698 26.5447 113.763 26.5447C112.776 26.5447 112.205 27.2719 112.205 28.3628C112.205 29.4537 112.776 30.2329 113.763 30.2329C114.698 30.2329 115.322 29.5056 115.322 28.5187V28.2589Z" fill="white" fill-opacity="0.5"/>
<path d="M3.48123 42.1805C4.676 42.1805 5.19546 41.5052 5.3513 40.726H6.18244C5.97466 42.0247 5.03962 42.9078 3.48123 42.9078C1.66311 42.9078 0.3125 41.4533 0.3125 39.2715C0.3125 37.0378 1.66311 35.6353 3.48123 35.6353C5.03962 35.6353 5.92271 36.5183 6.18244 37.817H5.3513C5.19546 36.9859 4.676 36.3106 3.48123 36.3106C2.02673 36.3106 1.19559 37.4534 1.19559 39.2196C1.19559 40.9857 2.02673 42.1805 3.48123 42.1805Z" fill="white" fill-opacity="0.5"/>
<path d="M9.86922 37.7131C10.9601 37.7131 11.6354 38.4404 11.6354 39.5832V42.8039H10.8043V39.791C10.8043 38.8559 10.3887 38.3884 9.60948 38.3884C8.83029 38.3884 8.25888 38.8559 8.25888 40.0507V42.8039H7.42773V35.5314H8.31082V38.752C8.51861 38.0767 9.14197 37.7131 9.86922 37.7131Z" fill="white" fill-opacity="0.5"/>
<path d="M13.2988 35.7911H14.2339V36.7781H13.2988V35.7911ZM13.4027 37.817H14.2339V42.8039H13.4027V37.817Z" fill="white" fill-opacity="0.5"/>
<path d="M18.9086 41.9208C18.7008 42.4922 18.0255 42.8558 17.1943 42.8558C16.3112 42.8558 15.584 42.3364 15.584 41.4533C15.584 40.5182 16.3112 40.1027 17.2982 39.9468L18.9086 39.739V39.4793C18.9086 38.7001 18.441 38.3365 17.7657 38.3365C17.0904 38.3365 16.6749 38.7001 16.6229 39.2715H15.8437C15.9476 38.2845 16.7268 37.7131 17.7657 37.7131C18.9605 37.7131 19.7397 38.2845 19.7397 39.4793V41.765C19.7397 42.1286 19.7397 42.4922 19.8436 42.8039H19.0124C18.9086 42.4922 18.9086 42.1805 18.9086 41.9208ZM18.8566 40.8299V40.3624L17.506 40.5182C16.8826 40.6221 16.3632 40.778 16.3632 41.4533C16.3632 41.9208 16.6749 42.2844 17.2982 42.2844C18.1294 42.2844 18.8566 41.765 18.8566 40.8299Z" fill="white" fill-opacity="0.5"/>
<path d="M22.1808 38.7001C22.4405 38.0767 23.0638 37.6611 23.7911 37.6611C24.882 37.6611 25.5573 38.3884 25.5573 39.5312V42.7519H24.7261V39.739C24.7261 38.804 24.3106 38.3364 23.5314 38.3364C22.7522 38.3364 22.1808 38.804 22.1808 39.9987V42.7519H21.3496V37.765H22.1288V38.7001H22.1808Z" fill="white" fill-opacity="0.5"/>
<path d="M30.7522 41.713C30.5445 42.1805 29.973 42.648 29.09 42.648C27.7913 42.648 26.9082 41.713 26.9082 40.1546C26.9082 38.6481 27.8432 37.6611 29.09 37.6611C29.973 37.6611 30.5445 38.1806 30.7522 38.6481V37.765H31.5314V42.3363C31.5314 43.8947 30.4925 44.57 29.1938 44.57C27.9991 44.57 27.1679 44.1025 27.0121 43.1155H27.8432C27.9991 43.7389 28.5185 43.9466 29.1938 43.9466C30.1808 43.9466 30.7003 43.4272 30.7003 42.3883V41.713H30.7522ZM30.8042 40.0507C30.8042 39.0117 30.1808 38.3364 29.2458 38.3364C28.2588 38.3364 27.6874 39.0637 27.6874 40.2065C27.6874 41.2974 28.2588 42.0766 29.2458 42.0766C30.1808 42.0766 30.8042 41.3493 30.8042 40.3623V40.0507Z" fill="white" fill-opacity="0.5"/>
<path d="M37.4533 39.4273L36.3624 40.5182V42.7519H35.5312V35.7391H36.3624V39.5832L40.1025 35.7391H41.1415L38.0766 38.8559L41.3492 42.8038H40.3103L37.4533 39.4273Z" fill="white" fill-opacity="0.5"/>
<path d="M45.4007 41.9208C45.193 42.4922 44.5177 42.8558 43.6865 42.8558C42.8034 42.8558 42.0762 42.3364 42.0762 41.4533C42.0762 40.5182 42.8034 40.1027 43.7904 39.9468L45.4007 39.739V39.4793C45.4007 38.7001 44.9332 38.3365 44.206 38.3365C43.5307 38.3365 43.1151 38.7001 43.0632 39.2715H42.284C42.3879 38.2845 43.167 37.7131 44.206 37.7131C45.4007 37.7131 46.1799 38.2845 46.1799 39.4793V41.765C46.1799 42.1286 46.1799 42.4922 46.2838 42.8039H45.4527C45.4007 42.4922 45.4007 42.1805 45.4007 41.9208ZM45.3488 40.8299V40.3624L43.9982 40.5182C43.3748 40.6221 42.8554 40.778 42.8554 41.4533C42.8554 41.9208 43.167 42.2844 43.7904 42.2844C44.6215 42.2844 45.3488 41.765 45.3488 40.8299Z" fill="white" fill-opacity="0.5"/>
<path d="M47.8418 35.7911H48.7768V36.7781H47.8418V35.7911ZM47.8937 37.817H48.7249V42.8039H47.8937V37.817Z" fill="white" fill-opacity="0.5"/>
<path d="M50.4395 39.6351H53.1926V40.3624H50.4395V39.6351Z" fill="white" fill-opacity="0.5"/>
<path d="M55.3225 40.674C55.4264 41.8168 56.3615 42.1804 57.4004 42.1804C58.3874 42.1804 59.1666 41.7129 59.1666 40.8298C59.1666 40.2584 58.8549 39.8429 57.8679 39.687L56.5173 39.4273C55.5823 39.2714 54.6992 38.8039 54.6992 37.6092C54.6992 36.4663 55.6862 35.5833 57.1407 35.5833C58.6471 35.5833 59.6341 36.2586 59.7899 37.5053H58.9588C58.8549 36.7261 58.1276 36.2586 57.1407 36.2586C56.1017 36.2586 55.4784 36.83 55.4784 37.5572C55.4784 38.2845 55.8939 38.4923 56.7251 38.6481L58.1276 38.9598C59.2185 39.1676 59.8938 39.687 59.8938 40.7779C59.8938 41.9727 58.803 42.8558 57.3485 42.8558C55.842 42.8558 54.5433 42.1804 54.4395 40.674H55.3225Z" fill="white" fill-opacity="0.5"/>
<path d="M63.7911 37.7131C64.9339 37.7131 65.5573 38.4404 65.5573 39.5832V42.8039H64.7261V39.791C64.7261 38.8559 64.3106 38.3884 63.5314 38.3884C62.7522 38.3884 62.1808 38.8559 62.1808 40.0507V42.8039H61.3496V35.5314H62.1808V38.752C62.4405 38.0767 63.0638 37.7131 63.7911 37.7131Z" fill="white" fill-opacity="0.5"/>
<path d="M69.2958 42.9077C67.8932 42.9077 66.9062 41.9207 66.9062 40.3104C66.9062 38.7001 67.9452 37.6611 69.2438 37.6611C70.6983 37.6611 71.3736 38.8559 71.3736 40.1026V40.4143H67.6854C67.7374 41.5571 68.3088 42.1805 69.2958 42.1805C69.9711 42.1805 70.3867 41.8688 70.5944 41.2454H71.3736C71.1139 42.3883 70.2828 42.9077 69.2958 42.9077ZM67.7374 39.8948H70.5944C70.5944 39.0117 70.1269 38.3884 69.2438 38.3884C68.4646 38.3364 67.8932 38.8559 67.7374 39.8948Z" fill="white" fill-opacity="0.5"/>
<path d="M74.2318 40.4143L73.6085 41.0376V42.7519H72.7773V35.4794H73.6085V40.1545L76.05 37.765H77.0369L74.8552 39.8948L77.1408 42.7519H76.1539L74.2318 40.4143Z" fill="white" fill-opacity="0.5"/>
<path d="M83.5816 42.7519L81.296 36.5703V42.7519H80.4648V35.7391H81.7635L83.9453 41.661L86.127 35.7391H87.3737V42.8038H86.5426V36.6222L84.2569 42.8038H83.5816V42.7519Z" fill="white" fill-opacity="0.5"/>
<path d="M91.2177 42.9077C89.8151 42.9077 88.8281 41.9207 88.8281 40.3104C88.8281 38.7001 89.8671 37.6611 91.1657 37.6611C92.6202 37.6611 93.2955 38.8559 93.2955 40.1026V40.4143H89.6073C89.6593 41.5571 90.2307 42.1805 91.2177 42.1805C91.893 42.1805 92.3085 41.8688 92.5163 41.2454H93.2955C93.0358 42.3883 92.2046 42.9077 91.2177 42.9077ZM89.6593 39.8948H92.5163C92.5163 39.0117 92.0488 38.3884 91.1657 38.3884C90.3865 38.3364 89.8151 38.8559 89.6593 39.8948Z" fill="white" fill-opacity="0.5"/>
<path d="M100.257 37.7131C101.4 37.7131 101.972 38.4404 101.972 39.5832V42.8039H101.141V39.791C101.141 38.856 100.829 38.3884 100.05 38.3884C99.3225 38.3884 98.751 38.9079 98.751 40.0507V42.8039H97.9199V39.791C97.9199 38.856 97.6082 38.3884 96.829 38.3884C96.1018 38.3884 95.5304 38.9079 95.5304 40.0507V42.8039H94.6992V37.817H95.4784V38.7521C95.7381 38.1287 96.3096 37.7131 97.0368 37.7131C97.8679 37.7131 98.3355 38.1287 98.5433 38.804C98.9069 38.0768 99.5302 37.7131 100.257 37.7131Z" fill="white" fill-opacity="0.5"/>
<path d="M105.66 42.9078C104.309 42.9078 103.322 41.9208 103.322 40.3105C103.322 38.7001 104.309 37.7131 105.66 37.7131C107.062 37.7131 107.997 38.7001 107.997 40.3105C107.997 41.9208 107.01 42.9078 105.66 42.9078ZM105.66 42.2325C106.647 42.2325 107.218 41.5052 107.218 40.3105C107.218 39.1157 106.647 38.3884 105.66 38.3884C104.673 38.3884 104.101 39.1157 104.101 40.3105C104.101 41.5052 104.673 42.2325 105.66 42.2325Z" fill="white" fill-opacity="0.5"/>
<path d="M112.152 38.4923C112.048 38.4403 111.84 38.4403 111.736 38.4403C110.957 38.4403 110.23 39.0637 110.23 40.3104V42.7519H109.398V37.765H110.178V38.9598C110.385 38.1287 111.009 37.6611 111.736 37.6611C111.84 37.6611 111.996 37.6611 112.1 37.7131V38.4923H112.152Z" fill="white" fill-opacity="0.5"/>
<path d="M113.139 35.7911H114.074V36.7781H113.139V35.7911ZM113.191 37.817H114.022V42.8039H113.191V37.817Z" fill="white" fill-opacity="0.5"/>
<path d="M118.698 41.9208C118.49 42.4922 117.815 42.8558 116.983 42.8558C116.1 42.8558 115.373 42.3364 115.373 41.4533C115.373 40.5182 116.1 40.1027 117.087 39.9468L118.698 39.739V39.4793C118.698 38.7001 118.23 38.3365 117.555 38.3365C116.879 38.3365 116.464 38.7001 116.412 39.2715H115.633C115.737 38.2845 116.516 37.7131 117.607 37.7131C118.802 37.7131 119.581 38.2845 119.581 39.4793V41.765C119.581 42.1286 119.581 42.4922 119.685 42.8039H118.853C118.75 42.4922 118.698 42.1805 118.698 41.9208ZM118.698 40.8299V40.3624L117.347 40.5182C116.724 40.6221 116.204 40.778 116.204 41.4533C116.204 41.9208 116.516 42.2844 117.139 42.2844C117.918 42.2844 118.698 41.765 118.698 40.8299Z" fill="white" fill-opacity="0.5"/>
<path d="M121.242 42.7519V35.4794H122.073V42.7519H121.242Z" fill="white" fill-opacity="0.5"/>
<path d="M126.802 39.9468V42.8038H125.971V35.7391H128.568C130.126 35.7391 131.061 36.4664 131.061 37.8689C131.061 39.2715 130.126 39.9987 128.568 39.9987H126.802V39.9468ZM128.568 39.2195C129.659 39.2195 130.23 38.752 130.23 37.817C130.23 36.882 129.659 36.4144 128.568 36.4144H126.802V39.2195H128.568Z" fill="white" fill-opacity="0.5"/>
<path d="M135.217 41.9208C135.009 42.4922 134.334 42.8558 133.503 42.8558C132.62 42.8558 131.893 42.3364 131.893 41.4533C131.893 40.5182 132.62 40.1027 133.607 39.9468L135.217 39.739V39.4793C135.217 38.7001 134.75 38.3365 134.074 38.3365C133.399 38.3365 132.983 38.7001 132.932 39.2715H132.152C132.256 38.2845 133.035 37.7131 134.074 37.7131C135.269 37.7131 136.048 38.2845 136.048 39.4793V41.765C136.048 42.1286 136.048 42.4922 136.152 42.8039H135.321C135.269 42.4922 135.217 42.1805 135.217 41.9208ZM135.217 40.8299V40.3624L133.867 40.5182C133.243 40.6221 132.724 40.778 132.724 41.4533C132.724 41.9208 133.035 42.2844 133.659 42.2844C134.438 42.2844 135.217 41.765 135.217 40.8299Z" fill="white" fill-opacity="0.5"/>
<path d="M140.464 38.4923C140.36 38.4403 140.152 38.4403 140.049 38.4403C139.269 38.4403 138.542 39.0637 138.542 40.3104V42.7519H137.711V37.765H138.49V38.9598C138.698 38.1287 139.321 37.6611 140.049 37.6611C140.152 37.6611 140.308 37.6611 140.412 37.7131V38.4923H140.464Z" fill="white" fill-opacity="0.5"/>
<path d="M142.956 40.4143L142.333 41.0376V42.7519H141.502V35.4794H142.333V40.1545L144.775 37.765H145.762L143.58 39.8948L145.865 42.7519H144.878L142.956 40.4143Z" fill="white" fill-opacity="0.5"/>
</svg>
