<svg width="161" height="45" viewBox="0 0 161 45" fill="none" xmlns="http://www.w3.org/2000/svg">
<path d="M3.48123 6.70101C4.676 6.70101 5.19546 6.0257 5.3513 5.24651H6.18244C5.97466 6.54517 5.03962 7.42826 3.48123 7.42826C1.66311 7.42826 0.3125 5.97376 0.3125 3.79201C0.3125 1.55831 1.66311 0.155762 3.48123 0.155762C5.03962 0.155762 5.92271 1.03885 6.18244 2.33751H5.3513C5.19546 1.50637 4.676 0.831065 3.48123 0.831065C2.02673 0.831065 1.19559 1.97388 1.19559 3.74006C1.19559 5.50624 2.02673 6.70101 3.48123 6.70101Z" fill="white" fill-opacity="0.5"/>
<path d="M9.45478 7.42846C8.10417 7.42846 7.11719 6.44148 7.11719 4.83115C7.11719 3.22081 8.10417 2.23383 9.45478 2.23383C10.8054 2.23383 11.7924 3.22081 11.7924 4.83115C11.7924 6.44148 10.8573 7.42846 9.45478 7.42846ZM9.45478 6.75316C10.4418 6.75316 11.0132 6.02591 11.0132 4.83115C11.0132 3.63638 10.4418 2.90913 9.45478 2.90913C8.46779 2.90913 7.89638 3.63638 7.89638 4.83115C7.89638 6.02591 8.51974 6.75316 9.45478 6.75316Z" fill="white" fill-opacity="0.5"/>
<path d="M13.9737 3.22081C14.2335 2.59746 14.8568 2.18188 15.5841 2.18188C16.6749 2.18188 17.3502 2.85719 17.3502 4.05195V7.27263H16.5191V4.25974C16.5191 3.32471 16.1035 2.85719 15.3243 2.85719C14.5451 2.85719 13.9737 3.32471 13.9737 4.51947V7.27263H13.1426V2.33772H13.9218V3.22081H13.9737Z" fill="white" fill-opacity="0.5"/>
<path d="M21.0895 2.23383C22.1804 2.23383 22.9077 2.85718 23.0635 3.89611H22.2843C22.1285 3.22081 21.7648 2.85718 21.0895 2.85718C20.1026 2.85718 19.5831 3.63638 19.5831 4.7792C19.5831 5.92202 20.1545 6.70121 21.0895 6.70121C21.7648 6.70121 22.1804 6.33759 22.2843 5.66229H23.0635C22.9077 6.75316 22.1804 7.32457 21.0895 7.32457C19.687 7.32457 18.752 6.33759 18.752 4.72725C18.752 3.22081 19.687 2.23383 21.0895 2.23383Z" fill="white" fill-opacity="0.5"/>
<path d="M26.4403 7.42846C25.0378 7.42846 24.0508 6.44148 24.0508 4.83115C24.0508 3.22081 25.0897 2.23383 26.3884 2.23383C27.8429 2.23383 28.5182 3.42859 28.5182 4.67531V4.98698H24.83C24.8819 6.12981 25.4533 6.75316 26.4403 6.75316C27.1156 6.75316 27.5312 6.44148 27.739 5.81813H28.5182C28.2584 6.85705 27.3754 7.42846 26.4403 7.42846ZM24.8819 4.36363H27.739C27.739 3.48054 27.2715 2.85718 26.3884 2.85718C25.6092 2.85718 24.9858 3.37665 24.8819 4.36363Z" fill="white" fill-opacity="0.5"/>
<path d="M30.7003 9.03881H29.8691V2.33772H30.6483V3.22081C30.8561 2.70135 31.4795 2.18188 32.3106 2.18188C33.5573 2.18188 34.5443 3.22081 34.5443 4.7792C34.5443 6.3376 33.6093 7.37652 32.3106 7.37652C31.4795 7.37652 30.9081 6.90901 30.6483 6.38954V9.03881H30.7003ZM30.7003 4.8831C30.7003 6.02592 31.2717 6.75317 32.2067 6.75317C33.1937 6.75317 33.7651 5.97397 33.7651 4.7792C33.7651 3.63638 33.1937 2.80524 32.2067 2.80524C31.2197 2.80524 30.7003 3.58444 30.7003 4.67531V4.8831Z" fill="white" fill-opacity="0.5"/>
<path d="M38.2832 7.22053C37.9196 7.32442 37.6079 7.37637 37.4001 7.37637C36.517 7.37637 36.0495 6.9608 36.0495 6.02576V2.96093H35.3223V2.33757H36.0495V1.03891H36.8807V2.28562H38.1793V2.90898H36.8807V5.92187C36.8807 6.44133 37.1404 6.59717 37.6079 6.59717C37.8157 6.59717 38.0235 6.59717 38.3352 6.49328V7.22053H38.2832Z" fill="white" fill-opacity="0.5"/>
<path d="M42.8558 7.27255V6.38946C42.5961 7.01282 42.0247 7.42839 41.2974 7.42839C40.1546 7.42839 39.5312 6.75309 39.5312 5.55832V2.33765H40.3624V5.35054C40.3624 6.28557 40.726 6.75309 41.5052 6.75309C42.2325 6.75309 42.8039 6.23363 42.8039 5.03886V2.33765H43.635V7.27255H42.8558Z" fill="white" fill-opacity="0.5"/>
<path d="M48.3617 6.44148C48.1539 7.01289 47.4786 7.37652 46.6475 7.37652C45.7644 7.37652 45.0371 6.85705 45.0371 5.97397C45.0371 5.03893 45.7644 4.62336 46.7513 4.46752L48.3617 4.25973V4C48.3617 3.22081 47.8942 2.85718 47.2189 2.85718C46.5436 2.85718 46.128 3.22081 46.076 3.79222H45.2968C45.4007 2.80524 46.1799 2.23383 47.2189 2.23383C48.4136 2.23383 49.1928 2.80524 49.1928 4V6.2337C49.1928 6.59732 49.1928 6.96095 49.2967 7.27263H48.4656C48.4136 7.01289 48.3617 6.70121 48.3617 6.44148ZM48.3617 5.35061V4.88309L47.0111 5.03893C46.3877 5.14282 45.8683 5.29866 45.8683 5.97397C45.8683 6.44148 46.1799 6.80511 46.8033 6.80511C47.5825 6.75316 48.3617 6.28564 48.3617 5.35061Z" fill="white" fill-opacity="0.5"/>
<path d="M50.8555 7.27249V0H51.6866V7.27249H50.8555Z" fill="white" fill-opacity="0.5"/>
<path d="M61.5567 3.79218C61.5567 5.92198 60.1541 7.32454 58.1282 7.32454H55.6348V0.259827H58.1282C60.1541 0.259827 61.5567 1.66238 61.5567 3.79218ZM56.4659 0.93513V6.54534H58.1282C59.7905 6.54534 60.6736 5.45446 60.6736 3.74023C60.6736 2.026 59.7385 0.93513 58.1282 0.93513H56.4659V0.93513Z" fill="white" fill-opacity="0.5"/>
<path d="M64.9345 7.42846C63.5319 7.42846 62.5449 6.44148 62.5449 4.83115C62.5449 3.22081 63.5838 2.23383 64.8825 2.23383C66.337 2.23383 67.0123 3.42859 67.0123 4.67531V4.98698H63.3761C63.428 6.12981 63.9994 6.75316 64.9864 6.75316C65.6617 6.75316 66.0773 6.44148 66.2851 5.81813H67.0643C66.7526 6.85705 65.9214 7.42846 64.9345 7.42846ZM63.3761 4.36363H66.2331C66.2331 3.48054 65.7656 2.85718 64.8825 2.85718C64.1033 2.85718 63.5319 3.37665 63.3761 4.36363Z" fill="white" fill-opacity="0.5"/>
<path d="M68.8284 5.81813C68.8803 6.49344 69.5037 6.80511 70.179 6.80511C70.8543 6.80511 71.3738 6.49344 71.3738 5.97397C71.3738 5.61035 71.114 5.35061 70.4907 5.24672L69.6076 5.03894C68.8284 4.8831 68.205 4.57142 68.205 3.68833C68.205 2.85719 68.9323 2.18188 70.0232 2.18188C71.166 2.18188 71.8413 2.6494 71.9452 3.63638H71.166C71.114 3.11692 70.6465 2.85719 69.9712 2.85719C69.2959 2.85719 68.8803 3.16887 68.8803 3.68833C68.8803 4.1039 69.192 4.31169 69.7634 4.41558L70.7504 4.62336C71.5816 4.7792 72.0491 5.19478 72.0491 5.97397C72.0491 6.85706 71.2179 7.48042 70.1271 7.48042C68.9323 7.48042 68.0492 6.96095 67.9453 5.87008H68.8284V5.81813Z" fill="white" fill-opacity="0.5"/>
<path d="M73.5039 0.311768H74.4389V1.29875H73.5039V0.311768ZM73.5559 2.33768H74.387V7.27258H73.5559V2.33768Z" fill="white" fill-opacity="0.5"/>
<path d="M79.5823 6.2337C79.3745 6.70122 78.8031 7.16874 77.92 7.16874C76.6733 7.16874 75.7383 6.2337 75.7383 4.67531C75.7383 3.16887 76.6733 2.18188 77.92 2.18188C78.8031 2.18188 79.3745 2.70135 79.5823 3.16887V2.33772H80.3615V6.90901C80.3615 8.4674 79.3226 9.1427 78.0239 9.1427C76.8292 9.1427 75.998 8.67518 75.8422 7.6882H76.6733C76.8292 8.31156 77.3486 8.51934 78.0239 8.51934C79.0109 8.51934 79.5304 7.99988 79.5304 6.96095V6.2337H79.5823ZM79.6343 4.57142C79.6343 3.53249 79.0109 2.85719 78.0759 2.85719C77.0889 2.85719 76.5175 3.58444 76.5175 4.67531C76.5175 5.76619 77.0889 6.54538 78.0759 6.54538C79.0109 6.54538 79.6343 5.81813 79.6343 4.83115V4.57142Z" fill="white" fill-opacity="0.5"/>
<path d="M82.9581 3.22081C83.2178 2.59746 83.8412 2.18188 84.5684 2.18188C85.6593 2.18188 86.3346 2.85719 86.3346 4.05195V7.27263H85.5035V4.25974C85.5035 3.32471 85.0879 2.85719 84.3087 2.85719C83.5295 2.85719 82.9581 3.32471 82.9581 4.51947V7.27263H82.127V2.33772H82.9061V3.22081H82.9581Z" fill="white" fill-opacity="0.5"/>
<path d="M92.9851 6.70101C94.1799 6.70101 94.6994 6.0257 94.8552 5.24651H95.6863C95.4786 6.54517 94.5435 7.42826 92.9851 7.42826C91.167 7.42826 89.8164 5.97376 89.8164 3.79201C89.8164 1.55831 91.167 0.155762 92.9851 0.155762C94.5435 0.155762 95.4266 1.03885 95.6863 2.33751H94.8552C94.6994 1.55831 94.1799 0.883011 92.9851 0.883011C91.5306 0.883011 90.6995 2.02583 90.6995 3.79201C90.6995 5.50624 91.5306 6.70101 92.9851 6.70101Z" fill="white" fill-opacity="0.5"/>
<path d="M98.9567 7.42846C97.6061 7.42846 96.6191 6.44148 96.6191 4.83115C96.6191 3.22081 97.6061 2.23383 98.9567 2.23383C100.307 2.23383 101.294 3.22081 101.294 4.83115C101.294 6.44148 100.307 7.42846 98.9567 7.42846ZM98.9567 6.75316C99.9437 6.75316 100.515 6.02591 100.515 4.83115C100.515 3.63638 99.9437 2.90913 98.9567 2.90913C97.9697 2.90913 97.3983 3.63638 97.3983 4.83115C97.3983 6.02591 97.9697 6.75316 98.9567 6.75316Z" fill="white" fill-opacity="0.5"/>
<path d="M108.205 2.23383C109.348 2.23383 109.919 2.96108 109.919 4.1039V7.27263H109.088V4.25974C109.088 3.32471 108.776 2.85719 107.997 2.85719C107.27 2.85719 106.698 3.37665 106.698 4.51947V7.27263H105.867V4.25974C105.867 3.32471 105.555 2.85719 104.776 2.85719C104.049 2.85719 103.478 3.37665 103.478 4.51947V7.27263H102.646V2.33772H103.426V3.22081C103.685 2.59746 104.257 2.18188 104.984 2.18188C105.815 2.18188 106.283 2.59746 106.491 3.22081C106.854 2.59746 107.477 2.23383 108.205 2.23383Z" fill="white" fill-opacity="0.5"/>
<path d="M112.464 9.03881H111.633V2.33772H112.412V3.22081C112.62 2.70135 113.243 2.18188 114.074 2.18188C115.321 2.18188 116.308 3.22081 116.308 4.7792C116.308 6.3376 115.373 7.37652 114.074 7.37652C113.243 7.37652 112.672 6.90901 112.412 6.38954V9.03881H112.464ZM112.412 4.8831C112.412 6.02592 112.983 6.75317 113.918 6.75317C114.905 6.75317 115.477 5.97397 115.477 4.7792C115.477 3.63638 114.905 2.80524 113.918 2.80524C112.931 2.80524 112.412 3.58444 112.412 4.67531V4.8831Z" fill="white" fill-opacity="0.5"/>
<path d="M119.737 7.42846C118.335 7.42846 117.348 6.44148 117.348 4.83115C117.348 3.22081 118.387 2.23383 119.685 2.23383C121.14 2.23383 121.815 3.42859 121.815 4.67531V4.98698H118.127C118.179 6.12981 118.75 6.75316 119.737 6.75316C120.412 6.75316 120.828 6.44148 121.036 5.81813H121.815C121.555 6.85705 120.672 7.42846 119.737 7.42846ZM118.179 4.36363H121.036C121.036 3.48054 120.568 2.85718 119.685 2.85718C118.906 2.85718 118.283 3.37665 118.179 4.36363Z" fill="white" fill-opacity="0.5"/>
<path d="M125.502 7.22053C125.138 7.32442 124.827 7.37637 124.619 7.37637C123.736 7.37637 123.268 6.9608 123.268 6.02576V2.96093H122.541V2.33757H123.268V1.03891H124.099V2.28562H125.398V2.90898H124.099V5.92187C124.099 6.44133 124.359 6.59717 124.827 6.59717C125.034 6.59717 125.242 6.59717 125.554 6.49328V7.22053H125.502Z" fill="white" fill-opacity="0.5"/>
<path d="M126.75 0.311768H127.685V1.29875H126.75V0.311768ZM126.802 2.33768H127.633V7.27258H126.802V2.33768Z" fill="white" fill-opacity="0.5"/>
<path d="M131.684 7.22053C131.32 7.32442 131.008 7.37637 130.801 7.37637C129.917 7.37637 129.45 6.9608 129.45 6.02576V2.96093H128.723V2.33757H129.45V1.03891H130.281V2.28562H131.58V2.90898H130.281V5.92187C130.281 6.44133 130.541 6.59717 131.008 6.59717C131.216 6.59717 131.424 6.59717 131.736 6.49328V7.22053H131.684Z" fill="white" fill-opacity="0.5"/>
<path d="M132.982 0.311768H133.917V1.29875H132.982V0.311768ZM133.034 2.33768H133.866V7.27258H133.034V2.33768Z" fill="white" fill-opacity="0.5"/>
<path d="M137.607 7.42846C136.257 7.42846 135.27 6.44148 135.27 4.83115C135.27 3.22081 136.257 2.23383 137.607 2.23383C138.958 2.23383 139.945 3.22081 139.945 4.83115C139.945 6.44148 138.958 7.42846 137.607 7.42846ZM137.607 6.75316C138.594 6.75316 139.166 6.02591 139.166 4.83115C139.166 3.63638 138.594 2.90913 137.607 2.90913C136.62 2.90913 136.049 3.63638 136.049 4.83115C136.049 6.02591 136.62 6.75316 137.607 6.75316Z" fill="white" fill-opacity="0.5"/>
<path d="M142.124 3.22081C142.384 2.59746 143.007 2.18188 143.734 2.18188C144.825 2.18188 145.501 2.85719 145.501 4.05195V7.27263H144.669V4.25974C144.669 3.32471 144.254 2.85719 143.475 2.85719C142.696 2.85719 142.124 3.32471 142.124 4.51947V7.27263H141.293V2.33772H142.072V3.22081H142.124Z" fill="white" fill-opacity="0.5"/>
<path d="M148.775 2.96094V2.33759H149.503V1.40255C149.503 0.467518 150.074 0 150.957 0C151.113 0 151.373 0 151.529 0.0519464V0.727249C151.425 0.727249 151.217 0.675303 151.009 0.675303C150.645 0.675303 150.334 0.831142 150.334 1.40255V2.33759H151.425V2.96094H150.334V7.27249H149.503V2.96094H148.775Z" fill="white" fill-opacity="0.5"/>
<path d="M154.437 7.42846C153.087 7.42846 152.1 6.44148 152.1 4.83115C152.1 3.22081 153.087 2.23383 154.437 2.23383C155.788 2.23383 156.775 3.22081 156.775 4.83115C156.775 6.44148 155.788 7.42846 154.437 7.42846ZM154.437 6.75316C155.424 6.75316 155.996 6.02591 155.996 4.83115C155.996 3.63638 155.424 2.90913 154.437 2.90913C153.45 2.90913 152.879 3.63638 152.879 4.83115C152.879 6.02591 153.45 6.75316 154.437 6.75316Z" fill="white" fill-opacity="0.5"/>
<path d="M160.929 3.01302C160.825 2.96108 160.617 2.96107 160.513 2.96107C159.734 2.96107 159.007 3.58443 159.007 4.83114V7.27262H158.176V2.33772H158.955V3.53249C159.163 2.70134 159.786 2.23383 160.513 2.23383C160.617 2.23383 160.773 2.23383 160.877 2.28577V3.01302H160.929Z" fill="white" fill-opacity="0.5"/>
<path d="M0.726562 12.0515H1.5577V15.1683H5.71342V12.0515H6.54456V19.1162H5.71342V15.8956H1.60965V19.1162H0.726562V12.0515Z" fill="white" fill-opacity="0.5"/>
<path d="M10.3895 19.2201C8.98698 19.2201 8 18.2332 8 16.6228C8 15.0125 9.03893 14.0255 10.3376 14.0255C11.7921 14.0255 12.4674 15.2203 12.4674 16.467V16.7787H8.7792C8.83114 17.9215 9.40255 18.5448 10.3895 18.5448C11.0648 18.5448 11.4804 18.2332 11.6882 17.6098H12.4674C12.2077 18.7007 11.3246 19.2201 10.3895 19.2201ZM8.83114 16.2072H11.6882C11.6882 15.3242 11.2207 14.7008 10.3376 14.7008C9.55839 14.7008 8.98698 15.2203 8.83114 16.2072Z" fill="white" fill-opacity="0.5"/>
<path d="M16.8812 18.2851C16.6734 18.8565 15.9981 19.2201 15.167 19.2201C14.2839 19.2201 13.5566 18.7007 13.5566 17.8176C13.5566 16.8825 14.2839 16.467 15.2709 16.3111L16.8812 16.1034V15.7917C16.8812 15.0125 16.4137 14.6489 15.7384 14.6489C15.0631 14.6489 14.6475 15.0125 14.5956 15.5839H13.8164C13.9203 14.5969 14.6995 14.0255 15.7384 14.0255C16.9332 14.0255 17.7124 14.5969 17.7124 15.7917V18.0773C17.7124 18.4409 17.7124 18.8046 17.8162 19.1162H16.9851C16.9332 18.8565 16.8812 18.4929 16.8812 18.2851ZM16.8812 17.1423V16.6748L15.5306 16.8306C14.9072 16.9345 14.3878 17.0903 14.3878 17.7656C14.3878 18.2332 14.6995 18.5968 15.3228 18.5968C16.102 18.5968 16.8812 18.1293 16.8812 17.1423Z" fill="white" fill-opacity="0.5"/>
<path d="M22.1282 14.8568C22.0243 14.8049 21.8165 14.8049 21.7126 14.8049C20.9334 14.8049 20.2061 15.4283 20.2061 16.675V19.1165H19.375V14.1815H20.1542V15.3763C20.362 14.5452 20.9853 14.0777 21.7126 14.0777C21.8165 14.0777 21.9723 14.0777 22.0762 14.1296V14.8568H22.1282Z" fill="white" fill-opacity="0.5"/>
<path d="M25.7129 19.0643C25.3493 19.1682 25.0376 19.2202 24.8298 19.2202C23.9467 19.2202 23.4792 18.8046 23.4792 17.8696V14.8047H22.752V14.1814H23.4792V12.9347H24.3103V14.1814H25.609V14.8047H24.3103V17.8176C24.3103 18.3371 24.5701 18.4929 25.0376 18.4929C25.2454 18.4929 25.4532 18.4929 25.7648 18.389V19.0643H25.7129Z" fill="white" fill-opacity="0.5"/>
<path d="M31.1677 19.2201C29.8171 19.2201 28.8301 18.2332 28.8301 16.6228C28.8301 15.0125 29.8171 14.0255 31.1677 14.0255C32.5183 14.0255 33.5053 15.0125 33.5053 16.6228C33.5053 18.2332 32.5702 19.2201 31.1677 19.2201ZM31.1677 18.5968C32.1546 18.5968 32.7261 17.8695 32.7261 16.6748C32.7261 15.48 32.1546 14.7527 31.1677 14.7527C30.1807 14.7527 29.6093 15.48 29.6093 16.6748C29.6093 17.8695 30.2326 18.5968 31.1677 18.5968Z" fill="white" fill-opacity="0.5"/>
<path d="M34.3359 14.7526V14.1293H35.0632V13.1942C35.0632 12.2592 35.6346 11.7917 36.5177 11.7917C36.6735 11.7917 36.9333 11.7917 37.0891 11.8436V12.5189C36.9852 12.5189 36.7774 12.467 36.5696 12.467C36.206 12.467 35.8943 12.6228 35.8943 13.1942V14.1293H36.9333V14.7526H35.8943V19.1161H35.0632V14.7526H34.3359Z" fill="white" fill-opacity="0.5"/>
<path d="M42.4395 19.0643C42.0758 19.1682 41.7642 19.2202 41.5564 19.2202C40.6733 19.2202 40.2058 18.8046 40.2058 17.8696V14.8047H39.4785V14.1814H40.2058V12.9347H41.0369V14.1814H42.3356V14.8047H41.0369V17.8176C41.0369 18.3371 41.2966 18.4929 41.7642 18.4929C41.9719 18.4929 42.1797 18.4929 42.4914 18.389V19.0643H42.4395Z" fill="white" fill-opacity="0.5"/>
<path d="M46.1798 14.0256C47.2706 14.0256 47.9459 14.7009 47.9459 15.8956V19.1163H47.1148V16.1034C47.1148 15.1684 46.6992 14.7009 45.92 14.7009C45.1408 14.7009 44.5694 15.1684 44.5694 16.3632V19.1163H43.7383V11.8438H44.5694V15.0645C44.8292 14.4411 45.4006 14.0256 46.1798 14.0256Z" fill="white" fill-opacity="0.5"/>
<path d="M51.6864 19.2201C50.2839 19.2201 49.2969 18.2332 49.2969 16.6228C49.2969 15.0125 50.3358 14.0255 51.6345 14.0255C53.089 14.0255 53.7643 15.2203 53.7643 16.467V16.7787H50.0761C50.128 17.9215 50.6994 18.5448 51.6864 18.5448C52.3617 18.5448 52.7773 18.2332 52.9851 17.6098H53.7643C53.5045 18.7007 52.6214 19.2201 51.6864 19.2201ZM50.128 16.2072H52.9851C52.9851 15.3242 52.5176 14.7008 51.6345 14.7008C50.8553 14.7008 50.2319 15.2203 50.128 16.2072Z" fill="white" fill-opacity="0.5"/>
<path d="M60.0496 18.4929C61.2444 18.4929 61.7638 17.8176 61.9197 17.0384H62.7508C62.543 18.3371 61.608 19.2202 60.0496 19.2202C58.2315 19.2202 56.8809 17.7657 56.8809 15.5839C56.8809 13.3502 58.2315 11.9477 60.0496 11.9477C61.608 11.9477 62.4911 12.8308 62.7508 14.1294H61.9197C61.7638 13.3502 61.2444 12.6749 60.0496 12.6749C58.5951 12.6749 57.7639 13.8177 57.7639 15.5839C57.7639 17.3501 58.5951 18.4929 60.0496 18.4929Z" fill="white" fill-opacity="0.5"/>
<path d="M67.0101 18.2851C66.8023 18.8565 66.127 19.2201 65.2959 19.2201C64.4128 19.2201 63.6855 18.7007 63.6855 17.8176C63.6855 16.8825 64.4128 16.467 65.3998 16.3111L67.0101 16.1034V15.7917C67.0101 15.0125 66.5426 14.6489 65.8673 14.6489C65.192 14.6489 64.7764 15.0125 64.7245 15.5839H63.8933C63.9972 14.5969 64.7764 14.0255 65.8153 14.0255C67.0101 14.0255 67.7893 14.5969 67.7893 15.7917V18.0773C67.7893 18.4409 67.7893 18.8046 67.8932 19.1162H67.0621C67.0101 18.8565 67.0101 18.4929 67.0101 18.2851ZM66.9582 17.1423V16.6748L65.6076 16.8306C64.9842 16.9345 64.4647 17.0903 64.4647 17.7656C64.4647 18.2332 64.7764 18.5968 65.3998 18.5968C66.179 18.5968 66.9582 18.1293 66.9582 17.1423Z" fill="white" fill-opacity="0.5"/>
<path d="M70.2843 20.8824H69.4531V14.1813H70.2323V15.0644C70.4401 14.545 71.0635 14.0255 71.8946 14.0255C73.1413 14.0255 74.1283 15.0644 74.1283 16.6228C74.1283 18.1812 73.1933 19.2201 71.8946 19.2201C71.0635 19.2201 70.4921 18.7526 70.2323 18.2332V20.8824H70.2843ZM70.2843 16.6748C70.2843 17.8176 70.8557 18.5448 71.7907 18.5448C72.7777 18.5448 73.3491 17.7656 73.3491 16.5709C73.3491 15.428 72.7777 14.5969 71.7907 14.5969C70.8037 14.5969 70.2843 15.3761 70.2843 16.467V16.6748Z" fill="white" fill-opacity="0.5"/>
<path d="M75.4785 12.1035H76.4136V13.0904H75.4785V12.1035ZM75.5305 14.1813H76.3616V19.1162H75.5305V14.1813Z" fill="white" fill-opacity="0.5"/>
<path d="M80.4121 19.0643C80.0485 19.1682 79.7368 19.2202 79.529 19.2202C78.6459 19.2202 78.1784 18.8046 78.1784 17.8696V14.8047H77.4512V14.1814H78.1784V12.9347H79.0096V14.1814H80.3082V14.8047H79.0096V17.8176C79.0096 18.3371 79.2693 18.4929 79.7368 18.4929C79.9446 18.4929 80.1524 18.4929 80.4641 18.389V19.0643H80.4121Z" fill="white" fill-opacity="0.5"/>
<path d="M84.725 18.2851C84.5172 18.8565 83.8419 19.2201 83.0107 19.2201C82.1276 19.2201 81.4004 18.7007 81.4004 17.8176C81.4004 16.8825 82.1276 16.467 83.1146 16.3111L84.673 16.1034V15.7917C84.673 15.0125 84.2055 14.6489 83.5302 14.6489C82.8549 14.6489 82.4393 15.0125 82.3874 15.5839H81.6082C81.7121 14.5969 82.4913 14.0255 83.5302 14.0255C84.725 14.0255 85.5042 14.5969 85.5042 15.7917V18.0773C85.5042 18.4409 85.5042 18.8046 85.6081 19.1162H84.7769C84.725 18.8565 84.725 18.4929 84.725 18.2851ZM84.673 17.1423V16.6748L83.3224 16.8306C82.699 16.9345 82.1796 17.0903 82.1796 17.7656C82.1796 18.2332 82.4913 18.5968 83.1146 18.5968C83.8938 18.5968 84.673 18.1293 84.673 17.1423Z" fill="white" fill-opacity="0.5"/>
<path d="M87.2188 19.1163V11.8438H88.0499V19.1163H87.2188Z" fill="white" fill-opacity="0.5"/>
<path d="M89.8672 14.7009H90.9581V15.7918H89.8672V14.7009ZM89.8672 18.0255H90.9581V19.1164H89.8672V18.0255Z" fill="white" fill-opacity="0.5"/>
<path d="M4.98685 28.9861H1.61034L0.831142 30.9601H0L2.85705 23.8954H3.79209L6.64914 30.9601H5.76605L4.98685 28.9861ZM1.92202 28.2589H4.72712L3.32457 24.7265V24.7265L1.92202 28.2589Z" fill="white" fill-opacity="0.5"/>
<path d="M9.14258 23.8954H10.0257L12.4671 30.077L14.9606 23.8954H15.8437L12.9866 30.9601H11.9996L9.14258 23.8954Z" fill="white" fill-opacity="0.5"/>
<path d="M16.7793 23.9473H17.7143V24.9343H16.7793V23.9473ZM16.8312 25.9732H17.6624V30.9081H16.8312V25.9732Z" fill="white" fill-opacity="0.5"/>
<path d="M19.7913 29.4536C19.8432 30.1289 20.4666 30.4406 21.1419 30.4406C21.8172 30.4406 22.3367 30.1289 22.3367 29.6095C22.3367 29.2458 22.0769 28.9861 21.4536 28.8822L20.5705 28.7264C19.7913 28.5705 19.1679 28.2589 19.1679 27.3758C19.1679 26.5446 19.8952 25.8693 20.9861 25.8693C22.1289 25.8693 22.8042 26.3368 22.9081 27.3238H22.1289C22.0769 26.8044 21.6094 26.5446 20.9341 26.5446C20.2588 26.5446 19.8432 26.8563 19.8432 27.3758C19.8432 27.7913 20.1549 27.9991 20.7263 28.103L21.7133 28.3108C22.5444 28.4666 23.012 28.8822 23.012 29.6614C23.012 30.5445 22.1808 31.1679 21.0899 31.1679C19.8952 31.1679 19.0121 30.6484 18.9082 29.5575H19.7913V29.4536Z" fill="white" fill-opacity="0.5"/>
<path d="M24.4668 23.9473H25.4018V24.9343H24.4668V23.9473ZM24.5187 25.9732H25.3499V30.9081H24.5187V25.9732Z" fill="white" fill-opacity="0.5"/>
<path d="M29.0895 31.064C27.7389 31.064 26.752 30.077 26.752 28.4666C26.752 26.8563 27.7389 25.8693 29.0895 25.8693C30.4401 25.8693 31.4271 26.8563 31.4271 28.4666C31.4271 30.077 30.4401 31.064 29.0895 31.064ZM29.0895 30.3887C30.0765 30.3887 30.6479 29.6614 30.6479 28.4666C30.6479 27.2719 30.0765 26.5446 29.0895 26.5446C28.1026 26.5446 27.5311 27.2719 27.5311 28.4666C27.5311 29.6614 28.1026 30.3887 29.0895 30.3887Z" fill="white" fill-opacity="0.5"/>
<path d="M33.6104 26.9083C33.8702 26.2849 34.4935 25.8693 35.2208 25.8693C36.3117 25.8693 36.987 26.5446 36.987 27.7394V30.9601H36.1558V27.9472C36.1558 27.0121 35.7402 26.5446 34.961 26.5446C34.1819 26.5446 33.6104 27.0121 33.6104 28.2069V30.9601H32.7793V25.9732H33.5585V26.9083H33.6104Z" fill="white" fill-opacity="0.5"/>
<path d="M40.2578 26.5967V25.9733H40.9851V25.0383C40.9851 24.1033 41.5565 23.6357 42.4396 23.6357C42.5954 23.6357 42.8551 23.6357 43.011 23.6877V24.363C42.9071 24.363 42.6993 24.311 42.4915 24.311C42.1279 24.311 41.8162 24.4669 41.8162 25.0383V25.9733H42.8551V26.5967H41.8162V30.9602H40.9851V26.5967H40.2578Z" fill="white" fill-opacity="0.5"/>
<path d="M45.9216 31.064C44.571 31.064 43.584 30.077 43.584 28.4666C43.584 26.8563 44.571 25.8693 45.9216 25.8693C47.2722 25.8693 48.2592 26.8563 48.2592 28.4666C48.2592 30.077 47.2722 31.064 45.9216 31.064ZM45.9216 30.3887C46.9086 30.3887 47.48 29.6614 47.48 28.4666C47.48 27.2719 46.9086 26.5446 45.9216 26.5446C44.9346 26.5446 44.3632 27.2719 44.3632 28.4666C44.3632 29.6614 44.9346 30.3887 45.9216 30.3887Z" fill="white" fill-opacity="0.5"/>
<path d="M52.4133 26.6485C52.3094 26.5966 52.1016 26.5966 51.9977 26.5966C51.2185 26.5966 50.4913 27.2199 50.4913 28.4666V30.9081H49.6602V25.9732H50.4394V27.168C50.6471 26.3368 51.2705 25.8693 51.9977 25.8693C52.1016 25.8693 52.2575 25.8693 52.3614 25.9213V26.6485H52.4133Z" fill="white" fill-opacity="0.5"/>
<path d="M57.7126 24.6226H55.1152V23.8954H61.2449V24.6226H58.5956V30.9601H57.7645V24.6226H57.7126Z" fill="white" fill-opacity="0.5"/>
<path d="M64.3606 26.6485C64.2567 26.5966 64.0489 26.5966 63.945 26.5966C63.1658 26.5966 62.4386 27.2199 62.4386 28.4666V30.9081H61.6074V25.9732H62.3866V27.168C62.5944 26.3368 63.2178 25.8693 63.945 25.8693C64.0489 25.8693 64.2047 25.8693 64.3086 25.9213V26.6485H64.3606Z" fill="white" fill-opacity="0.5"/>
<path d="M68.3617 30.1289C68.1539 30.7003 67.4786 31.064 66.6475 31.064C65.7644 31.064 65.0371 30.5445 65.0371 29.6614C65.0371 28.7264 65.7644 28.3108 66.7513 28.155L68.3617 27.9472V27.6355C68.3617 26.8563 67.8942 26.4927 67.2189 26.4927C66.5436 26.4927 66.128 26.8563 66.076 27.4277H65.2968C65.4007 26.4407 66.1799 25.8693 67.2189 25.8693C68.4136 25.8693 69.1928 26.4407 69.1928 27.6355V29.9211C69.1928 30.2848 69.1928 30.6484 69.2967 30.9601H68.4656C68.3617 30.6484 68.3617 30.3367 68.3617 30.1289ZM68.3097 28.9861V28.5705L66.9591 28.7264C66.3358 28.8303 65.8163 28.9861 65.8163 29.6614C65.8163 30.1289 66.128 30.4926 66.7513 30.4926C67.5825 30.4406 68.3097 29.9731 68.3097 28.9861Z" fill="white" fill-opacity="0.5"/>
<path d="M71.6339 26.9083C71.8936 26.2849 72.517 25.8693 73.2442 25.8693C74.3351 25.8693 75.0104 26.5446 75.0104 27.7394V30.9601H74.1792V27.9472C74.1792 27.0121 73.7637 26.5446 72.9845 26.5446C72.2053 26.5446 71.6339 27.0121 71.6339 28.2069V30.9601H70.8027V25.9732H71.5819V26.9083H71.6339Z" fill="white" fill-opacity="0.5"/>
<path d="M77.0882 29.4536C77.1401 30.1289 77.7635 30.4406 78.4388 30.4406C79.1141 30.4406 79.6335 30.1289 79.6335 29.6095C79.6335 29.2458 79.3738 28.9861 78.7505 28.8822L77.8674 28.7264C77.0882 28.5705 76.4648 28.2589 76.4648 27.3758C76.4648 26.5446 77.1921 25.8693 78.2829 25.8693C79.4258 25.8693 80.1011 26.3368 80.2049 27.3238H79.4258C79.3738 26.8044 78.9063 26.5446 78.231 26.5446C77.5557 26.5446 77.1401 26.8563 77.1401 27.3758C77.1401 27.7913 77.4518 27.9991 78.0232 28.103L79.0102 28.3108C79.8413 28.4666 80.3088 28.8822 80.3088 29.6614C80.3088 30.5445 79.4777 31.1679 78.3868 31.1679C77.1921 31.1679 76.309 30.6484 76.2051 29.5575H77.0882V29.4536Z" fill="white" fill-opacity="0.5"/>
<path d="M81.2441 26.5967V25.9733H81.9714V25.0383C81.9714 24.1033 82.5428 23.6357 83.4259 23.6357C83.5817 23.6357 83.8415 23.6357 83.9973 23.6877V24.363C83.8934 24.363 83.6856 24.311 83.4778 24.311C83.1142 24.311 82.8025 24.4669 82.8025 25.0383V25.9733H83.8934V26.5967H82.8025V30.9602H81.9714V26.5967H81.2441Z" fill="white" fill-opacity="0.5"/>
<path d="M86.8552 31.064C85.5046 31.064 84.5176 30.077 84.5176 28.4666C84.5176 26.8563 85.5046 25.8693 86.8552 25.8693C88.2058 25.8693 89.1928 26.8563 89.1928 28.4666C89.1928 30.077 88.2577 31.064 86.8552 31.064ZM86.8552 30.3887C87.8421 30.3887 88.4136 29.6614 88.4136 28.4666C88.4136 27.2719 87.8421 26.5446 86.8552 26.5446C85.8682 26.5446 85.2968 27.2719 85.2968 28.4666C85.2968 29.6614 85.9201 30.3887 86.8552 30.3887Z" fill="white" fill-opacity="0.5"/>
<path d="M93.3489 26.6485C93.245 26.5966 93.0372 26.5966 92.9333 26.5966C92.1541 26.5966 91.4268 27.2199 91.4268 28.4666V30.9081H90.5957V25.9732H91.3749V27.168C91.5827 26.3368 92.206 25.8693 92.9333 25.8693C93.0372 25.8693 93.193 25.8693 93.2969 25.9213V26.6485H93.3489Z" fill="white" fill-opacity="0.5"/>
<path d="M99.945 25.8692C101.088 25.8692 101.659 26.5965 101.659 27.7393V30.96H100.828V27.9471C100.828 27.0121 100.516 26.5445 99.7372 26.5445C99.0099 26.5445 98.4385 27.064 98.4385 28.2068V30.96H97.6074V27.9471C97.6074 27.0121 97.2957 26.5445 96.5165 26.5445C95.7893 26.5445 95.2179 27.064 95.2179 28.2068V30.96H94.3867V25.9731H95.1659V26.8562C95.4256 26.2329 95.9971 25.8173 96.7243 25.8173C97.5554 25.8173 98.023 26.2329 98.2308 26.8562C98.5944 26.2848 99.2177 25.8692 99.945 25.8692Z" fill="white" fill-opacity="0.5"/>
<path d="M103.27 23.9473H104.205V24.9343H103.27V23.9473ZM103.321 25.9732H104.153V30.9081H103.321V25.9732Z" fill="white" fill-opacity="0.5"/>
<path d="M106.698 26.9083C106.958 26.2849 107.581 25.8693 108.309 25.8693C109.4 25.8693 110.075 26.5446 110.075 27.7394V30.9601H109.244V27.9472C109.244 27.0121 108.828 26.5446 108.049 26.5446C107.27 26.5446 106.698 27.0121 106.698 28.2069V30.9601H105.867V25.9732H106.646V26.9083H106.698Z" fill="white" fill-opacity="0.5"/>
<path d="M115.27 29.9211C115.062 30.3887 114.491 30.8562 113.608 30.8562C112.361 30.8562 111.426 29.9211 111.426 28.3627C111.426 26.8563 112.361 25.8693 113.608 25.8693C114.491 25.8693 115.062 26.3888 115.27 26.8563V25.9732H116.049V30.5445C116.049 32.1029 115.01 32.7782 113.711 32.7782C112.517 32.7782 111.686 32.3107 111.53 31.3237H112.361C112.517 31.9471 113.036 32.1548 113.711 32.1548C114.698 32.1548 115.218 31.6354 115.218 30.5964V29.9211H115.27ZM115.322 28.2589C115.322 27.2199 114.698 26.5446 113.763 26.5446C112.776 26.5446 112.205 27.2719 112.205 28.3627C112.205 29.4536 112.776 30.2328 113.763 30.2328C114.698 30.2328 115.322 29.5056 115.322 28.5186V28.2589Z" fill="white" fill-opacity="0.5"/>
<path d="M3.48123 42.1805C4.676 42.1805 5.19546 41.5052 5.3513 40.726H6.18244C5.97466 42.0246 5.03962 42.9077 3.48123 42.9077C1.66311 42.9077 0.3125 41.4532 0.3125 39.2715C0.3125 37.0378 1.66311 35.6352 3.48123 35.6352C5.03962 35.6352 5.92271 36.5183 6.18244 37.817H5.3513C5.19546 36.9858 4.676 36.3105 3.48123 36.3105C2.02673 36.3105 1.19559 37.4534 1.19559 39.2195C1.19559 40.9857 2.02673 42.1805 3.48123 42.1805Z" fill="white" fill-opacity="0.5"/>
<path d="M9.86921 37.713C10.9601 37.713 11.6354 38.3883 11.6354 39.5831V42.8038H10.8042V39.7909C10.8042 38.8558 10.3887 38.3883 9.60948 38.3883C8.83029 38.3883 8.25888 38.8558 8.25888 40.0506V42.8038H7.42773V35.5313H8.31082V38.752C8.51861 38.0767 9.14197 37.713 9.86921 37.713Z" fill="white" fill-opacity="0.5"/>
<path d="M13.2969 35.791H14.2319V36.778H13.2969V35.791ZM13.3488 37.8169H14.18V42.7518H13.3488V37.8169Z" fill="white" fill-opacity="0.5"/>
<path d="M18.8558 41.9207C18.648 42.4921 17.9727 42.8557 17.1416 42.8557C16.2585 42.8557 15.5312 42.3363 15.5312 41.4532C15.5312 40.5182 16.2585 40.1026 17.2455 39.9467L18.8558 39.739V39.4792C18.8558 38.7 18.3883 38.3364 17.713 38.3364C17.0377 38.3364 16.6221 38.7 16.5702 39.2714H15.791C15.8949 38.2845 16.6741 37.713 17.713 37.713C18.9078 37.713 19.687 38.2845 19.687 39.4792V41.7649C19.687 42.1285 19.687 42.4921 19.7909 42.8038H18.9597C18.9078 42.4921 18.8558 42.1804 18.8558 41.9207ZM18.8558 40.8298V40.3623L17.5052 40.5181C16.8819 40.622 16.3624 40.7779 16.3624 41.4532C16.3624 41.9207 16.6741 42.2843 17.2974 42.2843C18.0766 42.2843 18.8558 41.7649 18.8558 40.8298Z" fill="white" fill-opacity="0.5"/>
<path d="M22.1808 38.6999C22.4405 38.0766 23.0638 37.661 23.7911 37.661C24.882 37.661 25.5573 38.3363 25.5573 39.5311V42.7518H24.7261V39.7389C24.7261 38.8038 24.3106 38.3363 23.5314 38.3363C22.7522 38.3363 22.1808 38.8038 22.1808 39.9986V42.7518H21.3496V37.8169H22.1288V38.6999H22.1808Z" fill="white" fill-opacity="0.5"/>
<path d="M30.7015 41.7128C30.4937 42.1803 29.9223 42.6479 29.0392 42.6479C27.7925 42.6479 26.8574 41.7128 26.8574 40.1544C26.8574 38.648 27.7925 37.661 29.0392 37.661C29.9223 37.661 30.4937 38.1805 30.7015 38.648V37.7649H31.4806V42.3362C31.4806 43.8946 30.4417 44.5699 29.1431 44.5699C27.9483 44.5699 27.1172 44.1024 26.9613 43.1154H27.7925C27.9483 43.7387 28.4678 43.9465 29.1431 43.9465C30.13 43.9465 30.6495 43.4271 30.6495 42.3881V41.7128H30.7015ZM30.8053 40.0505C30.8053 39.0116 30.182 38.3363 29.247 38.3363C28.26 38.3363 27.6886 39.0636 27.6886 40.1544C27.6886 41.2453 28.26 42.0245 29.247 42.0245C30.182 42.0245 30.8053 41.2973 30.8053 40.3103V40.0505Z" fill="white" fill-opacity="0.5"/>
<path d="M37.4005 39.4274L36.3097 40.5183V42.752H35.4785V35.7392H36.3097V39.5832L39.9978 35.7392H41.0368L37.9719 38.856L41.2446 42.8039H40.2056L37.4005 39.4274Z" fill="white" fill-opacity="0.5"/>
<path d="M45.35 41.9207C45.1422 42.4921 44.4669 42.8557 43.6357 42.8557C42.7526 42.8557 42.0254 42.3363 42.0254 41.4532C42.0254 40.5182 42.7526 40.1026 43.7396 39.9467L45.35 39.739V39.4792C45.35 38.7 44.8824 38.3364 44.2071 38.3364C43.5318 38.3364 43.1163 38.7 43.0643 39.2714H42.2851C42.389 38.2845 43.1682 37.713 44.2071 37.713C45.4019 37.713 46.1811 38.2845 46.1811 39.4792V41.7649C46.1811 42.1285 46.1811 42.4921 46.285 42.8038H45.4539C45.35 42.4921 45.35 42.1804 45.35 41.9207ZM45.298 40.8298V40.3623L43.9474 40.5181C43.324 40.622 42.8046 40.7779 42.8046 41.4532C42.8046 41.9207 43.1163 42.2843 43.7396 42.2843C44.5188 42.2843 45.298 41.7649 45.298 40.8298Z" fill="white" fill-opacity="0.5"/>
<path d="M47.7402 35.791H48.6753V36.778H47.7402V35.791ZM47.8441 37.8169H48.6753V42.7518H47.8441V37.8169Z" fill="white" fill-opacity="0.5"/>
<path d="M50.3887 39.6351H53.1418V40.3623H50.3887V39.6351Z" fill="white" fill-opacity="0.5"/>
<path d="M55.219 40.6739C55.3229 41.8168 56.258 42.1804 57.2969 42.1804C58.2839 42.1804 59.0631 41.7129 59.0631 40.8298C59.0631 40.2584 58.7514 39.8428 57.7644 39.687L56.4138 39.4272C55.4788 39.2714 54.5957 38.8039 54.5957 37.6091C54.5957 36.4663 55.5827 35.5832 57.0372 35.5832C58.5436 35.5832 59.5306 36.2585 59.6864 37.5052H58.8553C58.7514 36.726 58.0241 36.2585 57.0372 36.2585C55.9982 36.2585 55.3749 36.8299 55.3749 37.5572C55.3749 38.2325 55.7904 38.4922 56.6216 38.648L58.0241 38.9597C59.115 39.1675 59.7903 39.687 59.7903 40.7778C59.7903 41.9726 58.7514 42.8037 57.2449 42.8037C55.7385 42.8037 54.4398 42.1284 54.3359 40.622H55.219V40.6739Z" fill="white" fill-opacity="0.5"/>
<path d="M63.6864 37.713C64.7773 37.713 65.4526 38.3883 65.4526 39.5831V42.8038H64.6214V39.7909C64.6214 38.8558 64.2059 38.3883 63.4267 38.3883C62.6475 38.3883 62.0761 38.8558 62.0761 40.0506V42.8038H61.2969V35.5313H62.128V38.752C62.3358 38.0767 62.9592 37.713 63.6864 37.713Z" fill="white" fill-opacity="0.5"/>
<path d="M69.1923 42.9077C67.7897 42.9077 66.8027 41.9207 66.8027 40.3104C66.8027 38.7 67.8417 37.713 69.1403 37.713C70.5948 37.713 71.2701 38.9078 71.2701 40.1545V40.4662H67.5819C67.6339 41.609 68.2053 42.2324 69.1923 42.2324C69.8676 42.2324 70.2831 41.9207 70.4909 41.2973H71.2701C71.0104 42.3882 70.1792 42.9077 69.1923 42.9077ZM67.6339 39.8948H70.4909C70.4909 39.0117 70.0234 38.3883 69.1403 38.3883C68.3611 38.3364 67.7897 38.8559 67.6339 39.8948Z" fill="white" fill-opacity="0.5"/>
<path d="M74.1283 40.4144L73.505 41.0377V42.752H72.6738V35.4795H73.505V40.1546L75.9465 37.7651H76.9334L74.7517 39.843L77.0373 42.7H76.0503L74.1283 40.4144Z" fill="white" fill-opacity="0.5"/>
<path d="M83.4781 42.752L81.1925 36.5703V42.752H80.3613V35.7392H81.66L83.8417 41.6611L86.0235 35.7392H87.2702V42.8039H86.4391V36.6223L84.1534 42.752H83.4781Z" fill="white" fill-opacity="0.5"/>
<path d="M91.1141 42.9077C89.7116 42.9077 88.7246 41.9207 88.7246 40.3104C88.7246 38.7 89.7635 37.713 91.0622 37.713C92.5167 37.713 93.192 38.9078 93.192 40.1545V40.4662H89.5038C89.5558 41.609 90.1272 42.2324 91.1141 42.2324C91.7894 42.2324 92.205 41.9207 92.4128 41.2973H93.192C92.9323 42.3882 92.0492 42.9077 91.1141 42.9077ZM89.5557 39.8948H92.4128C92.4128 39.0117 91.9453 38.3883 91.0622 38.3883C90.283 38.3364 89.6596 38.8559 89.5557 39.8948Z" fill="white" fill-opacity="0.5"/>
<path d="M100.101 37.713C101.244 37.713 101.815 38.4403 101.815 39.5831V42.8038H100.984V39.7909C100.984 38.8559 100.673 38.3883 99.8934 38.3883C99.1662 38.3883 98.5948 38.9078 98.5948 40.0506V42.8038H97.7636V39.7909C97.7636 38.8559 97.452 38.3883 96.6728 38.3883C95.9455 38.3883 95.3741 38.9078 95.3741 40.0506V42.8038H94.543V37.8689H95.3222V38.752C95.5819 38.1286 96.1533 37.713 96.8806 37.713C97.7117 37.713 98.1792 38.1286 98.387 38.752C98.7506 38.0767 99.374 37.713 100.101 37.713Z" fill="white" fill-opacity="0.5"/>
<path d="M105.504 42.9077C104.153 42.9077 103.166 41.9207 103.166 40.3104C103.166 38.7 104.153 37.713 105.504 37.713C106.854 37.713 107.841 38.7 107.841 40.3104C107.841 41.9207 106.854 42.9077 105.504 42.9077ZM105.504 42.2324C106.491 42.2324 107.062 41.5051 107.062 40.3104C107.062 39.1156 106.491 38.3883 105.504 38.3883C104.517 38.3883 103.945 39.1156 103.945 40.3104C103.945 41.5051 104.517 42.2324 105.504 42.2324Z" fill="white" fill-opacity="0.5"/>
<path d="M111.997 38.4922C111.893 38.4403 111.686 38.4403 111.582 38.4403C110.803 38.4403 110.075 39.0636 110.075 40.3104V42.7518H109.244V37.8169H110.023V39.0117C110.231 38.1806 110.854 37.713 111.582 37.713C111.686 37.713 111.841 37.713 111.945 37.765V38.4922H111.997Z" fill="white" fill-opacity="0.5"/>
<path d="M112.984 35.791H113.919V36.778H112.984V35.791ZM113.036 37.8169H113.867V42.7518H113.036V37.8169Z" fill="white" fill-opacity="0.5"/>
<path d="M118.541 41.9207C118.334 42.4921 117.658 42.8557 116.827 42.8557C115.944 42.8557 115.217 42.3363 115.217 41.4532C115.217 40.5182 115.944 40.1026 116.931 39.9467L118.541 39.739V39.4792C118.541 38.7 118.074 38.3364 117.399 38.3364C116.723 38.3364 116.308 38.7 116.256 39.2714H115.477C115.58 38.2845 116.36 37.713 117.399 37.713C118.593 37.713 119.373 38.2845 119.373 39.4792V41.7649C119.373 42.1285 119.373 42.4921 119.476 42.8038H118.645C118.593 42.4921 118.541 42.1804 118.541 41.9207ZM118.541 40.8298V40.3623L117.191 40.5181C116.567 40.622 116.048 40.7779 116.048 41.4532C116.048 41.9207 116.36 42.2843 116.983 42.2843C117.762 42.2843 118.541 41.7649 118.541 40.8298Z" fill="white" fill-opacity="0.5"/>
<path d="M121.035 42.752V35.4795H121.866V42.752H121.035Z" fill="white" fill-opacity="0.5"/>
<path d="M125.814 35.7392H126.646V38.856H130.749V35.7392H131.581V42.8039H130.749V39.5832H126.646V42.8039H125.814V35.7392Z" fill="white" fill-opacity="0.5"/>
<path d="M136.36 41.9207C136.152 42.4921 135.477 42.8557 134.645 42.8557C133.762 42.8557 133.035 42.3363 133.035 41.4532C133.035 40.5182 133.762 40.1026 134.749 39.9467L136.36 39.739V39.4792C136.36 38.7 135.892 38.3364 135.217 38.3364C134.542 38.3364 134.126 38.7 134.074 39.2714H133.295C133.399 38.2845 134.178 37.713 135.217 37.713C136.412 37.713 137.191 38.2845 137.191 39.4792V41.7649C137.191 42.1285 137.191 42.4921 137.295 42.8038H136.464C136.412 42.4921 136.36 42.1804 136.36 41.9207ZM136.36 40.8298V40.3623L135.009 40.5181C134.386 40.622 133.866 40.7779 133.866 41.4532C133.866 41.9207 134.178 42.2843 134.801 42.2843C135.581 42.2843 136.36 41.7649 136.36 40.8298Z" fill="white" fill-opacity="0.5"/>
<path d="M138.852 42.752V35.4795H139.683V42.752H138.852Z" fill="white" fill-opacity="0.5"/>
<path d="M141.398 42.752V35.4795H142.23V42.752H141.398Z" fill="white" fill-opacity="0.5"/>
</svg>
