<svg width="273" height="24" viewBox="0 0 273 24" fill="none" xmlns="http://www.w3.org/2000/svg">
<path d="M23.9065 5.47481V3.80856H17.8503L19.6831 0.793451L17.7706 0L15.5394 3.80856H0.478516V5.47481H11.555L10.5191 8.0932H4.94099H4.14412H3.0285V22.772H4.06444H4.86131H19.3644H20.3206H21.2769V8.0932H20.3206H19.3644H12.3519L13.5472 5.47481H23.9065ZM4.94099 13.806H19.444V16.4244H4.94099V13.806ZM4.94099 21.1058V18.0113H19.444V21.1058H4.94099ZM19.444 12.1398H4.94099V9.75945H19.444V12.1398Z" fill="white"/>
<path d="M5.09961 1.7456C5.09961 1.82494 5.09961 1.82494 5.17929 1.90429H5.25898L6.21523 3.49119V3.57053H6.29491C6.3746 3.49119 6.61366 3.41184 7.0121 3.17381C7.6496 2.85643 7.88866 2.77708 7.96834 2.69774H8.04803L7.80897 2.38036C7.6496 2.22167 7.49022 1.90429 7.17147 1.50756C7.0121 1.26952 6.85272 1.03149 6.69335 0.952144L6.3746 0.396729L6.13554 0.476074L4.70117 1.11083L5.09961 1.7456Z" fill="white"/>
<path d="M44.546 1.26953C44.0679 2.4597 43.032 5.23678 40.6414 8.09321H39.2867V4.68137H43.032V3.01512H39.2867V0.714111H37.6133V3.01512H33.7086V4.68137H37.6133V8.17255H33.0711V9.68011H39.207C37.5336 11.3464 35.3023 12.8539 32.4336 13.9647L32.9914 15.631C33.4695 15.4723 34.1867 15.1549 35.143 14.6788V22.6927H36.5773H36.9758H42.6335H44.4663V21.2645V18.0113V16.5831V13.8854V13.8061V12.5365H38.5695C39.5257 11.7431 40.482 10.8703 41.5179 9.75945H46.1398V8.2519H42.7929C44.0679 6.58565 45.2632 4.44333 46.2195 1.90429L44.546 1.26953ZM42.7132 21.1851H37.0554V17.932H42.7132V21.1851ZM42.7132 16.5038H37.0554V13.8061H42.7132V16.5038Z" fill="white"/>
<path d="M55.9414 14.0441C55.6226 12.3778 54.9054 10.7116 52.6742 9.1247L55.8617 1.42822H47.5742V2.53905V3.09447V23.5655H49.407V3.09447H53.3117L50.7617 9.52142C55.1445 12.2192 55.7023 17.1385 50.682 19.5189L51.4789 21.1058C54.0289 19.995 56.5789 17.6146 55.9414 14.0441Z" fill="white"/>
<path d="M79.687 21.5025C76.898 21.3438 74.9855 20.6297 73.5511 19.7569C78.5714 17.3766 84.8667 11.1877 87.7354 4.52268H77.9339V0.714111H76.0214V4.52268H67.734V6.18892H84.7073C83.9105 8.01386 80.0058 14.2821 72.0371 18.5668C71.0808 17.6146 70.4433 16.7418 69.9652 16.4244L66.8574 22.534L68.3715 23.6448L70.3637 19.8363C73.7902 23.0894 76.2605 23.4862 79.6074 23.4862L88.7714 23.5655V21.5819H79.687V21.5025Z" fill="white"/>
<path d="M97.3789 19.4396L99.2914 20.3918C100.407 17.8527 102.32 11.8225 102.32 8.25195L100.407 8.17261C100.327 10.553 98.893 16.5832 97.3789 19.4396Z" fill="white"/>
<path d="M107.021 21.3439V6.50635H106.941H105.029H104.949V23.0895C109.73 23.8829 112.679 23.1688 116.026 23.0895L115.787 21.1852C111.324 21.5026 109.412 21.7406 107.021 21.3439Z" fill="white"/>
<path d="M116.425 7.85522L114.672 8.72802C114.672 8.80737 120.728 20.1537 120.728 20.1537L122.481 19.2016L116.425 7.85522Z" fill="white"/>
<path d="M112.838 5.47481L106.861 0L105.666 1.34887L111.643 6.98237L112.838 5.47481Z" fill="white"/>
<path d="M158.411 16.1864L156.658 16.7418V8.80731H158.65V7.06172H156.658V0.793457H154.825V7.06172H152.434V8.80731H154.825V17.2972L152.195 18.0907L152.673 19.8363L158.57 18.0113L158.411 16.1864Z" fill="white"/>
<path d="M175.703 22.0579C174.269 20.5504 173.233 18.9635 172.436 17.3766C173.711 15.1549 174.667 12.2985 174.827 8.56928L173.153 8.41059C173.074 9.8388 172.835 12.6159 171.56 15.3136C170.046 11.4257 169.966 7.77582 170.046 5.87154H175.544V4.28464C175.544 4.28464 173.074 4.28464 170.125 4.28464V0.793457H168.293V4.28464C164.547 4.28464 160.722 4.28464 160.722 4.28464C160.722 11.029 161.36 18.6461 157.057 22.2166L158.411 23.6448C160.164 22.1373 161.997 19.1222 162.316 13.4887C162.396 12.6952 162.396 11.9018 162.475 11.267H165.583C165.743 13.2506 165.503 16.9005 164.786 18.4874L166.46 18.8841C167.336 15.869 167.177 11.8224 167.177 9.75945H166.778H166.141H162.635C162.714 6.74434 162.555 5.71285 162.555 5.71285H168.372C168.372 10.5529 169.328 14.2821 170.524 17.1385C169.169 19.1222 167.018 20.9471 163.83 21.9786L164.707 23.4862C166.778 22.8514 169.328 21.5025 171.4 18.9635C172.596 21.2645 173.871 22.6927 174.508 23.4862L175.703 22.0579Z" fill="white"/>
<path d="M174.826 2.77708L172.754 0.476074L171.559 1.19018L173.63 3.80857L174.826 2.77708Z" fill="white"/>
<path d="M205.346 5.71285H204.55H197.378V0.714111H195.465V5.71285H188.293H187.895H186.381V17.3766H187.895H188.293H195.465V23.4862H197.378V17.3766H204.55H205.346H206.462V5.71285H205.346ZM188.293 15.5516V7.29975H195.465V15.5516H188.293ZM197.378 15.5516V7.29975H204.55V15.5516H197.378Z" fill="white"/>
<path d="M240.568 17.2974H237.779V16.1072H236.265V17.2974H227.34V18.5669H236.265V23.645H237.779V18.5669H240.568V17.2974Z" fill="white"/>
<path d="M229.252 20.5503L232.918 23.1687L233.794 21.6611L230.049 19.4395L229.252 20.5503Z" fill="white"/>
<path d="M222.878 0.714111H221.284V2.69774H217.698V4.2053H221.284V6.34761H219.531H218.654H218.096V15.4723H218.654H219.531H221.284V18.3287H217.459V19.8363H221.284V23.4862H222.878V19.8363H226.703V18.3287H222.878V15.4723H224.711H226.145V14.0441V11.267V9.91814V7.93451V6.42696H224.711H222.878V4.2053H226.703V2.69774H222.878V0.714111ZM221.284 7.93451V9.99749H219.531V7.93451H221.284ZM219.531 14.1234V11.3464H221.284V14.1234H219.531ZM224.711 14.1234H222.878V11.3464H224.711V14.1234ZM224.711 7.93451V9.99749H222.878V7.93451H224.711Z" fill="white"/>
<path d="M233.157 5.07809H229.889H228.694H228.455L228.535 11.9811H228.774H229.969H233.236V14.0441L227.897 14.2028L227.977 15.5516L238.735 15.0756L239.372 16.1071L240.647 15.393L238.575 12.4572L237.38 13.0126L237.858 13.7267L234.75 13.8061V11.8224H238.097H238.575H239.532L239.452 5.23678V5.07809H234.671V3.41184H240.169V2.14232H234.671V0.634766H233.077V2.14232H227.658V3.41184H233.077V5.07809H233.157ZM233.157 6.26827V7.69648H229.889V6.26827H233.157ZM229.889 10.7909V9.04534H233.157V10.7909H229.889ZM234.671 10.7909V9.04534H238.018V10.7909H234.671ZM238.018 6.26827V7.69648H234.671V6.26827H238.018Z" fill="white"/>
<path d="M262.402 21.6612V12.5365H270.451V10.7909H262.402V4.20531H271.487V2.38037H250.927V4.20531H260.49V21.6612H255.709V9.20405H253.796V21.6612H250.051V23.4862H272.523V21.6612H262.402Z" fill="white"/>
</svg>
