<svg width="232" height="41" viewBox="0 0 232 41" fill="none" xmlns="http://www.w3.org/2000/svg">
<path d="M5.90481 30.2418V32.2166H9.68508V36.7868H8.89516V36.1661H5.8484V40.0592H5.11492V36.1661H2.23738V36.8996H1.50391V32.1602H5.17133V30.1854H5.90481V30.2418ZM2.29383 32.8936V35.4891H5.17133V32.8936H2.29383ZM5.90481 32.8936V35.4891H8.95161V32.8936H5.90481Z" fill="white" fill-opacity="0.5"/>
<path d="M22.4934 30.8062V31.4832H18.4311V34.5864H21.9292V35.2635H18.4311V38.8745H22.8884V39.608H13.2402V38.9309H14.7636V33.6273H15.4971V38.9309H17.754V31.4832H13.748V30.8062H22.4934Z" fill="white" fill-opacity="0.5"/>
<path d="M26.6686 36.6175C26.5557 37.2946 26.4429 38.3666 26.0479 39.3258C25.8222 39.2694 25.5966 39.2129 25.3145 39.1001C25.5966 38.423 25.7658 37.6896 25.9351 36.4483L26.6686 36.6175ZM29.3768 35.7148L29.264 35.4327C28.8126 35.4891 28.3612 35.5455 27.9663 35.6019V40.0029H27.2328V35.6584C26.6686 35.7148 26.1044 35.7712 25.7094 35.8276L25.5966 35.0942H26.4429C26.725 34.6428 27.0071 34.1914 27.1764 33.8529C26.2172 33.1194 26.1044 33.063 25.4837 32.668L25.8787 32.1038L26.3864 32.3859C26.725 31.6524 27.1199 30.8061 27.3456 30.2419L28.0227 30.5804C27.7406 31.3139 27.1764 32.3295 26.9507 32.7244L27.6277 33.2322C27.9098 32.7809 28.0791 32.5552 28.192 32.3295C28.3048 32.1038 28.4177 31.9345 28.6998 31.3703L29.3768 31.7653C29.0383 32.2731 27.5713 34.5864 27.2328 35.0377C27.8534 34.9813 28.4741 34.9249 28.9819 34.8685C28.8126 34.5864 28.6998 34.2478 28.4741 33.9093L29.0947 33.6272C29.3768 34.1914 29.7718 34.8685 29.9975 35.4891L29.3768 35.7148ZM29.264 36.5047C29.3768 37.1253 29.5461 37.8024 29.7718 38.4795C29.5461 38.5359 29.3204 38.5923 29.0947 38.6487C28.869 38.0281 28.6998 37.2382 28.5869 36.6175L29.264 36.5047ZM34.6241 30.8061V35.1506H33.8906V34.812H31.2952V38.6487C31.2952 39.0437 31.5209 39.0437 31.6901 39.0437H33.3264C33.8906 39.0437 34.1727 39.0437 34.2855 38.9308C34.3984 38.818 34.4548 38.5359 34.5676 37.9717C34.7933 38.0845 35.0755 38.1974 35.3011 38.2538C35.2447 38.7616 35.019 39.4951 34.5676 39.6643C34.3984 39.7207 34.1163 39.7207 33.7213 39.7207H32.1979C31.0695 39.7207 30.6181 39.7207 30.6181 38.8744V34.135H33.947V31.5396H30.1103V30.8625H34.6241V30.8061Z" fill="white" fill-opacity="0.5"/>
<path d="M43.3121 30.2418L43.1429 30.4111C44.497 31.8216 45.5126 32.3294 46.4153 32.7808C46.7538 32.8937 47.2052 33.0629 47.8259 33.2322C47.6002 33.4579 47.4309 33.7964 47.3181 34.0221C46.6974 33.7964 45.7947 33.4579 44.7791 32.8372V33.4579H40.2654V33.0065C39.5883 33.4579 38.9112 33.8528 38.1777 34.1914C38.0649 33.9657 37.8956 33.6836 37.6699 33.4579C39.0805 32.8937 40.1525 32.1037 40.491 31.8781C41.4502 31.201 41.9016 30.6368 42.4094 29.9597L43.3121 30.2418ZM39.8704 37.351C39.5319 38.1973 39.1933 38.8744 38.7984 39.495L38.0649 39.1001C38.5163 38.3666 38.7984 37.8024 39.0805 37.0125L39.8704 37.351ZM45.4562 34.2478L46.0204 34.6992C45.964 34.812 45.2869 36.6175 45.0612 37.1253L44.3277 36.7868C44.5534 36.3354 44.7791 35.7147 45.0612 34.9813H39.0805V34.3042H45.3998L45.4562 34.2478ZM41.3373 36.7303V38.7051C41.3373 39.0436 41.4502 39.1001 41.9016 39.1001H44.4406C44.5534 39.1001 44.6098 39.1001 44.7227 38.8744C44.8355 38.7051 44.8919 38.4794 45.0048 38.028C45.2305 38.1973 45.5126 38.3666 45.7947 38.423C45.4562 39.495 45.174 39.6643 44.9484 39.7771C44.7227 39.8336 44.2713 39.8336 43.9327 39.8336H42.2401C41.6759 39.8336 41.2809 39.8336 41.0552 39.7771C40.6039 39.7207 40.6039 39.2693 40.6039 39.0436V36.7868H41.3373V36.7303ZM44.7227 32.7808C43.8199 32.1602 43.1993 31.6524 42.6915 31.0317C42.1837 31.596 41.4502 32.273 40.6603 32.7808H44.7227ZM42.5786 36.1097C42.9172 36.3918 43.425 36.8996 43.8199 37.2946L43.2557 37.8588C42.8608 37.4074 42.5222 37.0689 42.0709 36.6739L42.5786 36.1097ZM46.2461 36.8996C46.7539 37.4074 47.3745 38.1973 47.7695 38.7615L47.0924 39.2693C46.641 38.5923 46.1332 37.9716 45.569 37.351L46.2461 36.8996Z" fill="white" fill-opacity="0.5"/>
<path d="M57.8698 33.6273V36.2791H55.7257V37.069H58.9418V37.8025H55.7257V38.8745H60.0702V39.608H50.4785V38.8745H54.9358V37.8025H51.5505V37.069H54.9358V36.2791H52.6789V33.6273H57.8698V33.6273ZM55.7257 32.1603H56.7977C57.1927 31.5961 57.7005 30.6933 57.8134 30.4677L58.5468 30.919C58.2083 31.3704 57.9262 31.8218 57.7005 32.1603H59.7317V34.3608H58.9418V32.8374H51.4941V34.3608H50.7041V32.1603H52.9046C52.6225 31.7654 52.3404 31.314 52.0019 30.919L52.5661 30.4677C53.0175 30.9754 53.0739 31.0883 53.5817 31.8218L53.0739 32.1603H54.8794V30.1291H55.6693V32.1603H55.7257ZM53.4688 34.3608V35.6585H57.1363V34.3608H53.4688Z" fill="white" fill-opacity="0.5"/>
<path d="M72.0306 30.5805V40.1158H71.2406V39.5516H64.0187V40.1722H63.2852V30.5805H72.0306ZM64.0751 31.2576V38.7617H71.297V31.2576H64.0751ZM70.2251 35.8842L70.7328 36.4484C70.3943 36.7305 69.9994 37.0126 69.7173 37.2383C70.0558 37.464 70.5072 37.6332 70.8457 37.7461C70.62 37.9153 70.4507 38.1974 70.3379 38.4231C69.2095 37.8589 68.6453 37.5204 67.9682 36.7869V38.4796H67.2347V36.7305C66.2191 37.5204 65.5985 37.8025 64.865 38.141C64.7522 37.9153 64.5829 37.6897 64.3572 37.5204C65.2599 37.2383 66.0498 36.7869 66.7833 36.1663H65.3163V34.4172H69.8301V36.1663H68.2503C68.5324 36.4484 68.8145 36.7305 69.0966 36.8997L70.2251 35.8842ZM67.9682 31.5397V32.1039H70.1122V32.7809H67.9682V33.2323H70.9021V33.9094H64.5264V33.2323H67.2347V32.7809H65.3163V32.1039H67.2347V31.5397H67.9682ZM65.9934 34.925V35.5456H69.0402V34.925H65.9934V34.925Z" fill="white" fill-opacity="0.5"/>
<path d="M84.8382 30.6932V31.3703H76.6006V38.7616H84.8382V39.4386H76.6006V39.9464H75.8672V30.6932H84.8382ZM80.3245 35.3763V37.8588H77.5034V35.3763H80.3245ZM78.1805 35.9405V37.351H79.7038V35.9405H78.1805ZM83.0327 32.1602V34.4735H78.5754V32.1602H83.0327ZM79.196 32.7244V33.9093H82.3557V32.7244H79.196ZM84.274 35.3763V37.8588H81.3965V35.3763H84.274ZM82.0736 35.9405V37.351H83.597V35.9405H82.0736Z" fill="white" fill-opacity="0.5"/>
<path d="M149.724 30.1291V31.314H151.755V31.991H151.134L150.626 33.7401H152.037V34.4172H149.724V35.6585H151.698V36.3355H149.724V36.8997C150.231 37.2947 150.796 37.6332 151.416 37.8589C151.303 38.0282 151.134 38.3103 151.078 38.536C150.626 38.3103 150.175 38.0282 149.724 37.7461V40.1722H148.99V37.2383C148.595 37.8025 148.087 38.3667 147.072 39.3259C146.959 39.1002 146.79 38.8745 146.564 38.7617C147.185 38.3103 147.805 37.8025 148.764 36.392H146.733V35.7149H148.934V34.4736H146.451V33.7965H148.087C147.918 33.3452 147.749 32.6681 147.523 32.0475H146.733V31.3704H148.934V30.1855H149.724V30.1291ZM148.313 31.9346C148.482 32.5553 148.708 33.1759 148.821 33.6837H149.836C150.062 33.1759 150.231 32.4988 150.344 31.9346H148.313ZM153.278 33.6273H156.607V34.3043H155.479V40.0594H154.745V34.3043H153.278C153.222 36.8997 153.222 38.4796 151.586 40.0594C151.473 39.8901 151.303 39.7208 151.021 39.4952C152.432 38.1975 152.601 37.069 152.601 34.4736V31.0319L153.278 31.2011C154.181 30.9754 155.366 30.5805 156.099 30.242L156.551 30.8626C155.479 31.2576 153.842 31.7654 153.278 31.9346V33.6273V33.6273Z" fill="white" fill-opacity="0.5"/>
<path d="M164.168 30.5804V31.3139H162.701C162.645 31.7089 162.588 32.1603 162.532 32.5552H164.055V36.2226H162.758V39.0437C162.758 39.7772 162.588 39.8901 161.347 40.0029C161.347 39.7772 161.291 39.4951 161.178 39.213H161.911C162.024 39.213 162.081 39.1566 162.081 39.0437V36.1662H160.783V32.4988H161.911C161.968 32.1603 162.024 31.7089 162.081 31.2575H160.162C160.162 34.0786 160.162 34.8121 160.162 35.4891C160.106 37.746 159.711 38.818 159.26 39.7208C159.09 39.4951 158.921 39.213 158.695 39.1001C159.485 37.4639 159.485 37.069 159.485 30.5804H164.168V30.5804ZM161.629 37.0125C161.347 37.8589 161.009 38.4231 160.557 39.1566C160.388 38.9873 160.219 38.8745 159.993 38.818C160.444 38.141 160.726 37.6332 161.009 36.7304L161.629 37.0125ZM161.516 33.1194V34.0222H163.378V33.1194H161.516ZM161.516 34.5864V35.6584H163.378V34.5864H161.516ZM163.717 36.7304C164.168 37.5768 164.45 37.8589 164.676 38.0846C164.45 38.1974 164.281 38.3102 164.112 38.4231C163.83 38.0281 163.604 37.746 163.209 37.0125L163.717 36.7304ZM166.256 38.6488C165.353 39.3823 164.845 39.7208 164.055 40.1157C163.943 39.8901 163.773 39.7208 163.604 39.4951C164.732 39.0437 165.41 38.4795 165.748 38.141L166.256 38.6488ZM168.908 30.524V31.2575H166.989C166.933 31.6525 166.877 32.1038 166.764 32.4988H168.456V37.9153H164.845V32.4988H166.143C166.199 32.1038 166.312 31.6525 166.312 31.2575H164.507V30.524H168.908ZM165.635 33.1758V34.1914H167.836V33.1758H165.635ZM165.635 34.7557V35.7148H167.836V34.7557H165.635V34.7557ZM165.635 36.279V37.2946H167.836V36.279H165.635ZM167.497 38.141C168.174 38.818 168.682 39.1566 169.19 39.4387C168.964 39.6644 168.795 39.8336 168.626 40.1157C167.836 39.5515 167.497 39.2694 166.933 38.6488L167.497 38.141Z" fill="white" fill-opacity="0.5"/>
<path d="M179.965 30.4111V33.4014H176.749V34.1349H181.263V34.812H171.502V34.1349H176.016V33.4014H172.856V30.4111H179.965ZM174.774 38.4794C173.59 39.2693 172.63 39.6643 172.01 39.8335C171.897 39.6079 171.784 39.4386 171.558 39.2129C172.63 38.8744 173.251 38.5358 174.267 37.9152L174.774 38.4794ZM179.796 35.3762V37.5202H176.749V39.0436C176.749 39.7771 176.524 39.8335 175.169 40.0028C175.169 39.7771 175.057 39.495 174.887 39.2129H175.846C175.959 39.2129 176.016 39.1565 176.016 39.0436V37.5202H173.082V35.3762H179.796ZM173.59 31.0317V31.5959H179.175V31.0317H173.59ZM173.59 32.1602V32.7808H179.175V32.1602H173.59ZM173.759 36.0533V36.8996H179.062V36.0533H173.759ZM178.103 37.9152C179.288 38.6487 179.965 38.8744 181.037 39.2693C180.868 39.495 180.699 39.7207 180.586 39.9464C179.627 39.6079 178.498 39.0436 177.708 38.5358L178.103 37.9152Z" fill="white" fill-opacity="0.5"/>
<path d="M185.833 30.1291V32.4424H186.849V33.1195H185.833V34.3043C186.172 34.6429 186.51 34.925 186.792 35.1507C186.68 35.3199 186.567 35.5456 186.454 35.8277C186.228 35.602 186.002 35.4328 185.833 35.2071V40.1158H185.1V35.3199C184.818 35.9406 184.479 36.6176 184.084 37.2383C183.971 36.9562 183.802 36.6741 183.633 36.4484C184.592 35.0378 184.931 33.9094 185.1 33.1195H183.971V32.4424H185.1V30.1291H185.833V30.1291ZM189.557 30.5805V35.4328H187.808V37.9153L188.993 37.5204C188.88 37.1819 188.654 36.7305 188.485 36.2791L189.106 35.997C189.388 36.6176 189.67 37.4075 189.952 38.0846L189.331 38.3667L189.219 38.0846C188.372 38.4231 187.526 38.7617 186.623 39.1002L186.397 38.3667L187.131 38.141V30.5805H189.557ZM187.808 31.2576V32.6681H188.88V31.2576H187.808ZM187.808 33.3452V34.7557H188.88V33.3452H187.808ZM193.563 30.5805V31.2576H192.83C192.773 33.0066 192.717 33.6837 192.491 34.7557H193.789V35.4328H192.322C192.265 35.6585 192.209 35.8277 192.153 36.0534H192.322V38.9309C192.322 39.0438 192.322 39.1566 192.491 39.1566C192.886 39.1566 192.942 39.1566 192.999 39.0438C193.112 38.9309 193.168 38.3667 193.168 38.1975C193.394 38.3103 193.619 38.3667 193.902 38.4231C193.676 39.6644 193.563 39.8901 192.942 39.8901C192.66 39.8901 192.096 39.8901 192.04 39.8901C191.758 39.8337 191.645 39.608 191.645 39.213V37.3511C191.024 38.536 190.178 39.4952 189.444 40.0594C189.275 39.8337 189.162 39.608 188.88 39.4387C189.557 38.9309 190.855 37.9718 191.645 35.4892H189.896V34.8121H190.403V31.314H190.008V30.5805H193.563ZM191.08 31.2576V34.7557H191.758C191.927 33.9094 192.04 33.2887 192.096 31.2576H191.08Z" fill="white" fill-opacity="0.5"/>
<path d="M201.689 30.2418L201.52 30.4111C202.874 31.8216 203.89 32.3294 204.792 32.7808C205.131 32.8937 205.582 33.0629 206.203 33.2322C205.977 33.4579 205.808 33.7964 205.695 34.0221C205.074 33.7964 204.172 33.4579 203.156 32.8372V33.4579H198.642V33.0065C197.965 33.4579 197.288 33.8528 196.555 34.1914C196.442 33.9657 196.273 33.6836 196.047 33.4579C197.457 32.8937 198.529 32.1037 198.868 31.8781C199.827 31.201 200.278 30.6368 200.786 29.9597L201.689 30.2418ZM198.191 37.351C197.852 38.1973 197.514 38.8744 197.119 39.495L196.385 39.1001C196.837 38.3666 197.119 37.8024 197.401 37.0125L198.191 37.351ZM203.833 34.2478L204.397 34.6992C204.341 34.812 203.664 36.6175 203.438 37.1253L202.705 36.7868C202.93 36.3354 203.156 35.7147 203.438 34.9813H197.457V34.3042H203.777L203.833 34.2478ZM199.658 36.7303V38.7051C199.658 39.0436 199.771 39.1001 200.222 39.1001H202.761C202.874 39.1001 202.93 39.1001 203.043 38.8744C203.156 38.7051 203.212 38.4794 203.325 38.028C203.551 38.1973 203.833 38.3666 204.115 38.423C203.777 39.495 203.495 39.6643 203.269 39.7771C203.043 39.8336 202.592 39.8336 202.253 39.8336H200.561C199.996 39.8336 199.601 39.8336 199.376 39.7771C198.924 39.7207 198.924 39.2693 198.924 39.0436V36.7868H199.658V36.7303ZM203.1 32.7808C202.197 32.1602 201.576 31.6524 201.068 31.0317C200.561 31.596 199.827 32.273 199.037 32.7808H203.1ZM200.899 36.1097C201.238 36.3918 201.745 36.8996 202.14 37.2946L201.576 37.8588C201.181 37.4074 200.843 37.0689 200.391 36.6739L200.899 36.1097ZM204.623 36.8996C205.131 37.4074 205.751 38.1973 206.146 38.7615L205.469 39.2693C205.018 38.5923 204.51 37.9716 203.946 37.351L204.623 36.8996Z" fill="white" fill-opacity="0.5"/>
<path d="M212.86 34.2478V36.6176H212.183V38.4231C212.521 38.1974 213.029 37.9153 213.311 37.6896L213.424 38.4231C213.142 38.6487 211.957 39.4387 211.393 39.7772L210.998 39.1001L211.336 38.8744V36.674H210.603C210.546 38.5923 209.982 39.3822 208.854 40.0593C208.741 39.8336 208.572 39.6079 208.402 39.3822C209.305 38.818 209.869 38.3666 209.926 36.674H209.023V34.3043H212.86V34.2478ZM211.506 30.0162V30.9754H213.142V31.596H212.634C212.465 31.991 212.352 32.4988 212.183 32.9501H213.311V33.5708H208.741V32.9501H209.869C209.757 32.4988 209.587 31.991 209.474 31.596H209.079V30.9754H210.659V30.0162H211.506ZM209.869 34.8685V35.9405H212.07V34.8685H209.869ZM210.321 31.596C210.434 32.0474 210.603 32.4988 210.659 32.9501H211.506C211.618 32.4988 211.788 31.991 211.901 31.596H210.321ZM217.938 34.2478V36.6176H217.091V38.9309C217.091 39.213 217.204 39.213 217.317 39.213C217.938 39.213 217.938 39.213 218.051 38.3666C218.276 38.4795 218.558 38.5923 218.784 38.5923C218.558 39.89 218.22 39.89 217.881 39.89C217.543 39.89 216.922 39.89 216.866 39.89C216.584 39.8336 216.414 39.6079 216.414 39.1565V36.674H215.568C215.512 38.5923 214.947 39.3822 213.593 40.1157C213.48 39.89 213.311 39.6079 213.142 39.4386C214.496 38.818 214.834 38.1409 214.834 36.674H214.214V34.3043H217.938V34.2478ZM216.414 30.0162V30.9754H218.333V31.596H217.712C217.543 31.991 217.43 32.4988 217.261 32.9501H218.671V33.5708H213.819V32.9501H214.834C214.722 32.4988 214.552 32.0474 214.44 31.596H213.988V30.9754H215.624V30.0162H216.414ZM214.891 34.8685V35.9405H217.204V34.8685H214.891ZM215.173 31.596C215.286 31.991 215.455 32.4988 215.568 32.9501H216.527C216.64 32.5552 216.809 31.991 216.922 31.596H215.173Z" fill="white" fill-opacity="0.5"/>
<path d="M230.351 30.6368V40.0592H229.617V39.6643H222.282V40.0592H221.549V30.6368H230.351ZM222.282 31.3138V39.0436H229.617V31.3138H222.282ZM228.319 31.878V33.5143H226.345V34.0785H229.109V34.5863H222.79V34.0785H225.668V33.5143H223.693V31.878H228.319ZM228.602 35.0941V38.4794H223.467V35.0941H228.602ZM224.088 35.5455V37.9716H227.981V35.5455H224.088ZM224.314 32.3858V33.0629H227.642V32.3858H224.314ZM227.304 36.0533V37.5202H224.708V36.0533H227.304ZM225.216 36.5046V37.0689H226.683V36.5046H225.216Z" fill="white" fill-opacity="0.5"/>
<path d="M231.761 25.5027H0.939453" stroke="white" stroke-opacity="0.5" stroke-width="0.7498" stroke-miterlimit="10"/>
<path d="M17.8107 3.94969V2.76483H13.5226L14.8203 0.620799L13.4662 0.0565796L11.8864 2.76483H1.22266V3.94969H9.06531L8.3318 5.81162H4.38227H3.81805H3.08457V16.2497H3.81805H4.38227H14.6511H15.3281H16.0052V5.81162H15.3281H14.6511H9.68594L10.5323 3.94969H17.8107ZM4.43871 9.87399H14.7075V11.7359H4.43871V9.87399ZM4.43871 15.0648V12.8644H14.7075V15.0648H4.43871ZM14.7075 8.68913H4.43871V6.99647H14.7075V8.68913Z" fill="white" fill-opacity="0.5"/>
<path d="M4.55187 1.29785C4.55187 1.35427 4.55186 1.35427 4.60828 1.4107H4.66469L5.34176 2.53913V2.59556H5.3982C5.45462 2.53913 5.62388 2.48271 5.84957 2.36987C6.30095 2.14418 6.47022 2.08776 6.52664 2.03134H6.58305L6.4702 1.86207C6.41378 1.74923 6.30094 1.52354 6.01883 1.18501C5.90599 1.01574 5.79316 0.902898 5.68031 0.790054L5.45461 0.282257L5.34176 0.338679L4.32617 0.790054L4.55187 1.29785Z" fill="white" fill-opacity="0.5"/>
<path d="M32.4804 0.958913C32.1419 1.80524 31.4084 3.78001 29.7157 5.8112H28.7566V3.32863H31.4084V2.2002H28.7566V0.507538H27.5717V2.14377H24.807V3.32863H27.5717V5.8112H24.3557V6.88321H28.7002C27.5153 8.06807 25.9355 9.14009 23.9043 9.93L24.2993 11.1149C24.6378 11.002 25.1456 10.7763 25.8226 10.4378V16.1364H26.8382H27.1204H31.1263H32.424V15.1208V12.8075V11.7919V9.87357V9.81715V8.9144H28.2488C28.9259 8.35018 29.6029 7.72954 30.3364 6.93964H33.6089V5.86762H31.2391C32.1419 4.68276 32.9882 3.15937 33.6653 1.35387L32.4804 0.958913ZM31.1827 15.1208H27.1768V12.8075H31.1827V15.1208ZM31.1827 11.7919H27.1768V9.87357H31.1827V11.7919Z" fill="white" fill-opacity="0.5"/>
<path d="M40.5493 9.98646C40.3236 8.8016 39.8158 7.61674 38.236 6.48831L40.4929 1.01538H34.625V1.80529V2.20024V16.7571H35.9227V2.20024H38.6874L36.8819 6.82684C39.9851 8.74518 40.38 12.2433 36.8254 13.936L37.3897 15.0644C39.1952 14.2745 41.0007 12.5819 40.5493 9.98646Z" fill="white" fill-opacity="0.5"/>
<path d="M57.3632 15.3467C55.3884 15.2338 54.0343 14.726 53.0188 14.1054C56.5733 12.4127 61.0306 8.01181 63.0618 3.27237H56.0655V0.564117H54.7114V3.27237H48.8999V4.45723H60.9178C60.3536 5.75493 57.5889 10.2123 51.9467 13.259C51.2697 12.582 50.8183 11.9613 50.4798 11.7357L48.2793 16.0801L49.3513 16.8701L50.7619 14.1618C53.188 16.4751 54.9371 16.7572 57.3068 16.7572L63.7953 16.8136V15.3467H57.3632Z" fill="white" fill-opacity="0.5"/>
<path d="M69.8887 13.8235L71.2428 14.5005C72.0327 12.695 73.3869 8.40696 73.3869 5.86798L72.0327 5.81155C71.9763 7.50421 70.9607 11.7923 69.8887 13.8235Z" fill="white" fill-opacity="0.5"/>
<path d="M76.7151 15.1775V4.62665H76.6586H75.3045H75.248V16.4188C78.6334 16.983 80.721 16.4752 83.0907 16.4188L82.9215 15.0647C79.7619 15.3468 78.4077 15.4597 76.7151 15.1775Z" fill="white" fill-opacity="0.5"/>
<path d="M83.3741 5.58566L82.1328 6.2063C82.1328 6.26273 86.4209 14.3311 86.4209 14.3311L87.6621 13.654L83.3741 5.58566Z" fill="white" fill-opacity="0.5"/>
<path d="M80.8358 3.89317L76.6041 6.10352e-05L75.7578 1.01566L79.933 4.96519L80.8358 3.89317Z" fill="white" fill-opacity="0.5"/>
<path d="M150.627 11.5665L149.386 11.9614V6.26283H150.796V5.07797H149.386V0.620636H148.088V5.07797H146.396V6.26283H148.088V12.3L146.17 12.9206L146.508 14.1055L150.74 12.8078L150.627 11.5665Z" fill="white" fill-opacity="0.5"/>
<path d="M162.871 15.6852C161.855 14.6132 161.122 13.4848 160.557 12.3563C161.46 10.7765 162.137 8.74532 162.25 6.09349L161.065 5.98065C161.009 6.99624 160.84 8.97101 159.937 10.8894C158.865 8.12468 158.808 5.52928 158.865 4.17515H162.758V3.04671C162.758 3.04671 161.009 3.04671 158.921 3.04671V0.564148H157.623V3.04671C154.972 3.04671 152.263 3.04671 152.263 3.04671C152.263 7.84257 152.715 13.2591 149.668 15.7981L150.627 16.8137C151.868 15.7416 153.166 13.5976 153.392 9.59165C153.448 9.02743 153.448 8.46321 153.505 8.01184H155.705C155.818 9.42239 155.649 12.0178 155.141 13.1462L156.326 13.4283C156.946 11.2843 156.834 8.40679 156.834 6.93982H156.551H156.1H153.618C153.674 4.79579 153.561 4.06231 153.561 4.06231H157.68C157.68 7.50404 158.357 10.1559 159.203 12.1871C158.244 13.5976 156.721 14.8953 154.464 15.6288L155.084 16.7008C156.551 16.2494 158.357 15.2903 159.824 13.4848C160.67 15.121 161.573 16.1366 162.024 16.7008L162.871 15.6852Z" fill="white" fill-opacity="0.5"/>
<path d="M162.251 2.03113L160.784 0.33847L159.938 0.846268L161.404 2.70819L162.251 2.03113Z" fill="white" fill-opacity="0.5"/>
<path d="M183.86 4.06227H183.296H178.218V0.50769H176.864V4.06227H171.786H171.504H170.432V12.3563H171.504H171.786H176.864V16.7008H178.218V12.3563H183.296H183.86H184.65V4.06227H183.86ZM171.786 11.0586V5.19071H176.864V11.0586H171.786ZM178.161 11.0586V5.19071H183.239V11.0586H178.161Z" fill="white" fill-opacity="0.5"/>
<path d="M208.798 12.2999H206.823V11.4535H205.751V12.2999H199.432V13.2026H205.751V16.87H206.823V13.2026H208.798V12.2999Z" fill="white" fill-opacity="0.5"/>
<path d="M200.785 14.6696L203.381 16.4751L203.945 15.4595L201.349 13.8233L200.785 14.6696Z" fill="white" fill-opacity="0.5"/>
<path d="M196.272 0.507751H195.144V1.9183H192.605V2.99032H195.144V4.51371H193.903H193.282H192.887V11.0022H193.282H193.903H195.144V13.0334H192.436V14.1054H195.144V16.7008H196.272V14.1054H198.98V13.0334H196.272V11.0022H197.57H198.586V9.98663V8.01187V7.05269V5.58572V4.57013H197.57H196.272V3.04674H198.98V1.9183H196.272V0.507751ZM195.144 5.64215V7.10912H193.903V5.64215H195.144ZM193.903 10.0995V8.12471H195.144V10.0995H193.903ZM197.57 10.0995H196.272V8.12471H197.57V10.0995ZM197.57 5.64215V7.10912H196.272V5.64215H197.57Z" fill="white" fill-opacity="0.5"/>
<path d="M203.495 3.66734H201.181H200.335H200.166L200.222 8.57605H200.391H201.238H203.551V10.043L199.771 10.1559L199.827 11.115L207.444 10.7765L207.896 11.51L208.798 11.0022L207.331 8.91458L206.485 9.30953L206.824 9.81733L204.623 9.87375V8.57605H206.993H207.331H208.008L207.952 3.78019V3.66734H204.567V2.42606H208.46V1.52331H204.567V0.451294H203.438V1.52331H199.602V2.42606H203.438V3.66734H203.495ZM203.495 4.51367V5.52927H201.181V4.51367H203.495ZM201.238 7.6733V6.43202H203.551V7.6733H201.238V7.6733ZM204.623 7.6733V6.43202H206.993V7.6733H204.623V7.6733ZM206.993 4.51367V5.52927H204.623V4.51367H206.993Z" fill="white" fill-opacity="0.5"/>
<path d="M224.257 15.4596V8.97106H229.956V7.67335H224.257V2.99034H230.633V1.74905H216.132V2.99034H222.903V15.4596H219.518V6.54492H218.164V15.4596H215.512V16.7009H231.423V15.4596H224.257Z" fill="white" fill-opacity="0.5"/>
</svg>
