<svg width="51" height="720" viewBox="0 0 51 720" fill="none" xmlns="http://www.w3.org/2000/svg">
<path d="M42.2387 544.53C42.2387 545.86 42.9909 546.439 43.8589 546.613L43.8589 547.538C42.4123 547.307 41.4287 546.265 41.4287 544.53C41.4287 542.504 43.0488 541 45.479 541C47.967 541 49.5293 542.504 49.5293 544.53C49.5293 546.265 48.5457 547.249 47.0991 547.538L47.0991 546.613C47.967 546.439 48.7192 545.86 48.7192 544.53C48.7192 542.909 47.4463 541.984 45.479 541.984C43.5696 541.984 42.2387 542.909 42.2387 544.53Z" fill="white" fill-opacity="0.5"/>
<path d="M41.4287 551.183C41.4287 549.679 42.5281 548.58 44.3218 548.58C46.1155 548.58 47.2148 549.679 47.2148 551.183C47.2148 552.688 46.1155 553.787 44.3218 553.787C42.5281 553.787 41.4287 552.746 41.4287 551.183ZM42.1809 551.183C42.1809 552.283 42.991 552.919 44.3218 552.919C45.6526 552.919 46.4626 552.283 46.4626 551.183C46.4626 550.084 45.6526 549.448 44.3218 549.448C42.991 549.448 42.1809 550.142 42.1809 551.183Z" fill="white" fill-opacity="0.5"/>
<path d="M46.1143 556.275C46.8086 556.564 47.2715 557.259 47.2715 558.069C47.2715 559.284 46.5193 560.036 45.1885 560.036L41.6011 560.036L41.6011 559.11L44.957 559.11C45.9985 559.11 46.5193 558.647 46.5193 557.78C46.5193 556.912 45.9985 556.275 44.6677 556.275L41.6011 556.275L41.6011 555.349L47.0979 555.349L47.0979 556.217L46.1143 556.217L46.1143 556.275Z" fill="white" fill-opacity="0.5"/>
<path d="M47.2148 564.144C47.2148 565.359 46.5205 566.169 45.3633 566.343L45.3633 565.475C46.1155 565.302 46.5205 564.896 46.5205 564.144C46.5205 563.045 45.6526 562.466 44.3796 562.466C43.1067 562.466 42.2388 563.103 42.2388 564.144C42.2388 564.896 42.6438 565.359 43.396 565.475L43.396 566.343C42.1809 566.169 41.5444 565.359 41.5444 564.144C41.5444 562.582 42.6438 561.541 44.4375 561.541C46.1155 561.541 47.2148 562.582 47.2148 564.144Z" fill="white" fill-opacity="0.5"/>
<path d="M41.4287 570.104C41.4287 568.542 42.5281 567.442 44.3218 567.442C46.1155 567.442 47.2148 568.6 47.2148 570.046C47.2148 571.666 45.884 572.418 44.4954 572.418L44.1482 572.418L44.1482 568.31C42.8752 568.368 42.1809 569.005 42.1809 570.104C42.1809 570.856 42.5281 571.319 43.2224 571.551L43.2224 572.361C42.0073 572.129 41.4287 571.203 41.4287 570.104ZM44.7847 568.368L44.7847 571.551C45.7683 571.551 46.4626 571.03 46.4626 570.046C46.5205 569.178 45.9419 568.542 44.7847 568.368Z" fill="white" fill-opacity="0.5"/>
<path d="M39.6338 574.849L39.6338 573.923L47.0979 573.923L47.0979 574.791L46.1143 574.791C46.6929 575.022 47.2715 575.717 47.2715 576.642C47.2715 578.031 46.1143 579.13 44.3784 579.13C42.6426 579.13 41.4853 578.089 41.4853 576.642C41.4853 575.717 42.0061 575.08 42.5847 574.791L39.6338 574.791L39.6338 574.849ZM44.2627 574.849C42.9897 574.849 42.1797 575.485 42.1797 576.527C42.1797 577.626 43.0476 578.262 44.3784 578.262C45.6514 578.262 46.5771 577.626 46.5771 576.527C46.5771 575.427 45.7092 574.849 44.4941 574.849L44.2627 574.849Z" fill="white" fill-opacity="0.5"/>
<path d="M41.6587 583.297C41.543 582.892 41.4851 582.544 41.4851 582.313C41.4851 581.329 41.948 580.809 42.9895 580.809L46.4033 580.809L46.4033 579.999L47.0977 579.999L47.0977 580.809L48.4863 580.809L48.4863 581.734L47.0977 581.734L47.0977 583.181L46.4033 583.181L46.4033 581.734L43.0474 581.734C42.4687 581.734 42.2952 582.024 42.2952 582.544C42.2952 582.776 42.2952 583.007 42.4109 583.355L41.6587 583.355L41.6587 583.297Z" fill="white" fill-opacity="0.5"/>
<path d="M41.6016 588.446L42.5852 588.446C41.8909 588.157 41.428 587.52 41.428 586.71C41.428 585.437 42.1802 584.743 43.511 584.743L47.0984 584.743L47.0984 585.669L43.7424 585.669C42.7009 585.669 42.1802 586.074 42.1802 586.942C42.1802 587.752 42.7588 588.388 44.0896 588.388L47.1563 588.388L47.1562 589.314L41.6594 589.314L41.6594 588.446L41.6016 588.446Z" fill="white" fill-opacity="0.5"/>
<path d="M42.5268 594.579C41.8904 594.348 41.4853 593.596 41.4853 592.67C41.4853 591.686 42.064 590.876 43.0476 590.876C44.0891 590.876 44.552 591.686 44.7256 592.786L44.957 594.579L45.3042 594.579C46.1721 594.579 46.5771 594.059 46.5771 593.307C46.5771 592.554 46.1721 592.091 45.5356 592.034L45.5356 591.166C46.635 591.281 47.2715 592.149 47.2715 593.307C47.2715 594.637 46.635 595.505 45.3042 595.505L42.7583 595.505C42.3533 595.505 41.9482 595.505 41.6011 595.621L41.6011 594.695C41.8904 594.579 42.2375 594.579 42.5268 594.579ZM43.7419 594.522L44.2627 594.522L44.0891 593.017C43.9734 592.323 43.7998 591.744 43.0476 591.744C42.5269 591.744 42.1218 592.091 42.1218 592.786C42.1218 593.654 42.7004 594.522 43.7419 594.522Z" fill="white" fill-opacity="0.5"/>
<path d="M41.6025 597.357L49.7031 597.357L49.7031 598.283L41.6025 598.283L41.6025 597.357Z" fill="white" fill-opacity="0.5"/>
<path d="M45.4795 609.219C43.1072 609.219 41.5449 607.656 41.5449 605.4L41.5449 602.622L49.4141 602.622L49.4141 605.4C49.4141 607.656 47.8518 609.219 45.4795 609.219ZM48.604 603.548L42.355 603.548L42.355 605.4C42.355 607.251 43.5701 608.235 45.4795 608.235C47.3889 608.235 48.604 607.194 48.604 605.4L48.604 603.548Z" fill="white" fill-opacity="0.5"/>
<path d="M41.4287 612.98C41.4287 611.417 42.5281 610.318 44.3218 610.318C46.1155 610.318 47.2148 611.475 47.2148 612.922C47.2148 614.542 45.884 615.294 44.4954 615.294L44.1482 615.294L44.1482 611.186C42.8752 611.244 42.1809 611.88 42.1809 612.98C42.1809 613.732 42.5281 614.195 43.2224 614.426L43.2224 615.294C42.0073 615.005 41.4287 614.079 41.4287 612.98ZM44.7847 611.244L44.7847 614.426C45.7683 614.426 46.4626 613.905 46.4626 612.922C46.5205 612.054 45.9419 611.417 44.7847 611.244Z" fill="white" fill-opacity="0.5"/>
<path d="M43.2224 617.319C42.4702 617.377 42.123 618.071 42.123 618.824C42.123 619.576 42.4702 620.154 43.0488 620.154C43.4539 620.154 43.7432 619.865 43.8589 619.171L44.0325 618.187C44.206 617.319 44.5532 616.625 45.5369 616.625C46.4626 616.625 47.2148 617.435 47.2148 618.65C47.2148 619.923 46.6941 620.675 45.5947 620.791L45.5947 619.923C46.1733 619.865 46.4626 619.344 46.4626 618.592C46.4626 617.84 46.1155 617.377 45.5369 617.377C45.074 617.377 44.8425 617.724 44.7268 618.361L44.4954 619.46C44.3218 620.386 43.8589 620.907 42.991 620.907C42.0073 620.907 41.313 619.981 41.313 618.766C41.313 617.435 41.8916 616.451 43.1067 616.335L43.1067 617.319L43.2224 617.319Z" fill="white" fill-opacity="0.5"/>
<path d="M49.3555 622.527L49.3555 623.568L48.2561 623.568L48.2561 622.527L49.3555 622.527ZM47.0989 622.585L47.0989 623.51L41.602 623.51L41.602 622.585L47.0989 622.585Z" fill="white" fill-opacity="0.5"/>
<path d="M42.7583 629.296C42.2375 629.065 41.7168 628.428 41.7168 627.445C41.7168 626.056 42.7583 625.015 44.4941 625.015C46.1721 625.015 47.2715 626.056 47.2715 627.445C47.2715 628.428 46.6929 629.065 46.1721 629.296L47.1558 629.296L47.1558 630.222L42.064 630.222C40.3281 630.222 39.5759 629.065 39.5759 627.618C39.5759 626.288 40.0967 625.362 41.196 625.188L41.196 626.114C40.5017 626.288 40.2703 626.866 40.2703 627.618C40.2703 628.718 40.8489 629.296 42.0061 629.296L42.7583 629.296ZM44.6099 629.354C45.7671 629.354 46.5193 628.66 46.5193 627.618C46.5193 626.519 45.7092 625.883 44.4941 625.883C43.2791 625.883 42.4111 626.519 42.4111 627.618C42.4111 628.66 43.2212 629.354 44.3206 629.354L44.6099 629.354Z" fill="white" fill-opacity="0.5"/>
<path d="M46.1143 633.057C46.8086 633.347 47.2715 634.041 47.2715 634.851C47.2715 636.066 46.5193 636.818 45.1885 636.818L41.6011 636.818L41.6011 635.893L44.957 635.893C45.9985 635.893 46.5193 635.43 46.5193 634.562C46.5193 633.694 45.9985 633.057 44.6677 633.057L41.6011 633.057L41.6011 632.132L47.0979 632.132L47.0979 633L46.1143 633L46.1143 633.057Z" fill="white" fill-opacity="0.5"/>
<path d="M42.2387 644.225C42.2387 645.555 42.9909 646.134 43.8589 646.308L43.8589 647.233C42.4123 647.002 41.4287 645.96 41.4287 644.225C41.4287 642.199 43.0488 640.695 45.479 640.695C47.967 640.695 49.5293 642.199 49.5293 644.225C49.5293 645.96 48.5457 646.944 47.0991 647.233L47.0991 646.308C47.967 646.134 48.7192 645.555 48.7192 644.225C48.7192 642.605 47.4463 641.679 45.479 641.679C43.5696 641.679 42.2387 642.605 42.2387 644.225Z" fill="white" fill-opacity="0.5"/>
<path d="M41.4287 650.879C41.4287 649.374 42.5281 648.275 44.3218 648.275C46.1155 648.275 47.2148 649.374 47.2148 650.879C47.2148 652.383 46.1155 653.482 44.3218 653.482C42.5281 653.482 41.4287 652.383 41.4287 650.879ZM42.1809 650.879C42.1809 651.978 42.991 652.615 44.3218 652.615C45.6526 652.615 46.4626 651.978 46.4626 650.879C46.4626 649.779 45.6526 649.143 44.3218 649.143C42.991 649.143 42.1809 649.779 42.1809 650.879Z" fill="white" fill-opacity="0.5"/>
<path d="M47.2148 661.236C47.2148 662.509 46.4048 663.145 45.1318 663.145L41.5444 663.145L41.5444 662.22L44.9004 662.22C45.9419 662.22 46.4626 661.872 46.4626 661.004C46.4626 660.194 45.884 659.558 44.6111 659.558L41.5444 659.558L41.5444 658.632L44.9004 658.632C45.9419 658.632 46.4626 658.285 46.4626 657.417C46.4626 656.607 45.884 655.97 44.6111 655.97L41.5444 655.97L41.5444 655.045L47.0413 655.045L47.0413 655.913L46.0576 655.913C46.752 656.202 47.2148 656.838 47.2148 657.648C47.2148 658.574 46.752 659.095 46.0576 659.326C46.8098 659.674 47.2148 660.426 47.2148 661.236Z" fill="white" fill-opacity="0.5"/>
<path d="M39.6338 665.923L39.6338 664.997L47.0979 664.997L47.0979 665.865L46.1143 665.865C46.6929 666.096 47.2715 666.791 47.2715 667.717C47.2715 669.105 46.1143 670.205 44.3784 670.205C42.6426 670.205 41.4853 669.163 41.4853 667.717C41.4853 666.791 42.0061 666.154 42.5847 665.865L39.6338 665.865L39.6338 665.923ZM44.2627 665.865C42.9897 665.865 42.1797 666.501 42.1797 667.543C42.1797 668.642 43.0476 669.279 44.3784 669.279C45.6514 669.279 46.5771 668.642 46.5771 667.543C46.5771 666.444 45.7092 665.865 44.4941 665.865L44.2627 665.865Z" fill="white" fill-opacity="0.5"/>
<path d="M41.4287 674.023C41.4287 672.461 42.5281 671.362 44.3218 671.362C46.1155 671.362 47.2148 672.519 47.2148 673.965C47.2148 675.585 45.884 676.338 44.4954 676.338L44.1482 676.338L44.1482 672.23C42.8752 672.287 42.1809 672.924 42.1809 674.023C42.1809 674.775 42.5281 675.238 43.2224 675.47L43.2224 676.338C42.0073 676.048 41.4287 675.065 41.4287 674.023ZM44.7847 672.287L44.7847 675.47C45.7683 675.47 46.4626 674.949 46.4626 673.965C46.5205 673.097 45.9419 672.403 44.7847 672.287Z" fill="white" fill-opacity="0.5"/>
<path d="M41.6587 680.446C41.543 680.041 41.4851 679.694 41.4851 679.462C41.4851 678.479 41.948 677.958 42.9895 677.958L46.4033 677.958L46.4033 677.148L47.0977 677.148L47.0977 677.958L48.4863 677.958L48.4863 678.826L47.0977 678.826L47.0977 680.272L46.4033 680.272L46.4033 678.826L43.0474 678.826C42.4687 678.826 42.2952 679.115 42.2952 679.636C42.2952 679.867 42.2952 680.099 42.4109 680.446L41.6587 680.446V680.446Z" fill="white" fill-opacity="0.5"/>
<path d="M49.3555 681.834L49.3555 682.876L48.2561 682.876L48.2561 681.834L49.3555 681.834ZM47.0989 681.95L47.0989 682.876L41.602 682.876L41.602 681.95L47.0989 681.95Z" fill="white" fill-opacity="0.5"/>
<path d="M41.6587 687.389C41.543 686.984 41.4851 686.637 41.4851 686.406C41.4851 685.422 41.948 684.901 42.9895 684.901L46.4033 684.901L46.4033 684.033L47.0977 684.033L47.0977 684.843L48.4863 684.843L48.4863 685.769L47.0977 685.769L47.0977 687.216L46.4033 687.216L46.4033 685.769L43.0474 685.769C42.4687 685.769 42.2952 686.058 42.2952 686.579C42.2952 686.811 42.2952 687.042 42.4109 687.389L41.6587 687.389Z" fill="white" fill-opacity="0.5"/>
<path d="M49.3555 688.778L49.3555 689.82L48.2561 689.82L48.2561 688.778L49.3555 688.778ZM47.0989 688.836L47.0989 689.762L41.602 689.762L41.602 688.836L47.0989 688.836Z" fill="white" fill-opacity="0.5"/>
<path d="M41.4287 693.928C41.4287 692.423 42.5281 691.324 44.3218 691.324C46.1155 691.324 47.2148 692.423 47.2148 693.928C47.2148 695.432 46.1155 696.532 44.3218 696.532C42.5281 696.532 41.4287 695.432 41.4287 693.928ZM42.1809 693.928C42.1809 695.027 42.991 695.664 44.3218 695.664C45.6526 695.664 46.4626 695.027 46.4626 693.928C46.4626 692.828 45.6526 692.192 44.3218 692.192C42.991 692.192 42.1809 692.828 42.1809 693.928Z" fill="white" fill-opacity="0.5"/>
<path d="M46.1143 698.961C46.8086 699.251 47.2715 699.945 47.2715 700.755C47.2715 701.97 46.5193 702.722 45.1885 702.722L41.6011 702.722L41.6011 701.797L44.957 701.797C45.9985 701.797 46.5193 701.334 46.5193 700.466C46.5193 699.598 45.9985 698.961 44.6677 698.961L41.6011 698.961L41.6011 698.036L47.0979 698.036L47.0979 698.904L46.1143 698.904L46.1143 698.961Z" fill="white" fill-opacity="0.5"/>
<path d="M46.405 706.368L47.0994 706.368L47.0994 707.178L48.1409 707.178C49.1824 707.178 49.7031 707.814 49.7031 708.798C49.7031 708.971 49.7031 709.261 49.6453 709.434L48.8931 709.434C48.8931 709.319 48.9509 709.087 48.9509 708.856C48.9509 708.451 48.7773 708.104 48.1409 708.104L47.0994 708.104L47.0994 709.319L46.405 709.319L46.405 708.104L41.5447 708.104L41.5447 707.178L46.405 707.178L46.405 706.368V706.368Z" fill="white" fill-opacity="0.5"/>
<path d="M41.4287 712.675C41.4287 711.17 42.5281 710.071 44.3218 710.071C46.1155 710.071 47.2148 711.17 47.2148 712.675C47.2148 714.179 46.1155 715.279 44.3218 715.279C42.5281 715.279 41.4287 714.179 41.4287 712.675ZM42.1809 712.675C42.1809 713.774 42.991 714.411 44.3218 714.411C45.6526 714.411 46.4626 713.774 46.4626 712.675C46.4626 711.575 45.6526 710.939 44.3218 710.939C42.991 710.939 42.1809 711.575 42.1809 712.675Z" fill="white" fill-opacity="0.5"/>
<path d="M46.3469 719.908C46.4048 719.792 46.4048 719.56 46.4048 719.445C46.4048 718.577 45.7104 717.767 44.3218 717.767L41.6023 717.767L41.6023 716.841L47.0991 716.841L47.0991 717.709L45.7683 717.709C46.6941 717.94 47.2148 718.635 47.2148 719.445C47.2148 719.56 47.2148 719.734 47.157 719.85L46.3469 719.85L46.3469 719.908Z" fill="white" fill-opacity="0.5"/>
<path d="M36.2207 618.534L36.2207 619.46L32.749 619.46L32.749 624.031L36.2207 624.031L36.2207 625.015L28.3515 625.015L28.3515 624.089L31.9968 624.089L31.9968 619.518L28.4094 619.518L28.4094 618.592L36.2207 618.592L36.2207 618.534Z" fill="white" fill-opacity="0.5"/>
<path d="M28.2939 629.296C28.2939 627.734 29.3933 626.635 31.187 626.635C32.9807 626.635 34.0801 627.792 34.0801 629.239C34.0801 630.859 32.7493 631.611 31.3606 631.611L31.0134 631.611L31.0134 627.503C29.7405 627.561 29.0461 628.197 29.0461 629.296C29.0461 630.049 29.3933 630.512 30.0876 630.743L30.0876 631.611C28.8725 631.322 28.2939 630.338 28.2939 629.296ZM31.6499 627.561L31.6499 630.743C32.6335 630.743 33.3279 630.222 33.3279 629.239C33.3279 628.371 32.7493 627.676 31.6499 627.561Z" fill="white" fill-opacity="0.5"/>
<path d="M29.3354 636.529C28.699 636.298 28.2939 635.545 28.2939 634.62C28.2939 633.636 28.8725 632.826 29.8562 632.826C30.8977 632.826 31.3606 633.636 31.5342 634.735L31.7656 636.529L32.1128 636.529C32.9807 636.529 33.3857 636.008 33.3857 635.256C33.3857 634.504 32.9807 634.041 32.3442 633.983L32.3442 633.115C33.4436 633.231 34.0801 634.099 34.0801 635.256C34.0801 636.587 33.4436 637.455 32.1128 637.455L29.5669 637.455C29.1619 637.455 28.7568 637.455 28.4097 637.571L28.4097 636.645C28.699 636.587 29.0461 636.529 29.3354 636.529ZM30.5505 636.529L31.0713 636.529L30.8977 635.025C30.782 634.33 30.6084 633.752 29.8562 633.752C29.3354 633.752 28.9304 634.099 28.9304 634.793C28.9883 635.661 29.509 636.529 30.5505 636.529Z" fill="white" fill-opacity="0.5"/>
<path d="M33.1536 642.373C33.2114 642.257 33.2114 642.026 33.2114 641.91C33.2114 641.042 32.5171 640.232 31.1284 640.232L28.4089 640.232L28.4089 639.306L33.9058 639.306L33.9058 640.174L32.5749 640.174C33.5007 640.406 34.0215 641.1 34.0215 641.91C34.0215 642.026 34.0215 642.199 33.9636 642.315L33.1536 642.315L33.1536 642.373Z" fill="white" fill-opacity="0.5"/>
<path d="M28.4673 646.366C28.3515 645.961 28.2937 645.614 28.2937 645.382C28.2937 644.398 28.7566 643.878 29.7981 643.878L33.2119 643.878L33.2119 643.068L33.9063 643.068L33.9063 643.878L35.2949 643.878L35.2949 644.803L33.9063 644.803L33.9063 646.25L33.2119 646.25L33.2119 644.803L29.8559 644.803C29.2773 644.803 29.1037 645.093 29.1037 645.614C29.1037 645.845 29.1037 646.076 29.2195 646.424L28.4673 646.424L28.4673 646.366Z" fill="white" fill-opacity="0.5"/>
<path d="M28.2939 652.441C28.2939 650.937 29.3933 649.837 31.187 649.837C32.9807 649.837 34.0801 650.937 34.0801 652.441C34.0801 653.945 32.9807 655.045 31.187 655.045C29.3933 655.045 28.2939 653.945 28.2939 652.441ZM28.9883 652.441C28.9883 653.54 29.7983 654.177 31.1291 654.177C32.46 654.177 33.27 653.54 33.27 652.441C33.27 651.342 32.46 650.705 31.1291 650.705C29.7983 650.705 28.9883 651.342 28.9883 652.441Z" fill="white" fill-opacity="0.5"/>
<path d="M33.2136 655.971L33.908 655.971L33.908 656.781L34.9495 656.781C35.991 656.781 36.5117 657.417 36.5117 658.401C36.5117 658.574 36.5117 658.864 36.4539 659.037L35.7017 659.037C35.7017 658.922 35.7595 658.69 35.7595 658.459C35.7595 658.054 35.5859 657.707 34.9495 657.707L33.908 657.707L33.908 658.864L33.2136 658.864L33.2136 657.707L28.3532 657.707L28.3532 656.781L33.2136 656.781L33.2136 655.971V655.971Z" fill="white" fill-opacity="0.5"/>
<path d="M28.4673 664.997C28.3515 664.592 28.2937 664.245 28.2937 664.013C28.2937 663.03 28.7566 662.509 29.7981 662.509L33.2119 662.509L33.2119 661.699L33.9063 661.699L33.9063 662.509L35.2949 662.509L35.2949 663.435L33.9063 663.435L33.9063 664.881L33.2119 664.881L33.2119 663.435L29.8559 663.435C29.2773 663.435 29.1037 663.724 29.1037 664.245C29.1037 664.476 29.1037 664.708 29.2195 665.055L28.4673 665.055L28.4673 664.997Z" fill="white" fill-opacity="0.5"/>
<path d="M34.0815 669.163C34.0815 670.378 33.3293 671.13 31.9985 671.13L28.4111 671.13L28.4111 670.205L31.7671 670.205C32.8086 670.205 33.3293 669.742 33.3293 668.874C33.3293 668.006 32.8086 667.369 31.4778 667.369L28.4111 667.369L28.4111 666.444L36.5117 666.444L36.5117 667.369L32.9243 667.369C33.6186 667.659 34.0815 668.295 34.0815 669.163Z" fill="white" fill-opacity="0.5"/>
<path d="M28.2939 675.239C28.2939 673.676 29.3933 672.577 31.187 672.577C32.9807 672.577 34.0801 673.734 34.0801 675.181C34.0801 676.801 32.7493 677.553 31.3606 677.553L31.0134 677.553L31.0134 673.445C29.7405 673.503 29.0461 674.139 29.0461 675.239C29.0461 675.991 29.3933 676.454 30.0876 676.685L30.0876 677.553C28.8725 677.322 28.2939 676.338 28.2939 675.239ZM31.6499 673.503L31.6499 676.685C32.6335 676.685 33.3279 676.164 33.3279 675.181C33.3279 674.371 32.7493 673.676 31.6499 673.503Z" fill="white" fill-opacity="0.5"/>
<path d="M29.0454 684.612C29.0454 685.943 29.7976 686.521 30.6655 686.695L30.6655 687.621C29.219 687.389 28.2353 686.348 28.2353 684.612C28.2353 682.587 29.8555 681.082 32.2856 681.082C34.7737 681.082 36.3359 682.587 36.3359 684.612C36.3359 686.348 35.3523 687.331 33.9058 687.621L33.9058 686.695C34.7737 686.521 35.5259 685.943 35.5259 684.612C35.5259 682.992 34.2529 682.066 32.2856 682.066C30.3762 682.066 29.0454 682.992 29.0454 684.612Z" fill="white" fill-opacity="0.5"/>
<path d="M29.3354 692.308C28.699 692.076 28.2939 691.324 28.2939 690.398C28.2939 689.415 28.8725 688.605 29.8562 688.605C30.8977 688.605 31.3606 689.415 31.5342 690.514L31.7656 692.308L32.1128 692.308C32.9807 692.308 33.3857 691.787 33.3857 691.035C33.3857 690.282 32.9807 689.82 32.3442 689.762L32.3442 688.894C33.4436 689.01 34.0801 689.877 34.0801 691.035C34.0801 692.366 33.4436 693.233 32.1128 693.233L29.5669 693.233C29.1619 693.233 28.7568 693.233 28.4097 693.349L28.4097 692.423C28.699 692.366 29.0461 692.308 29.3354 692.308ZM30.5505 692.308L31.0713 692.308L30.8977 690.803C30.782 690.109 30.6084 689.53 29.8562 689.53C29.3354 689.53 28.9304 689.877 28.9304 690.572C28.9883 691.44 29.509 692.308 30.5505 692.308Z" fill="white" fill-opacity="0.5"/>
<path d="M26.4424 696.011L26.4424 695.085L33.9065 695.085L33.9065 695.953L32.9228 695.953C33.5015 696.184 34.0801 696.879 34.0801 697.804C34.0801 699.193 32.9228 700.293 31.187 700.293C29.4512 700.293 28.2939 699.251 28.2939 697.804C28.2939 696.879 28.8147 696.242 29.3933 695.953L26.4424 695.953L26.4424 696.011ZM31.0713 695.953C29.7983 695.953 28.9883 696.589 28.9883 697.631C28.9883 698.73 29.8562 699.367 31.187 699.367C32.46 699.367 33.3857 698.73 33.3857 697.631C33.3857 696.532 32.5178 695.953 31.3027 695.953L31.0713 695.953Z" fill="white" fill-opacity="0.5"/>
<path d="M36.1621 701.797L36.1621 702.838L35.0627 702.838L35.0627 701.797L36.1621 701.797ZM33.9055 701.855L33.9055 702.78L28.4087 702.78L28.4087 701.855L33.9055 701.855Z" fill="white" fill-opacity="0.5"/>
<path d="M28.4673 707.294C28.3515 706.889 28.2937 706.541 28.2937 706.31C28.2937 705.326 28.7566 704.806 29.7981 704.806L33.2119 704.806L33.2119 703.996L33.9063 703.996L33.9063 704.806L35.2949 704.806L35.2949 705.731L33.9063 705.731L33.9063 707.178L33.2119 707.178L33.2119 705.731L29.8559 705.731C29.2773 705.731 29.1037 706.021 29.1037 706.541C29.1037 706.773 29.1037 707.004 29.2195 707.351L28.4673 707.351L28.4673 707.294Z" fill="white" fill-opacity="0.5"/>
<path d="M29.3354 712.039C28.699 711.807 28.2939 711.055 28.2939 710.129C28.2939 709.146 28.8725 708.335 29.8562 708.335C30.8977 708.335 31.3606 709.146 31.5342 710.245L31.7656 712.039L32.1128 712.039C32.9807 712.039 33.3857 711.518 33.3857 710.766C33.3857 710.013 32.9807 709.551 32.3442 709.493L32.3442 708.625C33.4436 708.74 34.0801 709.608 34.0801 710.766C34.0801 712.096 33.4436 712.964 32.1128 712.964L29.5669 712.964C29.1619 712.964 28.7568 712.964 28.4097 713.08L28.4097 712.154C28.699 712.096 29.0461 712.039 29.3354 712.039ZM30.5505 712.039L31.0713 712.039L30.8977 710.534C30.782 709.84 30.6084 709.261 29.8562 709.261C29.3354 709.261 28.9304 709.608 28.9304 710.303C28.9883 711.171 29.509 712.039 30.5505 712.039Z" fill="white" fill-opacity="0.5"/>
<path d="M28.4111 714.816L36.5117 714.816L36.5117 715.742L28.4111 715.742L28.4111 714.816Z" fill="white" fill-opacity="0.5"/>
<path d="M33.3281 717.824L33.3281 718.981L32.113 718.981L32.113 717.766L33.3281 717.766L33.3281 717.824ZM29.5671 717.824L29.5671 718.981L28.352 718.981L28.352 717.766L29.5671 717.766L29.5671 717.824Z" fill="white" fill-opacity="0.5"/>
<path d="M17.4155 595.39L17.4155 591.629L15.2168 590.761L15.2168 589.835L23.0859 593.017L23.0859 594.059L15.2168 597.241L15.2168 596.258L17.4155 595.39ZM18.1677 591.918L18.1677 595.042L22.1023 593.48L22.1023 593.422L18.1677 591.918Z" fill="white" fill-opacity="0.5"/>
<path d="M23.0859 599.961L23.0859 600.944L16.2004 603.664L23.0859 606.383L23.0859 607.367L15.2168 604.184L15.2168 603.085L23.0859 599.961Z" fill="white" fill-opacity="0.5"/>
<path d="M23.0293 608.524L23.0293 609.566L21.9299 609.566L21.9299 608.524L23.0293 608.524ZM20.7727 608.582L20.7727 609.508L15.2759 609.508L15.2759 608.582L20.7727 608.582Z" fill="white" fill-opacity="0.5"/>
<path d="M16.8376 611.822C16.0854 611.88 15.7383 612.575 15.7383 613.327C15.7383 614.079 16.0854 614.658 16.6641 614.658C17.0691 614.658 17.3584 614.368 17.4741 613.674L17.6477 612.69C17.8213 611.822 18.1685 611.128 19.1521 611.128C20.0779 611.128 20.8301 611.938 20.8301 613.153C20.8301 614.426 20.3093 615.178 19.21 615.294L19.21 614.426C19.7886 614.368 20.0779 613.848 20.0779 613.095C20.0779 612.343 19.7307 611.88 19.1521 611.88C18.6892 611.88 18.4578 612.227 18.342 612.864L18.1106 613.963C17.937 614.889 17.4741 615.41 16.6062 615.41C15.6225 615.41 14.9282 614.484 14.9282 613.269C14.9282 611.938 15.5068 610.954 16.7219 610.839L16.7219 611.822L16.8376 611.822Z" fill="white" fill-opacity="0.5"/>
<path d="M23.0293 617.03L23.0293 618.071L21.9299 618.071L21.9299 617.03L23.0293 617.03ZM20.7727 617.088L20.7727 618.013L15.2759 618.013L15.2759 617.088L20.7727 617.088Z" fill="white" fill-opacity="0.5"/>
<path d="M15.1025 622.179C15.1025 620.675 16.2019 619.576 17.9956 619.576C19.7893 619.576 20.8887 620.675 20.8887 622.179C20.8887 623.684 19.7893 624.783 17.9956 624.783C16.2019 624.783 15.1025 623.684 15.1025 622.179ZM15.8547 622.179C15.8547 623.279 16.6648 623.915 17.9956 623.915C19.3264 623.915 20.1365 623.279 20.1365 622.179C20.1365 621.08 19.3264 620.444 17.9956 620.444C16.6648 620.444 15.8547 621.08 15.8547 622.179Z" fill="white" fill-opacity="0.5"/>
<path d="M19.7314 627.214C20.4258 627.503 20.8887 628.197 20.8887 629.007C20.8887 630.222 20.1365 630.975 18.8057 630.975L15.2182 630.975L15.2182 630.049L18.5742 630.049C19.6157 630.049 20.1365 629.586 20.1365 628.718C20.1365 627.85 19.6157 627.214 18.2849 627.214L15.2182 627.214L15.2182 626.288L20.7151 626.288L20.7151 627.156L19.7314 627.156L19.7314 627.214Z" fill="white" fill-opacity="0.5"/>
<path d="M20.0788 634.62L20.7732 634.62L20.7732 635.43L21.8147 635.43C22.8562 635.43 23.377 636.066 23.377 637.05C23.377 637.223 23.3769 637.513 23.3191 637.686L22.5669 637.686C22.5669 637.57 22.6248 637.339 22.6248 637.108C22.6248 636.703 22.4512 636.355 21.8147 636.355L20.7732 636.355L20.7732 637.513L20.0788 637.513L20.0788 636.355L15.2185 636.355L15.2185 635.43L20.0788 635.43L20.0788 634.62V634.62Z" fill="white" fill-opacity="0.5"/>
<path d="M15.1025 640.927C15.1025 639.422 16.2019 638.323 17.9956 638.323C19.7893 638.323 20.8887 639.422 20.8887 640.927C20.8887 642.431 19.7893 643.53 17.9956 643.53C16.2019 643.53 15.1025 642.431 15.1025 640.927ZM15.8547 640.927C15.8547 642.026 16.6648 642.663 17.9956 642.663C19.3264 642.663 20.1365 642.026 20.1365 640.927C20.1365 639.827 19.3264 639.191 17.9956 639.191C16.6648 639.191 15.8547 639.827 15.8547 640.927Z" fill="white" fill-opacity="0.5"/>
<path d="M19.9622 648.159C20.02 648.044 20.02 647.812 20.02 647.697C20.02 646.829 19.3257 646.019 17.937 646.019L15.2175 646.019L15.2175 645.093L20.7144 645.093L20.7144 645.961L19.3835 645.961C20.3093 646.192 20.8301 646.887 20.8301 647.697C20.8301 647.812 20.8301 647.986 20.7722 648.102L19.9622 648.102L19.9622 648.159Z" fill="white" fill-opacity="0.5"/>
<path d="M22.2759 654.061L22.2759 651.168L23.0859 651.168L23.0859 657.996L22.2759 657.996L22.2759 655.045L15.2168 655.045L15.2168 654.119L22.2759 654.119L22.2759 654.061Z" fill="white" fill-opacity="0.5"/>
<path d="M19.9622 661.468C20.02 661.352 20.02 661.12 20.02 661.005C20.02 660.137 19.3257 659.327 17.937 659.327L15.2175 659.327L15.2175 658.401L20.7144 658.401L20.7144 659.269L19.3835 659.269C20.3093 659.5 20.8301 660.195 20.8301 661.005C20.8301 661.12 20.8301 661.294 20.7722 661.41L19.9622 661.41L19.9622 661.468Z" fill="white" fill-opacity="0.5"/>
<path d="M16.144 665.923C15.5076 665.691 15.1025 664.939 15.1025 664.013C15.1025 663.03 15.6811 662.22 16.6648 662.22C17.7063 662.22 18.1692 663.03 18.3428 664.129L18.5742 665.923L18.9214 665.923C19.7893 665.923 20.1943 665.402 20.1943 664.65C20.1943 663.897 19.7893 663.435 19.1528 663.377L19.1528 662.509C20.2522 662.625 20.8887 663.492 20.8887 664.65C20.8887 665.98 20.2522 666.848 18.9214 666.848L16.3755 666.848C15.9704 666.848 15.5654 666.848 15.2182 666.964L15.2182 666.038C15.5076 665.98 15.9126 665.923 16.144 665.923ZM17.417 665.923L17.9377 665.923L17.7641 664.418C17.6484 663.724 17.4748 663.145 16.7226 663.145C16.2019 663.145 15.7969 663.492 15.7969 664.187C15.7969 665.055 16.3176 665.923 17.417 665.923Z" fill="white" fill-opacity="0.5"/>
<path d="M19.7314 669.568C20.4258 669.857 20.8887 670.552 20.8887 671.362C20.8887 672.577 20.1365 673.329 18.8057 673.329L15.2182 673.329L15.2182 672.461L18.5742 672.461C19.6157 672.461 20.1365 671.998 20.1365 671.13C20.1365 670.262 19.6157 669.626 18.2849 669.626L15.2182 669.626L15.2182 668.7L20.7151 668.7L20.7151 669.568L19.7314 669.568Z" fill="white" fill-opacity="0.5"/>
<path d="M16.8376 675.643C16.0854 675.701 15.7383 676.396 15.7383 677.148C15.7383 677.9 16.0854 678.479 16.6641 678.479C17.0691 678.479 17.3584 678.189 17.4741 677.495L17.6477 676.511C17.8213 675.643 18.1685 674.949 19.1521 674.949C20.0779 674.949 20.8301 675.759 20.8301 676.974C20.8301 678.247 20.3093 678.999 19.21 679.115L19.21 678.247C19.7886 678.189 20.0779 677.668 20.0779 676.916C20.0779 676.164 19.7307 675.701 19.1521 675.701C18.6892 675.701 18.4578 676.048 18.342 676.685L18.1106 677.784C17.937 678.71 17.4741 679.231 16.6062 679.231C15.6225 679.231 14.9282 678.305 14.9282 677.09C14.9282 675.759 15.5068 674.775 16.7219 674.66L16.7219 675.643L16.8376 675.643Z" fill="white" fill-opacity="0.5"/>
<path d="M20.0788 680.272L20.7732 680.272L20.7732 681.083L21.8147 681.083C22.8562 681.083 23.377 681.719 23.377 682.703C23.377 682.876 23.3769 683.166 23.3191 683.339L22.5669 683.339C22.5669 683.223 22.6248 682.992 22.6248 682.761C22.6248 682.355 22.4512 682.008 21.8147 682.008L20.7732 682.008L20.7732 683.223L20.0788 683.223L20.0788 682.008L15.2185 682.008L15.2185 681.083L20.0788 681.083L20.0788 680.272V680.272Z" fill="white" fill-opacity="0.5"/>
<path d="M15.1025 686.579C15.1025 685.075 16.2019 683.976 17.9956 683.976C19.7893 683.976 20.8887 685.075 20.8887 686.579C20.8887 688.084 19.7893 689.183 17.9956 689.183C16.2019 689.183 15.1025 688.084 15.1025 686.579ZM15.8547 686.579C15.8547 687.679 16.6648 688.315 17.9956 688.315C19.3264 688.315 20.1365 687.679 20.1365 686.579C20.1365 685.48 19.3264 684.844 17.9956 684.844C16.6648 684.844 15.8547 685.48 15.8547 686.579Z" fill="white" fill-opacity="0.5"/>
<path d="M19.9622 693.812C20.02 693.696 20.02 693.465 20.02 693.349C20.02 692.481 19.3257 691.671 17.937 691.671L15.2175 691.671L15.2175 690.745L20.7144 690.745L20.7144 691.613L19.3835 691.613C20.3093 691.845 20.8301 692.539 20.8301 693.349C20.8301 693.465 20.8301 693.638 20.7722 693.754L19.9622 693.754L19.9622 693.812Z" fill="white" fill-opacity="0.5"/>
<path d="M20.8887 701.103C20.8887 702.376 20.0786 703.012 18.8057 703.012L15.2182 703.012L15.2182 702.086L18.5742 702.086C19.6157 702.086 20.1365 701.739 20.1365 700.871C20.1365 700.061 19.5579 699.425 18.2849 699.425L15.2182 699.425L15.2182 698.499L18.5742 698.499C19.6157 698.499 20.1365 698.152 20.1365 697.284C20.1365 696.474 19.5579 695.837 18.2849 695.837L15.2182 695.837L15.2182 694.911L20.7151 694.911L20.7151 695.779L19.7314 695.779C20.4258 696.069 20.8887 696.705 20.8887 697.515C20.8887 698.441 20.4258 698.962 19.7314 699.193C20.4258 699.598 20.8887 700.293 20.8887 701.103Z" fill="white" fill-opacity="0.5"/>
<path d="M23.0293 704.864L23.0293 705.905L21.9299 705.905L21.9299 704.864L23.0293 704.864ZM20.7727 704.921L20.7727 705.847L15.2759 705.847L15.2759 704.921L20.7727 704.921Z" fill="white" fill-opacity="0.5"/>
<path d="M19.7314 708.682C20.4258 708.972 20.8887 709.666 20.8887 710.476C20.8887 711.691 20.1365 712.443 18.8057 712.443L15.2182 712.443L15.2182 711.518L18.5742 711.518C19.6157 711.518 20.1365 711.055 20.1365 710.187C20.1365 709.319 19.6157 708.682 18.2849 708.682L15.2182 708.682L15.2182 707.757L20.7151 707.757L20.7151 708.625L19.7314 708.625L19.7314 708.682Z" fill="white" fill-opacity="0.5"/>
<path d="M16.3755 718.172C15.8547 717.94 15.334 717.304 15.334 716.32C15.334 714.931 16.3755 713.89 18.1113 713.89C19.7893 713.89 20.8887 714.931 20.8887 716.32C20.8887 717.304 20.3101 717.94 19.7893 718.172L20.773 718.172L20.773 719.097L15.6811 719.097C13.9453 719.097 13.1931 717.94 13.1931 716.494C13.1931 715.163 13.7138 714.237 14.8132 714.063L14.8132 714.989C14.1189 715.163 13.8874 715.741 13.8874 716.494C13.8874 717.593 14.466 718.172 15.6233 718.172L16.3755 718.172V718.172ZM18.227 718.287C19.3843 718.287 20.1365 717.593 20.1365 716.552C20.1365 715.452 19.3264 714.816 18.1113 714.816C16.8962 714.816 16.0283 715.452 16.0283 716.552C16.0283 717.593 16.8384 718.287 17.9377 718.287L18.227 718.287V718.287Z" fill="white" fill-opacity="0.5"/>
<path d="M2.71922 564.549C2.71922 565.88 3.47143 566.459 4.33935 566.632L4.33935 567.558C2.89281 567.327 1.90916 566.285 1.90916 564.549C1.90916 562.524 3.52928 561.02 5.95946 561.02C8.44751 561.02 10.0098 562.524 10.0098 564.549C10.0098 566.285 9.02611 567.269 7.57958 567.558L7.57958 566.632C8.4475 566.459 9.19971 565.88 9.19971 564.549C9.19971 562.929 7.92675 562.003 5.95946 562.003C4.05004 562.003 2.71922 562.929 2.71922 564.549Z" fill="white" fill-opacity="0.5"/>
<path d="M7.69676 571.666C7.69676 572.881 6.94456 573.634 5.61375 573.634L2.02635 573.634L2.02635 572.708L5.38231 572.708C6.42381 572.708 6.94457 572.245 6.94457 571.377C6.94457 570.509 6.42381 569.873 5.093 569.873L2.02635 569.873L2.02635 568.947L10.127 568.947L10.127 569.873L6.53954 569.873C7.29173 570.162 7.69676 570.856 7.69676 571.666Z" fill="white" fill-opacity="0.5"/>
<path d="M9.83594 575.485L9.83594 576.527L8.73656 576.527L8.73656 575.485L9.83594 575.485ZM7.57933 575.543L7.57933 576.469L2.08249 576.469L2.08249 575.543L7.57933 575.543Z" fill="white" fill-opacity="0.5"/>
<path d="M3.00731 581.734C2.37083 581.503 1.96581 580.751 1.96581 579.825C1.96581 578.841 2.54441 578.031 3.52806 578.031C4.56956 578.031 5.03247 578.841 5.20605 579.941L5.43749 581.734L5.78467 581.734C6.65259 581.734 7.05761 581.214 7.05761 580.461C7.05761 579.709 6.65259 579.246 6.01611 579.188L6.01611 578.32C7.11548 578.436 7.75195 579.304 7.75195 580.461C7.75195 581.792 7.11548 582.66 5.78467 582.66L3.23875 582.66C2.83372 582.66 2.42869 582.66 2.08152 582.776L2.08152 581.85C2.37083 581.734 2.718 581.734 3.00731 581.734ZM4.2224 581.676L4.74315 581.676L4.56957 580.172C4.45385 579.478 4.28025 578.899 3.52806 578.899C3.0073 578.899 2.60229 579.246 2.60229 579.941C2.60229 580.808 3.18089 581.676 4.2224 581.676Z" fill="white" fill-opacity="0.5"/>
<path d="M6.53808 585.379C7.23242 585.669 7.69531 586.363 7.69531 587.173C7.69531 588.388 6.94311 589.14 5.6123 589.14L2.0249 589.14L2.0249 588.215L5.38085 588.215C6.42236 588.215 6.94312 587.752 6.94312 586.884C6.94312 586.016 6.42236 585.379 5.09155 585.379L2.0249 585.379L2.0249 584.454L7.52174 584.454L7.52174 585.322L6.53808 585.322L6.53808 585.379Z" fill="white" fill-opacity="0.5"/>
<path d="M3.18213 594.927C2.66137 594.695 2.14061 594.059 2.14061 593.075C2.14061 591.687 3.18213 590.645 4.91797 590.645C6.59595 590.645 7.69531 591.687 7.69531 593.075C7.69531 594.059 7.1167 594.695 6.59595 594.927L7.57958 594.927L7.57958 595.795L2.48778 595.795C0.751937 595.795 -0.000255209 594.637 -0.000255083 593.191C-0.000254967 591.86 0.520491 590.934 1.61986 590.761L1.61986 591.687C0.925521 591.86 0.694072 592.439 0.694072 593.191C0.694072 594.29 1.27269 594.869 2.42992 594.869L3.18213 594.869L3.18213 594.927ZM5.09155 594.985C6.24878 594.985 7.00097 594.29 7.00097 593.249C7.00097 592.149 6.19091 591.513 4.97582 591.513C3.76073 591.513 2.89282 592.149 2.89282 593.249C2.89282 594.29 3.70287 594.985 4.80224 594.985L5.09155 594.985Z" fill="white" fill-opacity="0.5"/>
<path d="M5.78711 602.333L4.57202 601.118L2.08396 601.118L2.08396 600.192L9.95313 600.192L9.95313 601.118L5.67138 601.118L9.95313 605.226L9.95313 606.383L6.48144 602.97L2.08396 606.615L2.08396 605.458L5.78711 602.333Z" fill="white" fill-opacity="0.5"/>
<path d="M3.00853 611.186C2.37205 610.954 1.96703 610.202 1.96703 609.276C1.96703 608.293 2.54564 607.483 3.52928 607.483C4.57079 607.483 5.03369 608.293 5.20728 609.392L5.38085 611.128L5.72803 611.128C6.59595 611.128 7.00097 610.607 7.00097 609.855C7.00097 609.103 6.59594 608.64 5.95947 608.582L5.95947 607.714C7.05884 607.83 7.69531 608.698 7.69531 609.855C7.69531 611.186 7.05884 612.054 5.72803 612.054L3.18213 612.054C2.7771 612.054 2.37206 612.054 2.0249 612.169L2.0249 611.244C2.37206 611.186 2.71922 611.186 3.00853 611.186ZM4.22362 611.128L4.74437 611.128L4.5708 609.624C4.45507 608.929 4.28148 608.351 3.52928 608.351C3.00853 608.351 2.60351 608.698 2.60351 609.392C2.60351 610.26 3.18212 611.128 4.22362 611.128Z" fill="white" fill-opacity="0.5"/>
<path d="M9.83594 613.905L9.83594 614.947L8.73656 614.947L8.73656 613.905L9.83594 613.905ZM7.57933 613.963L7.57933 614.889L2.08249 614.889L2.08249 613.963L7.57933 613.963Z" fill="white" fill-opacity="0.5"/>
<path d="M5.55469 616.798L5.55469 619.807L4.74463 619.807L4.74463 616.741L5.55469 616.741L5.55469 616.798Z" fill="white" fill-opacity="0.5"/>
<path d="M4.33935 622.237C3.0664 622.353 2.66135 623.395 2.66135 624.552C2.66135 625.651 3.18211 626.519 4.16575 626.519C4.80223 626.519 5.26513 626.172 5.43871 625.073L5.72802 623.568C5.90161 622.527 6.42236 621.543 7.75317 621.543C9.02612 621.543 10.0098 622.642 10.0098 624.262C10.0098 625.94 9.25756 627.04 7.86888 627.213L7.86888 626.288C8.73681 626.172 9.25757 625.362 9.25757 624.262C9.25757 623.105 8.6211 622.411 7.81104 622.411C7.05884 622.411 6.76953 622.874 6.59594 623.8L6.24877 625.362C6.01732 626.577 5.43871 627.329 4.22362 627.329C2.89281 627.329 1.96703 626.172 1.96703 624.494C1.96703 622.816 2.71921 621.369 4.3972 621.254L4.3972 622.237L4.33935 622.237Z" fill="white" fill-opacity="0.5"/>
<path d="M7.69676 631.669C7.69676 632.884 6.94456 633.636 5.61375 633.636L2.02635 633.636L2.02635 632.71L5.38231 632.71C6.42381 632.71 6.94457 632.247 6.94457 631.379C6.94457 630.512 6.42381 629.875 5.093 629.875L2.02635 629.875L2.02635 628.949L10.127 628.949L10.127 629.875L6.53954 629.875C7.29173 630.164 7.69676 630.801 7.69676 631.669Z" fill="white" fill-opacity="0.5"/>
<path d="M1.90917 637.744C1.90917 636.182 3.00853 635.083 4.80224 635.083C6.59594 635.083 7.69531 636.24 7.69531 637.686C7.69531 639.307 6.36449 640.059 4.97582 640.059L4.62866 640.059L4.62866 635.951C3.35571 636.008 2.66136 636.645 2.66136 637.744C2.66136 638.496 3.00854 638.959 3.70287 639.191L3.70287 640.059C2.48778 639.827 1.90917 638.844 1.90917 637.744ZM5.26512 636.008L5.26512 639.191C6.24877 639.191 6.94312 638.67 6.94312 637.686C6.94312 636.819 6.42235 636.182 5.26512 636.008Z" fill="white" fill-opacity="0.5"/>
<path d="M4.63011 643.241L3.93577 642.547L2.02635 642.547L2.02635 641.621L10.127 641.621L10.127 642.547L4.91942 642.547L7.58103 645.266L7.58103 646.366L5.26658 643.936L2.0842 646.481L2.0842 645.382L4.63011 643.241Z" fill="white" fill-opacity="0.5"/>
<path d="M2.02539 653.656L8.9109 651.11L2.02539 651.11L2.02539 650.184L9.89453 650.184L9.89453 651.631L3.29833 654.061L9.89453 656.491L9.89453 657.88L2.02539 657.88L2.02539 656.954L8.9109 656.954L2.02539 654.408L2.02539 653.656Z" fill="white" fill-opacity="0.5"/>
<path d="M1.90917 662.162C1.90917 660.599 3.00853 659.5 4.80224 659.5C6.59594 659.5 7.69531 660.657 7.69531 662.104C7.69531 663.724 6.36449 664.476 4.97582 664.476L4.62866 664.476L4.62866 660.368C3.35571 660.426 2.66136 661.062 2.66136 662.162C2.66136 662.914 3.00854 663.377 3.70287 663.608L3.70287 664.476C2.48778 664.187 1.90917 663.203 1.90917 662.162ZM5.26512 660.426L5.26512 663.608C6.24877 663.608 6.94312 663.087 6.94312 662.104C6.94312 661.236 6.42235 660.599 5.26512 660.426Z" fill="white" fill-opacity="0.5"/>
<path d="M7.69531 672.172C7.69531 673.445 6.88525 674.081 5.6123 674.081L2.0249 674.081L2.0249 673.156L5.38085 673.156C6.42236 673.156 6.94312 672.808 6.94312 671.94C6.94312 671.13 6.3645 670.494 5.09155 670.494L2.0249 670.494L2.0249 669.568L5.38085 669.568C6.42236 669.568 6.94312 669.221 6.94312 668.353C6.94312 667.543 6.3645 666.907 5.09155 666.907L2.0249 666.907L2.0249 665.981L7.52174 665.981L7.52174 666.849L6.53808 666.849C7.23242 667.138 7.69531 667.774 7.69531 668.584C7.69531 669.51 7.23242 670.031 6.53808 670.262C7.29028 670.667 7.69531 671.362 7.69531 672.172Z" fill="white" fill-opacity="0.5"/>
<path d="M1.90917 678.189C1.90917 676.685 3.00853 675.585 4.80224 675.585C6.59594 675.585 7.69531 676.685 7.69531 678.189C7.69531 679.694 6.59594 680.793 4.80224 680.793C3.00853 680.793 1.90917 679.694 1.90917 678.189ZM2.66136 678.189C2.66136 679.289 3.47143 679.925 4.80224 679.925C6.13305 679.925 6.94312 679.289 6.94312 678.189C6.94312 677.09 6.13305 676.453 4.80224 676.453C3.47143 676.453 2.66136 677.09 2.66136 678.189Z" fill="white" fill-opacity="0.5"/>
<path d="M6.82739 685.422C6.88525 685.306 6.88526 685.075 6.88526 684.959C6.88526 684.091 6.19091 683.281 4.80224 683.281L2.08274 683.281L2.08274 682.355L7.57958 682.355L7.57958 683.223L6.24878 683.223C7.17456 683.455 7.69531 684.149 7.69531 684.959C7.69531 685.075 7.69531 685.248 7.63745 685.364L6.82739 685.364L6.82739 685.422Z" fill="white" fill-opacity="0.5"/>
<path d="M9.83594 686.521L9.83594 687.563L8.73656 687.563L8.73656 686.521L9.83594 686.521ZM7.57933 686.579L7.57933 687.505L2.08249 687.505L2.08249 686.579L7.57933 686.579Z" fill="white" fill-opacity="0.5"/>
<path d="M3.00853 692.713C2.37205 692.481 1.96703 691.729 1.96703 690.803C1.96703 689.82 2.54564 689.01 3.52928 689.01C4.57079 689.01 5.03369 689.82 5.20728 690.919L5.38085 692.713L5.72803 692.713C6.59595 692.713 7.00097 692.192 7.00097 691.44C7.00097 690.688 6.59594 690.225 5.95947 690.167L5.95947 689.299C7.05884 689.415 7.69531 690.282 7.69531 691.44C7.69531 692.771 7.05884 693.638 5.72803 693.638L3.18213 693.638C2.7771 693.638 2.37206 693.638 2.0249 693.754L2.0249 692.828C2.37206 692.771 2.71922 692.713 3.00853 692.713ZM4.22362 692.713L4.74437 692.713L4.5708 691.208C4.45507 690.514 4.28148 689.935 3.52928 689.935C3.00853 689.935 2.60351 690.282 2.60351 690.977C2.60351 691.845 3.18212 692.713 4.22362 692.713Z" fill="white" fill-opacity="0.5"/>
<path d="M2.02635 695.49L10.127 695.49L10.127 696.416L2.02635 696.416L2.02635 695.49Z" fill="white" fill-opacity="0.5"/>
<path d="M9.89453 700.813L9.89453 701.739L6.42284 701.739L6.42284 706.31L9.89453 706.31L9.89453 707.236L2.02539 707.236L2.02539 706.31L5.61279 706.31L5.61279 701.739L2.02539 701.739L2.02539 700.813L9.89453 700.813Z" fill="white" fill-opacity="0.5"/>
<path d="M3.00731 712.559C2.37083 712.328 1.96581 711.576 1.96581 710.65C1.96581 709.666 2.54441 708.856 3.52806 708.856C4.56956 708.856 5.03247 709.666 5.20605 710.766L5.43749 712.559L5.78467 712.559C6.65259 712.559 7.05761 712.038 7.05761 711.286C7.05761 710.534 6.65259 710.071 6.01611 710.013L6.01611 709.145C7.11548 709.261 7.75195 710.129 7.75195 711.286C7.75195 712.617 7.11548 713.485 5.78467 713.485L3.23875 713.485C2.83372 713.485 2.42869 713.485 2.08152 713.601L2.08152 712.675C2.37083 712.617 2.718 712.559 3.00731 712.559ZM4.2224 712.559L4.74315 712.559L4.56957 711.055C4.45385 710.36 4.28025 709.782 3.52806 709.782C3.0073 709.782 2.60229 710.129 2.60229 710.823C2.60229 711.691 3.18089 712.559 4.2224 712.559Z" fill="white" fill-opacity="0.5"/>
<path d="M2.02635 715.336L10.127 715.336L10.127 716.262L2.02635 716.262L2.02635 715.336Z" fill="white" fill-opacity="0.5"/>
<path d="M2.02635 718.23L10.127 718.23L10.127 719.097L2.02635 719.097L2.02635 718.23Z" fill="white" fill-opacity="0.5"/>
<path d="M36.0447 277.225L36.0447 269.645L31.6472 267.909L31.6472 266L47.4434 272.423L47.4434 274.564L31.6472 280.986L31.6472 279.019L36.0447 277.225ZM37.6069 270.282L37.6069 276.589L45.5339 273.464L45.5339 273.406L37.6069 270.282Z" fill="white" fill-opacity="0.5"/>
<path d="M47.4434 289.897L47.4434 291.864L33.5566 297.361L33.5566 297.419L47.4434 302.916L47.4434 304.883L31.6472 298.46L31.6472 296.262L47.4434 289.897Z" fill="white" fill-opacity="0.5"/>
<path d="M47.4434 308.933L47.4434 310.843L31.6472 310.843L31.6472 308.933L47.4434 308.933Z" fill="white" fill-opacity="0.5"/>
<path d="M36.2771 317.497C33.7312 317.728 32.8632 319.811 32.8632 322.183C32.8632 324.44 33.9626 326.118 35.872 326.118C37.2028 326.118 38.0708 325.366 38.4758 323.225L39.0544 320.216C39.4594 318.075 40.4431 316.166 43.1626 316.166C45.7664 316.166 47.6758 318.422 47.6758 321.663C47.6758 325.076 46.2292 327.275 43.3362 327.622L43.3362 325.771C45.1299 325.482 46.1135 323.977 46.1135 321.721C46.1135 319.406 44.8406 318.017 43.1626 318.017C41.6003 318.017 41.0217 318.885 40.6745 320.853L40.0381 323.977C39.5752 326.407 38.4179 327.97 35.9299 327.97C33.2104 327.97 31.301 325.597 31.301 322.241C31.301 318.827 32.8054 315.934 36.2192 315.703L36.2192 317.497L36.2771 317.497Z" fill="white" fill-opacity="0.5"/>
<path d="M47.4434 332.83L47.4434 334.74L31.6472 334.74L31.6472 332.83L47.4434 332.83Z" fill="white" fill-opacity="0.5"/>
<path d="M31.3588 346.833C31.3588 342.435 34.7727 339.658 39.5173 339.658C44.262 339.658 47.6758 342.493 47.6758 346.833C47.6758 351.172 44.262 354.008 39.5173 354.008C34.7727 354.008 31.3588 351.172 31.3588 346.833ZM46.0557 346.833C46.0557 343.361 43.3362 341.567 39.5173 341.567C35.6985 341.567 32.979 343.361 32.979 346.833C32.979 350.305 35.6985 352.04 39.5173 352.04C43.3362 352.04 46.0557 350.247 46.0557 346.833Z" fill="white" fill-opacity="0.5"/>
<path d="M34.8296 369.63L47.4434 369.688L47.4434 371.539L31.6472 371.539L31.6472 369.746L45.1289 360.777L45.1289 360.719L31.6472 360.719L31.6472 358.868L47.4434 358.868L47.4434 361.24L34.8296 369.63Z" fill="white" fill-opacity="0.5"/>
<path d="M18.9766 267.678L18.9766 277.804L17.3564 277.804L17.3564 269.588L11.5703 269.588L11.5703 277.052L9.95017 277.052L9.95017 269.588L3.12253 269.588L3.12253 267.678L18.9766 267.678Z" fill="white" fill-opacity="0.5"/>
<path d="M2.89011 288.971C2.89011 284.574 6.30393 281.796 11.0486 281.796C15.7932 281.796 19.207 284.632 19.207 288.971C19.207 293.311 15.7932 296.146 11.0486 296.146C6.30393 296.146 2.89011 293.311 2.89011 288.971ZM17.6448 288.971C17.6448 285.5 14.9253 283.706 11.1064 283.706C7.28757 283.706 4.56809 285.5 4.56809 288.971C4.56809 292.443 7.28757 294.179 11.1064 294.179C14.8674 294.179 17.6448 292.385 17.6448 288.971Z" fill="white" fill-opacity="0.5"/>
<path d="M3.18039 301.006L18.9766 301.006L18.9766 307.082C18.9766 310.611 17.2986 312.637 14.2898 312.637C11.7439 312.637 10.2974 310.843 9.83446 308.991L3.12252 313.331L3.12252 311.19L9.54515 307.082L9.54515 302.858L3.12253 302.858L3.12253 301.006L3.18039 301.006ZM11.1653 306.966C11.1653 309.338 12.2068 310.727 14.2898 310.727C16.2571 310.727 17.4143 309.396 17.4143 306.966L17.4143 302.858L11.1653 302.858L11.1653 306.966Z" fill="white" fill-opacity="0.5"/>
<path d="M17.415 329.069L17.415 323.168L19.0352 323.168L19.0352 336.881L17.415 336.881L17.415 330.979L3.18112 330.979L3.18112 329.069L17.415 329.069Z" fill="white" fill-opacity="0.5"/>
<path d="M3.18039 341.509L18.9766 341.509L18.9766 347.585C18.9766 351.114 17.2986 353.139 14.2898 353.139C11.7439 353.139 10.2974 351.346 9.83446 349.494L3.12252 353.834L3.12252 351.693L9.54515 347.585L9.54515 343.361L3.12253 343.361L3.12253 341.509L3.18039 341.509ZM11.1653 347.527C11.1653 349.899 12.2068 351.288 14.2898 351.288C16.2571 351.288 17.4143 349.957 17.4143 347.527L17.4143 343.419L11.1653 343.419L11.1653 347.527Z" fill="white" fill-opacity="0.5"/>
<path d="M7.57785 368.01L7.57785 360.43L3.18039 358.694L3.18039 356.785L18.9766 363.208L18.9766 365.348L3.18039 371.771L3.18039 369.804L7.57785 368.01ZM9.14011 361.009L9.14011 367.316L17.0671 364.191L17.0671 364.133L9.14011 361.009Z" fill="white" fill-opacity="0.5"/>
<path d="M6.36277 386.641L18.9766 386.699L18.9766 388.551L3.18039 388.551L3.18039 386.757L16.6621 377.789L16.6621 377.731L3.18039 377.731L3.18039 375.879L18.9766 375.879L18.9766 378.251L6.36277 386.641Z" fill="white" fill-opacity="0.5"/>
<path d="M7.86691 395.147C5.32101 395.378 4.45309 397.461 4.45309 399.834C4.45309 402.09 5.55246 403.768 7.46189 403.768C8.7927 403.768 9.66063 403.016 10.0657 400.875L10.6443 397.867C11.0493 395.726 12.0329 393.816 14.7524 393.816C17.3562 393.816 19.2656 396.073 19.2656 399.313C19.2656 402.727 17.8191 404.926 14.926 405.273L14.926 403.421C16.7197 403.132 17.7034 401.627 17.7034 399.371C17.7034 397.056 16.4304 395.668 14.7524 395.668C13.1902 395.668 12.6116 396.536 12.2644 398.503L11.6279 401.627C11.165 404.058 10.0078 405.62 7.51975 405.62C4.80027 405.62 2.89084 403.248 2.89084 399.892C2.89084 396.478 4.39524 393.585 7.80906 393.353L7.80906 395.147L7.86691 395.147Z" fill="white" fill-opacity="0.5"/>
<path d="M18.9766 410.48L18.9766 420.606L17.3564 420.606L17.3564 412.39L11.5703 412.39L11.5703 419.854L9.95017 419.854L9.95017 412.39L3.12253 412.39L3.12253 410.48L18.9766 410.48Z" fill="white" fill-opacity="0.5"/>
<path d="M2.89011 431.773C2.89011 427.376 6.30393 424.598 11.0486 424.598C15.7932 424.598 19.207 427.434 19.207 431.773C19.207 436.113 15.7932 438.948 11.0486 438.948C6.30393 438.948 2.89011 436.113 2.89011 431.773ZM17.6448 431.773C17.6448 428.302 14.9253 426.508 11.1064 426.508C7.28757 426.508 4.56809 428.302 4.56809 431.773C4.56809 435.245 7.28757 436.981 11.1064 436.981C14.8674 436.981 17.6448 435.187 17.6448 431.773Z" fill="white" fill-opacity="0.5"/>
<path d="M3.18039 443.751L18.9766 443.751L18.9766 449.826C18.9766 453.356 17.2986 455.381 14.2898 455.381C11.7439 455.381 10.2974 453.587 9.83446 451.736L3.12252 456.075L3.12252 453.934L9.54515 449.826L9.54515 445.602L3.12253 445.602L3.12253 443.751L3.18039 443.751ZM11.1653 449.768C11.1653 452.141 12.2068 453.529 14.2898 453.529C16.2571 453.529 17.4143 452.198 17.4143 449.768L17.4143 445.66L11.1653 445.66L11.1653 449.768Z" fill="white" fill-opacity="0.5"/>
<path d="M3.18039 467.705L17.0671 462.555L17.0671 462.498L3.18039 462.498L3.18039 460.704L18.9766 460.704L18.9766 463.655L5.66842 468.515L5.66842 468.573L18.9766 473.433L18.9766 476.269L3.18039 476.269L3.18039 474.417L17.0671 474.417L17.0671 474.359L3.18039 469.21L3.18039 467.705Z" fill="white" fill-opacity="0.5"/>
<path d="M18.9766 482.055L18.9766 483.964L3.18039 483.964L3.18039 482.055L18.9766 482.055Z" fill="white" fill-opacity="0.5"/>
<path d="M6.36277 500.57L18.9766 500.628L18.9766 502.48L3.18039 502.48L3.18039 500.686L16.6621 491.66L16.6621 491.602L3.18039 491.602L3.18039 489.75L18.9766 489.75L18.9766 492.123L6.36277 500.57Z" fill="white" fill-opacity="0.5"/>
<path d="M19.2656 514.573C19.2656 518.103 17.2983 520.186 14.4053 520.764L14.4053 518.855C16.3726 518.45 17.6455 517.003 17.6455 514.573C17.6455 511.217 15.0417 509.192 11.1072 509.192C7.17257 509.192 4.51095 511.159 4.51095 514.515C4.51095 517.177 6.13106 519.144 8.73483 519.144L9.54491 519.144L9.54491 515.383L11.0493 515.383L11.0493 520.996L3.18014 520.996L3.18014 519.491L5.84176 519.318C4.16377 518.739 2.94868 516.598 2.94868 514.515C2.94868 510.349 6.18893 507.282 11.165 507.282C16.0832 507.282 19.2656 510.407 19.2656 514.573Z" fill="white" fill-opacity="0.5"/>
<path d="M47.6753 437.155C47.6753 438.37 46.9231 439.122 45.5923 439.122L42.0049 439.122L42.0049 438.196L45.3608 438.196C46.4023 438.196 46.9231 437.733 46.9231 436.865C46.9231 435.997 46.4023 435.361 45.0715 435.361L42.0049 435.361L42.0049 434.435L50.1055 434.435L50.1055 435.361L46.5181 435.361C47.2124 435.65 47.6753 436.345 47.6753 437.155Z" fill="white" fill-opacity="0.5"/>
<path d="M42.063 443.635C41.9472 443.23 41.8894 442.883 41.8894 442.651C41.8894 441.668 42.3523 441.147 43.3938 441.147L46.8076 441.147L46.8076 440.337L47.502 440.337L47.502 441.147L48.8906 441.147L48.8906 442.073L47.502 442.073L47.502 443.519L46.8076 443.519L46.8076 442.073L43.4517 442.073C42.873 442.073 42.6994 442.362 42.6994 442.883C42.6994 443.114 42.6994 443.346 42.8152 443.693L42.063 443.693L42.063 443.635Z" fill="white" fill-opacity="0.5"/>
<path d="M42.063 447.685C41.9472 447.28 41.8894 446.933 41.8894 446.702C41.8894 445.718 42.3523 445.197 43.3938 445.197L46.8076 445.197L46.8076 444.387L47.502 444.387L47.502 445.197L48.8906 445.197L48.8906 446.123L47.502 446.123L47.502 447.57L46.8076 447.57L46.8076 446.123L43.4517 446.123C42.873 446.123 42.6994 446.412 42.6994 446.933C42.6994 447.164 42.6994 447.396 42.8152 447.743L42.063 447.743L42.063 447.685Z" fill="white" fill-opacity="0.5"/>
<path d="M40.0381 450.058L40.0381 449.132L47.5022 449.132L47.5022 450L46.5186 450C47.0972 450.231 47.6758 450.926 47.6758 451.851C47.6758 453.24 46.5186 454.339 44.7827 454.339C43.0469 454.339 41.8896 453.298 41.8896 451.851C41.8896 450.926 42.4104 450.289 42.989 450L40.0381 450L40.0381 450.058ZM44.667 450C43.394 450 42.584 450.636 42.584 451.678C42.584 452.777 43.4519 453.414 44.7827 453.414C46.0557 453.414 46.9814 452.777 46.9814 451.678C46.9814 450.578 46.1135 450 44.8984 450L44.667 450Z" fill="white" fill-opacity="0.5"/>
<path d="M43.6267 456.307C42.8745 456.365 42.5273 457.059 42.5273 457.811C42.5273 458.563 42.8745 459.142 43.4531 459.142C43.8581 459.142 44.1475 458.853 44.2632 458.158L44.4368 457.175C44.6103 456.307 44.9575 455.612 45.9412 455.612C46.8669 455.612 47.6191 456.423 47.6191 457.638C47.6191 458.911 47.0984 459.663 45.999 459.778L45.999 458.911C46.5776 458.853 46.8669 458.332 46.8669 457.58C46.8669 456.828 46.5198 456.365 45.9412 456.365C45.4783 456.365 45.2468 456.712 45.1311 457.348L44.8997 458.448C44.7261 459.373 44.2632 459.894 43.3953 459.894C42.4116 459.894 41.7173 458.968 41.7173 457.753C41.7173 456.423 42.2959 455.439 43.511 455.323L43.511 456.307L43.6267 456.307Z" fill="white" fill-opacity="0.5"/>
<path d="M46.9238 461.63L46.9238 462.845L45.7087 462.845L45.7087 461.63L46.9238 461.63ZM43.2207 461.63L43.2207 462.845L42.0056 462.845L42.0056 461.63L43.2207 461.63Z" fill="white" fill-opacity="0.5"/>
<path d="M49.1211 467.127L49.1211 467.821L42.0041 465.044L42.0041 464.35L49.1211 467.127Z" fill="white" fill-opacity="0.5" stroke="white" stroke-width="0.1495"/>
<path d="M49.1211 469.962L49.1211 470.656L42.0041 467.879L42.0041 467.185L49.1211 469.962Z" fill="white" fill-opacity="0.5" stroke="white" stroke-width="0.1495"/>
<path d="M31.6489 437.039C31.5332 436.634 31.4753 436.286 31.4753 436.055C31.4753 435.071 31.9382 434.551 32.9797 434.551L36.3936 434.551L36.3936 433.741L37.0879 433.741L37.0879 434.551L38.4766 434.551L38.4766 435.476L37.0879 435.476L37.0879 436.923L36.3936 436.923L36.3936 435.476L33.0376 435.476C32.459 435.476 32.2854 435.766 32.2854 436.286C32.2854 436.518 32.2854 436.749 32.4011 437.096L31.6489 437.096L31.6489 437.039Z" fill="white" fill-opacity="0.5"/>
<path d="M36.3352 441.61C36.3931 441.494 36.3931 441.263 36.3931 441.147C36.3931 440.279 35.6987 439.469 34.3101 439.469L31.5906 439.469L31.5906 438.543L37.0874 438.543L37.0874 439.411L35.7566 439.411C36.6824 439.643 37.2031 440.337 37.2031 441.147C37.2031 441.263 37.2031 441.436 37.1453 441.552L36.3352 441.552L36.3352 441.61Z" fill="white" fill-opacity="0.5"/>
<path d="M32.5151 446.007C31.8786 445.776 31.4736 445.024 31.4736 444.098C31.4736 443.114 32.0522 442.304 33.0359 442.304C34.0774 442.304 34.5403 443.114 34.7139 444.214L34.9453 446.007L35.2925 446.007C36.1604 446.007 36.5654 445.487 36.5654 444.734C36.5654 443.982 36.1604 443.519 35.5239 443.461L35.5239 442.594C36.6233 442.709 37.2598 443.577 37.2598 444.734C37.2598 446.065 36.6233 446.933 35.2925 446.933L32.7466 446.933C32.3415 446.933 31.9365 446.933 31.5893 447.049L31.5893 446.123C31.8786 446.065 32.2837 446.007 32.5151 446.007ZM33.7881 446.007L34.3088 446.007L34.1352 444.503C34.0195 443.809 33.8459 443.23 33.0937 443.23C32.573 443.23 32.168 443.577 32.168 444.271C32.168 445.139 32.6887 446.007 33.7881 446.007Z" fill="white" fill-opacity="0.5"/>
<path d="M36.1025 449.71C36.7969 450 37.2598 450.694 37.2598 451.504C37.2598 452.719 36.5076 453.471 35.1767 453.471L31.5893 453.471L31.5893 452.546L34.9453 452.546C35.9868 452.546 36.5076 452.083 36.5076 451.215C36.5076 450.347 35.9868 449.71 34.656 449.71L31.5893 449.71L31.5893 448.785L37.0862 448.785L37.0862 449.653L36.1025 449.653L36.1025 449.71Z" fill="white" fill-opacity="0.5"/>
<path d="M33.2107 455.786C32.4585 455.844 32.1113 456.538 32.1113 457.29C32.1113 458.042 32.4585 458.621 33.0371 458.621C33.4421 458.621 33.7314 458.332 33.8472 457.637L34.0207 456.654C34.1943 455.786 34.5415 455.091 35.5251 455.091C36.4509 455.091 37.2031 455.902 37.2031 457.117C37.2031 458.39 36.6824 459.142 35.583 459.257L35.583 458.39C36.1616 458.332 36.4509 457.811 36.4509 457.059C36.4509 456.307 36.1038 455.844 35.5251 455.844C35.0623 455.844 34.8308 456.191 34.7151 456.827L34.4836 457.927C34.3101 458.852 33.8472 459.373 32.9792 459.373C31.9956 459.373 31.3013 458.447 31.3013 457.232C31.3013 455.902 31.8799 454.918 33.095 454.802L33.095 455.786L33.2107 455.786Z" fill="white" fill-opacity="0.5"/>
<path d="M37.2598 463.25C37.2598 464.465 36.5654 465.275 35.4082 465.449L35.4082 464.581C36.1604 464.407 36.5654 464.002 36.5654 463.25C36.5654 462.151 35.6975 461.572 34.4245 461.572C33.1516 461.572 32.2837 462.209 32.2837 463.25C32.2837 464.002 32.6887 464.465 33.4409 464.581L33.4409 465.449C32.2258 465.275 31.5893 464.465 31.5893 463.25C31.5893 461.688 32.6887 460.646 34.4824 460.646C36.1025 460.646 37.2598 461.688 37.2598 463.25Z" fill="white" fill-opacity="0.5"/>
<path d="M34.1946 468.573L33.5002 467.879L31.5908 467.879L31.5908 466.953L39.6914 466.953L39.6914 467.879L34.4839 467.879L37.1455 470.598L37.1455 471.698L34.831 469.268L31.6487 471.814L31.6487 470.714L34.1946 468.573Z" fill="white" fill-opacity="0.5"/>
<path d="M33.2107 473.433C32.4585 473.491 32.1113 474.186 32.1113 474.938C32.1113 475.69 32.4585 476.269 33.0371 476.269C33.4421 476.269 33.7314 475.979 33.8472 475.285L34.0207 474.301C34.1943 473.433 34.5415 472.739 35.5251 472.739C36.4509 472.739 37.2031 473.549 37.2031 474.764C37.2031 476.037 36.6824 476.789 35.583 476.905L35.583 476.037C36.1616 475.979 36.4509 475.459 36.4509 474.706C36.4509 473.954 36.1038 473.491 35.5251 473.491C35.0623 473.491 34.8308 473.838 34.7151 474.475L34.4836 475.574C34.3101 476.5 33.8472 477.021 32.9792 477.021C31.9956 477.021 31.3013 476.095 31.3013 474.88C31.3013 473.549 31.8799 472.565 33.095 472.45L33.095 473.433L33.2107 473.433Z" fill="white" fill-opacity="0.5"/>
<path d="M29.622 479.567L29.622 478.641L37.0862 478.641L37.0862 479.509L36.1025 479.509C36.6812 479.74 37.2598 480.435 37.2598 481.36C37.2598 482.749 36.1025 483.848 34.3667 483.848C32.6308 483.848 31.4736 482.807 31.4736 481.36C31.4736 480.435 31.9944 479.798 32.573 479.509L29.622 479.509L29.622 479.567ZM34.251 479.567C32.978 479.567 32.168 480.203 32.168 481.245C32.168 482.344 33.0359 482.981 34.3667 482.981C35.6396 482.981 36.5654 482.344 36.5654 481.245C36.5654 480.145 35.6975 479.567 34.4824 479.567L34.251 479.567Z" fill="white" fill-opacity="0.5"/>
<path d="M32.5151 488.709C31.8786 488.478 31.4736 487.725 31.4736 486.8C31.4736 485.816 32.0522 485.006 33.0359 485.006C34.0774 485.006 34.5403 485.816 34.7139 486.915L34.9453 488.709L35.2925 488.709C36.1604 488.709 36.5654 488.188 36.5654 487.436C36.5654 486.684 36.1604 486.221 35.5239 486.163L35.5239 485.295C36.6233 485.411 37.2598 486.279 37.2598 487.436C37.2598 488.767 36.6233 489.635 35.2925 489.635L32.7466 489.635C32.3415 489.635 31.9365 489.635 31.5893 489.751L31.5893 488.825C31.8786 488.767 32.2837 488.709 32.5151 488.709ZM33.7881 488.709L34.3088 488.709L34.1352 487.205C34.0195 486.51 33.8459 485.932 33.0937 485.932C32.573 485.932 32.168 486.279 32.168 486.973C32.168 487.841 32.6887 488.709 33.7881 488.709Z" fill="white" fill-opacity="0.5"/>
<path d="M36.3352 494.553C36.3931 494.437 36.3931 494.206 36.3931 494.09C36.3931 493.222 35.6987 492.412 34.3101 492.412L31.5906 492.412L31.5906 491.486L37.0874 491.486L37.0874 492.354L35.7566 492.354C36.6824 492.586 37.2031 493.28 37.2031 494.09C37.2031 494.206 37.2031 494.38 37.1453 494.495L36.3352 494.495L36.3352 494.553Z" fill="white" fill-opacity="0.5"/>
<path d="M34.1946 497.331L33.5002 496.636L31.5908 496.636L31.5908 495.71L39.6914 495.71L39.6914 496.636L34.4839 496.636L37.1455 499.356L37.1455 500.455L34.831 498.025L31.6487 500.571L31.6487 499.471L34.1946 497.331Z" fill="white" fill-opacity="0.5"/>
<path d="M32.8047 501.959L32.8047 503.174L31.5896 503.174L31.5896 501.959L32.8047 501.959Z" fill="white" fill-opacity="0.5"/>
<path d="M31.6489 507.63C31.5332 507.225 31.4753 506.878 31.4753 506.646C31.4753 505.663 31.9382 505.142 32.9797 505.142L36.3936 505.142L36.3936 504.332L37.0879 504.332L37.0879 505.142L38.4766 505.142L38.4766 506.068L37.0879 506.068L37.0879 507.514L36.3936 507.514L36.3936 506.068L33.0376 506.068C32.459 506.068 32.2854 506.357 32.2854 506.878C32.2854 507.109 32.2854 507.34 32.4011 507.688L31.6489 507.688L31.6489 507.63Z" fill="white" fill-opacity="0.5"/>
<path d="M32.5747 514.052L37.0879 515.325L37.0879 516.193L31.5911 514.515L31.5911 513.589L36.0464 512.316L36.0464 512.259L31.5911 510.986L31.5911 510.002L37.0879 508.324L37.0879 509.25L32.5747 510.523L32.5747 510.581L37.0879 511.796L37.0879 512.721L32.5747 514.052Z" fill="white" fill-opacity="0.5"/>
<path d="M39.1123 379.061C39.228 379.061 39.3438 379.177 39.3438 379.293L39.3438 428.186C39.3438 428.302 39.228 428.417 39.1123 428.417C38.9966 428.417 38.8809 428.302 38.8809 428.186L38.8809 379.293C38.8809 379.119 38.9966 379.061 39.1123 379.061Z" fill="white" fill-opacity="0.5"/>
<path d="M43.0479 408.687C43.1636 408.687 43.2793 408.802 43.2793 408.918C43.2793 414.704 42.3535 416.209 41.3699 417.887C40.3862 419.564 39.3447 421.3 39.3447 428.128C39.3447 428.244 39.229 428.359 39.1133 428.359C38.9976 428.359 38.8818 428.244 38.8818 428.128C38.8818 421.127 39.9812 419.391 40.9648 417.655C41.8906 416.093 42.8164 414.588 42.8164 408.918C42.8743 408.802 42.9321 408.687 43.0479 408.687Z" fill="white" fill-opacity="0.5"/>
<path d="M35.1777 408.687C35.2935 408.687 35.4092 408.802 35.4092 408.918C35.4092 414.588 36.335 416.035 37.2607 417.655C38.3022 419.391 39.3438 421.185 39.3438 428.128C39.3438 428.244 39.228 428.359 39.1123 428.359C38.9966 428.359 38.8809 428.244 38.8809 428.128C38.8809 421.3 37.8394 419.564 36.8557 417.887C35.8721 416.266 34.9463 414.704 34.9463 408.918C34.9463 408.802 35.062 408.687 35.1777 408.687Z" fill="white" fill-opacity="0.5"/>
<path d="M38.5242 0.115967V2.14112H42.4009V6.88577H41.5908V6.24927H38.4663V10.2417H37.7141V6.24927H34.7632V7.0015H33.9531V2.14112H37.7141V0.115967H38.5242ZM34.7632 2.89331V5.55496H37.7141V2.89331H34.7632ZM38.5242 2.89331V5.55496H41.6487V2.89331H38.5242Z" fill="white" fill-opacity="0.5"/>
<path d="M42.805 14.4653V15.1597H38.5811V18.342H42.1685V19.0364H38.5811V22.7395H43.1521V23.4338H33.2578V22.7395H34.8201V17.3005H35.5723V22.7395H37.8867V15.1018H33.7786V14.4075H42.805V14.4653Z" fill="white" fill-opacity="0.5"/>
<path d="M34.3008 34.196C34.1851 34.8903 34.0693 35.9897 33.6643 36.9733C33.4329 36.9154 33.2014 36.8576 32.9121 36.7418C33.2014 36.0475 33.375 35.2953 33.5486 34.0224L34.3008 34.196ZM37.0781 33.2702L36.9624 32.9809C36.4995 33.0387 36.0366 33.0966 35.6316 33.1544V37.6677H34.8794V33.2123C34.3008 33.2702 33.7222 33.328 33.3171 33.3859L33.2014 32.6337H34.0693C34.3586 32.1708 34.648 31.7079 34.8215 31.3607C33.8379 30.6085 33.7222 30.5507 33.0857 30.1457L33.4907 29.567L34.0115 29.8564C34.3587 29.1042 34.7637 28.2362 34.9951 27.6576L35.6895 28.0048C35.4002 28.757 34.8215 29.7985 34.5901 30.2035L35.2844 30.7243C35.5737 30.2614 35.7473 30.0299 35.863 29.7985C35.9788 29.567 36.0945 29.3934 36.3838 28.8148L37.0781 29.2199C36.731 29.7406 35.2266 32.1129 34.8794 32.5758C35.5159 32.518 36.1524 32.4601 36.6731 32.4022C36.4995 32.1129 36.3838 31.7658 36.1524 31.4186L36.7888 31.1293C37.0781 31.7079 37.4832 32.4023 37.7146 33.0387L37.0781 33.2702ZM36.9624 34.0802C37.0781 34.7167 37.2517 35.4111 37.4832 36.1054C37.2517 36.1632 37.0203 36.2211 36.7888 36.279C36.5574 35.6425 36.3838 34.8324 36.2681 34.196L36.9624 34.0802ZM42.5171 28.2362V32.6915H41.7649V32.3444H39.1033V36.279C39.1033 36.684 39.3347 36.684 39.5083 36.684H41.1863C41.7649 36.684 42.0542 36.684 42.1699 36.5683C42.2857 36.4525 42.3435 36.1632 42.4593 35.5846C42.6907 35.7003 42.98 35.8161 43.2115 35.8739C43.1536 36.3947 42.9221 37.1469 42.4593 37.3205C42.2857 37.3783 41.9964 37.3783 41.5913 37.3783H40.0291C38.8718 37.3783 38.4089 37.3783 38.4089 36.5104V31.65H41.8228V28.9884H37.8882V28.2941H42.5171V28.2362Z" fill="white" fill-opacity="0.5"/>
<path d="M38.6377 41.4287L38.4641 41.6023C39.8528 43.0488 40.8943 43.5696 41.8201 44.0325C42.1673 44.1482 42.6302 44.3218 43.2666 44.4954C43.0352 44.7268 42.8616 45.074 42.7459 45.3054C42.1094 45.074 41.1836 44.7268 40.1421 44.0903V44.7268H35.5132V44.2639C34.8188 44.7268 34.1245 45.1318 33.3723 45.479C33.2566 45.2476 33.083 44.9582 32.8516 44.7268C34.2981 44.1482 35.3975 43.3381 35.7446 43.1067C36.7283 42.4123 37.1912 41.8337 37.7119 41.1394L38.6377 41.4287ZM35.1082 48.7192C34.761 49.5872 34.4138 50.2815 34.0088 50.918L33.2566 50.5129C33.7195 49.7607 34.0088 49.1821 34.2981 48.3721L35.1082 48.7192ZM40.8943 45.479L41.4729 45.9419C41.4151 46.0576 40.7207 47.9092 40.4893 48.4299L39.7371 48.0828C39.9685 47.6199 40.2 46.9834 40.4893 46.2312H34.356V45.5369H40.8364L40.8943 45.479ZM36.6126 48.0828V50.1079C36.6126 50.4551 36.7283 50.5129 37.1912 50.5129H39.7949C39.9107 50.5129 39.9685 50.513 40.0842 50.2815C40.2 50.1079 40.2578 49.8765 40.3736 49.4136C40.605 49.5872 40.8943 49.7608 41.1836 49.8186C40.8364 50.918 40.5471 51.0916 40.3157 51.2073C40.0842 51.2651 39.6213 51.2652 39.2742 51.2652H37.5383C36.9597 51.2652 36.5547 51.2651 36.3233 51.2073C35.8604 51.1494 35.8604 50.6865 35.8604 50.4551V48.1406H36.6126V48.0828ZM40.1421 43.9746C39.2163 43.3381 38.5798 42.8174 38.0591 42.1809C37.5383 42.7595 36.7861 43.4538 35.9761 43.9746H40.1421ZM37.8855 47.4463C38.2327 47.7356 38.7534 48.2564 39.1585 48.6614L38.5798 49.24C38.1748 48.7771 37.8276 48.4299 37.3648 48.0249L37.8855 47.4463ZM41.6465 48.1985C42.1673 48.7192 42.8037 49.5293 43.2088 50.1079L42.5144 50.6287C42.0515 49.9343 41.5308 49.2979 40.9522 48.6614L41.6465 48.1985Z" fill="white" fill-opacity="0.5"/>
<path d="M40.8963 58.6716V61.3911H38.6975V62.2012H41.9956V62.9534H38.6975V64.0527H43.1529V64.805H33.3164V64.0527H37.8875V62.9534H34.4158V62.2012H37.8875V61.3911H35.573V58.6716H40.8963ZM38.6397 57.1094H39.739C40.1441 56.5308 40.6648 55.605 40.7805 55.3735L41.5327 55.8364C41.1856 56.2993 40.8963 56.7622 40.6648 57.1094H42.7478V59.366H41.9378V57.8037H34.3001V59.366H33.49V57.1094H35.7466C35.4573 56.7043 35.168 56.2414 34.8208 55.8364L35.3994 55.3735C35.8623 55.8943 35.9202 56.01 36.4409 56.7622L35.9202 57.1094H37.7717V55.0264H38.5818V57.1094H38.6397ZM36.3252 59.366V60.6967H40.0862V59.366H36.3252Z" fill="white" fill-opacity="0.5"/>
<path d="M42.6326 69.2603V79.0389H41.8225V78.4602H34.4163V79.0967H33.6641V69.2603H42.6326ZM34.4741 69.9546V77.6502H41.8804V69.9546H34.4741ZM40.781 74.6992L41.3018 75.2779C40.9546 75.5672 40.5496 75.8565 40.2603 76.0879C40.6074 76.3194 41.0703 76.4929 41.4175 76.6086C41.186 76.7822 41.0125 77.0716 40.8967 77.303C39.7395 76.7244 39.1609 76.3772 38.4666 75.625V77.3609H37.7144V75.5672C36.6729 76.3772 36.0364 76.6665 35.2842 77.0137C35.1685 76.7823 34.9949 76.5508 34.7634 76.3772C35.6892 76.0879 36.4993 75.625 37.2515 74.9886H35.7471V73.1949H40.376V74.9886H38.7559C39.0452 75.2779 39.3345 75.5671 39.6238 75.7407L40.781 74.6992ZM38.4666 70.2439V70.8225H40.6653V71.5169H38.4666V71.9797H41.4754V72.6741H34.937V71.9797H37.7144V71.5169H35.6892V70.8225H37.6565V70.2439H38.4666ZM36.4993 73.7156V74.3521H39.6238V73.7156H36.4993Z" fill="white" fill-opacity="0.5"/>
<path d="M43.0359 83.1469V83.8412H34.5881V91.4211H43.0359V92.1154H34.5881V92.6361H33.8359V83.1469H43.0359ZM38.407 87.8915V90.4374H35.5139V87.8915H38.407ZM36.2083 88.4701V89.9166H37.7705V88.4701H36.2083ZM41.1843 84.6512V87.0235H36.6133V84.6512H41.1843ZM37.3076 85.2298V86.4449H40.5479V85.2298H37.3076ZM42.5152 87.8915V90.4374H39.5642V87.8915H42.5152ZM40.2007 88.528V89.9745H41.763V88.528H40.2007Z" fill="white" fill-opacity="0.5"/>
<path d="M36.3247 151.829V153.044H38.4077V153.738H37.7713L37.2505 155.532H38.697V156.226H36.3247V157.499H38.3499V158.193H36.3247V158.772C36.8455 159.177 37.4241 159.524 38.0606 159.756C37.9448 159.929 37.7712 160.219 37.7134 160.45C37.2505 160.219 36.7876 159.929 36.3247 159.64V162.128H35.5725V159.119C35.1675 159.698 34.6467 160.276 33.6052 161.26C33.4895 161.029 33.3159 160.797 33.0845 160.681C33.7209 160.219 34.3574 159.698 35.3411 158.251H33.2581V157.557H35.5147V156.284H32.9688V155.59H34.6467C34.4731 155.127 34.2996 154.432 34.0681 153.796H33.3738V153.102H35.6304V151.887H36.3247V151.829ZM34.8782 153.738C35.0518 154.375 35.2832 155.011 35.3989 155.532H36.4404C36.6719 155.011 36.8455 154.317 36.9612 153.738H34.8782ZM39.9121 155.474H43.3259V156.168H42.1687V162.07H41.4165V156.168H39.9121C39.8543 158.83 39.8543 160.45 38.1763 162.07C38.0606 161.897 37.887 161.723 37.5977 161.492C39.0442 160.161 39.2178 159.003 39.2178 156.342V152.812L39.9121 152.986C40.8379 152.754 42.053 152.349 42.8052 152.002L43.2681 152.639C42.1687 153.044 40.4907 153.564 39.9121 153.738V155.474Z" fill="white" fill-opacity="0.5"/>
<path d="M38.4075 166.062V166.815H36.9031C36.8452 167.22 36.7874 167.682 36.7295 168.088H38.2918V171.849H36.9609V174.742C36.9609 175.494 36.7874 175.609 35.5144 175.725C35.5144 175.494 35.4565 175.204 35.3408 174.915H36.093C36.2087 174.915 36.2666 174.857 36.2666 174.742V171.791H34.9358V168.03H36.093C36.1509 167.682 36.2087 167.22 36.2666 166.757H34.2993C34.2993 169.65 34.2993 170.402 34.2993 171.096C34.2415 173.411 33.8364 174.51 33.3735 175.436C33.2 175.204 33.0264 174.915 32.7949 174.799C33.605 173.121 33.605 172.716 33.605 166.062H38.4075V166.062ZM35.8037 172.659C35.5144 173.526 35.1672 174.105 34.7044 174.857C34.5308 174.684 34.3572 174.568 34.1257 174.51C34.5886 173.816 34.8779 173.295 35.1672 172.369L35.8037 172.659ZM35.688 168.666V169.592H37.5974V168.666H35.688ZM35.688 170.171V171.27H37.5974V170.171H35.688ZM37.9446 172.369C38.4075 173.237 38.6968 173.526 38.9282 173.758C38.6968 173.874 38.5232 173.989 38.3496 174.105C38.0603 173.7 37.8289 173.411 37.4238 172.659L37.9446 172.369ZM40.4905 174.394C39.5647 175.147 39.044 175.494 38.2339 175.899C38.1182 175.667 37.9446 175.494 37.771 175.262C38.9282 174.799 39.6226 174.221 39.9697 173.874L40.4905 174.394ZM43.2679 166.062V166.815H41.3006C41.2427 167.22 41.1848 167.682 41.0691 168.088H42.805V173.642H39.1018V168.088H40.4326C40.4905 167.682 40.6062 167.22 40.6062 166.815H38.7547V166.062H43.2679ZM39.854 168.724V169.765H42.1106V168.724H39.854ZM39.854 170.344V171.328H42.1106V170.344H39.854ZM39.854 171.906V172.948H42.1106V171.906H39.854ZM41.8213 173.874C42.5157 174.568 43.0364 174.915 43.5572 175.204C43.3257 175.436 43.1521 175.61 42.9785 175.899C42.1685 175.32 41.8213 175.031 41.2427 174.394L41.8213 173.874Z" fill="white" fill-opacity="0.5"/>
<path d="M41.8784 179.66V182.726H38.5803V183.479H43.2093V184.173H33.1992V183.479H37.8281V182.726H34.53V179.66H41.8784ZM36.5552 187.992C35.3401 188.802 34.3565 189.207 33.72 189.38C33.6043 189.149 33.4885 188.975 33.2571 188.744C34.3565 188.397 34.9929 188.05 36.0344 187.413L36.5552 187.992ZM41.7049 184.752V186.95H38.5803V188.513C38.5803 189.265 38.3489 189.323 36.9602 189.496C36.9602 189.265 36.8445 188.975 36.6709 188.686H37.6546C37.7703 188.686 37.8281 188.628 37.8281 188.513V186.95H34.8193V184.752H41.7049ZM35.3401 180.296V180.875H41.0684V180.296H35.3401ZM35.3401 181.453V182.09H41.0684V181.453H35.3401ZM35.5137 185.446V186.314H40.9527V185.446H35.5137ZM39.969 187.355C41.1841 188.108 41.8784 188.339 42.9778 188.744C42.8042 188.975 42.6306 189.207 42.5149 189.438C41.5313 189.091 40.374 188.513 39.564 187.992L39.969 187.355Z" fill="white" fill-opacity="0.5"/>
<path d="M35.1687 193.142V195.514H36.2102V196.208H35.1687V197.423C35.5159 197.771 35.863 198.06 36.1524 198.291C36.0366 198.465 35.9209 198.696 35.8052 198.986C35.5737 198.754 35.3423 198.581 35.1687 198.349V203.383H34.4165V198.465C34.1272 199.101 33.78 199.796 33.375 200.432C33.2593 200.143 33.0857 199.854 32.9121 199.622C33.8958 198.176 34.2429 197.018 34.4165 196.208H33.2593V195.514H34.4165V193.142H35.1687ZM38.9876 193.605V198.581H37.1939V201.127L38.4089 200.721C38.2932 200.374 38.0618 199.911 37.8882 199.449L38.5247 199.159C38.814 199.796 39.1033 200.606 39.3926 201.3L38.7561 201.589L38.6404 201.3C37.7725 201.647 36.9046 201.994 35.9788 202.342L35.7473 201.589L36.4995 201.358V193.547H38.9876V193.605ZM37.1939 194.299V195.745H38.2932V194.299H37.1939ZM37.1939 196.44V197.886H38.2932V196.44H37.1939ZM43.0957 193.605V194.299H42.3435C42.2857 196.093 42.2278 196.787 41.9964 197.886H43.3272V198.581H41.8228C41.7649 198.812 41.7071 198.986 41.6492 199.217H41.8228V202.168C41.8228 202.284 41.8228 202.399 41.9964 202.399C42.4014 202.399 42.4593 202.399 42.5171 202.284C42.6328 202.168 42.6907 201.589 42.6907 201.416C42.9221 201.532 43.1536 201.589 43.4429 201.647C43.2114 202.92 43.0957 203.152 42.4593 203.152C42.1699 203.152 41.5913 203.152 41.5335 203.152C41.2442 203.094 41.1284 202.862 41.1284 202.457V200.548C40.492 201.763 39.624 202.747 38.8718 203.325C38.6983 203.094 38.5825 202.862 38.2932 202.689C38.9876 202.168 40.3184 201.184 41.1284 198.638H39.3347V197.944H39.8555V194.357H39.4505V193.662H43.0957V193.605ZM40.5498 194.299V197.886H41.2442C41.4178 197.018 41.5335 196.382 41.5913 194.299H40.5498Z" fill="white" fill-opacity="0.5"/>
<path d="M38.6377 207.028L38.4641 207.202C39.8528 208.648 40.8943 209.169 41.8201 209.632C42.1673 209.748 42.6302 209.921 43.2666 210.095C43.0352 210.326 42.8616 210.674 42.7459 210.905C42.1094 210.674 41.1836 210.326 40.1421 209.69V210.326H35.5132V209.864C34.8188 210.326 34.1245 210.731 33.3723 211.079C33.2566 210.847 33.083 210.558 32.8516 210.326C34.2981 209.748 35.3975 208.938 35.7446 208.706C36.7283 208.012 37.1912 207.433 37.7119 206.739L38.6377 207.028ZM35.1082 214.319C34.761 215.187 34.4138 215.881 34.0088 216.518L33.2566 216.113C33.7195 215.36 34.0088 214.782 34.2981 213.972L35.1082 214.319ZM40.8943 211.079L41.4729 211.542C41.4151 211.657 40.7207 213.509 40.4893 214.03L39.7371 213.682C39.9685 213.219 40.2 212.583 40.4893 211.831H34.356V211.136H40.8364L40.8943 211.079ZM36.6126 213.682V215.708C36.6126 216.055 36.7283 216.113 37.1912 216.113H39.7949C39.9107 216.113 39.9685 216.113 40.0842 215.881C40.2 215.708 40.2578 215.476 40.3736 215.013C40.605 215.187 40.8943 215.36 41.1836 215.418C40.8364 216.518 40.5471 216.691 40.3157 216.807C40.0842 216.865 39.6213 216.865 39.2742 216.865H37.5383C36.9597 216.865 36.5547 216.865 36.3233 216.807C35.8604 216.749 35.8604 216.286 35.8604 216.055V213.74H36.6126V213.682ZM40.1421 209.574C39.2163 208.938 38.5798 208.417 38.0591 207.781C37.5383 208.359 36.7861 209.053 35.9761 209.574H40.1421ZM37.8855 213.046C38.2327 213.335 38.7534 213.856 39.1585 214.261L38.5798 214.84C38.1748 214.377 37.8276 214.03 37.3648 213.625L37.8855 213.046ZM41.6465 213.798C42.1673 214.319 42.8037 215.129 43.2088 215.708L42.5144 216.228C42.0515 215.534 41.5308 214.897 40.9522 214.261L41.6465 213.798Z" fill="white" fill-opacity="0.5"/>
<path d="M37.366 224.85V227.28H36.6716V229.132C37.0188 228.9 37.5396 228.611 37.8289 228.379L37.9446 229.132C37.6553 229.363 36.4402 230.173 35.8616 230.52L35.4566 229.826L35.8037 229.594V227.338H35.0515C34.9937 229.305 34.415 230.115 33.2578 230.809C33.1421 230.578 32.9685 230.347 32.7949 230.115C33.7207 229.537 34.2993 229.074 34.3572 227.338H33.4314V224.908H37.366V224.85ZM36.0352 220.51V221.494H37.7131V222.13H37.1924C37.0188 222.535 36.9031 223.056 36.7295 223.519H37.8867V224.155H33.2V223.519H34.3572C34.2415 223.056 34.0679 222.535 33.9522 222.13H33.5471V221.494H35.1672V220.51H36.0352ZM34.3572 225.486V226.586H36.6138V225.486H34.3572ZM34.7622 222.188C34.8779 222.651 35.0515 223.114 35.1094 223.577H35.9773C36.093 223.114 36.2666 222.593 36.3823 222.188H34.7622ZM42.6314 224.85V227.28H41.7634V229.652C41.7634 229.942 41.8792 229.942 41.9949 229.942C42.6314 229.942 42.6314 229.942 42.7471 229.074C42.9785 229.189 43.2678 229.305 43.4993 229.305C43.2678 230.636 42.9207 230.636 42.5735 230.636C42.2263 230.636 41.5899 230.636 41.532 230.636C41.2427 230.578 41.0691 230.347 41.0691 229.884V227.338H40.2012C40.1433 229.305 39.5647 230.115 38.176 230.867C38.0603 230.636 37.8867 230.347 37.7131 230.173C39.1018 229.536 39.449 228.842 39.449 227.338H38.8125V224.908H42.6314V224.85ZM41.0691 220.51V221.494H43.0364V222.13H42.3999C42.2263 222.535 42.1106 223.056 41.937 223.519H43.3836V224.155H38.4075V223.519H39.449C39.3333 223.056 39.1597 222.593 39.044 222.13H38.5811V221.494H40.259V220.51H41.0691ZM39.5069 225.486V226.586H41.8792V225.486H39.5069ZM39.7962 222.188C39.9119 222.593 40.0855 223.114 40.2012 223.577H41.1848C41.3006 223.172 41.4741 222.593 41.5899 222.188H39.7962Z" fill="white" fill-opacity="0.5"/>
<path d="M42.6319 234.918V244.581H41.8797V244.176H34.3577V244.581H33.6055V234.86H42.6319V234.918ZM34.3577 235.612V243.481H41.8797V235.612H34.3577ZM40.5488 236.191V237.869H38.5237V238.447H41.3589V238.968H34.8784V238.447H37.8294V237.869H35.8042V236.191H40.5488ZM40.8382 239.489V242.96H35.5728V239.489H40.8382ZM36.2092 239.952V242.44H40.2017V239.952H36.2092ZM36.4407 236.711V237.406H39.8545V236.711H36.4407ZM39.5073 240.472V241.977H36.8457V240.472H39.5073ZM37.3665 240.877V241.456H38.8709V240.877H37.3665Z" fill="white" fill-opacity="0.5"/>
<path d="M48.5898 0V245.101" stroke="white" stroke-opacity="0.5" stroke-width="0.7513" stroke-miterlimit="10"/>
<path d="M27.8203 0V245.101" stroke="white" stroke-opacity="0.5" stroke-width="0.7513" stroke-miterlimit="10"/>
<path d="M20.3555 4.22387V3.0088H15.8423L17.231 0.752185L15.7845 0.115723L14.1065 3.0088H2.76562V4.22387H11.0977L10.3455 6.24902H6.12159H5.48511H4.67505V17.3006H5.48511H6.12159H17.0574H17.7517H18.4461V6.24902H17.7517H17.0574H11.792L12.6599 4.22387H20.3555ZM6.12159 10.5308H17.0574V12.4981H6.12159V10.5308V10.5308ZM6.12159 16.0855V13.771H17.0574V16.0855H6.12159ZM17.0574 9.31571H6.12159V7.52198H17.0574V9.31571Z" fill="white" fill-opacity="0.5"/>
<path d="M6.29468 1.44652C6.29468 1.50438 6.29467 1.50439 6.35254 1.56225H6.4104L7.1626 2.71948V2.77733H7.22046C7.27832 2.71947 7.45191 2.66163 7.74122 2.5459C8.20411 2.2566 8.37769 2.19871 8.43555 2.19871H8.49341L8.37769 2.02514C8.31983 1.90941 8.14624 1.67796 7.91479 1.33079C7.79907 1.15721 7.68335 0.983651 7.56763 0.925789L7.27832 0.520752L7.1626 0.578599L6.12109 1.04148L6.29468 1.44652Z" fill="white" fill-opacity="0.5"/>
<path d="M11.7945 25.9797C11.4473 26.8476 10.6372 28.9884 8.84352 31.1293H7.85988V28.5256H10.6372V27.3105H7.85988V25.5168H6.58693V27.3105H3.63599V28.5256H6.58693V31.1293H3.17309V32.2865H7.74415C6.4712 33.5595 4.79322 34.7168 2.65234 35.5268L3.11524 36.7998C3.46241 36.684 4.04101 36.4526 4.73535 36.0475V42.123H5.83472H6.12403H10.4058H11.7945V41.0237V38.5935V37.552V35.5268V35.4689V34.4853H7.33912C8.03346 33.9067 8.78566 33.2124 9.53786 32.3444H13.0096V31.1872H10.4636C11.3894 29.9142 12.3152 28.352 13.0674 26.3847L11.7945 25.9797ZM10.4058 41.0815H6.12403V38.5935H10.4058V41.0815ZM10.4058 37.552H6.12403V35.5268H10.4058V37.552Z" fill="white" fill-opacity="0.5"/>
<path d="M20.4182 35.6429C20.1868 34.37 19.6082 33.1549 17.988 31.8819L20.3604 26.0958H14.1113V26.9058V27.3108V42.8177H15.5V27.3108H18.4509L16.5415 32.2291C19.8396 34.2542 20.3025 37.9573 16.4837 39.8089L17.0623 41.024C18.9717 40.1561 20.8811 38.3624 20.4182 35.6429Z" fill="white" fill-opacity="0.5"/>
<path d="M13.0676 66.7144C10.9846 66.5986 9.53811 66.0779 8.43874 65.3836C12.1997 63.5899 16.9444 58.9031 19.1431 53.8691H11.679V50.9761H10.2324V53.8691H3.98341V55.1421H16.7708C16.1922 56.5307 13.1834 61.2754 7.22364 64.5157C6.47145 63.8213 6.00856 63.127 5.66139 62.8955L3.28906 67.5244L4.44629 68.3345L5.95069 65.4414C8.55446 67.8716 10.406 68.1609 12.8941 68.1609L19.7796 68.2187V66.7144H13.0676V66.7144Z" fill="white" fill-opacity="0.5"/>
<path d="M2.13281 90.9583L3.57935 91.6526C4.38941 89.6853 5.83595 85.1722 5.83595 82.4527L4.38942 82.3947C4.33155 84.1885 3.23218 88.7595 2.13281 90.9583Z" fill="white" fill-opacity="0.5"/>
<path d="M9.36499 92.347V81.1219H9.30714H7.8606H7.80273V93.6778C11.3901 94.2564 13.6467 93.7356 16.1348 93.6778L15.9612 92.2312C12.6052 92.5205 11.1587 92.6363 9.36499 92.347Z" fill="white" fill-opacity="0.5"/>
<path d="M16.4832 82.1634L15.1523 82.8577C15.1523 82.9155 19.6655 91.5369 19.6655 91.5369L20.9964 90.8426L16.4832 82.1634Z" fill="white" fill-opacity="0.5"/>
<path d="M13.7632 80.3695L9.25 76.2036L8.32422 77.3029L12.8374 81.5268L13.7632 80.3695Z" fill="white" fill-opacity="0.5"/>
<path d="M7.45559 162.185L6.12477 162.59V156.573H7.62916V155.242H6.12477V150.497H4.73609V155.242H2.94239V156.573H4.73609V162.995L2.71094 163.574L3.05811 164.905L7.57131 163.516L7.45559 162.185Z" fill="white" fill-opacity="0.5"/>
<path d="M20.4158 166.583C19.3164 165.426 18.5642 164.268 17.9278 163.053C18.9114 161.375 19.6057 159.234 19.7215 156.399L18.4485 156.226C18.3907 157.325 18.2171 159.408 17.2334 161.491C16.0762 158.54 16.0183 155.763 16.0762 154.374H20.2422V153.159C20.2422 153.159 18.3328 153.159 16.1341 153.159V150.555H14.7454V153.159C11.9102 153.159 9.07496 153.159 9.07496 153.159C9.07496 158.309 9.59571 163.979 6.35547 166.756L7.33911 167.856C8.66993 166.699 10.0007 164.442 10.2901 160.218C10.3479 159.582 10.3479 159.061 10.4058 158.54H12.7781C12.8938 159.987 12.7202 162.822 12.1416 164.037L13.4146 164.326C14.1089 162.012 13.9932 158.945 13.9353 157.383H13.646H13.1831H10.5215C10.5794 155.126 10.4636 154.374 10.4636 154.374H14.8032C14.8032 158.019 15.5554 160.855 16.4234 162.995C15.3819 164.5 13.7617 165.889 11.3315 166.699L12.0259 167.856C13.5882 167.335 15.5555 166.351 17.0598 164.384C17.9856 166.12 18.9114 167.219 19.3743 167.798L20.4158 166.583Z" fill="white" fill-opacity="0.5"/>
<path d="M19.8376 152.001L18.2175 150.266L17.3496 150.786L18.9119 152.754L19.8376 152.001Z" fill="white" fill-opacity="0.5"/>
<path d="M18.2749 179.949H17.6963H12.2573V176.188H10.8687V179.949H5.4297H5.14039H4.04102V188.744H5.14039H5.4297H10.8687V193.373H12.3152V188.744H17.7542H18.3328H19.1429V179.949H18.2749ZM5.4297 187.413V181.164H10.8687V187.413H5.4297ZM12.2573 187.413V181.164H17.6963V187.413H12.2573Z" fill="white" fill-opacity="0.5"/>
<path d="M20.2991 214.319H18.1582V213.451H17.0589V214.319H10.2891V215.303H17.0589V219.179H18.1582V215.303H20.2991V214.319Z" fill="white" fill-opacity="0.5"/>
<path d="M11.7363 216.807L14.5137 218.774L15.1502 217.675L12.3728 215.997L11.7363 216.807Z" fill="white" fill-opacity="0.5"/>
<path d="M6.93312 201.821H5.77589V203.325H3.11426V204.482H5.77589V206.102H4.44507H3.75073H3.34571V213.046H3.75073H4.44507H5.77589V215.245H2.88281V216.344H5.77589V219.063H6.93312V216.286H9.82619V215.187H6.93312V212.988H8.3218H9.42116V211.946V209.863V208.822V207.26V206.102H8.3218H6.93312V204.482H9.82619V203.325H6.93312V201.821ZM5.77589 207.26V208.822H4.44507V207.26H5.77589ZM4.44507 211.946V209.863H5.77589V211.946H4.44507ZM8.3218 211.946H6.93312V209.863H8.3218V211.946ZM8.3218 207.26V208.822H6.93312V207.26H8.3218Z" fill="white" fill-opacity="0.5"/>
<path d="M14.6863 205.119H12.1982H11.2725H11.0989L11.1567 210.326H11.3303H12.2561H14.6863V211.889L10.636 212.062L10.6938 213.104L18.7945 212.757L19.2573 213.567L20.241 213.046L18.6787 210.847L17.8108 211.252L18.158 211.831L15.8435 211.889V210.384H18.3894H18.7366H19.4309L19.3731 205.293V205.177H15.7857V203.904H19.8938V202.92H15.7857V201.763H14.6284V202.92H10.5781V203.904H14.6284V205.119H14.6863ZM14.6863 206.045V207.144H12.1982V206.045H14.6863ZM12.1982 209.401V208.07H14.6863V209.401H12.1982ZM15.8435 209.401V208.07H18.3894V209.401H15.8435ZM18.3316 206.045V207.144H15.8435V206.045H18.3316Z" fill="white" fill-opacity="0.5"/>
<path d="M12.4309 242.787V235.843H18.5064V234.513H12.4309V229.537H19.2586V228.206H3.80957V229.537H10.9844V242.787H7.39698V233.298H5.95044V242.787H3.11523V244.118H20.0108V242.787H12.4309Z" fill="white" fill-opacity="0.5"/>
</svg>
