<svg width="42" height="42" viewBox="0 0 42 42" fill="none" xmlns="http://www.w3.org/2000/svg">
<path d="M20.1721 30.1902H20.7602V29.9154C20.7602 29.9034 20.7722 29.8915 20.7842 29.8915C20.8683 29.8915 20.9163 29.9034 20.9163 29.9154C20.9163 29.9273 20.9163 29.9393 20.9043 29.9393C20.8923 29.9393 20.8923 29.9512 20.8923 29.9751V30.1902H21.4444C21.4684 30.1902 21.4804 30.2021 21.4804 30.2141V30.9548C21.4804 30.9668 21.4684 30.9787 21.4444 30.9787H21.3844C21.3604 30.9787 21.3604 30.9668 21.3604 30.9548V30.8353H20.9043V31.361C20.9043 31.373 20.8923 31.373 20.8683 31.373H20.8082C20.7962 31.373 20.7842 31.361 20.7842 31.361V30.8353H20.2921V30.9548C20.2921 30.9668 20.2801 30.9668 20.2561 30.9668H20.1961C20.1841 30.9668 20.1721 30.9668 20.1721 30.9548V30.226C20.1481 30.2021 20.1601 30.1902 20.1721 30.1902ZM20.2681 30.7159H20.7602V30.3096H20.2681V30.7159ZM20.8803 30.7159H21.3364V30.3096H20.8803V30.7159Z" fill="#191B20"/>
<path d="M22.5249 30.2618H23.7132C23.7252 30.2618 23.7252 30.2737 23.7252 30.2857V30.3335C23.7252 30.3454 23.7252 30.3574 23.7132 30.3574H23.5212V30.5605H23.8333C23.8453 30.5605 23.8453 30.5724 23.8453 30.5844V30.6322C23.8453 30.6441 23.8453 30.6561 23.8333 30.6561H23.5212V30.8592H23.8093C23.8213 30.8592 23.8213 30.8592 23.8213 30.8711V30.9189C23.8213 30.9309 23.8213 30.9428 23.8093 30.9428H23.1731V31.0862H23.7132C23.7252 31.0862 23.7252 31.0981 23.7252 31.0981V31.1459C23.7252 31.1579 23.7252 31.1698 23.7132 31.1698H23.1731V31.349C23.1731 31.361 23.1611 31.3729 23.1491 31.3729H23.0891C23.0771 31.3729 23.0651 31.3729 23.0651 31.349V31.1698H22.5369C22.5249 31.1698 22.5249 31.1579 22.5249 31.1459V31.1101C22.5249 31.0981 22.5249 31.0981 22.5369 31.0981H23.0651V30.9548H22.4169C22.4049 30.9548 22.4049 30.9428 22.4049 30.9309V30.8711C22.4049 30.8592 22.4049 30.8592 22.4169 30.8592H22.7169V30.6561H22.3929C22.3809 30.6561 22.3809 30.6441 22.3809 30.6322V30.5844C22.3809 30.5724 22.3809 30.5605 22.3929 30.5605H22.7169V30.3574H22.5249C22.5129 30.3574 22.5129 30.3454 22.5129 30.3335V30.2857C22.5129 30.2737 22.5129 30.2618 22.5249 30.2618ZM22.4049 30.0109H22.813V29.9034C22.813 29.8914 22.825 29.8795 22.837 29.8795C22.921 29.8795 22.957 29.8795 22.957 29.9034C22.957 29.9153 22.957 29.9273 22.945 29.9273C22.933 29.9273 22.933 29.9392 22.933 29.9631V30.0109H23.3051V29.9034C23.3051 29.8914 23.3171 29.8795 23.3291 29.8795C23.4131 29.8795 23.4492 29.8795 23.4492 29.9034C23.4492 29.9153 23.4492 29.9273 23.4372 29.9273C23.4252 29.9273 23.4252 29.9392 23.4252 29.9631V30.0109H23.8333C23.8453 30.0109 23.8453 30.0228 23.8453 30.0348V30.0826C23.8453 30.0945 23.8453 30.1065 23.8333 30.1065H23.4252V30.2021C23.4252 30.214 23.4132 30.226 23.4012 30.226H23.3411C23.3291 30.226 23.3171 30.226 23.3171 30.2021V30.1065H22.945V30.2021C22.945 30.214 22.933 30.226 22.921 30.226H22.861C22.849 30.226 22.837 30.226 22.837 30.2021V30.1065H22.4289C22.4169 30.1065 22.4169 30.0945 22.4169 30.0826V30.0348C22.3929 30.0228 22.3929 30.0109 22.4049 30.0109ZM23.0651 30.3574H22.849V30.5605H23.0651V30.3574ZM22.837 30.8472H23.0531V30.6441H22.837V30.8472ZM23.4132 30.3574H23.1731V30.5605H23.4132V30.3574ZM23.1731 30.8472H23.4132V30.6441H23.1731V30.8472Z" fill="#191B20"/>
<path d="M25.5978 30.4172C25.5978 30.5367 25.6098 30.6203 25.6218 30.692H26.102C26.114 30.692 26.126 30.7039 26.126 30.7159V30.7637C26.126 30.7756 26.126 30.7875 26.102 30.7875H25.6458C25.6578 30.8353 25.6818 30.8831 25.6938 30.9309C25.7179 30.9907 25.7539 31.0384 25.7899 31.0743C25.8139 31.1101 25.8499 31.146 25.8859 31.1699C25.9339 31.2057 25.9579 31.2177 25.9819 31.2177C25.9939 31.2177 26.0059 31.2057 26.0299 31.1818C26.0539 31.146 26.0659 31.0862 26.0659 31.0145C26.0659 31.0026 26.078 30.9907 26.078 30.9907C26.078 30.9907 26.09 30.9907 26.102 31.0026C26.114 31.0146 26.138 31.0146 26.15 31.0265C26.162 31.0384 26.174 31.0384 26.174 31.0384C26.162 31.134 26.138 31.2057 26.114 31.2535C26.078 31.3132 26.0539 31.3491 26.0059 31.3491C25.9819 31.3491 25.9579 31.3491 25.9339 31.3371C25.9099 31.3252 25.8739 31.3132 25.8499 31.2893C25.8139 31.2654 25.7659 31.2177 25.7058 31.1699C25.6698 31.1221 25.6338 31.0743 25.6098 31.0265C25.5858 30.9668 25.5618 30.919 25.5498 30.8831C25.5378 30.8473 25.5258 30.8114 25.5138 30.7756H24.9856V31.1818C25.0096 31.1818 25.0216 31.1699 25.0457 31.1699C25.1897 31.134 25.3097 31.0982 25.4418 31.0504H25.4538C25.4658 31.0504 25.4658 31.0504 25.4658 31.0743C25.4658 31.134 25.4658 31.1699 25.4538 31.1699C25.2377 31.2296 25.0216 31.3013 24.7936 31.3491C24.7696 31.373 24.7576 31.3969 24.7456 31.3969C24.7336 31.3969 24.7096 31.3491 24.6855 31.2535C24.7336 31.2416 24.7936 31.2296 24.8656 31.2177V29.9751C24.8656 29.9632 24.8776 29.9512 24.8896 29.9512H25.9819C25.9939 29.9512 26.0059 29.9632 26.0059 29.9751V30.4052C26.0059 30.4172 25.9939 30.4291 25.9819 30.4291H25.5978V30.4172ZM24.9976 30.3096H25.9099V30.0468H24.9976V30.3096ZM24.9976 30.4172V30.692H25.5138C25.5018 30.6203 25.4898 30.5247 25.4898 30.4172H24.9976Z" fill="#191B20"/>
<path d="M27.098 29.9512H28.3944C28.4064 29.9512 28.4184 29.9512 28.4184 29.9751V31.3491C28.4184 31.361 28.4064 31.361 28.3944 31.361H28.3344C28.3104 31.361 28.3104 31.361 28.3104 31.3491V31.3013H27.194V31.3491C27.194 31.361 27.182 31.361 27.17 31.361H27.11C27.086 31.361 27.086 31.361 27.086 31.3491V29.9632C27.074 29.9512 27.074 29.9512 27.098 29.9512ZM27.182 31.1938H28.2984V30.0349H27.182V31.1938ZM27.7462 30.8592C27.7582 30.8592 27.7582 30.8712 27.7582 30.8831C27.7582 30.9309 27.7582 30.9548 27.7462 30.9668C27.6142 31.0026 27.4821 31.0384 27.3501 31.0623C27.3381 31.0982 27.3261 31.1101 27.3141 31.1101C27.3021 31.1101 27.2901 31.0743 27.2541 30.9787C27.3141 30.9668 27.3981 30.9548 27.4821 30.9309C27.5782 30.907 27.6622 30.8831 27.7462 30.8592ZM27.2781 30.226H27.8062C27.8062 30.1902 27.8062 30.1543 27.8062 30.1185C27.8062 30.1065 27.8062 30.0946 27.8182 30.0946L27.9143 30.1065C27.9383 30.1065 27.9383 30.1065 27.9383 30.1185C27.9383 30.1304 27.9383 30.1424 27.9263 30.1424C27.9143 30.1424 27.9143 30.1663 27.9143 30.1782V30.2141H28.1183C28.0943 30.1902 28.0703 30.1782 28.0343 30.1543C28.0103 30.1424 27.9863 30.1304 27.9743 30.1185C27.9743 30.1065 27.9863 30.0946 28.0223 30.0468C28.0223 30.0349 28.0343 30.0349 28.0343 30.0349C28.0703 30.0588 28.0943 30.0707 28.1183 30.0826C28.1423 30.1065 28.1663 30.1185 28.1783 30.1304C28.1783 30.1304 28.1783 30.1304 28.1663 30.1424C28.1423 30.1663 28.1303 30.1902 28.1183 30.2021H28.2263C28.2383 30.2021 28.2383 30.2141 28.2383 30.226V30.2738C28.2383 30.2858 28.2383 30.2977 28.2263 30.2977H27.9023C27.9023 30.3574 27.9023 30.4052 27.9143 30.453C27.9143 30.5247 27.9263 30.5964 27.9503 30.6681C27.9623 30.7039 27.9623 30.7278 27.9743 30.7517C27.9983 30.7159 28.0103 30.6681 28.0343 30.6203C28.0583 30.5605 28.0823 30.5008 28.0943 30.4411C28.0943 30.4291 28.1063 30.4291 28.1063 30.4291C28.1903 30.453 28.2383 30.4769 28.2383 30.4889C28.2383 30.5008 28.2263 30.5128 28.2143 30.5128C28.2023 30.5128 28.1903 30.5247 28.1903 30.5367C28.1663 30.6203 28.1303 30.692 28.0943 30.7637C28.0703 30.8114 28.0463 30.8473 28.0223 30.8831C28.0343 30.919 28.0583 30.9429 28.0703 30.9668C28.0943 30.9787 28.1063 30.9907 28.1183 30.9907C28.1303 30.9907 28.1303 30.9787 28.1423 30.9548C28.1543 30.9309 28.1663 30.8951 28.1783 30.8592C28.1783 30.8592 28.1903 30.8712 28.2023 30.8712C28.2143 30.8951 28.2263 30.907 28.2503 30.919C28.2623 30.9309 28.2624 30.9429 28.2624 30.9548C28.2384 31.0026 28.2263 31.0384 28.2023 31.0743C28.1783 31.1101 28.1423 31.134 28.1183 31.134C28.1063 31.134 28.0943 31.134 28.0823 31.1221C28.0583 31.1101 28.0343 31.0982 28.0103 31.0623C27.9863 31.0384 27.9623 31.0145 27.9503 30.9787C27.9022 31.0265 27.8542 31.0743 27.7942 31.1101C27.7942 31.1101 27.7822 31.1101 27.7702 31.1101C27.7582 31.1101 27.7462 31.0982 27.7342 31.0982C27.7222 31.0862 27.7102 31.0623 27.6982 31.0504C27.6862 31.0504 27.6862 31.0384 27.6862 31.0265C27.6862 31.0265 27.6862 31.0265 27.6982 31.0145C27.7222 31.0026 27.7582 30.9907 27.7822 30.9668C27.8302 30.9309 27.8662 30.907 27.9023 30.8592C27.8903 30.8234 27.8782 30.7756 27.8662 30.7278C27.8422 30.6442 27.8302 30.5605 27.8182 30.4769C27.8182 30.4291 27.8062 30.3694 27.8062 30.2977H27.2661C27.2541 30.2977 27.2541 30.2858 27.2541 30.2738V30.226C27.2661 30.238 27.2781 30.226 27.2781 30.226ZM27.3261 30.4291H27.7102C27.7222 30.4291 27.7342 30.4411 27.7342 30.453V30.7756C27.7342 30.7875 27.7222 30.7995 27.7102 30.7995H27.3261C27.3021 30.7995 27.3021 30.7995 27.3021 30.7756V30.453C27.3021 30.4291 27.3021 30.4291 27.3261 30.4291ZM27.6262 30.5247H27.4101V30.692H27.6262V30.5247Z" fill="#191B20"/>
<path d="M29.5718 29.9152H30.5681C30.5801 29.9152 30.5921 29.9272 30.5921 29.9391V30.417C30.5921 30.4289 30.5801 30.4289 30.5681 30.4289H30.5081C30.4961 30.4289 30.4841 30.4289 30.4841 30.417V30.4051H30.124V30.5126H30.7962C30.8082 30.5126 30.8082 30.5245 30.8082 30.5365V30.5843C30.8082 30.5962 30.8082 30.6082 30.7962 30.6082H29.3558C29.3437 30.6082 29.3438 30.5962 29.3438 30.5843V30.5365C29.3438 30.5245 29.3437 30.5126 29.3558 30.5126H30.0159V30.4051H29.6678V30.417C29.6678 30.4289 29.6558 30.4289 29.6438 30.4289H29.5838C29.5718 30.4289 29.5598 30.4289 29.5598 30.417V29.9391C29.5358 29.9272 29.5478 29.9152 29.5718 29.9152ZM29.7519 31.0502L29.8359 31.1219C29.8479 31.1339 29.8479 31.1338 29.8479 31.1458C29.8479 31.1458 29.8479 31.1458 29.8359 31.1577C29.8239 31.1577 29.8119 31.1577 29.7999 31.1697C29.7639 31.2055 29.7159 31.2414 29.6678 31.2653C29.6078 31.3011 29.5478 31.337 29.4638 31.3728C29.4518 31.3728 29.4398 31.3728 29.4398 31.3609C29.4158 31.3489 29.3918 31.325 29.3798 31.3131C29.3677 31.3131 29.3678 31.3011 29.3678 31.3011C29.3678 31.3011 29.3677 31.2892 29.3798 31.2892C29.4158 31.2772 29.4518 31.2653 29.4758 31.2533C29.5358 31.2294 29.5838 31.1936 29.6198 31.1697C29.6558 31.1458 29.6918 31.11 29.7399 31.0741C29.7399 31.0502 29.7519 31.0502 29.7519 31.0502ZM29.6078 30.6918H30.5321C30.5441 30.6918 30.5561 30.6918 30.5561 30.7157V30.9905C30.5561 31.0024 30.5441 31.0144 30.5321 31.0144H30.124V31.2653C30.124 31.3489 30.0519 31.3847 29.9199 31.3847H29.8719C29.8599 31.3847 29.8599 31.3728 29.8599 31.3609C29.8599 31.337 29.8479 31.3131 29.8359 31.2772V31.2653C29.8599 31.2772 29.8839 31.2772 29.9079 31.2772C29.9679 31.2772 29.9919 31.2533 29.9919 31.2175V31.0144H29.5958C29.5838 31.0144 29.5718 31.0144 29.5718 30.9905V30.7157C29.5838 30.6918 29.5958 30.6918 29.6078 30.6918ZM29.6558 30.1183H30.4841V30.0108H29.6558V30.1183ZM29.6558 30.3095H30.4841V30.2019H29.6558V30.3095ZM30.4481 30.7874H29.7039V30.9188H30.4481V30.7874ZM30.364 31.0502C30.4481 31.0861 30.5201 31.1338 30.5801 31.1577C30.6401 31.2055 30.7001 31.2414 30.7482 31.2772C30.7482 31.2772 30.7482 31.2772 30.7362 31.2892C30.7001 31.337 30.6881 31.3609 30.6881 31.3609C30.6161 31.3011 30.5441 31.2533 30.4721 31.2055C30.4121 31.1697 30.352 31.1458 30.316 31.1338C30.316 31.1219 30.328 31.11 30.364 31.0622C30.352 31.0502 30.364 31.0502 30.364 31.0502Z" fill="#191B20"/>
<path d="M31.7205 30.226H31.9846C31.9966 30.226 32.0086 30.238 32.0086 30.2499V30.5127C32.0086 30.5247 31.9966 30.5366 31.9846 30.5366H31.8765C31.9246 30.5605 31.9486 30.5844 31.9486 30.5844C31.9486 30.5964 31.9486 30.5964 31.9366 30.5964C31.9246 30.5964 31.9125 30.6083 31.9125 30.6083C31.9005 30.6203 31.9005 30.6322 31.8885 30.6442H32.0566C32.0686 30.6322 32.0686 30.6322 32.0686 30.6203C32.0806 30.5964 32.0926 30.5605 32.1046 30.5247H32.0806C32.0686 30.5247 32.0566 30.5127 32.0566 30.5008V30.238C32.0566 30.226 32.0686 30.2141 32.0806 30.2141H32.3447C32.3567 30.2141 32.3687 30.226 32.3687 30.238V30.5008C32.3687 30.5127 32.3567 30.5247 32.3447 30.5247H32.1286C32.1886 30.5486 32.2246 30.5605 32.2246 30.5725C32.2246 30.5844 32.2246 30.5844 32.2006 30.5844C32.1886 30.5844 32.1886 30.5964 32.1766 30.5964C32.1646 30.6083 32.1646 30.6203 32.1526 30.6322H32.3687C32.3807 30.6322 32.3807 30.6322 32.3807 30.6561V30.7039C32.3807 30.7159 32.3807 30.7278 32.3687 30.7278H32.1526V30.8353H32.3687C32.3807 30.8353 32.3807 30.8473 32.3807 30.8592V30.907C32.3807 30.9309 32.3807 30.9309 32.3687 30.9309H32.1526V31.0145H32.3687C32.3807 31.0145 32.3807 31.0145 32.3807 31.0384V31.0862C32.3807 31.0982 32.3807 31.1101 32.3687 31.1101H32.1526V31.2176H32.3927C32.4047 31.2176 32.4047 31.2296 32.4047 31.2415V31.2893C32.4047 31.3013 32.4047 31.3132 32.3927 31.3132H31.8285V31.3491C31.8285 31.361 31.8165 31.373 31.8045 31.373H31.7445C31.7325 31.373 31.7205 31.373 31.7205 31.3491V30.8114C31.6965 30.8234 31.6725 30.8473 31.6485 30.8712C31.6365 30.8712 31.6245 30.8712 31.6245 30.8592C31.6125 30.8473 31.6005 30.8353 31.5765 30.8234C31.5645 30.8234 31.5645 30.8114 31.5645 30.8114C31.5885 30.7875 31.6245 30.7636 31.6485 30.7397C31.6845 30.7039 31.7205 30.6681 31.7445 30.6322C31.7685 30.5964 31.7925 30.5605 31.7925 30.5366H31.6725C31.6605 30.5366 31.6485 30.5247 31.6485 30.5127V30.2499C31.6965 30.238 31.7085 30.226 31.7205 30.226ZM31.6725 29.999H31.8525V29.9034C31.8525 29.8915 31.8525 29.8915 31.8765 29.8915C31.9486 29.8915 31.9966 29.9034 31.9966 29.9154C31.9966 29.9273 31.9966 29.9393 31.9846 29.9393C31.9726 29.9393 31.9726 29.9512 31.9726 29.9632V29.999H32.1646V29.9034C32.1646 29.8915 32.1766 29.8915 32.1886 29.8915C32.2607 29.8915 32.3087 29.9034 32.3087 29.9154C32.3087 29.9273 32.3087 29.9393 32.2967 29.9393C32.2847 29.9393 32.2847 29.9512 32.2847 29.9632V29.999H32.4527C32.4647 29.999 32.4647 29.999 32.4647 30.011V30.0587C32.4647 30.0707 32.4647 30.0826 32.4527 30.0826H32.2847V30.1543C32.2847 30.1663 32.2727 30.1782 32.2606 30.1782H32.2006C32.1886 30.1782 32.1766 30.1663 32.1766 30.1543V30.0826H31.9846V30.1543C31.9846 30.1663 31.9726 30.1782 31.9606 30.1782H31.9005C31.8885 30.1782 31.8765 30.1663 31.8765 30.1543V30.0826H31.6965C31.6845 30.0826 31.6845 30.0707 31.6845 30.0587V30.011C31.6605 30.011 31.6605 29.999 31.6725 29.999ZM31.9125 30.3096H31.7925V30.4411H31.9125V30.3096ZM32.0686 30.7397H31.8645V30.8473H32.0686V30.7397ZM31.8645 31.0265H32.0686V30.9429H31.8645V31.0265ZM31.8645 31.2296H32.0686V31.1221H31.8645V31.2296ZM32.2967 30.3096H32.1766V30.453H32.2967V30.3096ZM32.5367 29.9512H33.0529C33.0769 29.9512 33.0769 29.9632 33.0769 29.9751V30.8234C33.0769 30.8353 33.0649 30.8353 33.0529 30.8353H32.9449V31.2296C32.9449 31.2415 32.9449 31.2535 32.9569 31.2535H33.0289C33.0529 31.2535 33.0649 31.1938 33.0889 31.0623L33.1729 31.1221C33.1369 31.2774 33.1009 31.361 33.0529 31.361H32.9208C32.8728 31.361 32.8488 31.3371 32.8488 31.2893V30.8473H32.7648V30.9548C32.7648 31.0265 32.7528 31.0982 32.7408 31.1579C32.7288 31.2057 32.7048 31.2654 32.6688 31.3013C32.6448 31.3252 32.6207 31.361 32.5727 31.3849C32.5607 31.3849 32.5487 31.3849 32.5487 31.373C32.5367 31.361 32.5247 31.3371 32.5127 31.3252C32.5127 31.3132 32.5007 31.3132 32.5007 31.3013C32.5727 31.2535 32.6208 31.1938 32.6448 31.1221C32.6568 31.0743 32.6688 31.0145 32.6688 30.9548V30.8473H32.5607C32.5367 30.8473 32.5367 30.8353 32.5367 30.8353V29.9871C32.5127 29.9632 32.5127 29.9512 32.5367 29.9512ZM32.6208 30.2141H32.9569V30.0468H32.6208V30.2141ZM32.6208 30.4769H32.9569V30.3216H32.6208V30.4769ZM32.9569 30.5725H32.6208V30.7278H32.9569V30.5725Z" fill="#191B20"/>
<path d="M34.4444 29.963C34.4084 29.9869 34.3724 30.0108 34.3124 30.0228C34.2884 30.0347 34.2524 30.0347 34.2164 30.0347V30.1423H34.4444C34.4564 30.1423 34.4564 30.1423 34.4564 30.1542V30.202C34.4564 30.2139 34.4564 30.2259 34.4444 30.2259H34.2164V30.3334H34.4444C34.4564 30.3334 34.4564 30.3334 34.4564 30.3454V30.3932C34.4564 30.4051 34.4564 30.4171 34.4444 30.4171H34.2164V30.5365H35.1766V30.4171H34.9846C34.9726 30.4171 34.9726 30.4051 34.9726 30.3932V30.3454C34.9726 30.3334 34.9726 30.3334 34.9846 30.3334H35.1766V30.2259H34.9846C34.9726 30.2259 34.9726 30.2139 34.9726 30.202V30.1542C34.9726 30.1423 34.9726 30.1423 34.9846 30.1423H35.1766V30.0228H34.9846C34.9726 30.0228 34.9726 30.0108 34.9726 29.9989V29.9392C34.9726 29.9272 34.9726 29.9272 34.9846 29.9272H35.2727C35.2847 29.9272 35.2967 29.9392 35.2967 29.9392V30.5485H35.4047C35.4167 30.5485 35.4287 30.5485 35.4287 30.5724V30.8352C35.4287 30.8472 35.4167 30.8591 35.4047 30.8591H35.3447C35.3327 30.8591 35.3207 30.8472 35.3207 30.8352V30.656H34.0963V30.8352C34.0963 30.8472 34.0843 30.8591 34.0723 30.8591H34.0123C33.9883 30.8591 33.9883 30.8472 33.9883 30.8352V30.5724C33.9883 30.5604 34.0003 30.5485 34.0123 30.5485H34.1203V29.9272C34.1203 29.9153 34.1323 29.9033 34.1443 29.9033L34.2044 29.9272C34.2524 29.9272 34.2884 29.9272 34.3004 29.9153C34.3484 29.9033 34.3844 29.8914 34.4084 29.8675H34.4204C34.4204 29.8675 34.4324 29.8675 34.4444 29.8794C34.4804 29.9272 34.5044 29.9511 34.5044 29.9511C34.5044 29.963 34.5044 29.975 34.4924 29.975L34.4444 29.963ZM34.3484 30.7277H35.0086C35.0206 30.7277 35.0326 30.7277 35.0326 30.7396C35.0566 30.7516 35.0686 30.7755 35.0686 30.7755L34.7925 31.0144C34.7925 31.0144 34.7925 31.0144 34.7805 31.0144V31.0264H35.3927C35.4047 31.0264 35.4047 31.0383 35.4047 31.0383V31.0861C35.4047 31.0981 35.4047 31.11 35.3927 31.11H34.7805V31.2534C34.7805 31.3251 34.7205 31.3729 34.6125 31.3729H34.5044C34.5044 31.3729 34.4924 31.3609 34.4924 31.349C34.4924 31.3251 34.4804 31.3012 34.4684 31.2773C34.4684 31.2653 34.4684 31.2653 34.4804 31.2653C34.5284 31.2773 34.5764 31.2773 34.6125 31.2773C34.6485 31.2773 34.6605 31.2534 34.6605 31.2175V31.11H34.0243C34.0123 31.11 34.0123 31.0981 34.0123 31.0861V31.0383C34.0123 31.0264 34.0123 31.0264 34.0243 31.0264H34.6605V30.9308C34.6605 30.9188 34.6725 30.9069 34.6845 30.9069L34.7205 30.9188L34.8525 30.8113H34.3364C34.3244 30.8113 34.3124 30.7994 34.3124 30.7874V30.7516C34.3364 30.7277 34.3364 30.7277 34.3484 30.7277ZM34.8285 29.8914L34.9005 29.9392C34.9125 29.9511 34.9125 29.9511 34.9125 29.963C34.9125 29.963 34.9125 29.975 34.9005 29.975C34.8885 29.975 34.8765 29.975 34.8645 29.9869C34.8405 30.0108 34.8285 30.0347 34.8045 30.0467C34.8525 30.0706 34.8885 30.1064 34.9246 30.1303C34.9246 30.1303 34.9245 30.1303 34.9125 30.1423C34.8885 30.1781 34.8765 30.202 34.8645 30.202C34.8165 30.1662 34.7805 30.1423 34.7325 30.1064C34.6845 30.1423 34.6365 30.1781 34.5765 30.2139C34.5645 30.2139 34.5644 30.2139 34.5524 30.202C34.5284 30.1901 34.5164 30.1781 34.5044 30.1662C34.4924 30.1662 34.4924 30.1542 34.4924 30.1542C34.4924 30.1542 34.4924 30.1542 34.5044 30.1423C34.5404 30.1303 34.5644 30.1184 34.5885 30.1064C34.6125 30.0945 34.6365 30.0825 34.6605 30.0586C34.6005 30.0228 34.5524 29.9989 34.5164 29.9869C34.5164 29.9869 34.5284 29.963 34.5524 29.9392L34.5645 29.9272C34.6245 29.9511 34.6845 29.975 34.7205 30.0108C34.7565 29.975 34.7925 29.9392 34.8285 29.8914C34.8285 29.9033 34.8285 29.8914 34.8285 29.8914ZM34.8285 30.2139L34.9005 30.2617C34.9125 30.2737 34.9125 30.2737 34.9125 30.2737C34.9125 30.2737 34.9125 30.2856 34.9005 30.2856C34.8885 30.2856 34.8765 30.2976 34.8645 30.2976C34.8405 30.3215 34.8285 30.3334 34.8045 30.3573C34.8405 30.3812 34.8765 30.4171 34.9125 30.4409C34.9125 30.4409 34.9125 30.4409 34.9005 30.4529C34.8765 30.4887 34.8525 30.5126 34.8525 30.5126C34.8165 30.4768 34.7685 30.4529 34.7325 30.4171C34.6845 30.4529 34.6365 30.4887 34.5645 30.5126C34.5525 30.5126 34.5524 30.5126 34.5404 30.5007C34.5164 30.4887 34.5044 30.4768 34.4924 30.4648C34.4804 30.4648 34.4804 30.4529 34.4804 30.4529C34.4804 30.4529 34.4804 30.4529 34.4924 30.4409C34.5284 30.429 34.5524 30.4171 34.5765 30.4051C34.6005 30.3932 34.6245 30.3693 34.6485 30.3573C34.5885 30.3215 34.5404 30.2976 34.5044 30.2856C34.5044 30.2856 34.5164 30.2617 34.5404 30.2259L34.5524 30.2139C34.6125 30.2498 34.6725 30.2737 34.7205 30.2976C34.7565 30.2976 34.7925 30.2617 34.8285 30.2139C34.8285 30.2259 34.8285 30.2139 34.8285 30.2139Z" fill="#191B20"/>
<path d="M37.0247 29.8555L37.1447 29.9152C37.1567 29.9271 37.1567 29.9271 37.1567 29.9391C37.1567 29.951 37.1447 29.951 37.1207 29.951H37.1087C37.1807 29.9988 37.2287 30.0466 37.2887 30.0705C37.3728 30.1183 37.4448 30.1541 37.5168 30.19C37.6008 30.2258 37.6849 30.2497 37.7689 30.2617C37.7689 30.2736 37.7689 30.2736 37.7569 30.2736C37.7329 30.2975 37.7089 30.3214 37.6849 30.3334C37.6849 30.3334 37.6728 30.3453 37.6608 30.3453C37.5528 30.3095 37.4448 30.2736 37.3368 30.2258V30.2736C37.3368 30.2856 37.3368 30.2975 37.3248 30.2975H36.6766C36.6646 30.2975 36.6646 30.2856 36.6646 30.2736V30.2258C36.6045 30.2617 36.5445 30.2856 36.4845 30.3095C36.4245 30.3334 36.3645 30.3573 36.3285 30.3692C36.3165 30.3692 36.3045 30.3692 36.3045 30.3573C36.2925 30.3334 36.2684 30.3095 36.2564 30.2975C36.2444 30.2856 36.2324 30.2856 36.2324 30.2856C36.2324 30.2856 36.2324 30.2856 36.2444 30.2736C36.3405 30.2497 36.4125 30.2258 36.4725 30.2019C36.5565 30.1661 36.6406 30.1303 36.7246 30.0825C36.7846 30.0466 36.8326 30.0227 36.8686 29.9869C36.9046 29.951 36.9406 29.9271 36.9766 29.8794C37.0127 29.8674 37.0127 29.8555 37.0247 29.8555ZM36.4725 30.3811H37.5768C37.5888 30.3811 37.6008 30.3931 37.6008 30.405V30.7515C37.6008 30.7635 37.5888 30.7635 37.5768 30.7635H36.4725C36.4605 30.7635 36.4485 30.7635 36.4485 30.7515V30.405C36.4485 30.3931 36.4485 30.3811 36.4725 30.3811ZM36.7246 30.6679C36.7246 30.6559 36.7126 30.644 36.7126 30.632C36.7006 30.5962 36.6766 30.5484 36.6646 30.5126C36.6646 30.5126 36.6886 30.5006 36.7246 30.4767H36.5685V30.6679H36.7246ZM36.5805 30.8232H37.4568C37.4688 30.8232 37.4808 30.8352 37.4808 30.8471V31.3608C37.4808 31.3728 37.4688 31.3728 37.4568 31.3728H37.3968C37.3848 31.3728 37.3728 31.3608 37.3728 31.3608V31.325H36.6766V31.3608C36.6766 31.3728 36.6645 31.3728 36.6525 31.3728H36.5925C36.5805 31.3728 36.5685 31.3608 36.5685 31.3608V30.8471C36.5565 30.8352 36.5685 30.8232 36.5805 30.8232ZM36.6766 31.0383H37.3728V30.9307H36.6766V31.0383ZM36.6766 31.2294H37.3728V31.1219H36.6766V31.2294ZM36.7246 30.2019H37.3127C37.3007 30.19 37.2887 30.19 37.2767 30.178C37.2167 30.1422 37.1327 30.0825 37.0247 29.9988C36.9767 30.0466 36.9166 30.0825 36.8686 30.1064C36.8326 30.1422 36.7846 30.178 36.7246 30.2019ZM36.9646 30.6679V30.4767H36.7606C36.7846 30.5126 36.7966 30.5484 36.8086 30.5843C36.8206 30.6082 36.8326 30.644 36.8326 30.6679H36.9646ZM37.2167 30.6679C37.2287 30.632 37.2407 30.6082 37.2527 30.5843C37.2647 30.5484 37.2767 30.5126 37.2887 30.4767H37.0727V30.6679H37.2167ZM37.4928 30.6679V30.4767H37.3368L37.3968 30.5006C37.4088 30.5006 37.4208 30.5126 37.4208 30.5245C37.4208 30.5365 37.4208 30.5365 37.4088 30.5365C37.3968 30.5365 37.3968 30.5365 37.3848 30.5484C37.3728 30.5962 37.3608 30.632 37.3488 30.6679H37.4928Z" fill="#191B20"/>
<path d="M26.907 23.4396H25.3945V28.3023H26.907V23.4396Z" fill="#191B20"/>
<path d="M27.998 23.4396H29.5105V27.1075H31.8632V28.3142H27.998V23.4396Z" fill="#191B20"/>
<path d="M35.5617 27.5138H33.8452L33.6051 28.3143H32.0566L33.8932 23.4516H35.5377L37.3742 28.3143H35.7897L35.5617 27.5138ZM35.2376 26.4624L34.6974 24.7181L34.1693 26.4624H35.2376Z" fill="#191B20"/>
<path d="M20.1836 23.5114H24.7809V24.7181H23.2325V28.374H21.732V24.7181H20.1836V23.5114Z" fill="#191B20"/>
<path d="M5.09603 7.90803V8.42177C8.46901 9.01914 10.9657 11.2892 12.5862 15.196C12.9943 16.1876 13.2584 17.2629 13.3544 18.4099C10.0535 18.159 7.50873 16.3788 5.6962 13.0335C5.46814 12.6034 5.26407 12.1613 5.07202 11.6954L5 21.3728L14.2187 19.5329L15.5271 7.20312L5.09603 7.90803Z" fill="#191B20"/>
<path d="M25.7427 8.79215L16.824 7.00003L15.4316 16.1757C16.0558 14.6823 17.0041 13.38 18.2645 12.3047C19.2848 11.4325 20.4491 10.7993 21.7455 10.417C21.6254 14.6584 19.993 17.8005 16.8721 19.8675C16.56 20.0706 16.2359 20.2498 15.8998 20.3932L25.6106 20.8233L25.7427 8.79215Z" fill="#191B20"/>
<path d="M14.0514 20.5006L5.2168 23.0454L7.74954 35.411L17.7605 32.1255L14.0514 20.5006ZM13.6072 23.3321C13.3672 23.6069 13.6192 24.0968 13.6553 24.2999C13.6913 24.503 13.1991 25.2915 13.1991 25.2915C13.1991 25.2915 12.4549 25.8291 12.4549 26.4504C12.4549 27.442 11.4346 29.1625 11.3266 29.3895C11.0145 30.0466 10.1863 30.7515 10.1863 30.7515C10.1863 30.7515 9.95818 31.3967 9.56207 31.5759C9.15395 31.7551 9.53806 32.9498 9.346 32.9976C9.15395 33.0574 9.23797 33.2844 9.23797 33.2844L8.94989 33.1888L8.74583 33.2963L8.69781 32.9737C8.69781 32.9737 8.56578 32.6631 8.72182 32.4839C8.87787 32.3047 8.32571 31.779 8.32571 31.7073C8.33771 31.6356 7.98961 31.1338 7.86958 31.2174C7.74954 31.3011 7.22139 30.5723 7.30541 30.4767C7.40144 30.3811 7.07734 29.3775 7.07734 29.3775C7.07734 29.3775 6.83727 29.055 6.82527 28.9116C6.81327 28.7682 7.01732 28.3142 7.01732 28.3142C7.01732 28.3142 7.01733 28.0992 7.14937 27.7407C7.29341 27.3823 7.16137 27 7.16137 27C7.16137 27 7.08935 26.6296 7.36543 26.6296C7.64151 26.6296 7.9656 25.8052 7.9656 25.8052C7.9656 25.8052 8.3137 25.3512 8.43373 25.2557C8.55377 25.172 8.84186 24.6822 8.84186 24.6822L9.38201 23.8698C9.38201 23.8698 9.64609 23.6547 9.75412 23.6547C9.86215 23.6666 10.1142 23.6428 10.1502 23.4994C10.1983 23.356 10.4143 22.9856 10.4623 22.8662C10.4983 22.7467 10.7264 22.4002 10.8464 22.3405C10.9665 22.2807 11.3266 22.2329 11.3626 22.1613C11.3986 22.0896 11.7227 22.1971 11.7947 22.1971C11.8787 22.2091 12.1908 22.0896 12.2028 22.0179C12.2148 21.9462 12.2989 21.8028 12.3709 21.7431C12.4309 21.6714 12.5509 21.6117 12.839 21.6834C13.1391 21.7551 13.0311 21.9462 13.0311 21.9462C13.0311 21.9462 13.2471 22.0179 13.1031 22.0776C12.9591 22.1374 13.8713 22.4002 13.8713 22.4002C13.7273 22.7586 14.2314 22.7228 14.2434 22.8064C14.2554 22.8781 13.8593 23.0693 13.6072 23.3321Z" fill="#191B20"/>
</svg>
