<svg width="42" height="42" viewBox="0 0 42 42" fill="none" xmlns="http://www.w3.org/2000/svg">
<path fill-rule="evenodd" clip-rule="evenodd" d="M31.4878 7.16722C32.4001 7.16722 33.3004 7.16722 34.2006 7.16722C34.2006 14.1087 34.2006 21.0382 34.2006 27.9678C34.0566 28.0156 31.992 28.0275 31.4998 27.9917C31.4638 27.8483 31.4398 7.66901 31.4878 7.16722Z" fill="#191B20"/>
<path fill-rule="evenodd" clip-rule="evenodd" d="M19.2561 11.1576C20.1684 11.1576 21.0566 11.1576 21.9449 11.1576C21.9929 11.301 22.0049 27.5615 21.9689 27.9797C21.8249 28.0155 19.6642 28.0394 19.2681 28.0036C19.2321 27.8483 19.2201 11.5997 19.2561 11.1576Z" fill="#191B20"/>
<path fill-rule="evenodd" clip-rule="evenodd" d="M9.7128 28.0036C8.81253 28.0036 7.92427 28.0036 7.04802 28.0036C7.03601 27.9917 7.03601 27.9917 7.02401 27.9797L7.012 27.9678C7.012 22.4361 7 16.9044 7 11.3608C7 11.3011 7 11.2413 7 11.1816C7.15605 11.1338 9.43672 11.1218 9.7128 11.1577C9.74881 11.313 9.76081 27.7647 9.7128 28.0036Z" fill="#191B20"/>
<path fill-rule="evenodd" clip-rule="evenodd" d="M17.8749 28.0036C16.9746 28.0036 16.0864 28.0036 15.2101 28.0036C15.1981 27.9916 15.1861 27.9916 15.1861 27.9797L15.1741 27.9677C15.1741 22.4241 15.1621 16.8924 15.1621 11.3488C15.1621 11.301 15.1621 11.2532 15.1741 11.2054C15.1741 11.1935 15.1861 11.1815 15.1981 11.1576C16.0864 11.1576 16.9746 11.1576 17.8629 11.1576C17.9109 11.313 17.9229 27.7527 17.8749 28.0036Z" fill="#191B20"/>
<path fill-rule="evenodd" clip-rule="evenodd" d="M23.3598 11.1576C24.2481 11.1576 25.1363 11.1576 26.0486 11.1576C26.0486 16.773 26.0486 22.3763 26.0486 27.9916C25.1483 27.9916 24.2601 27.9916 23.3598 27.9916C23.3238 27.8363 23.3118 11.3607 23.3598 11.1576Z" fill="#191B20"/>
<path fill-rule="evenodd" clip-rule="evenodd" d="M27.4303 11.1576C28.3185 11.1576 29.2068 11.1576 30.119 11.1576C30.119 16.773 30.119 22.3763 30.119 27.9916C29.2188 27.9916 28.3305 27.9916 27.4423 27.9916L27.4303 27.9797L27.4183 27.9677C27.4183 27.9438 27.4062 27.9199 27.4062 27.8841C27.4062 22.3524 27.4062 16.8207 27.4062 11.2771C27.4062 11.2532 27.4063 11.2174 27.4183 11.1935C27.4063 11.1935 27.4183 11.1815 27.4303 11.1576Z" fill="#191B20"/>
<path fill-rule="evenodd" clip-rule="evenodd" d="M13.7945 27.9916C12.8943 27.9916 11.994 27.9916 11.0938 27.9916C11.0938 25.3632 11.0938 22.7347 11.0938 20.0943C11.994 20.0943 12.8943 20.0943 13.7945 20.0943C13.8305 20.2377 13.8426 27.7288 13.7945 27.9916Z" fill="#191B20"/>
<path fill-rule="evenodd" clip-rule="evenodd" d="M13.8068 18.9833C12.8946 18.9833 11.9943 18.9833 11.082 18.9833C11.082 16.3787 11.082 13.7742 11.082 11.1816C11.2261 11.1338 13.5908 11.1218 13.8068 11.1696C13.8068 13.7742 13.8068 16.3668 13.8068 18.9833Z" fill="#191B20"/>
<path fill-rule="evenodd" clip-rule="evenodd" d="M16.53 10.0227C16.0379 9.53286 15.5217 9.01912 15.0176 8.51733C15.5217 8.01554 16.0379 7.50179 16.542 7C17.0342 7.48985 17.5503 8.00359 18.0425 8.49343C17.5503 9.00718 17.0342 9.52092 16.53 10.0227Z" fill="#191B20"/>
<path fill-rule="evenodd" clip-rule="evenodd" d="M15.4735 33.0456C15.4255 32.8903 15.4255 31.0982 15.4735 30.907C15.5215 30.907 15.5695 30.8951 15.6296 30.8951C16.2177 30.8951 16.8059 30.8951 17.3941 30.8951C17.4181 30.8951 17.4301 30.8951 17.4541 30.8951C17.5621 30.8951 17.5981 30.9428 17.5981 31.0504C17.5981 31.134 17.5981 31.2176 17.5981 31.2893C17.5981 31.8031 17.5981 32.3049 17.5981 32.8186C17.5981 32.8903 17.5981 32.962 17.5861 33.0337C17.4301 33.0814 15.6896 33.0934 15.4735 33.0456ZM15.7856 32.2929C15.7856 32.0301 15.7616 31.8031 15.7976 31.5761C16.0497 31.5761 16.2897 31.5641 16.5298 31.5761C16.5298 31.827 16.5298 32.054 16.5298 32.2929C16.5778 32.3049 16.6138 32.3288 16.6979 32.3527C16.6498 32.054 16.5658 31.7911 16.5298 31.5163C16.2777 31.5163 16.0377 31.5163 15.7976 31.5163C15.7976 31.4207 15.7976 31.3371 15.7976 31.2415C15.9296 31.2415 16.0497 31.2415 16.1697 31.2415C16.2777 31.2415 16.3978 31.2654 16.5058 31.1818C16.2537 31.146 16.0017 31.146 15.7256 31.1579C15.7256 31.7075 15.7256 32.2451 15.7256 32.7828C15.9657 32.7828 16.1937 32.7828 16.4458 32.7828C16.3858 32.7111 16.3498 32.6633 16.3138 32.6274C16.1337 32.6394 15.9777 32.6513 15.7976 32.6752C15.7856 32.5797 15.7736 32.496 15.7616 32.4124C15.9897 32.3885 16.1937 32.3646 16.3858 32.3407C16.3858 32.3288 16.3858 32.3168 16.3858 32.3049C16.2177 32.2929 16.0137 32.2929 15.7856 32.2929ZM17.274 31.6358C17.226 31.7792 17.178 31.8986 17.142 32.0062C17.106 32.1257 16.998 32.2093 17.022 32.3646C17.106 32.2451 17.106 32.2451 17.286 32.2571C17.286 31.9106 17.286 31.5641 17.286 31.2296C17.286 31.2057 17.238 31.1818 17.202 31.1579C17.214 31.2893 17.226 31.3969 17.238 31.5163C17.082 31.5283 16.9499 31.5283 16.8059 31.5402C16.8299 31.6716 16.8419 31.7911 16.8659 31.9106C16.8779 31.9106 16.8899 31.9106 16.9019 31.9106C16.9379 31.8031 16.9739 31.6955 17.022 31.5761C17.106 31.588 17.178 31.6119 17.274 31.6358ZM16.6378 32.7947C16.8659 32.7947 17.034 32.7947 17.214 32.7947C17.274 32.7947 17.298 32.7589 17.262 32.6872C17.058 32.8664 16.9619 32.6513 16.8299 32.5558C16.7819 32.6274 16.7219 32.6872 16.6378 32.7947ZM16.0497 32.0301C16.1337 32.0301 16.1937 32.0301 16.2657 32.0301C16.2657 31.9584 16.2657 31.8867 16.2657 31.815C16.1937 31.815 16.1217 31.815 16.0497 31.815C16.0497 31.8867 16.0497 31.9464 16.0497 32.0301Z" fill="#191B20"/>
<path fill-rule="evenodd" clip-rule="evenodd" d="M19.8206 32.9261C19.8206 32.8305 19.8086 32.7469 19.8086 32.6394C19.8686 32.6513 19.9286 32.6633 19.9766 32.6633C20.1207 32.6752 20.1807 32.6155 20.1687 32.4721C20.1567 32.3885 20.1327 32.2929 20.0967 32.2212C20.0487 32.1256 19.9886 32.042 19.9286 31.9703C19.8686 31.8867 19.8446 31.8031 19.8926 31.7075C19.9526 31.5402 20.0126 31.373 20.0727 31.1818C19.9766 31.1818 19.8806 31.1818 19.7726 31.1818C19.7726 31.8031 19.7726 32.4243 19.7726 33.0456C19.6765 33.0456 19.5925 33.0456 19.4845 33.0456C19.4725 32.4721 19.4845 31.8986 19.4725 31.2893C19.4005 31.361 19.3645 31.3968 19.3164 31.4327C19.4485 31.5163 19.4245 31.6239 19.4005 31.7433C19.2444 31.7553 19.1004 31.7792 18.9563 31.7911C18.9323 31.7911 18.9083 31.815 18.8843 31.827C18.8963 31.8389 18.8963 31.8628 18.9083 31.8747C19.0644 31.8747 19.2084 31.8747 19.3525 31.8747C19.4005 32.0301 19.4125 32.723 19.3765 33.0575C19.0404 33.0695 18.7043 33.0575 18.3442 33.0575C18.3201 32.7947 18.3442 32.5319 18.3322 32.3049C18.2481 32.2093 18.1641 32.1376 18.0801 32.042C18.2121 31.9584 18.3322 31.8867 18.4402 31.8031C18.4402 31.7911 18.4282 31.7792 18.4282 31.7672C18.3442 31.7553 18.2721 31.7553 18.1761 31.7433C18.1761 31.6597 18.1761 31.588 18.1761 31.4924C18.3202 31.4685 18.4642 31.4446 18.5962 31.4207C18.5962 31.4207 18.5962 31.3849 18.5962 31.3371C18.5002 31.3252 18.3922 31.3252 18.2721 31.3132C18.2721 31.2296 18.2721 31.146 18.2721 31.0504C18.3682 31.0384 18.4642 31.0384 18.5722 31.0265C18.5842 30.9667 18.6082 30.907 18.6202 30.8353C18.7043 30.8353 18.7763 30.8353 18.8603 30.8353C18.8723 30.8951 18.8843 30.9548 18.9083 31.0145C18.9803 31.0265 19.0764 31.0026 19.1364 31.0384C19.2444 31.0982 19.2564 30.9787 19.3284 30.9667C19.3645 30.9787 19.4005 31.0026 19.4485 31.0145C19.4605 30.9548 19.4845 30.907 19.4965 30.8473C19.7246 30.8473 19.9406 30.8353 20.1567 30.8473C20.3367 30.8592 20.4088 30.9787 20.3607 31.1579C20.3127 31.3132 20.2527 31.4685 20.1927 31.6239C20.1447 31.7314 20.1567 31.827 20.2287 31.9225C20.3607 32.0898 20.4448 32.281 20.4208 32.508C20.3968 32.8186 20.2647 32.9381 19.9526 32.9142C19.9286 32.95 19.8806 32.9381 19.8206 32.9261ZM19.0884 32.1854C18.9323 32.1854 18.7883 32.1854 18.6322 32.1854C18.6322 32.2332 18.6322 32.281 18.6322 32.3407C18.7643 32.3407 18.8843 32.3407 19.0043 32.3407C19.1244 32.3288 19.1124 32.269 19.0884 32.1854ZM18.6322 32.7708C18.7883 32.7708 18.9443 32.7708 19.0884 32.7708C19.0884 32.7111 19.0884 32.6752 19.0884 32.6274C18.9323 32.6274 18.7883 32.6274 18.6322 32.6274C18.6322 32.6872 18.6322 32.723 18.6322 32.7708Z" fill="#191B20"/>
<path fill-rule="evenodd" clip-rule="evenodd" d="M30.5631 32.6512C30.5631 32.7229 30.5631 32.7587 30.5631 32.8065C30.5511 33.0574 30.4431 33.1769 30.191 33.165C30.059 33.153 29.939 33.1172 29.8069 33.0933C29.8189 32.9857 29.8309 32.9141 29.8429 32.8065C29.9149 32.8304 29.975 32.8543 30.047 32.8663C30.107 32.8782 30.167 32.8782 30.239 32.8902C30.239 32.8185 30.251 32.7587 30.251 32.6632C29.9029 32.6632 29.5669 32.6632 29.2187 32.6632C29.2187 32.5556 29.2187 32.484 29.2187 32.3884C29.5068 32.3884 29.7829 32.3884 30.083 32.3884C30.071 32.3406 30.071 32.3047 30.059 32.2689C30.119 32.2569 30.167 32.245 30.227 32.2331C30.215 32.2092 30.203 32.1972 30.203 32.1972C30.035 32.1972 29.8789 32.1972 29.6989 32.1972C29.6869 32.1016 29.6749 32.018 29.6749 31.9344C29.6029 31.9344 29.5428 31.9344 29.4708 31.9344C29.4588 32.018 29.4468 32.1016 29.4348 32.1853C29.3508 32.1853 29.2788 32.1853 29.1947 32.1853C29.1467 32.0419 29.1707 31.8746 29.1827 31.7313C29.1827 31.6954 29.2548 31.6596 29.3148 31.5998C29.3388 31.3848 29.2908 31.1458 29.3388 30.8949C29.5188 30.871 29.6869 30.8591 29.8789 30.8352C29.9029 30.8949 29.939 30.9547 29.975 31.0383C29.8789 31.0741 29.7949 31.098 29.7109 31.1339C29.7589 31.1458 29.8069 31.1458 29.8549 31.1578C29.8549 31.2175 29.8549 31.2773 29.8669 31.3489C29.7829 31.3609 29.7109 31.3728 29.6389 31.3728V31.3848C29.7109 31.3967 29.7829 31.3967 29.8549 31.4087C29.8549 31.4804 29.8549 31.5282 29.8549 31.5998C29.7829 31.5998 29.7109 31.6118 29.6389 31.6118C29.6389 31.6237 29.6389 31.6237 29.6389 31.6357C29.7349 31.6357 29.8309 31.6357 29.951 31.6357C29.987 31.5879 29.8669 31.4684 30.011 31.4326C30.023 31.4326 30.023 31.3609 30.011 31.325C29.987 31.2653 29.951 31.2295 29.9029 31.1697C29.951 31.1339 29.999 31.11 30.011 31.098C30.047 30.9905 30.071 30.9069 30.095 30.8113C30.179 30.8471 30.227 30.871 30.2991 30.9069C30.3351 30.883 30.3831 30.8471 30.4311 30.8113C30.4791 30.8591 30.5271 30.8949 30.5631 30.9308C30.5151 31.0503 30.5511 31.1697 30.5511 31.2773C30.5511 31.4206 30.5871 31.5162 30.5391 31.6357C30.6712 31.6357 30.7912 31.6357 30.9232 31.6357C30.9232 31.6237 30.9232 31.6237 30.9232 31.6118C30.8392 31.5998 30.7672 31.5998 30.6712 31.5879C30.6712 31.5282 30.6592 31.4804 30.6592 31.4087C30.7552 31.3967 30.8392 31.3848 30.9232 31.3848V31.3728C30.8392 31.3728 30.7672 31.3609 30.6712 31.3609C30.6712 31.3012 30.6592 31.2414 30.6592 31.1697C30.7312 31.1578 30.8032 31.1458 30.8632 31.1458C30.8032 31.1339 30.7432 31.1339 30.6712 31.1219C30.6712 31.0622 30.6592 31.0025 30.6592 30.9308C30.8512 30.9308 31.0313 30.9308 31.2473 30.9308C31.2473 31.0861 31.2473 31.2295 31.2473 31.3728C31.2473 31.6476 31.2473 31.6476 31.4874 31.8029C31.4514 31.9463 31.4154 32.1016 31.3674 32.2808C31.2713 32.2569 31.1993 32.2331 31.1153 32.2092C31.1273 32.1136 31.1513 32.0419 31.1633 31.9463C31.0313 31.9463 30.9232 31.9463 30.7792 31.9463C30.8392 32.0538 30.8992 32.1494 30.9593 32.2569C30.8752 32.2928 30.7912 32.3406 30.7072 32.3764C30.7072 32.3884 30.7072 32.4003 30.7192 32.4123C30.9353 32.4123 31.1513 32.4123 31.3794 32.4123C31.3794 32.5078 31.3794 32.5795 31.3794 32.6871C31.1033 32.6512 30.8392 32.6512 30.5631 32.6512ZM30.251 31.2295C30.251 31.2414 30.251 31.2653 30.251 31.2773C30.2871 31.2773 30.3351 31.2773 30.3711 31.2892C30.3711 31.2773 30.3711 31.2534 30.3711 31.2414C30.3351 31.2295 30.2871 31.2295 30.251 31.2295Z" fill="#191B20"/>
<path fill-rule="evenodd" clip-rule="evenodd" d="M13.7455 32.2809C13.5295 32.2809 13.3374 32.2809 13.1333 32.2809C13.1333 32.4482 13.1333 32.6154 13.1333 32.7946C13.3614 32.7469 13.5655 32.6991 13.8055 32.6513C13.8295 32.7469 13.8535 32.8305 13.8776 32.938C13.4814 33.0575 13.0973 33.1292 12.6892 33.177C12.6652 33.0814 12.6412 32.9978 12.6172 32.9022C12.6892 32.8783 12.7492 32.8544 12.8212 32.8185C12.8212 32.7469 12.8212 32.6752 12.8212 32.6035C12.8212 32.1017 12.8212 31.5999 12.8212 31.0981C12.8212 30.895 12.8333 30.8831 13.0253 30.8831C13.5295 30.8831 14.0336 30.8831 14.5377 30.8831C14.5978 30.8831 14.6698 30.895 14.7538 30.9069C14.7538 31.1578 14.7538 31.3848 14.7538 31.6238C14.7538 31.7074 14.7058 31.7433 14.6218 31.7433C14.4657 31.7433 14.3097 31.7433 14.1536 31.7433C14.0816 31.7433 14.0216 31.7433 13.9376 31.7433C13.9496 31.8389 13.9616 31.9105 13.9856 31.9942C14.2617 31.9942 14.5257 31.9942 14.8018 31.9942C14.8018 32.0897 14.8018 32.1734 14.8018 32.269C14.5738 32.269 14.3457 32.269 14.1056 32.269C14.1536 32.5318 14.3937 32.7708 14.6338 32.8066C14.6578 32.723 14.6818 32.6513 14.7058 32.5438C14.7898 32.5676 14.8739 32.6035 14.9699 32.6393C14.9339 32.7588 14.9219 32.8663 14.8859 32.9619C14.8138 33.165 14.6818 33.2128 14.4777 33.1292C14.2137 33.0097 14.0096 32.8185 13.8776 32.5676C13.8295 32.4601 13.7815 32.3645 13.7455 32.2809ZM13.1333 31.4326C13.3494 31.4326 13.5415 31.4326 13.7215 31.4326C13.9256 31.4326 14.1296 31.4326 14.3337 31.4326C14.4297 31.4326 14.4657 31.3848 14.4657 31.2893C14.4657 31.1937 14.4417 31.1578 14.3097 31.1578C13.9616 31.1578 13.6135 31.1578 13.2654 31.1578C13.2174 31.1578 13.1814 31.1817 13.1333 31.1937C13.1333 31.2773 13.1333 31.349 13.1333 31.4326ZM13.6735 31.9703C13.6495 31.8747 13.6375 31.803 13.6255 31.7433C13.4574 31.7433 13.3014 31.7433 13.1333 31.7433C13.1333 31.8269 13.1333 31.8986 13.1333 31.9703C13.3134 31.9703 13.4694 31.9703 13.6735 31.9703Z" fill="#191B20"/>
<path fill-rule="evenodd" clip-rule="evenodd" d="M12.0766 32.5437C12.0766 32.6393 12.0766 32.711 12.0766 32.8066C11.7646 32.8066 11.4765 32.8066 11.1644 32.8066C11.1524 32.9022 11.1524 32.9738 11.1404 33.0575C11.0443 33.0575 10.9603 33.0575 10.8763 33.0575C10.8643 32.9858 10.8643 32.9022 10.8523 32.8185C10.5522 32.8185 10.2521 32.8185 9.92802 32.8185C9.92802 32.7229 9.91602 32.6513 9.91602 32.5437C10.2401 32.5437 10.5402 32.5437 10.8403 32.5437C10.8643 32.4362 10.8163 32.4362 10.7563 32.4362C10.5762 32.4362 10.3962 32.4362 10.2281 32.4362C10.1561 32.4362 10.0961 32.4243 10.012 32.4243C10.012 32.3406 10.012 32.2689 10.012 32.2092C10.0841 32.1256 10.2761 32.257 10.2761 32.03C10.1561 32.018 10.0481 32.018 9.92802 32.018C9.92802 31.9344 9.92802 31.8627 9.92802 31.7552C10.0241 31.7552 10.1081 31.7552 10.1921 31.7552C10.2761 31.7552 10.2881 31.7074 10.2641 31.6238C10.1921 31.6118 10.1081 31.6118 10.012 31.5999C10.012 31.5162 10.012 31.4326 10.012 31.349C10.6602 31.349 11.3204 31.349 11.9806 31.349C11.9806 31.4326 11.9806 31.5162 11.9806 31.5999C11.8966 31.6118 11.8246 31.6118 11.7405 31.6238C11.7165 31.6955 11.7165 31.7552 11.8126 31.7552C11.8966 31.7552 11.9806 31.7671 12.0766 31.7671C12.0766 31.8627 12.0766 31.9344 12.0766 32.018C11.9566 32.03 11.8486 32.03 11.7526 32.0419C11.7406 32.1734 11.7406 32.1734 11.9686 32.2092C11.9686 32.2809 11.9686 32.3526 11.9686 32.4481C11.8966 32.4481 11.8126 32.4601 11.7405 32.4601C11.5845 32.4601 11.4285 32.4601 11.2724 32.4601C11.2364 32.4601 11.2004 32.484 11.1524 32.5198C11.2964 32.6035 11.4525 32.5676 11.5965 32.5676C11.7526 32.5557 11.8966 32.5437 12.0766 32.5437ZM11.1524 31.7194C11.3925 31.7671 11.4045 31.7671 11.4165 31.6118C11.3324 31.6118 11.2484 31.6118 11.1524 31.6118C11.1524 31.6596 11.1524 31.6835 11.1524 31.7194ZM10.5762 31.6118C10.5762 31.6596 10.5882 31.6955 10.5882 31.7313C10.8283 31.7552 10.8283 31.7552 10.8403 31.6118C10.7563 31.6118 10.6842 31.6118 10.5762 31.6118ZM11.4405 32.03C11.3324 32.03 11.2604 32.03 11.1644 32.03C11.1644 32.0778 11.1764 32.1136 11.1764 32.1734C11.2724 32.1375 11.4045 32.2331 11.4405 32.03ZM10.8403 32.03C10.7563 32.03 10.6722 32.03 10.6002 32.03C10.5522 32.1614 10.6362 32.1734 10.7203 32.1734C10.8043 32.1614 10.8883 32.1614 10.8403 32.03Z" fill="#191B20"/>
<path fill-rule="evenodd" clip-rule="evenodd" d="M24.9925 31.1578C25.0046 31.3967 24.9325 31.5879 24.7645 31.791C25.0166 31.791 25.2326 31.791 25.4487 31.791C25.5807 31.791 25.6887 31.8268 25.7608 31.9463C25.7008 32.2092 25.5807 32.4601 25.3887 32.6632C25.5447 32.7946 25.7368 32.8065 25.9168 32.8902C25.8688 32.9738 25.8328 33.0574 25.7728 33.165C25.5567 33.0694 25.3527 32.9858 25.1486 32.8902C25.0166 32.9619 24.8845 33.0335 24.7525 33.1052C24.7045 33.1291 24.6444 33.165 24.5844 33.1052C24.5604 33.0813 24.5124 33.1052 24.4764 33.1052C24.2123 33.1052 23.9482 33.1052 23.6602 33.1052C23.6602 32.8065 23.6602 32.5198 23.6602 32.2092C23.9482 32.1972 24.2243 32.1972 24.5244 32.2092C24.5244 32.4242 24.5244 32.6154 24.5244 32.8185C24.6925 32.8185 24.8005 32.7349 24.9085 32.6632C24.8005 32.5079 24.7045 32.3645 24.6204 32.2211C24.7645 31.9822 24.6685 31.8029 24.5004 31.6476C24.5604 31.5521 24.6444 31.4565 24.6805 31.3609C24.7165 31.2534 24.7045 31.1339 24.7165 31.0144C24.7165 30.9308 24.7525 30.871 24.8485 30.871C25.0646 30.871 25.2806 30.871 25.5087 30.871C25.5927 31.0742 25.5087 31.2773 25.5687 31.4804C25.7608 31.4923 25.6527 31.3251 25.7368 31.2414C25.7968 31.2534 25.8568 31.2534 25.9408 31.2653C25.9408 31.3131 25.9528 31.3489 25.9528 31.3848C25.9408 31.7313 25.8928 31.7552 25.5567 31.7791C25.4007 31.791 25.3046 31.6954 25.2926 31.5401C25.2926 31.4206 25.2926 31.3012 25.2926 31.1697C25.1726 31.1578 25.0886 31.1578 24.9925 31.1578ZM24.8845 32.0777C24.9565 32.245 25.0286 32.3764 25.1726 32.472C25.2806 32.3525 25.3767 32.245 25.4127 32.0777C25.2326 32.0777 25.0766 32.0777 24.8845 32.0777ZM23.9362 32.484C23.9362 32.6154 23.9362 32.7229 23.9362 32.8185C24.0443 32.8185 24.1403 32.8185 24.2363 32.8185C24.2363 32.699 24.2363 32.5915 24.2363 32.484C24.1283 32.484 24.0323 32.484 23.9362 32.484Z" fill="#191B20"/>
<path fill-rule="evenodd" clip-rule="evenodd" d="M21.0076 31.5402C21.2956 31.5402 21.5717 31.5402 21.8478 31.5402C21.8478 31.4566 21.8478 31.4088 21.8478 31.3252C21.5357 31.3252 21.2356 31.3252 20.9355 31.3252C20.9355 31.2296 20.9355 31.146 20.9355 31.0504C21.2356 31.0504 21.5357 31.0504 21.8358 31.0504C21.8598 30.9906 21.8718 30.9428 21.8958 30.8951C21.9799 30.8951 22.0519 30.8951 22.1479 30.8951C22.1599 30.9309 22.1719 30.9787 22.2079 31.0504C22.496 31.0504 22.8081 31.0504 23.1202 31.0504C23.1202 31.1579 23.1202 31.2296 23.1202 31.3371C22.8081 31.3371 22.508 31.3371 22.1959 31.3371C22.1959 31.4207 22.1959 31.4685 22.1959 31.5522C22.484 31.5522 22.7721 31.5522 23.0602 31.5522C23.0722 31.6119 23.0842 31.6597 23.0842 31.6955C23.0842 32.0181 23.0842 32.3407 23.0842 32.6513C23.0842 32.8664 23.0001 32.962 22.7841 32.9978C22.7361 33.0098 22.6881 33.0098 22.64 33.0098C22.544 33.0098 22.448 32.9978 22.34 32.9859C22.3279 32.8783 22.328 32.7828 22.3159 32.6633C22.412 32.6752 22.484 32.6872 22.556 32.6872C22.7121 32.6991 22.7721 32.6513 22.7721 32.496C22.7721 32.281 22.7721 32.0779 22.7721 31.8509C22.568 31.8509 22.388 31.8509 22.1839 31.8509C22.1839 32.2571 22.1839 32.6513 22.1839 33.0576C22.0759 33.0576 21.9919 33.0576 21.8718 33.0576C21.8718 32.6513 21.8718 32.2571 21.8718 31.8509C21.6798 31.8509 21.5117 31.8509 21.3077 31.8509C21.3077 32.1973 21.3077 32.5438 21.3077 32.9142C21.1996 32.9142 21.1036 32.9142 21.0076 32.9142C21.0076 32.4602 21.0076 32.0181 21.0076 31.5402Z" fill="#191B20"/>
<path fill-rule="evenodd" clip-rule="evenodd" d="M7.13281 31.1458C7.46891 31.1458 7.769 31.1458 8.06909 31.1458C8.08109 31.0622 8.09309 30.9905 8.1051 30.9188C8.20113 30.9188 8.28515 30.9188 8.39318 30.9188C8.40519 30.9905 8.40518 31.0502 8.41719 31.1458C8.71727 31.1458 9.01736 31.1458 9.34146 31.1577C9.34146 31.6237 9.34146 32.0777 9.34146 32.5436C9.04137 32.5914 8.72928 32.5317 8.41719 32.5795C8.41719 32.7467 8.41719 32.9021 8.41719 33.0693C8.30915 33.0693 8.21313 33.0693 8.0931 33.0693C8.0931 32.914 8.0931 32.7467 8.0931 32.5675C7.769 32.5675 7.46891 32.5675 7.14482 32.5675C7.12081 32.0777 7.14482 31.6356 7.13281 31.1458ZM8.41719 32.233C8.63325 32.245 8.83731 32.2569 9.02937 32.233C9.06538 31.9582 9.06537 31.6117 9.01736 31.4684C8.8253 31.4684 8.63325 31.4684 8.42919 31.4684C8.41719 31.7193 8.41719 31.9582 8.41719 32.233ZM8.08109 32.233C8.08109 31.9702 8.08109 31.7193 8.08109 31.4564C7.86503 31.4445 7.67297 31.4445 7.4569 31.4564C7.4569 31.7312 7.44491 31.9821 7.46891 32.233C7.67297 32.233 7.86503 32.233 8.08109 32.233Z" fill="#191B20"/>
<path fill-rule="evenodd" clip-rule="evenodd" d="M33.0229 30.7756C33.371 31.0145 33.7671 31.1459 34.1872 31.2176C34.1752 31.3371 34.1872 31.4327 34.0672 31.4924C34.0432 31.5044 34.0312 31.5761 34.0312 31.6119C34.0312 31.7792 34.0312 31.9345 34.0312 32.0898C33.8751 32.1376 32.4347 32.1495 32.0746 32.1137C32.0746 31.9584 32.0746 31.8031 32.0746 31.6358C32.0746 31.5641 32.0866 31.5044 31.9906 31.4566C31.9305 31.4207 31.9185 31.3132 31.8945 31.2176C32.2786 31.1221 32.6868 31.0504 33.0229 30.7756ZM32.2786 31.4088C32.5667 31.4566 33.575 31.4446 33.7311 31.3968C33.635 31.373 33.563 31.3252 33.503 31.3371C33.2389 31.4207 32.9748 31.3491 32.7108 31.3729C32.6868 31.3729 32.6507 31.373 32.6267 31.361C32.5067 31.2654 32.4107 31.361 32.2786 31.4088ZM32.6988 31.6955C32.7828 31.7672 32.7468 31.8986 32.8548 31.8747C32.9508 31.8628 32.9028 31.7672 32.8908 31.6955C32.8308 31.6955 32.7828 31.6955 32.6988 31.6955ZM32.4587 31.8747C32.4467 31.815 32.4347 31.7553 32.4347 31.6955C32.3507 31.6716 32.3387 31.7194 32.3387 31.7911C32.3267 31.8628 32.3627 31.8986 32.4587 31.8747ZM33.611 31.8747C33.6951 31.8986 33.7311 31.8747 33.7311 31.7911C33.7311 31.7194 33.7191 31.6716 33.635 31.6955C33.623 31.7553 33.611 31.815 33.611 31.8747ZM33.359 31.6955C33.2869 31.6955 33.2509 31.6955 33.1909 31.6836C33.1909 31.7553 33.2029 31.815 33.2029 31.8747C33.2149 31.8747 33.2389 31.8867 33.2509 31.8867C33.2869 31.827 33.3109 31.7672 33.359 31.6955Z" fill="#191B20"/>
<path fill-rule="evenodd" clip-rule="evenodd" d="M32.1953 33.0813C32.1953 32.7826 32.1953 32.5078 32.1953 32.2211C32.7595 32.2211 33.3116 32.2211 33.8758 32.2211C33.8758 32.5078 33.8758 32.7826 33.8758 33.0813C33.3116 33.0813 32.7715 33.0813 32.1953 33.0813ZM32.4594 32.8065C32.7715 32.8663 33.4677 32.8424 33.5637 32.7826C33.3837 32.7468 32.6514 32.7587 32.4594 32.8065ZM32.5314 32.4839C32.7955 32.5556 33.4197 32.5437 33.5757 32.472C33.2516 32.472 32.9635 32.472 32.6875 32.472C32.6394 32.472 32.5794 32.472 32.5314 32.4839Z" fill="#191B20"/>
<path fill-rule="evenodd" clip-rule="evenodd" d="M28.6543 33.7264C28.8704 33.7383 29.0744 33.7503 29.2785 33.7622C29.4225 33.7742 29.5186 33.8578 29.5186 34.0012C29.5306 34.3357 29.5306 34.6702 29.5186 34.9928C29.5186 35.1123 29.4345 35.184 29.3145 35.1959C29.0984 35.2078 28.8824 35.1959 28.6543 35.1959C28.6543 34.7061 28.6543 34.2401 28.6543 33.7264ZM29.0624 34.9808C29.1464 34.8255 29.1704 34.4193 29.1344 34.0848C29.1344 34.0489 29.1104 34.0251 29.0864 33.9892C29.0744 33.9892 29.0624 33.9892 29.0504 34.0012C29.0624 34.3118 29.0624 34.6224 29.0624 34.9808Z" fill="#191B20"/>
<path fill-rule="evenodd" clip-rule="evenodd" d="M23.4688 33.7384C23.6008 33.7384 23.7088 33.7384 23.8289 33.7384C23.8289 33.7981 23.8409 33.8578 23.8409 33.9176C23.8409 34.2043 23.8409 34.4911 23.8409 34.7778C23.8409 34.8375 23.8529 34.9092 23.8529 34.9809C23.9609 34.9331 23.9369 34.8734 23.9369 34.8136C23.9369 34.5269 23.9369 34.2402 23.9369 33.9534C23.9369 33.8817 23.9369 33.822 23.9369 33.7384C24.0689 33.7384 24.177 33.7384 24.297 33.7384C24.309 33.7623 24.321 33.7862 24.321 33.8101C24.321 34.1446 24.321 34.4791 24.321 34.8136C24.321 34.9929 24.261 35.1362 24.0809 35.196C23.8889 35.2557 23.6968 35.2318 23.5528 35.0884C23.5048 35.0406 23.4688 34.969 23.4688 34.9092C23.4687 34.5389 23.4688 34.1446 23.4688 33.7384Z" fill="#191B20"/>
<path fill-rule="evenodd" clip-rule="evenodd" d="M7.94764 34.3715C7.79159 34.3715 7.68356 34.3715 7.55152 34.3715C7.53952 34.2401 7.53952 34.1087 7.52751 33.9773C7.45549 34.0728 7.44348 34.0728 7.45549 34.4671C7.45549 34.6344 7.43148 34.8016 7.4795 34.9928C7.58753 34.8733 7.51551 34.7419 7.56352 34.6105C7.67155 34.6105 7.79159 34.6105 7.93563 34.6105C7.95964 34.7897 7.97164 34.9689 7.8276 35.1123C7.68356 35.2437 7.51551 35.2556 7.32345 35.2079C7.19141 35.172 7.09539 35.0884 7.08338 34.957C7.07138 34.6463 7.05937 34.3476 7.07138 34.037C7.08338 33.8339 7.25143 33.7264 7.4795 33.7264C7.73157 33.7264 7.87562 33.8219 7.91163 34.037C7.94764 34.1326 7.94764 34.2401 7.94764 34.3715Z" fill="#191B20"/>
<path fill-rule="evenodd" clip-rule="evenodd" d="M25.293 35.2199C25.293 34.7181 25.293 34.2402 25.293 33.7504C25.413 33.7504 25.521 33.7504 25.6411 33.7504C25.6531 33.846 25.6531 33.9415 25.6651 34.0252C26.0372 33.9296 26.1092 33.9893 26.1092 34.3716C26.1092 34.5628 26.1092 34.7659 26.1092 34.9571C26.0972 35.1841 25.9652 35.2677 25.7491 35.1841C25.7131 35.1721 25.6771 35.1721 25.6411 35.1721C25.533 35.196 25.425 35.208 25.293 35.2199ZM25.7131 34.1924C25.6411 34.3836 25.6411 34.8615 25.7011 34.9929C25.7371 34.8495 25.7491 34.4433 25.7131 34.1924Z" fill="#191B20"/>
<path fill-rule="evenodd" clip-rule="evenodd" d="M33.1193 34.0014C33.1193 34.3957 33.1193 34.7541 33.1193 35.1125C33.1193 35.1723 33.0832 35.2439 33.0472 35.2917C32.9272 35.4351 32.5311 35.459 32.3991 35.3276C32.351 35.2798 32.327 35.2081 32.291 35.1245C32.4591 35.1125 32.6031 35.0767 32.7351 35.2081C32.7351 35.1245 32.7471 35.0647 32.7471 35.005C32.6871 35.0289 32.6511 35.0408 32.6151 35.0528C32.4711 35.0886 32.339 35.0169 32.327 34.8736C32.303 34.6346 32.315 34.3837 32.327 34.1448C32.339 34.0253 32.4591 33.9417 32.5671 33.9775C32.6871 34.0372 32.7952 33.9895 32.9152 33.9895C32.9752 34.0014 33.0352 34.0014 33.1193 34.0014ZM32.7351 34.8258C32.7351 34.6227 32.7351 34.4196 32.7351 34.1926C32.6631 34.3359 32.6511 34.6585 32.7351 34.8258Z" fill="#191B20"/>
<path fill-rule="evenodd" clip-rule="evenodd" d="M8.52389 33.7503C8.53589 33.8459 8.53589 33.9295 8.54789 34.0132C8.93201 33.9415 9.01603 34.0132 9.01603 34.4074C9.01603 34.6703 9.01603 34.9212 9.01603 35.196C8.89599 35.196 8.78796 35.196 8.65592 35.196C8.65592 35.1482 8.64392 35.1004 8.64392 35.0526C8.64392 34.8375 8.64392 34.6225 8.64392 34.3955C8.64392 34.3357 8.63192 34.2641 8.61991 34.1685C8.49988 34.288 8.54789 34.4074 8.53589 34.503C8.52388 34.6225 8.53589 34.73 8.53589 34.8495C8.53589 34.957 8.53589 35.0645 8.53589 35.184C8.41585 35.184 8.29582 35.184 8.17578 35.184C8.17578 34.7061 8.17578 34.2402 8.17578 33.7384C8.28381 33.7503 8.39185 33.7503 8.52389 33.7503Z" fill="#191B20"/>
<path fill-rule="evenodd" clip-rule="evenodd" d="M28.1742 35.1961C28.0422 35.1961 27.9342 35.1961 27.8021 35.1961C27.8021 35.0169 27.8021 34.8497 27.8021 34.6824C27.7901 34.5271 27.8381 34.3598 27.7301 34.2045C27.7181 34.2523 27.6941 34.3001 27.6941 34.3359C27.6941 34.551 27.6941 34.766 27.6941 34.993C27.6941 35.0647 27.6821 35.1245 27.6821 35.1961C27.562 35.1961 27.454 35.1961 27.334 35.1961C27.334 34.8138 27.334 34.4196 27.334 34.0133C27.394 34.0133 27.466 34.0014 27.526 34.0014C27.6461 34.0014 27.7661 34.0492 27.8982 33.9894C27.9942 33.9417 28.1022 34.0253 28.1382 34.1209C28.1502 34.1567 28.1622 34.2045 28.1622 34.2403C28.1742 34.551 28.1742 34.8616 28.1742 35.1961Z" fill="#191B20"/>
<path fill-rule="evenodd" clip-rule="evenodd" d="M10.1804 35.196C10.0484 35.196 9.94035 35.196 9.82031 35.196C9.82031 34.8018 9.82031 34.4195 9.82031 34.0013C9.90434 34.0013 9.98836 34.0013 10.0604 34.0013C10.1684 34.0132 10.2644 34.0252 10.3725 33.9893C10.4805 33.9416 10.5885 34.0252 10.6365 34.1327C10.6486 34.1566 10.6606 34.1805 10.6606 34.2163C10.6606 34.5389 10.6606 34.8615 10.6606 35.196C10.5405 35.196 10.4325 35.196 10.3125 35.196C10.3125 35.1483 10.3005 35.0885 10.3005 35.0407C10.3005 34.8137 10.3005 34.5867 10.3005 34.3717C10.3005 34.3119 10.2885 34.2641 10.2524 34.2044C10.1684 34.3597 10.2044 34.527 10.2044 34.6942C10.1804 34.8496 10.1804 35.0168 10.1804 35.196Z" fill="#191B20"/>
<path fill-rule="evenodd" clip-rule="evenodd" d="M33.7322 35.1961C33.6001 35.1961 33.4921 35.1961 33.3961 35.1961C33.3481 35.0527 33.3361 34.2761 33.3841 34.0013C33.4561 34.0013 33.5401 34.0013 33.6241 34.0013C33.7202 34.0013 33.8162 34.0372 33.9122 33.9894C34.0203 33.9416 34.2003 34.0491 34.2003 34.2044C34.2003 34.527 34.2003 34.8615 34.2003 35.1961C34.0803 35.1961 33.9723 35.1961 33.8402 35.1961C33.8162 34.8615 33.8522 34.539 33.7922 34.2164C33.6962 34.3717 33.7442 34.539 33.7322 34.6943C33.7202 34.8496 33.7322 35.0169 33.7322 35.1961Z" fill="#191B20"/>
<path fill-rule="evenodd" clip-rule="evenodd" d="M15.5587 35.196C15.4267 35.196 15.3186 35.196 15.1866 35.196C15.1626 34.8615 15.1986 34.5389 15.1506 34.2044C15.0546 34.288 15.0906 34.4075 15.0906 34.5031C15.0786 34.6226 15.0906 34.7301 15.0906 34.8496C15.0906 34.9571 15.0906 35.0646 15.0906 35.1841C14.9585 35.1841 14.8505 35.1841 14.7305 35.1841C14.7305 34.7898 14.7305 34.4075 14.7305 34.0013C14.8265 34.0013 14.9105 33.9894 14.9945 34.0013C15.0906 34.0252 15.1746 34.0132 15.2586 33.9774C15.4027 33.9296 15.5347 34.0252 15.5467 34.1805C15.5587 34.3358 15.5587 34.4911 15.5587 34.6465C15.5587 34.8376 15.5587 35.0049 15.5587 35.196Z" fill="#191B20"/>
<path fill-rule="evenodd" clip-rule="evenodd" d="M19.0398 35.005C19.0638 34.6824 19.0398 34.3598 19.0518 34.0253C19.1719 34.0253 19.2799 34.0253 19.4119 34.0253C19.4119 34.4076 19.4119 34.7899 19.4119 35.1962C19.3519 35.1962 19.2799 35.2081 19.2199 35.2081C19.0998 35.2081 18.9918 35.1723 18.8718 35.2201C18.7517 35.2678 18.6317 35.1723 18.6077 35.0289C18.5957 34.9214 18.5957 34.8138 18.5957 34.7063C18.5957 34.4793 18.5957 34.2523 18.5957 34.0134C18.7157 34.0134 18.8358 34.0134 18.9678 34.0134C18.9678 34.3359 18.9678 34.6705 18.9678 34.9931C18.9798 35.005 19.0038 35.005 19.0398 35.005Z" fill="#191B20"/>
<path fill-rule="evenodd" clip-rule="evenodd" d="M27.9455 31.7672C27.7895 31.7552 27.6694 31.7552 27.5254 31.7433C27.5254 31.6477 27.5254 31.576 27.5254 31.4804C27.6574 31.4685 27.7895 31.4685 27.9335 31.4565C27.9335 31.2654 27.9335 31.0862 27.9335 30.8831C28.0295 30.8831 28.1136 30.8831 28.2096 30.8831C28.2096 31.0623 28.2096 31.2415 28.2096 31.4446C28.3536 31.4565 28.4737 31.4685 28.6057 31.4804C28.6057 31.5641 28.6057 31.6477 28.6057 31.7433C28.4857 31.7552 28.3656 31.7552 28.2336 31.7672C28.2336 32.1973 28.2336 32.6154 28.2336 33.0575C28.1256 33.0575 28.0415 33.0575 27.9455 33.0575C27.9455 32.6274 27.9455 32.2092 27.9455 31.7672Z" fill="#191B20"/>
<path fill-rule="evenodd" clip-rule="evenodd" d="M22.3649 34.5986C22.3649 34.6942 22.3769 34.7898 22.3649 34.8854C22.3529 35.0765 22.2568 35.1841 22.0648 35.2199C21.7767 35.2677 21.5606 35.1841 21.5606 34.8615C21.5486 34.6703 21.5486 34.4792 21.5726 34.288C21.5966 34.0729 21.7527 33.9654 21.9807 33.9774C22.2208 33.9893 22.3529 34.1088 22.3649 34.3358C22.3769 34.4314 22.3649 34.515 22.3649 34.5986ZM21.9807 34.2163C21.8967 34.4075 21.8967 34.8734 21.9807 35.0168C21.9807 34.73 21.9807 34.4792 21.9807 34.2163Z" fill="#191B20"/>
<path fill-rule="evenodd" clip-rule="evenodd" d="M21.0931 34.6346C20.925 34.6346 20.793 34.6346 20.6489 34.6346C20.6489 34.766 20.6489 34.8855 20.6489 35.0288C20.769 34.9333 20.6849 34.8138 20.757 34.7182C20.853 34.7182 20.961 34.7182 21.081 34.7182C21.1051 34.8974 21.081 35.0527 20.925 35.1603C20.757 35.2678 20.5889 35.2558 20.4209 35.1603C20.3248 35.1125 20.2768 35.0169 20.2768 34.9094C20.2768 34.7063 20.2648 34.5031 20.2768 34.3C20.2888 34.0969 20.4209 33.9894 20.6369 33.9775C20.841 33.9655 21.009 34.0611 21.057 34.2403C21.0811 34.3598 21.0811 34.4793 21.0931 34.6346ZM20.6489 34.4315C20.7209 34.3478 20.7329 34.2761 20.6489 34.1806C20.6489 34.2881 20.6489 34.3598 20.6489 34.4315Z" fill="#191B20"/>
<path fill-rule="evenodd" clip-rule="evenodd" d="M13.6614 34.6346C13.4934 34.6346 13.3613 34.6346 13.2173 34.6346C13.2173 34.766 13.2173 34.8855 13.2173 35.0288C13.3373 34.9333 13.2533 34.8138 13.3253 34.7182C13.4213 34.7182 13.5294 34.7182 13.6494 34.7182C13.6734 34.8974 13.6494 35.0527 13.4934 35.1603C13.3253 35.2678 13.1573 35.2558 12.9892 35.1603C12.8932 35.1125 12.8452 35.0169 12.8452 34.9094C12.8452 34.7063 12.8332 34.5031 12.8452 34.3C12.8572 34.0969 12.9892 33.9894 13.2053 33.9775C13.4093 33.9655 13.5774 34.0611 13.6254 34.2403C13.6494 34.3598 13.6494 34.4793 13.6614 34.6346ZM13.2173 34.4315C13.2293 34.4315 13.2413 34.4315 13.2653 34.4315C13.2773 34.3598 13.3133 34.2881 13.2173 34.1925C13.2173 34.2881 13.2173 34.3598 13.2173 34.4315Z" fill="#191B20"/>
<path fill-rule="evenodd" clip-rule="evenodd" d="M11.6807 34.6345C11.5246 34.6345 11.3926 34.6345 11.2485 34.6345C11.2485 34.7659 11.2485 34.8854 11.2485 35.0287C11.3686 34.9332 11.2966 34.8137 11.3566 34.7181C11.4526 34.7181 11.5606 34.7181 11.6807 34.7181C11.7047 34.8973 11.6807 35.0526 11.5246 35.1602C11.3566 35.2677 11.1885 35.2557 11.0205 35.1602C10.9244 35.1124 10.8764 35.0168 10.8764 34.9093C10.8764 34.7062 10.8644 34.5031 10.8764 34.2999C10.8884 34.0968 11.0205 33.9893 11.2365 33.9774C11.4406 33.9654 11.6086 34.0729 11.6567 34.2522C11.6687 34.2999 11.6807 34.3477 11.6807 34.3955C11.6807 34.4672 11.6807 34.5269 11.6807 34.6345ZM11.2485 34.4314C11.2605 34.4314 11.2725 34.4314 11.2966 34.4314C11.3206 34.3597 11.3446 34.2761 11.2485 34.1924C11.2485 34.288 11.2485 34.3597 11.2485 34.4314Z" fill="#191B20"/>
<path fill-rule="evenodd" clip-rule="evenodd" d="M26.7457 34.4552C26.7577 34.3596 26.7817 34.276 26.6977 34.1685C26.6857 34.288 26.6737 34.3596 26.6617 34.4552C26.5657 34.4552 26.4696 34.4552 26.3616 34.4552C26.3376 34.288 26.3376 34.1326 26.5057 34.0371C26.6737 33.9415 26.8538 33.9415 27.0098 34.049C27.0698 34.0848 27.1178 34.1685 27.1298 34.2282C27.1418 34.5508 27.1298 34.8614 27.1298 35.196C27.0338 35.196 26.9498 35.2079 26.8538 35.196C26.7697 35.184 26.7097 35.184 26.6257 35.2079C26.4936 35.2557 26.3736 35.1721 26.3616 35.0406C26.3496 34.957 26.3496 34.8614 26.3496 34.7778C26.3496 34.6822 26.3976 34.6225 26.4816 34.5866C26.5657 34.5508 26.6497 34.503 26.7457 34.4552ZM26.7337 35.0048C26.7337 34.8973 26.7337 34.8017 26.7337 34.6703C26.6377 34.7897 26.6497 34.8973 26.7337 35.0048Z" fill="#191B20"/>
<path fill-rule="evenodd" clip-rule="evenodd" d="M30.2638 34.7181C30.3598 34.7181 30.4558 34.7181 30.5519 34.7181C30.6359 34.9809 30.5399 35.1601 30.2998 35.2199C30.0357 35.2796 29.8076 35.1601 29.7836 34.9092C29.7596 34.7061 29.7596 34.503 29.7836 34.2999C29.8076 34.0849 29.9637 33.9773 30.1798 33.9773C30.4078 33.9893 30.5519 34.1088 30.5759 34.3358C30.5879 34.4313 30.5759 34.5269 30.5759 34.6225C30.4318 34.6345 30.2998 34.6345 30.1557 34.6464C30.1557 34.7778 30.1557 34.8853 30.1557 35.0407C30.2758 34.9331 30.2038 34.8256 30.2638 34.7181ZM30.1918 34.4313C30.1918 34.3597 30.1918 34.288 30.1918 34.1685C30.1077 34.288 30.1197 34.3597 30.1918 34.4313Z" fill="#191B20"/>
<path fill-rule="evenodd" clip-rule="evenodd" d="M26.3984 33.0933C26.3984 32.7946 26.3984 32.5078 26.3984 32.2211C26.7585 32.2211 27.0946 32.2211 27.4667 32.2211C27.4787 32.5078 27.4908 32.7946 27.4547 33.0933C27.1066 33.0933 26.7705 33.0933 26.3984 33.0933ZM27.1907 32.472C26.9986 32.4839 26.8426 32.4481 26.6745 32.4959C26.6745 32.6154 26.6745 32.7109 26.6745 32.8185C26.8546 32.8185 27.0226 32.8185 27.1907 32.8185C27.1907 32.699 27.1907 32.6034 27.1907 32.472Z" fill="#191B20"/>
<path fill-rule="evenodd" clip-rule="evenodd" d="M12.6545 34.3716C12.5345 34.3716 12.4145 34.3716 12.2824 34.3716C12.2704 34.3119 12.2584 34.2522 12.2464 34.1924C12.2224 34.2044 12.1864 34.2044 12.1864 34.2163C12.1504 34.3 12.1744 34.3716 12.2704 34.4194C12.3545 34.4553 12.4385 34.5031 12.5225 34.5509C12.6785 34.6345 12.6905 34.7779 12.6665 34.9451C12.6425 35.1004 12.5825 35.1721 12.4265 35.208C12.3545 35.2199 12.2824 35.2319 12.1984 35.2199C11.9823 35.196 11.8023 35.1243 11.8503 34.7898C11.9583 34.7898 12.0544 34.7779 12.1744 34.7659C12.1504 34.6823 12.0784 34.6703 12.0304 34.6464C11.8143 34.5389 11.8263 34.3597 11.8623 34.1685C11.8623 34.1446 11.8743 34.1327 11.8863 34.1088C11.9703 33.9774 12.2344 33.9296 12.4505 34.0013C12.6185 34.073 12.6665 34.1566 12.6545 34.3716ZM12.2704 35.0049C12.2824 35.0049 12.3064 35.0049 12.3184 35.0049C12.3424 34.8734 12.3424 34.8734 12.2584 34.8017C12.2584 34.8734 12.2704 34.9451 12.2704 35.0049Z" fill="#191B20"/>
<path fill-rule="evenodd" clip-rule="evenodd" d="M31.1263 34.8019C31.0662 34.7541 31.0062 34.6943 30.9462 34.6585C30.8502 34.5988 30.7782 34.5271 30.7542 34.4076C30.7181 34.1925 30.8022 34.0372 31.0182 34.0014C31.1023 33.9894 31.1983 33.9775 31.2823 34.0014C31.5104 34.0372 31.5704 34.1209 31.5584 34.3837C31.4984 34.3837 31.4384 34.3957 31.3783 34.3957C31.3183 34.3957 31.2703 34.3957 31.2103 34.3957C31.1863 34.324 31.1743 34.2642 31.1383 34.1806C31.1023 34.2284 31.0783 34.2642 31.0783 34.2762C31.0903 34.324 31.1143 34.3837 31.1503 34.4076C31.2343 34.4673 31.3303 34.5032 31.4143 34.551C31.5224 34.6107 31.5824 34.7063 31.5944 34.8258C31.6064 35.0528 31.5104 35.1842 31.2943 35.2081C31.1743 35.22 31.0422 35.2081 30.9342 35.1722C30.7662 35.1125 30.7422 34.9572 30.7542 34.778C30.8742 34.7899 31.0062 34.7899 31.1263 34.8019C31.1503 34.8736 31.1743 34.9333 31.1983 35.0408C31.2823 34.8497 31.2703 34.8258 31.1263 34.8019Z" fill="#191B20"/>
<path fill-rule="evenodd" clip-rule="evenodd" d="M16.0991 34.8019C16.039 34.7541 15.979 34.6943 15.919 34.6585C15.823 34.5988 15.751 34.5271 15.727 34.4076C15.6789 34.1925 15.775 34.0372 15.991 34.0014C16.0751 33.9894 16.1711 33.9775 16.2551 34.0014C16.4832 34.0372 16.5432 34.1209 16.5312 34.3837C16.4232 34.3837 16.3031 34.3837 16.1831 34.3837C16.1711 34.3359 16.1471 34.2762 16.1231 34.1806C16.0871 34.2284 16.0631 34.2642 16.0631 34.2762C16.0751 34.324 16.0991 34.3837 16.1351 34.4076C16.2071 34.4673 16.3031 34.5032 16.3872 34.539C16.4952 34.5868 16.5552 34.6704 16.5792 34.7899C16.6152 35.0169 16.5072 35.1842 16.2791 35.2081C16.1591 35.22 16.027 35.2081 15.919 35.1722C15.751 35.1125 15.727 34.9572 15.739 34.778C15.859 34.7899 15.979 34.7899 16.0991 34.8019C16.1231 34.8616 16.1471 34.9452 16.1711 35.0408C16.2551 34.8497 16.2551 34.8258 16.0991 34.8019Z" fill="#191B20"/>
<path fill-rule="evenodd" clip-rule="evenodd" d="M12.0766 30.9547C12.0766 31.0503 12.0766 31.1101 12.0766 31.1937C11.9926 31.1937 11.9206 31.2056 11.8486 31.2056C11.7526 31.2176 11.6565 31.1937 11.5485 31.2534C11.5005 31.2893 11.4045 31.2773 11.3324 31.2534C11.0804 31.1818 10.9243 31.1818 10.6842 31.2534C10.6242 31.2773 10.5282 31.2893 10.4802 31.2534C10.3361 31.1698 10.1801 31.2056 10.0241 31.1937C9.98804 31.1937 9.95203 31.1818 9.91602 31.1818C9.91602 31.0981 9.91602 31.0264 9.91602 30.9428C9.97603 30.9428 10.0481 30.9428 10.1081 30.9309C10.2281 30.9189 10.3481 30.9547 10.4562 30.8711C10.5042 30.8353 10.6002 30.8472 10.6722 30.8711C10.9003 30.9428 11.0804 30.9428 11.3204 30.8711C11.3804 30.8472 11.4765 30.8353 11.5245 30.8711C11.6565 30.9547 11.8006 30.9189 11.9446 30.9309C11.9806 30.9428 12.0286 30.9547 12.0766 30.9547Z" fill="#191B20"/>
<path fill-rule="evenodd" clip-rule="evenodd" d="M14.515 35.196C14.3709 35.196 14.2509 35.196 14.1309 35.196C14.1309 34.7181 14.1309 34.2402 14.1309 33.7504C14.2509 33.7504 14.3709 33.7504 14.515 33.7504C14.515 34.2283 14.515 34.7062 14.515 35.196Z" fill="#191B20"/>
<path fill-rule="evenodd" clip-rule="evenodd" d="M22.9283 35.196C22.8083 35.196 22.7002 35.196 22.5802 35.196C22.5802 35.1482 22.5682 35.0885 22.5682 35.0407C22.5682 34.8257 22.5682 34.6106 22.5682 34.3955C22.5682 34.3358 22.5802 34.2761 22.5562 34.2402C22.5082 34.1566 22.5322 34.0849 22.5682 34.0013C22.6642 33.7743 22.6762 33.7504 22.9283 33.7504C22.9523 33.7504 22.9763 33.7504 23.0003 33.7623C23.0963 33.8937 22.9763 33.9415 22.8923 33.9893C23.0363 34.0849 23.0363 34.0849 22.9643 34.2641C22.9523 34.3 22.9523 34.3597 22.9523 34.4075C22.9523 34.6106 22.9523 34.8137 22.9523 35.0168C22.9403 35.0527 22.9403 35.1243 22.9283 35.196Z" fill="#191B20"/>
<path fill-rule="evenodd" clip-rule="evenodd" d="M16.7582 33.8458C16.8662 33.8458 16.9622 33.8458 17.0703 33.8458C17.1183 33.9056 17.0703 34.0131 17.1903 34.037C17.2503 34.049 17.2503 34.1684 17.1783 34.2043C17.1183 34.2282 17.0943 34.264 17.1063 34.3237C17.1063 34.5149 17.1063 34.7061 17.1063 34.8972C17.1063 34.945 17.1423 34.9928 17.1783 35.0286C17.2263 35.0884 17.2383 35.0764 17.2263 35.1959L17.2143 35.2079C16.8062 35.2556 16.7462 35.1959 16.7462 34.8016C16.7462 34.6702 16.7462 34.5388 16.7462 34.4193C16.7462 34.3835 16.7582 34.3476 16.7462 34.3237C16.6261 34.1445 16.6861 34.0012 16.7582 33.8458Z" fill="#191B20"/>
<path fill-rule="evenodd" clip-rule="evenodd" d="M20.1682 35.2079C20.0242 35.2079 19.9522 35.2079 19.8681 35.2079C19.6881 35.196 19.6281 35.1362 19.6161 34.957C19.6041 34.7898 19.6161 34.6105 19.6161 34.4433C19.6161 34.3596 19.568 34.276 19.5801 34.1924C19.5801 34.0849 19.6161 33.9773 19.6281 33.8579C19.7481 33.8579 19.8441 33.8579 19.9522 33.8579C20.0242 33.8937 19.9522 34.0132 20.0722 34.0371C20.1322 34.049 20.1322 34.1804 20.0722 34.2043C19.9882 34.2402 19.9882 34.2999 19.9882 34.3596C19.9882 34.5269 19.9882 34.6942 19.9882 34.8734C19.9882 34.9451 20.0002 35.0048 20.0842 35.0407C20.1202 35.0407 20.1322 35.1243 20.1682 35.2079Z" fill="#191B20"/>
<path fill-rule="evenodd" clip-rule="evenodd" d="M18.3066 34.9809C18.3906 35.0286 18.4986 35.0525 18.4386 35.184C18.4266 35.1959 18.4146 35.1959 18.4026 35.1959C17.9825 35.2318 17.9345 35.184 17.9345 34.7539C17.9345 34.6344 17.9345 34.503 17.9345 34.3835C17.9345 34.3596 17.9465 34.3237 17.9345 34.2999C17.8625 34.1445 17.8985 34.0012 17.9585 33.8458C18.0545 33.8458 18.1626 33.8458 18.2826 33.8458C18.3426 33.8817 18.2826 33.9892 18.3906 34.0251C18.4506 34.037 18.4506 34.1445 18.3666 34.2043C18.3306 34.2282 18.3066 34.276 18.3066 34.3118C18.3066 34.5388 18.3066 34.7539 18.3066 34.9809Z" fill="#191B20"/>
<path fill-rule="evenodd" clip-rule="evenodd" d="M24.5488 34.0132C24.6929 34.0252 24.8369 33.9535 24.9449 34.0849C24.993 34.061 25.053 34.0252 25.137 33.9893C25.137 34.1327 25.137 34.2641 25.137 34.3956C24.9329 34.4075 24.9089 34.5628 24.9209 34.742C24.9329 34.8854 24.9209 35.0407 24.9209 35.196C24.7889 35.196 24.6809 35.196 24.5608 35.196C24.5488 34.8018 24.5488 34.4195 24.5488 34.0132Z" fill="#191B20"/>
<path fill-rule="evenodd" clip-rule="evenodd" d="M9.58052 34.0134C9.58052 34.4076 9.58052 34.7899 9.58052 35.1842C9.46048 35.1842 9.35246 35.1842 9.23242 35.1842C9.23242 34.7899 9.23242 34.4076 9.23242 34.0134C9.34045 34.0134 9.46048 34.0134 9.58052 34.0134Z" fill="#191B20"/>
<path fill-rule="evenodd" clip-rule="evenodd" d="M32.0883 34.0134C32.0883 34.4076 32.0883 34.7899 32.0883 35.1962C31.9683 35.1962 31.8602 35.1962 31.7642 35.1962C31.7282 35.0528 31.7162 34.2523 31.7522 34.0134C31.8482 34.0134 31.9563 34.0134 32.0883 34.0134Z" fill="#191B20"/>
<path fill-rule="evenodd" clip-rule="evenodd" d="M17.7192 35.1959C17.5992 35.1959 17.4911 35.1959 17.3711 35.1959C17.3711 34.8017 17.3711 34.4193 17.3711 34.0251C17.4791 34.0251 17.5872 34.0251 17.7192 34.0251C17.7192 34.4074 17.7192 34.7897 17.7192 35.1959Z" fill="#191B20"/>
<path fill-rule="evenodd" clip-rule="evenodd" d="M26.3984 31.4804C26.3984 31.3848 26.3984 31.3131 26.3984 31.2295C26.7585 31.2295 27.1066 31.2295 27.4788 31.2295C27.4788 31.3012 27.4908 31.3729 27.4908 31.4804C27.1186 31.4923 26.7585 31.4923 26.3984 31.4804Z" fill="#191B20"/>
<path fill-rule="evenodd" clip-rule="evenodd" d="M23.6484 31.4564C23.6484 31.3728 23.6484 31.3011 23.6484 31.2055C23.9365 31.1816 24.2246 31.1936 24.5247 31.2055C24.5247 31.3011 24.5247 31.3728 24.5247 31.4564C24.2366 31.4564 23.9485 31.4564 23.6484 31.4564Z" fill="#191B20"/>
<path fill-rule="evenodd" clip-rule="evenodd" d="M27.3581 30.8831C27.3581 30.9667 27.3581 31.0503 27.3581 31.1339C27.07 31.1339 26.7939 31.1339 26.5059 31.1339C26.5059 31.0503 26.5059 30.9667 26.5059 30.8831C26.7939 30.8831 27.07 30.8831 27.3581 30.8831Z" fill="#191B20"/>
<path fill-rule="evenodd" clip-rule="evenodd" d="M27.3701 32.1256C27.07 32.1256 26.7939 32.1256 26.5059 32.1256C26.5059 32.042 26.5059 31.9703 26.5059 31.8867C26.7819 31.8867 27.058 31.8867 27.3581 31.8867C27.3581 31.9583 27.3581 32.03 27.3701 32.1256Z" fill="#191B20"/>
<path fill-rule="evenodd" clip-rule="evenodd" d="M27.3701 31.5519C27.3701 31.6475 27.3581 31.7192 27.3581 31.7909C27.07 31.7909 26.7939 31.7909 26.5059 31.7909C26.5059 31.7072 26.5059 31.6356 26.5059 31.5519C26.7939 31.5519 27.07 31.5519 27.3701 31.5519Z" fill="#191B20"/>
<path fill-rule="evenodd" clip-rule="evenodd" d="M23.7324 32.1256C23.7324 32.042 23.7324 31.9822 23.7324 31.8867C23.9605 31.8628 24.1886 31.8747 24.4166 31.8747C24.4166 31.9583 24.4166 32.03 24.4166 32.1137C24.2006 32.1256 23.9845 32.1256 23.7324 32.1256Z" fill="#191B20"/>
<path fill-rule="evenodd" clip-rule="evenodd" d="M23.7324 31.7911C23.7324 31.7074 23.7324 31.6477 23.7324 31.5521C23.9605 31.5163 24.1886 31.5282 24.4286 31.5402C24.4286 31.6238 24.4286 31.6955 24.4286 31.7791C24.2006 31.7911 23.9845 31.7911 23.7324 31.7911Z" fill="#191B20"/>
<path fill-rule="evenodd" clip-rule="evenodd" d="M24.4289 30.8951C24.4289 30.9907 24.4289 31.0624 24.4289 31.146C24.3089 31.146 24.2008 31.146 24.0808 31.146C23.9728 31.146 23.8647 31.146 23.7327 31.146C23.7327 31.0624 23.7207 30.9907 23.7207 30.8951C23.9608 30.8712 24.1888 30.8831 24.4289 30.8951Z" fill="#191B20"/>
<path fill-rule="evenodd" clip-rule="evenodd" d="M17.7195 33.7504C17.7195 33.8101 17.7195 33.8579 17.7195 33.9176C17.5994 33.9176 17.4914 33.9176 17.3714 33.9176C17.3714 33.8699 17.3594 33.8101 17.3594 33.7504C17.4794 33.7504 17.5874 33.7504 17.7195 33.7504Z" fill="#191B20"/>
<path fill-rule="evenodd" clip-rule="evenodd" d="M32.0864 33.7504C32.0864 33.8101 32.0864 33.8579 32.0864 33.9176C31.9663 33.9176 31.8583 33.9176 31.7383 33.9176C31.7383 33.8579 31.7383 33.8101 31.7383 33.7504C31.8463 33.7504 31.9663 33.7504 32.0864 33.7504Z" fill="#191B20"/>
<path fill-rule="evenodd" clip-rule="evenodd" d="M9.58081 33.7504C9.58081 33.8101 9.58081 33.8579 9.58081 33.9176C9.47278 33.9176 9.35275 33.9176 9.23271 33.9176C9.23271 33.8699 9.2207 33.8221 9.2207 33.7504C9.34074 33.7504 9.44877 33.7504 9.58081 33.7504Z" fill="#191B20"/>
</svg>
