<svg width="48" height="48" viewBox="0 0 48 48" fill="none" xmlns="http://www.w3.org/2000/svg">
<path fill-rule="evenodd" clip-rule="evenodd" d="M20.8587 15.4411C20.3704 16.0751 19.882 16.7196 19.383 17.3536C17.2598 20.1116 15.1365 22.8695 13.0132 25.6274C11.4208 27.6879 9.83897 29.759 8.24652 31.8301C7.48215 32.8234 6.71778 33.8167 5.9534 34.8099C5.87909 34.9156 5.79416 34.9473 5.66676 34.9473C5.17841 34.9367 4.69006 34.9473 4.20171 34.9473C4.14863 34.9473 4.09555 34.9473 4 34.9473C4.1274 34.7782 4.23356 34.6409 4.32911 34.5035C5.87909 32.4852 7.43968 30.4564 8.98967 28.4382C10.6564 26.272 12.3232 24.1058 13.9899 21.9502C15.593 19.8685 17.1961 17.7869 18.7991 15.6947C19.4467 14.8493 20.0943 14.004 20.7419 13.1586C20.8162 13.0635 20.8906 13.0213 21.0073 13.0213C23.1412 13.0213 25.2857 13.0213 27.4196 13.0213C27.4833 13.0213 27.5576 13.0213 27.6319 13.0213C27.6319 20.3335 27.6319 27.6245 27.6319 34.9262C25.3813 34.9262 23.1412 34.9262 20.8906 34.9262C20.8906 28.4382 20.8906 21.9502 20.8906 15.4516C20.8906 15.4516 20.8799 15.4516 20.8587 15.4411Z" fill="#191B20"/>
<path fill-rule="evenodd" clip-rule="evenodd" d="M29.2559 35C29.2559 27.6984 29.2559 20.4073 29.2559 13.1057C31.5065 13.1057 33.7572 13.1057 36.0078 13.1057C36.0078 20.3967 36.0078 27.6878 36.0078 35C33.7678 35 31.5171 35 29.2559 35Z" fill="#191B20"/>
<path fill-rule="evenodd" clip-rule="evenodd" d="M37.6211 34.9049C37.6211 27.6033 37.6211 20.3228 37.6211 13.0106C37.6742 13.0106 37.7273 13 37.7803 13C38.9375 13 40.1053 13 41.2625 13C41.4005 13 41.5491 13.0528 41.6871 13.1057C43.3645 13.7714 44.458 15.4726 44.3837 17.269C44.3837 17.4063 44.3731 17.5543 44.3731 17.6916C44.3731 23.3554 44.3731 29.0086 44.3731 34.6724C44.3731 34.7464 44.3731 34.8204 44.3731 34.8943C42.1224 34.9049 39.8824 34.9049 37.6211 34.9049Z" fill="#191B20"/>
<path fill-rule="evenodd" clip-rule="evenodd" d="M16.2202 34.9683C15.8593 34.5985 15.5089 34.2392 15.148 33.88C14.6066 33.3411 14.0545 32.8233 13.5237 32.2844C12.3771 31.122 11.995 29.7695 12.4621 28.195C13.099 26.05 15.3603 25.025 17.3668 25.6062C18.8743 26.0394 19.9997 27.3814 20.1483 28.9453C20.2757 30.2344 19.8616 31.3334 18.9593 32.2421C18.0993 33.1086 17.2288 33.9645 16.3689 34.831C16.337 34.8627 16.2946 34.9049 16.2202 34.9683ZM16.7935 30.1922C16.8041 30.2556 16.8148 30.2873 16.8254 30.3295C16.8997 30.6677 17.0695 30.8262 17.4199 30.8579C17.8021 30.8896 18.1099 30.7311 18.3647 30.4458C18.8956 29.854 18.8849 28.6917 18.5134 28.0365C17.7384 26.6734 15.8699 26.61 14.8932 27.2229C14.0651 27.7407 13.7148 28.5226 13.6829 29.4525C13.6617 30.1816 13.874 30.8367 14.4155 31.3651C15.2754 32.2104 16.7192 32.1047 17.5154 31.8194C17.5579 31.8089 17.6004 31.756 17.6004 31.7138C17.611 31.6187 17.6004 31.513 17.6004 31.4179C17.5579 31.4179 17.5473 31.4073 17.5367 31.4179C17.4624 31.439 17.3987 31.4707 17.3243 31.4919C16.7086 31.6715 16.0928 31.7349 15.4771 31.5341C14.6172 31.2488 14.2031 30.5937 14.1182 29.7378C13.9908 28.5332 14.7658 27.2863 16.1778 27.2229C17.3987 27.1701 18.2798 27.9309 18.3223 29.1249C18.3329 29.537 18.2798 29.9386 17.9826 30.2661C17.8339 30.4246 17.6534 30.5409 17.4199 30.4563C17.1969 30.3718 17.1651 30.1605 17.1757 29.9597C17.1969 29.5159 17.2288 29.0721 17.2606 28.6177C17.2713 28.4381 17.2925 28.2479 17.3031 28.0682C17.1651 28.0682 17.0483 28.0471 16.9422 28.0788C16.8891 28.0999 16.8891 28.2267 16.8678 28.3113C16.7935 28.2479 16.7192 28.1739 16.6343 28.1316C16.2521 27.9203 15.7107 28.0154 15.3816 28.3747C14.8826 28.9136 14.8083 29.5476 14.9888 30.2239C15.0949 30.6148 15.4028 30.8262 15.8062 30.8579C16.2096 30.8896 16.5069 30.6994 16.6874 30.3401C16.7404 30.2978 16.7617 30.2556 16.7935 30.1922Z" fill="#191B20"/>
<path fill-rule="evenodd" clip-rule="evenodd" d="M15.3691 29.6532C15.3798 29.2728 15.4753 28.9347 15.6982 28.6494C15.8469 28.4592 16.0486 28.3852 16.2821 28.3852C16.5157 28.3958 16.7174 28.5226 16.7599 28.755C16.866 29.2517 16.8023 29.7272 16.5263 30.1604C16.3671 30.4034 16.1335 30.5197 15.8363 30.4563C15.539 30.3929 15.4328 30.1498 15.3798 29.8857C15.3691 29.8011 15.3691 29.7272 15.3691 29.6532Z" fill="#191B20"/>
</svg>
