<svg width="48" height="48" viewBox="0 0 48 48" fill="none" xmlns="http://www.w3.org/2000/svg">
<path fill-rule="evenodd" clip-rule="evenodd" d="M34.4878 10.1672C35.4001 10.1672 36.3004 10.1672 37.2006 10.1672C37.2006 17.1087 37.2006 24.0382 37.2006 30.9678C37.0566 31.0155 34.992 31.0275 34.4998 30.9917C34.4638 30.8483 34.4398 10.669 34.4878 10.1672Z" fill="#191B20"/>
<path fill-rule="evenodd" clip-rule="evenodd" d="M22.2561 14.1576C23.1684 14.1576 24.0566 14.1576 24.9449 14.1576C24.9929 14.301 25.0049 30.5615 24.9689 30.9797C24.8249 31.0155 22.6642 31.0394 22.2681 31.0036C22.2321 30.8482 22.2201 14.5997 22.2561 14.1576Z" fill="#191B20"/>
<path fill-rule="evenodd" clip-rule="evenodd" d="M12.7128 31.0036C11.8125 31.0036 10.9243 31.0036 10.048 31.0036C10.036 30.9917 10.036 30.9917 10.024 30.9797L10.012 30.9678C10.012 25.4361 10 19.9044 10 14.3608C10 14.3011 10 14.2413 10 14.1816C10.156 14.1338 12.4367 14.1218 12.7128 14.1577C12.7488 14.313 12.7608 30.7647 12.7128 31.0036Z" fill="#191B20"/>
<path fill-rule="evenodd" clip-rule="evenodd" d="M20.8749 31.0036C19.9746 31.0036 19.0864 31.0036 18.2101 31.0036C18.1981 30.9916 18.1861 30.9916 18.1861 30.9797L18.1741 30.9677C18.1741 25.4241 18.1621 19.8924 18.1621 14.3488C18.1621 14.301 18.1621 14.2532 18.1741 14.2054C18.1741 14.1935 18.1861 14.1815 18.1981 14.1576C19.0864 14.1576 19.9746 14.1576 20.8629 14.1576C20.9109 14.3129 20.9229 30.7527 20.8749 31.0036Z" fill="#191B20"/>
<path fill-rule="evenodd" clip-rule="evenodd" d="M26.3598 14.1576C27.2481 14.1576 28.1363 14.1576 29.0486 14.1576C29.0486 19.7729 29.0486 25.3763 29.0486 30.9916C28.1483 30.9916 27.2601 30.9916 26.3598 30.9916C26.3238 30.8363 26.3118 14.3607 26.3598 14.1576Z" fill="#191B20"/>
<path fill-rule="evenodd" clip-rule="evenodd" d="M30.4303 14.1576C31.3185 14.1576 32.2068 14.1576 33.119 14.1576C33.119 19.7729 33.119 25.3763 33.119 30.9916C32.2188 30.9916 31.3305 30.9916 30.4423 30.9916L30.4303 30.9797L30.4183 30.9677C30.4183 30.9438 30.4062 30.9199 30.4062 30.8841C30.4062 25.3524 30.4062 19.8207 30.4062 14.2771C30.4062 14.2532 30.4063 14.2174 30.4183 14.1935C30.4063 14.1935 30.4183 14.1815 30.4303 14.1576Z" fill="#191B20"/>
<path fill-rule="evenodd" clip-rule="evenodd" d="M16.7945 30.9916C15.8943 30.9916 14.994 30.9916 14.0938 30.9916C14.0938 28.3632 14.0938 25.7347 14.0938 23.0943C14.994 23.0943 15.8943 23.0943 16.7945 23.0943C16.8305 23.2377 16.8426 30.7288 16.7945 30.9916Z" fill="#191B20"/>
<path fill-rule="evenodd" clip-rule="evenodd" d="M16.8068 21.9833C15.8946 21.9833 14.9943 21.9833 14.082 21.9833C14.082 19.3787 14.082 16.7742 14.082 14.1816C14.2261 14.1338 16.5908 14.1218 16.8068 14.1696C16.8068 16.7742 16.8068 19.3668 16.8068 21.9833Z" fill="#191B20"/>
<path fill-rule="evenodd" clip-rule="evenodd" d="M19.53 13.0227C19.0379 12.5329 18.5217 12.0191 18.0176 11.5173C18.5217 11.0155 19.0379 10.5018 19.542 10C20.0342 10.4898 20.5503 11.0036 21.0425 11.4934C20.5503 12.0072 20.0342 12.5209 19.53 13.0227Z" fill="#191B20"/>
<path fill-rule="evenodd" clip-rule="evenodd" d="M18.4735 36.0456C18.4255 35.8903 18.4255 34.0982 18.4735 33.907C18.5215 33.907 18.5695 33.8951 18.6296 33.8951C19.2177 33.8951 19.8059 33.8951 20.3941 33.8951C20.4181 33.8951 20.4301 33.8951 20.4541 33.8951C20.5621 33.8951 20.5981 33.9428 20.5981 34.0504C20.5981 34.134 20.5981 34.2176 20.5981 34.2893C20.5981 34.8031 20.5981 35.3049 20.5981 35.8186C20.5981 35.8903 20.5981 35.962 20.5861 36.0336C20.4301 36.0814 18.6896 36.0934 18.4735 36.0456ZM18.7856 35.2929C18.7856 35.0301 18.7616 34.8031 18.7976 34.5761C19.0497 34.5761 19.2897 34.5641 19.5298 34.5761C19.5298 34.827 19.5298 35.054 19.5298 35.2929C19.5778 35.3049 19.6138 35.3287 19.6979 35.3526C19.6498 35.054 19.5658 34.7911 19.5298 34.5163C19.2777 34.5163 19.0377 34.5163 18.7976 34.5163C18.7976 34.4207 18.7976 34.3371 18.7976 34.2415C18.9296 34.2415 19.0497 34.2415 19.1697 34.2415C19.2777 34.2415 19.3978 34.2654 19.5058 34.1818C19.2537 34.1459 19.0017 34.1459 18.7256 34.1579C18.7256 34.7075 18.7256 35.2451 18.7256 35.7828C18.9657 35.7828 19.1937 35.7828 19.4458 35.7828C19.3858 35.7111 19.3498 35.6633 19.3138 35.6274C19.1337 35.6394 18.9777 35.6513 18.7976 35.6752C18.7856 35.5796 18.7736 35.496 18.7616 35.4124C18.9897 35.3885 19.1937 35.3646 19.3858 35.3407C19.3858 35.3287 19.3858 35.3168 19.3858 35.3049C19.2177 35.2929 19.0137 35.2929 18.7856 35.2929ZM20.274 34.6358C20.226 34.7792 20.178 34.8986 20.142 35.0062C20.106 35.1256 19.998 35.2093 20.022 35.3646C20.106 35.2451 20.106 35.2451 20.286 35.2571C20.286 34.9106 20.286 34.5641 20.286 34.2296C20.286 34.2057 20.238 34.1818 20.202 34.1579C20.214 34.2893 20.226 34.3968 20.238 34.5163C20.082 34.5283 19.9499 34.5283 19.8059 34.5402C19.8299 34.6716 19.8419 34.7911 19.8659 34.9106C19.8779 34.9106 19.8899 34.9106 19.9019 34.9106C19.9379 34.8031 19.9739 34.6955 20.022 34.5761C20.106 34.588 20.178 34.6119 20.274 34.6358ZM19.6378 35.7947C19.8659 35.7947 20.034 35.7947 20.214 35.7947C20.274 35.7947 20.298 35.7589 20.262 35.6872C20.058 35.8664 19.9619 35.6513 19.8299 35.5558C19.7819 35.6274 19.7219 35.6872 19.6378 35.7947ZM19.0497 35.0301C19.1337 35.0301 19.1937 35.0301 19.2657 35.0301C19.2657 34.9584 19.2657 34.8867 19.2657 34.815C19.1937 34.815 19.1217 34.815 19.0497 34.815C19.0497 34.8867 19.0497 34.9464 19.0497 35.0301Z" fill="#191B20"/>
<path fill-rule="evenodd" clip-rule="evenodd" d="M22.8206 35.9261C22.8206 35.8306 22.8086 35.7469 22.8086 35.6394C22.8686 35.6513 22.9286 35.6633 22.9766 35.6633C23.1207 35.6752 23.1807 35.6155 23.1687 35.4721C23.1567 35.3885 23.1327 35.2929 23.0967 35.2212C23.0487 35.1257 22.9886 35.042 22.9286 34.9703C22.8686 34.8867 22.8446 34.8031 22.8926 34.7075C22.9526 34.5402 23.0126 34.373 23.0727 34.1818C22.9766 34.1818 22.8806 34.1818 22.7726 34.1818C22.7726 34.8031 22.7726 35.4243 22.7726 36.0456C22.6765 36.0456 22.5925 36.0456 22.4845 36.0456C22.4725 35.4721 22.4845 34.8987 22.4725 34.2893C22.4005 34.361 22.3645 34.3969 22.3164 34.4327C22.4485 34.5163 22.4245 34.6239 22.4005 34.7433C22.2444 34.7553 22.1004 34.7792 21.9563 34.7911C21.9323 34.7911 21.9083 34.815 21.8843 34.827C21.8963 34.8389 21.8963 34.8628 21.9083 34.8748C22.0644 34.8748 22.2084 34.8748 22.3525 34.8748C22.4005 35.0301 22.4125 35.723 22.3765 36.0576C22.0404 36.0695 21.7043 36.0576 21.3442 36.0576C21.3201 35.7947 21.3442 35.5319 21.3322 35.3049C21.2481 35.2093 21.1641 35.1376 21.0801 35.042C21.2121 34.9584 21.3322 34.8867 21.4402 34.8031C21.4402 34.7911 21.4282 34.7792 21.4282 34.7672C21.3442 34.7553 21.2721 34.7553 21.1761 34.7433C21.1761 34.6597 21.1761 34.588 21.1761 34.4924C21.3202 34.4685 21.4642 34.4446 21.5962 34.4208C21.5962 34.4208 21.5962 34.3849 21.5962 34.3371C21.5002 34.3252 21.3922 34.3252 21.2721 34.3132C21.2721 34.2296 21.2721 34.146 21.2721 34.0504C21.3682 34.0384 21.4642 34.0384 21.5722 34.0265C21.5842 33.9668 21.6082 33.907 21.6202 33.8353C21.7043 33.8353 21.7763 33.8353 21.8603 33.8353C21.8723 33.8951 21.8843 33.9548 21.9083 34.0145C21.9803 34.0265 22.0764 34.0026 22.1364 34.0384C22.2444 34.0982 22.2564 33.9787 22.3284 33.9668C22.3645 33.9787 22.4005 34.0026 22.4485 34.0145C22.4605 33.9548 22.4845 33.907 22.4965 33.8473C22.7246 33.8473 22.9406 33.8353 23.1567 33.8473C23.3367 33.8592 23.4088 33.9787 23.3607 34.1579C23.3127 34.3132 23.2527 34.4685 23.1927 34.6239C23.1447 34.7314 23.1567 34.827 23.2287 34.9225C23.3607 35.0898 23.4448 35.281 23.4208 35.508C23.3968 35.8186 23.2647 35.9381 22.9526 35.9142C22.9286 35.95 22.8806 35.9381 22.8206 35.9261ZM22.0884 35.1854C21.9323 35.1854 21.7883 35.1854 21.6322 35.1854C21.6322 35.2332 21.6322 35.281 21.6322 35.3407C21.7643 35.3407 21.8843 35.3407 22.0043 35.3407C22.1244 35.3288 22.1124 35.269 22.0884 35.1854ZM21.6322 35.7708C21.7883 35.7708 21.9443 35.7708 22.0884 35.7708C22.0884 35.7111 22.0884 35.6752 22.0884 35.6274C21.9323 35.6274 21.7883 35.6274 21.6322 35.6274C21.6322 35.6872 21.6322 35.723 21.6322 35.7708Z" fill="#191B20"/>
<path fill-rule="evenodd" clip-rule="evenodd" d="M33.5631 35.6512C33.5631 35.7229 33.5631 35.7587 33.5631 35.8065C33.5511 36.0574 33.4431 36.1769 33.191 36.165C33.059 36.153 32.939 36.1172 32.8069 36.0933C32.8189 35.9858 32.8309 35.9141 32.8429 35.8065C32.9149 35.8304 32.975 35.8543 33.047 35.8663C33.107 35.8782 33.167 35.8782 33.239 35.8902C33.239 35.8185 33.251 35.7587 33.251 35.6632C32.9029 35.6632 32.5669 35.6632 32.2187 35.6632C32.2187 35.5556 32.2187 35.484 32.2187 35.3884C32.5068 35.3884 32.7829 35.3884 33.083 35.3884C33.071 35.3406 33.071 35.3047 33.059 35.2689C33.119 35.257 33.167 35.245 33.227 35.2331C33.215 35.2092 33.203 35.1972 33.203 35.1972C33.035 35.1972 32.8789 35.1972 32.6989 35.1972C32.6869 35.1016 32.6749 35.018 32.6749 34.9344C32.6029 34.9344 32.5428 34.9344 32.4708 34.9344C32.4588 35.018 32.4468 35.1016 32.4348 35.1853C32.3508 35.1853 32.2788 35.1853 32.1947 35.1853C32.1467 35.0419 32.1707 34.8746 32.1827 34.7313C32.1827 34.6954 32.2548 34.6596 32.3148 34.5998C32.3388 34.3848 32.2908 34.1458 32.3388 33.8949C32.5188 33.871 32.6869 33.8591 32.8789 33.8352C32.9029 33.8949 32.939 33.9547 32.975 34.0383C32.8789 34.0742 32.7949 34.098 32.7109 34.1339C32.7589 34.1458 32.8069 34.1458 32.8549 34.1578C32.8549 34.2175 32.8549 34.2773 32.8669 34.3489C32.7829 34.3609 32.7109 34.3728 32.6389 34.3728V34.3848C32.7109 34.3967 32.7829 34.3967 32.8549 34.4087C32.8549 34.4804 32.8549 34.5282 32.8549 34.5998C32.7829 34.5998 32.7109 34.6118 32.6389 34.6118C32.6389 34.6237 32.6389 34.6237 32.6389 34.6357C32.7349 34.6357 32.8309 34.6357 32.951 34.6357C32.987 34.5879 32.8669 34.4684 33.011 34.4326C33.023 34.4326 33.023 34.3609 33.011 34.3251C32.987 34.2653 32.951 34.2295 32.9029 34.1697C32.951 34.1339 32.999 34.11 33.011 34.0981C33.047 33.9905 33.071 33.9069 33.095 33.8113C33.179 33.8472 33.227 33.871 33.2991 33.9069C33.3351 33.883 33.3831 33.8472 33.4311 33.8113C33.4791 33.8591 33.5271 33.8949 33.5631 33.9308C33.5151 34.0503 33.5511 34.1697 33.5511 34.2773C33.5511 34.4206 33.5871 34.5162 33.5391 34.6357C33.6712 34.6357 33.7912 34.6357 33.9232 34.6357C33.9232 34.6237 33.9232 34.6237 33.9232 34.6118C33.8392 34.5998 33.7672 34.5998 33.6712 34.5879C33.6712 34.5282 33.6592 34.4804 33.6592 34.4087C33.7552 34.3967 33.8392 34.3848 33.9232 34.3848V34.3728C33.8392 34.3728 33.7672 34.3609 33.6712 34.3609C33.6712 34.3012 33.6592 34.2414 33.6592 34.1697C33.7312 34.1578 33.8032 34.1458 33.8632 34.1458C33.8032 34.1339 33.7432 34.1339 33.6712 34.1219C33.6712 34.0622 33.6592 34.0025 33.6592 33.9308C33.8512 33.9308 34.0313 33.9308 34.2473 33.9308C34.2473 34.0861 34.2473 34.2295 34.2473 34.3728C34.2473 34.6476 34.2473 34.6476 34.4874 34.803C34.4514 34.9463 34.4154 35.1016 34.3674 35.2808C34.2713 35.257 34.1993 35.2331 34.1153 35.2092C34.1273 35.1136 34.1513 35.0419 34.1633 34.9463C34.0313 34.9463 33.9232 34.9463 33.7792 34.9463C33.8392 35.0538 33.8992 35.1494 33.9593 35.257C33.8752 35.2928 33.7912 35.3406 33.7072 35.3764C33.7072 35.3884 33.7072 35.4003 33.7192 35.4123C33.9353 35.4123 34.1513 35.4123 34.3794 35.4123C34.3794 35.5079 34.3794 35.5795 34.3794 35.6871C34.1033 35.6512 33.8392 35.6512 33.5631 35.6512ZM33.251 34.2295C33.251 34.2414 33.251 34.2653 33.251 34.2773C33.2871 34.2773 33.3351 34.2773 33.3711 34.2892C33.3711 34.2773 33.3711 34.2534 33.3711 34.2414C33.3351 34.2295 33.2871 34.2295 33.251 34.2295Z" fill="#191B20"/>
<path fill-rule="evenodd" clip-rule="evenodd" d="M16.7455 35.2809C16.5295 35.2809 16.3374 35.2809 16.1333 35.2809C16.1333 35.4482 16.1333 35.6154 16.1333 35.7947C16.3614 35.7469 16.5655 35.6991 16.8055 35.6513C16.8295 35.7469 16.8535 35.8305 16.8776 35.938C16.4814 36.0575 16.0973 36.1292 15.6892 36.177C15.6652 36.0814 15.6412 35.9978 15.6172 35.9022C15.6892 35.8783 15.7492 35.8544 15.8212 35.8185C15.8212 35.7469 15.8212 35.6752 15.8212 35.6035C15.8212 35.1017 15.8212 34.5999 15.8212 34.0981C15.8212 33.895 15.8333 33.8831 16.0253 33.8831C16.5295 33.8831 17.0336 33.8831 17.5377 33.8831C17.5978 33.8831 17.6698 33.895 17.7538 33.907C17.7538 34.1578 17.7538 34.3849 17.7538 34.6238C17.7538 34.7074 17.7058 34.7433 17.6218 34.7433C17.4657 34.7433 17.3097 34.7433 17.1536 34.7433C17.0816 34.7433 17.0216 34.7433 16.9376 34.7433C16.9496 34.8389 16.9616 34.9105 16.9856 34.9942C17.2617 34.9942 17.5257 34.9942 17.8018 34.9942C17.8018 35.0898 17.8018 35.1734 17.8018 35.269C17.5738 35.269 17.3457 35.269 17.1056 35.269C17.1536 35.5318 17.3937 35.7708 17.6338 35.8066C17.6578 35.723 17.6818 35.6513 17.7058 35.5438C17.7898 35.5676 17.8739 35.6035 17.9699 35.6393C17.9339 35.7588 17.9219 35.8663 17.8859 35.9619C17.8138 36.165 17.6818 36.2128 17.4777 36.1292C17.2137 36.0097 17.0096 35.8185 16.8776 35.5676C16.8295 35.4601 16.7815 35.3645 16.7455 35.2809ZM16.1333 34.4326C16.3494 34.4326 16.5415 34.4326 16.7215 34.4326C16.9256 34.4326 17.1296 34.4326 17.3337 34.4326C17.4297 34.4326 17.4657 34.3848 17.4657 34.2893C17.4657 34.1937 17.4417 34.1578 17.3097 34.1578C16.9616 34.1578 16.6135 34.1578 16.2654 34.1578C16.2174 34.1578 16.1814 34.1817 16.1333 34.1937C16.1333 34.2773 16.1333 34.349 16.1333 34.4326ZM16.6735 34.9703C16.6495 34.8747 16.6375 34.803 16.6255 34.7433C16.4574 34.7433 16.3014 34.7433 16.1333 34.7433C16.1333 34.8269 16.1333 34.8986 16.1333 34.9703C16.3134 34.9703 16.4694 34.9703 16.6735 34.9703Z" fill="#191B20"/>
<path fill-rule="evenodd" clip-rule="evenodd" d="M15.0766 35.5437C15.0766 35.6393 15.0766 35.711 15.0766 35.8066C14.7646 35.8066 14.4765 35.8066 14.1644 35.8066C14.1524 35.9021 14.1524 35.9738 14.1404 36.0575C14.0443 36.0575 13.9603 36.0575 13.8763 36.0575C13.8643 35.9858 13.8643 35.9021 13.8523 35.8185C13.5522 35.8185 13.2521 35.8185 12.928 35.8185C12.928 35.7229 12.916 35.6512 12.916 35.5437C13.2401 35.5437 13.5402 35.5437 13.8403 35.5437C13.8643 35.4362 13.8163 35.4362 13.7563 35.4362C13.5762 35.4362 13.3962 35.4362 13.2281 35.4362C13.1561 35.4362 13.0961 35.4242 13.012 35.4242C13.012 35.3406 13.012 35.2689 13.012 35.2092C13.0841 35.1256 13.2761 35.257 13.2761 35.03C13.1561 35.018 13.0481 35.018 12.928 35.018C12.928 34.9344 12.928 34.8627 12.928 34.7552C13.0241 34.7552 13.1081 34.7552 13.1921 34.7552C13.2761 34.7552 13.2881 34.7074 13.2641 34.6238C13.1921 34.6118 13.1081 34.6118 13.012 34.5999C13.012 34.5162 13.012 34.4326 13.012 34.349C13.6602 34.349 14.3204 34.349 14.9806 34.349C14.9806 34.4326 14.9806 34.5162 14.9806 34.5999C14.8966 34.6118 14.8246 34.6118 14.7405 34.6238C14.7165 34.6954 14.7165 34.7552 14.8126 34.7552C14.8966 34.7552 14.9806 34.7671 15.0766 34.7671C15.0766 34.8627 15.0766 34.9344 15.0766 35.018C14.9566 35.03 14.8486 35.03 14.7526 35.0419C14.7406 35.1733 14.7406 35.1733 14.9686 35.2092C14.9686 35.2809 14.9686 35.3526 14.9686 35.4481C14.8966 35.4481 14.8126 35.4601 14.7405 35.4601C14.5845 35.4601 14.4285 35.4601 14.2724 35.4601C14.2364 35.4601 14.2004 35.484 14.1524 35.5198C14.2964 35.6035 14.4525 35.5676 14.5965 35.5676C14.7526 35.5557 14.8966 35.5437 15.0766 35.5437ZM14.1524 34.7193C14.3925 34.7671 14.4045 34.7671 14.4165 34.6118C14.3324 34.6118 14.2484 34.6118 14.1524 34.6118C14.1524 34.6596 14.1524 34.6835 14.1524 34.7193ZM13.5762 34.6118C13.5762 34.6596 13.5882 34.6954 13.5882 34.7313C13.8283 34.7552 13.8283 34.7552 13.8403 34.6118C13.7563 34.6118 13.6842 34.6118 13.5762 34.6118ZM14.4405 35.03C14.3324 35.03 14.2604 35.03 14.1644 35.03C14.1644 35.0778 14.1764 35.1136 14.1764 35.1733C14.2724 35.1375 14.4045 35.2331 14.4405 35.03ZM13.8403 35.03C13.7563 35.03 13.6722 35.03 13.6002 35.03C13.5522 35.1614 13.6362 35.1733 13.7203 35.1733C13.8043 35.1614 13.8883 35.1614 13.8403 35.03Z" fill="#191B20"/>
<path fill-rule="evenodd" clip-rule="evenodd" d="M27.9925 34.1578C28.0046 34.3967 27.9325 34.5879 27.7645 34.791C28.0166 34.791 28.2326 34.791 28.4487 34.791C28.5807 34.791 28.6887 34.8268 28.7608 34.9463C28.7008 35.2091 28.5807 35.46 28.3887 35.6632C28.5447 35.7946 28.7368 35.8065 28.9168 35.8902C28.8688 35.9738 28.8328 36.0574 28.7728 36.1649C28.5567 36.0694 28.3527 35.9857 28.1486 35.8902C28.0166 35.9618 27.8845 36.0335 27.7525 36.1052C27.7045 36.1291 27.6444 36.1649 27.5844 36.1052C27.5604 36.0813 27.5124 36.1052 27.4764 36.1052C27.2123 36.1052 26.9482 36.1052 26.6602 36.1052C26.6602 35.8065 26.6602 35.5198 26.6602 35.2091C26.9482 35.1972 27.2243 35.1972 27.5244 35.2091C27.5244 35.4242 27.5244 35.6154 27.5244 35.8185C27.6925 35.8185 27.8005 35.7348 27.9085 35.6632C27.8005 35.5078 27.7045 35.3645 27.6204 35.2211C27.7645 34.9821 27.6685 34.8029 27.5004 34.6476C27.5604 34.552 27.6444 34.4565 27.6805 34.3609C27.7165 34.2534 27.7045 34.1339 27.7165 34.0144C27.7165 33.9308 27.7525 33.871 27.8485 33.871C28.0646 33.871 28.2806 33.871 28.5087 33.871C28.5927 34.0741 28.5087 34.2772 28.5687 34.4804C28.7608 34.4923 28.6527 34.325 28.7368 34.2414C28.7968 34.2534 28.8568 34.2534 28.9408 34.2653C28.9408 34.3131 28.9528 34.3489 28.9528 34.3848C28.9408 34.7313 28.8928 34.7551 28.5567 34.779C28.4007 34.791 28.3046 34.6954 28.2926 34.5401C28.2926 34.4206 28.2926 34.3011 28.2926 34.1697C28.1726 34.1578 28.0886 34.1578 27.9925 34.1578ZM27.8845 35.0777C27.9565 35.245 28.0286 35.3764 28.1726 35.472C28.2806 35.3525 28.3767 35.245 28.4127 35.0777C28.2326 35.0777 28.0766 35.0777 27.8845 35.0777ZM26.9362 35.4839C26.9362 35.6154 26.9362 35.7229 26.9362 35.8185C27.0443 35.8185 27.1403 35.8185 27.2363 35.8185C27.2363 35.699 27.2363 35.5915 27.2363 35.4839C27.1283 35.4839 27.0323 35.4839 26.9362 35.4839Z" fill="#191B20"/>
<path fill-rule="evenodd" clip-rule="evenodd" d="M24.0076 34.5402C24.2956 34.5402 24.5717 34.5402 24.8478 34.5402C24.8478 34.4566 24.8478 34.4088 24.8478 34.3252C24.5357 34.3252 24.2356 34.3252 23.9355 34.3252C23.9355 34.2296 23.9355 34.1459 23.9355 34.0504C24.2356 34.0504 24.5357 34.0504 24.8358 34.0504C24.8598 33.9906 24.8718 33.9428 24.8958 33.8951C24.9799 33.8951 25.0519 33.8951 25.1479 33.8951C25.1599 33.9309 25.1719 33.9787 25.2079 34.0504C25.496 34.0504 25.8081 34.0504 26.1202 34.0504C26.1202 34.1579 26.1202 34.2296 26.1202 34.3371C25.8081 34.3371 25.508 34.3371 25.1959 34.3371C25.1959 34.4207 25.1959 34.4685 25.1959 34.5522C25.484 34.5522 25.7721 34.5522 26.0602 34.5522C26.0722 34.6119 26.0842 34.6597 26.0842 34.6955C26.0842 35.0181 26.0842 35.3407 26.0842 35.6513C26.0842 35.8664 26.0001 35.962 25.7841 35.9978C25.7361 36.0098 25.6881 36.0098 25.64 36.0098C25.544 36.0098 25.448 35.9978 25.34 35.9859C25.3279 35.8783 25.328 35.7828 25.3159 35.6633C25.412 35.6752 25.484 35.6872 25.556 35.6872C25.7121 35.6991 25.7721 35.6513 25.7721 35.496C25.7721 35.281 25.7721 35.0779 25.7721 34.8508C25.568 34.8508 25.388 34.8508 25.1839 34.8508C25.1839 35.2571 25.1839 35.6513 25.1839 36.0575C25.0759 36.0575 24.9919 36.0575 24.8718 36.0575C24.8718 35.6513 24.8718 35.2571 24.8718 34.8508C24.6798 34.8508 24.5117 34.8508 24.3077 34.8508C24.3077 35.1973 24.3077 35.5438 24.3077 35.9142C24.1996 35.9142 24.1036 35.9142 24.0076 35.9142C24.0076 35.4602 24.0076 35.0181 24.0076 34.5402Z" fill="#191B20"/>
<path fill-rule="evenodd" clip-rule="evenodd" d="M10.1328 34.1458C10.4689 34.1458 10.769 34.1458 11.0691 34.1458C11.0811 34.0622 11.0931 33.9905 11.1051 33.9188C11.2011 33.9188 11.2852 33.9188 11.3932 33.9188C11.4052 33.9905 11.4052 34.0502 11.4172 34.1458C11.7173 34.1458 12.0174 34.1458 12.3415 34.1577C12.3415 34.6237 12.3415 35.0777 12.3415 35.5436C12.0414 35.5914 11.7293 35.5317 11.4172 35.5795C11.4172 35.7468 11.4172 35.9021 11.4172 36.0693C11.3092 36.0693 11.2131 36.0693 11.0931 36.0693C11.0931 35.914 11.0931 35.7468 11.0931 35.5675C10.769 35.5675 10.4689 35.5675 10.1448 35.5675C10.1208 35.0777 10.1448 34.6356 10.1328 34.1458ZM11.4172 35.233C11.6332 35.245 11.8373 35.2569 12.0294 35.233C12.0654 34.9582 12.0654 34.6117 12.0174 34.4684C11.8253 34.4684 11.6333 34.4684 11.4292 34.4684C11.4172 34.7193 11.4172 34.9582 11.4172 35.233ZM11.0811 35.233C11.0811 34.9702 11.0811 34.7193 11.0811 34.4564C10.865 34.4445 10.673 34.4445 10.4569 34.4564C10.4569 34.7312 10.4449 34.9821 10.4689 35.233C10.673 35.233 10.865 35.233 11.0811 35.233Z" fill="#191B20"/>
<path fill-rule="evenodd" clip-rule="evenodd" d="M36.0229 33.7756C36.371 34.0145 36.7671 34.1459 37.1872 34.2176C37.1752 34.3371 37.1872 34.4327 37.0672 34.4924C37.0432 34.5044 37.0312 34.5761 37.0312 34.6119C37.0312 34.7792 37.0312 34.9345 37.0312 35.0898C36.8751 35.1376 35.4347 35.1495 35.0746 35.1137C35.0746 34.9584 35.0746 34.8031 35.0746 34.6358C35.0746 34.5641 35.0866 34.5044 34.9906 34.4566C34.9305 34.4207 34.9185 34.3132 34.8945 34.2176C35.2786 34.1221 35.6868 34.0504 36.0229 33.7756ZM35.2786 34.4088C35.5667 34.4566 36.575 34.4446 36.7311 34.3968C36.635 34.3729 36.563 34.3252 36.503 34.3371C36.2389 34.4207 35.9748 34.3491 35.7108 34.3729C35.6868 34.3729 35.6507 34.3729 35.6267 34.361C35.5067 34.2654 35.4107 34.361 35.2786 34.4088ZM35.6988 34.6955C35.7828 34.7672 35.7468 34.8986 35.8548 34.8747C35.9508 34.8628 35.9028 34.7672 35.8908 34.6955C35.8308 34.6955 35.7828 34.6955 35.6988 34.6955ZM35.4587 34.8747C35.4467 34.815 35.4347 34.7553 35.4347 34.6955C35.3507 34.6716 35.3387 34.7194 35.3387 34.7911C35.3267 34.8628 35.3627 34.8986 35.4587 34.8747ZM36.611 34.8747C36.6951 34.8986 36.7311 34.8747 36.7311 34.7911C36.7311 34.7194 36.7191 34.6716 36.635 34.6955C36.623 34.7553 36.611 34.815 36.611 34.8747ZM36.359 34.6955C36.2869 34.6955 36.2509 34.6955 36.1909 34.6836C36.1909 34.7553 36.2029 34.815 36.2029 34.8747C36.2149 34.8747 36.2389 34.8867 36.2509 34.8867C36.2869 34.827 36.3109 34.7672 36.359 34.6955Z" fill="#191B20"/>
<path fill-rule="evenodd" clip-rule="evenodd" d="M35.1953 36.0813C35.1953 35.7826 35.1953 35.5078 35.1953 35.2211C35.7595 35.2211 36.3116 35.2211 36.8758 35.2211C36.8758 35.5078 36.8758 35.7826 36.8758 36.0813C36.3116 36.0813 35.7715 36.0813 35.1953 36.0813ZM35.4594 35.8065C35.7715 35.8663 36.4677 35.8424 36.5637 35.7826C36.3837 35.7468 35.6514 35.7587 35.4594 35.8065ZM35.5314 35.4839C35.7955 35.5556 36.4197 35.5437 36.5757 35.472C36.2516 35.472 35.9635 35.472 35.6875 35.472C35.6394 35.472 35.5794 35.472 35.5314 35.4839Z" fill="#191B20"/>
<path fill-rule="evenodd" clip-rule="evenodd" d="M31.6543 36.7264C31.8704 36.7383 32.0744 36.7503 32.2785 36.7622C32.4225 36.7742 32.5186 36.8578 32.5186 37.0012C32.5306 37.3357 32.5306 37.6702 32.5186 37.9928C32.5186 38.1123 32.4345 38.184 32.3145 38.1959C32.0984 38.2079 31.8824 38.1959 31.6543 38.1959C31.6543 37.7061 31.6543 37.2401 31.6543 36.7264ZM32.0624 37.9809C32.1464 37.8255 32.1704 37.4193 32.1344 37.0848C32.1344 37.049 32.1104 37.0251 32.0864 36.9892C32.0744 36.9892 32.0624 36.9892 32.0504 37.0012C32.0624 37.3118 32.0624 37.6224 32.0624 37.9809Z" fill="#191B20"/>
<path fill-rule="evenodd" clip-rule="evenodd" d="M26.4688 36.7384C26.6008 36.7384 26.7088 36.7384 26.8289 36.7384C26.8289 36.7981 26.8409 36.8578 26.8409 36.9176C26.8409 37.2043 26.8409 37.4911 26.8409 37.7778C26.8409 37.8375 26.8529 37.9092 26.8529 37.9809C26.9609 37.9331 26.9369 37.8734 26.9369 37.8136C26.9369 37.5269 26.9369 37.2402 26.9369 36.9534C26.9369 36.8817 26.9369 36.822 26.9369 36.7384C27.0689 36.7384 27.177 36.7384 27.297 36.7384C27.309 36.7623 27.321 36.7862 27.321 36.8101C27.321 37.1446 27.321 37.4791 27.321 37.8136C27.321 37.9929 27.261 38.1362 27.0809 38.196C26.8889 38.2557 26.6968 38.2318 26.5528 38.0884C26.5048 38.0406 26.4688 37.969 26.4688 37.9092C26.4687 37.5389 26.4688 37.1446 26.4688 36.7384Z" fill="#191B20"/>
<path fill-rule="evenodd" clip-rule="evenodd" d="M10.9476 37.3715C10.7916 37.3715 10.6836 37.3715 10.5515 37.3715C10.5395 37.2401 10.5395 37.1087 10.5275 36.9773C10.4555 37.0729 10.4435 37.0729 10.4555 37.4671C10.4555 37.6344 10.4315 37.8017 10.4795 37.9928C10.5875 37.8733 10.5155 37.7419 10.5635 37.6105C10.6716 37.6105 10.7916 37.6105 10.9356 37.6105C10.9596 37.7897 10.9716 37.9689 10.8276 38.1123C10.6836 38.2437 10.5155 38.2557 10.3235 38.2079C10.1914 38.172 10.0954 38.0884 10.0834 37.957C10.0714 37.6463 10.0594 37.3476 10.0714 37.037C10.0834 36.8339 10.2514 36.7264 10.4795 36.7264C10.7316 36.7264 10.8756 36.822 10.9116 37.037C10.9476 37.1326 10.9476 37.2401 10.9476 37.3715Z" fill="#191B20"/>
<path fill-rule="evenodd" clip-rule="evenodd" d="M28.293 38.2199C28.293 37.7181 28.293 37.2402 28.293 36.7504C28.413 36.7504 28.521 36.7504 28.6411 36.7504C28.6531 36.8459 28.6531 36.9415 28.6651 37.0252C29.0372 36.9296 29.1092 36.9893 29.1092 37.3716C29.1092 37.5628 29.1092 37.7659 29.1092 37.9571C29.0972 38.1841 28.9652 38.2677 28.7491 38.1841C28.7131 38.1721 28.6771 38.1721 28.6411 38.1721C28.533 38.196 28.425 38.208 28.293 38.2199ZM28.7131 37.1924C28.6411 37.3836 28.6411 37.8615 28.7011 37.9929C28.7371 37.8495 28.7491 37.4433 28.7131 37.1924Z" fill="#191B20"/>
<path fill-rule="evenodd" clip-rule="evenodd" d="M36.1193 37.0014C36.1193 37.3957 36.1193 37.7541 36.1193 38.1125C36.1193 38.1723 36.0832 38.244 36.0472 38.2917C35.9272 38.4351 35.5311 38.459 35.3991 38.3276C35.351 38.2798 35.327 38.2081 35.291 38.1245C35.4591 38.1125 35.6031 38.0767 35.7351 38.2081C35.7351 38.1245 35.7471 38.0647 35.7471 38.005C35.6871 38.0289 35.6511 38.0408 35.6151 38.0528C35.4711 38.0886 35.339 38.0169 35.327 37.8736C35.303 37.6346 35.315 37.3837 35.327 37.1448C35.339 37.0253 35.4591 36.9417 35.5671 36.9775C35.6871 37.0373 35.7952 36.9895 35.9152 36.9895C35.9752 37.0014 36.0352 37.0014 36.1193 37.0014ZM35.7351 37.8258C35.7351 37.6227 35.7351 37.4196 35.7351 37.1926C35.6631 37.3359 35.6511 37.6585 35.7351 37.8258Z" fill="#191B20"/>
<path fill-rule="evenodd" clip-rule="evenodd" d="M11.5239 36.7503C11.5359 36.8459 11.5359 36.9295 11.5479 37.0132C11.932 36.9415 12.016 37.0132 12.016 37.4074C12.016 37.6703 12.016 37.9212 12.016 38.196C11.896 38.196 11.788 38.196 11.6559 38.196C11.6559 38.1482 11.6439 38.1004 11.6439 38.0526C11.6439 37.8375 11.6439 37.6225 11.6439 37.3955C11.6439 37.3357 11.6319 37.2641 11.6199 37.1685C11.4999 37.288 11.5479 37.4074 11.5359 37.503C11.5239 37.6225 11.5359 37.73 11.5359 37.8495C11.5359 37.957 11.5359 38.0645 11.5359 38.184C11.4159 38.184 11.2958 38.184 11.1758 38.184C11.1758 37.7061 11.1758 37.2402 11.1758 36.7384C11.2838 36.7503 11.3918 36.7503 11.5239 36.7503Z" fill="#191B20"/>
<path fill-rule="evenodd" clip-rule="evenodd" d="M31.1742 38.1961C31.0422 38.1961 30.9342 38.1961 30.8021 38.1961C30.8021 38.0169 30.8021 37.8497 30.8021 37.6824C30.7901 37.5271 30.8381 37.3598 30.7301 37.2045C30.7181 37.2523 30.6941 37.3001 30.6941 37.3359C30.6941 37.551 30.6941 37.766 30.6941 37.993C30.6941 38.0647 30.6821 38.1245 30.6821 38.1961C30.562 38.1961 30.454 38.1961 30.334 38.1961C30.334 37.8138 30.334 37.4196 30.334 37.0133C30.394 37.0133 30.466 37.0014 30.526 37.0014C30.6461 37.0014 30.7661 37.0492 30.8982 36.9894C30.9942 36.9417 31.1022 37.0253 31.1382 37.1209C31.1502 37.1567 31.1622 37.2045 31.1622 37.2403C31.1742 37.551 31.1742 37.8616 31.1742 38.1961Z" fill="#191B20"/>
<path fill-rule="evenodd" clip-rule="evenodd" d="M13.1804 38.196C13.0484 38.196 12.9403 38.196 12.8203 38.196C12.8203 37.8018 12.8203 37.4195 12.8203 37.0013C12.9043 37.0013 12.9884 37.0013 13.0604 37.0013C13.1684 37.0132 13.2644 37.0252 13.3725 36.9894C13.4805 36.9416 13.5885 37.0252 13.6365 37.1327C13.6486 37.1566 13.6606 37.1805 13.6606 37.2164C13.6606 37.5389 13.6606 37.8615 13.6606 38.196C13.5405 38.196 13.4325 38.196 13.3125 38.196C13.3125 38.1483 13.3005 38.0885 13.3005 38.0407C13.3005 37.8137 13.3005 37.5867 13.3005 37.3717C13.3005 37.3119 13.2885 37.2641 13.2524 37.2044C13.1684 37.3597 13.2044 37.527 13.2044 37.6943C13.1804 37.8496 13.1804 38.0168 13.1804 38.196Z" fill="#191B20"/>
<path fill-rule="evenodd" clip-rule="evenodd" d="M36.7322 38.1961C36.6001 38.1961 36.4921 38.1961 36.3961 38.1961C36.3481 38.0527 36.3361 37.2761 36.3841 37.0013C36.4561 37.0013 36.5401 37.0013 36.6241 37.0013C36.7202 37.0013 36.8162 37.0372 36.9122 36.9894C37.0203 36.9416 37.2003 37.0491 37.2003 37.2044C37.2003 37.527 37.2003 37.8616 37.2003 38.1961C37.0803 38.1961 36.9723 38.1961 36.8402 38.1961C36.8162 37.8616 36.8522 37.539 36.7922 37.2164C36.6962 37.3717 36.7442 37.539 36.7322 37.6943C36.7202 37.8496 36.7322 38.0169 36.7322 38.1961Z" fill="#191B20"/>
<path fill-rule="evenodd" clip-rule="evenodd" d="M18.5587 38.196C18.4267 38.196 18.3186 38.196 18.1866 38.196C18.1626 37.8615 18.1986 37.5389 18.1506 37.2044C18.0546 37.288 18.0906 37.4075 18.0906 37.5031C18.0786 37.6226 18.0906 37.7301 18.0906 37.8496C18.0906 37.9571 18.0906 38.0646 18.0906 38.1841C17.9585 38.1841 17.8505 38.1841 17.7305 38.1841C17.7305 37.7898 17.7305 37.4075 17.7305 37.0013C17.8265 37.0013 17.9105 36.9893 17.9945 37.0013C18.0906 37.0252 18.1746 37.0132 18.2586 36.9774C18.4027 36.9296 18.5347 37.0252 18.5467 37.1805C18.5587 37.3358 18.5587 37.4911 18.5587 37.6465C18.5587 37.8376 18.5587 38.0049 18.5587 38.196Z" fill="#191B20"/>
<path fill-rule="evenodd" clip-rule="evenodd" d="M22.0398 38.005C22.0638 37.6824 22.0398 37.3598 22.0518 37.0253C22.1719 37.0253 22.2799 37.0253 22.4119 37.0253C22.4119 37.4076 22.4119 37.79 22.4119 38.1962C22.3519 38.1962 22.2799 38.2081 22.2199 38.2081C22.0998 38.2081 21.9918 38.1723 21.8718 38.2201C21.7517 38.2679 21.6317 38.1723 21.6077 38.0289C21.5957 37.9214 21.5957 37.8138 21.5957 37.7063C21.5957 37.4793 21.5957 37.2523 21.5957 37.0134C21.7157 37.0134 21.8358 37.0134 21.9678 37.0134C21.9678 37.3359 21.9678 37.6705 21.9678 37.9931C21.9798 38.005 22.0038 38.005 22.0398 38.005Z" fill="#191B20"/>
<path fill-rule="evenodd" clip-rule="evenodd" d="M30.9455 34.7672C30.7895 34.7552 30.6694 34.7552 30.5254 34.7433C30.5254 34.6477 30.5254 34.576 30.5254 34.4804C30.6574 34.4685 30.7895 34.4685 30.9335 34.4565C30.9335 34.2654 30.9335 34.0862 30.9335 33.8831C31.0295 33.8831 31.1136 33.8831 31.2096 33.8831C31.2096 34.0623 31.2096 34.2415 31.2096 34.4446C31.3536 34.4565 31.4737 34.4685 31.6057 34.4804C31.6057 34.5641 31.6057 34.6477 31.6057 34.7433C31.4857 34.7552 31.3656 34.7552 31.2336 34.7672C31.2336 35.1973 31.2336 35.6154 31.2336 36.0575C31.1256 36.0575 31.0415 36.0575 30.9455 36.0575C30.9455 35.6274 30.9455 35.2092 30.9455 34.7672Z" fill="#191B20"/>
<path fill-rule="evenodd" clip-rule="evenodd" d="M25.3649 37.5986C25.3649 37.6942 25.3769 37.7898 25.3649 37.8854C25.3529 38.0765 25.2568 38.1841 25.0648 38.2199C24.7767 38.2677 24.5606 38.1841 24.5606 37.8615C24.5486 37.6703 24.5486 37.4792 24.5726 37.288C24.5966 37.0729 24.7527 36.9654 24.9807 36.9774C25.2208 36.9893 25.3529 37.1088 25.3649 37.3358C25.3769 37.4314 25.3649 37.515 25.3649 37.5986ZM24.9807 37.2163C24.8967 37.4075 24.8967 37.8734 24.9807 38.0168C24.9807 37.7301 24.9807 37.4792 24.9807 37.2163Z" fill="#191B20"/>
<path fill-rule="evenodd" clip-rule="evenodd" d="M24.0931 37.6346C23.925 37.6346 23.793 37.6346 23.6489 37.6346C23.6489 37.766 23.6489 37.8855 23.6489 38.0288C23.769 37.9333 23.6849 37.8138 23.757 37.7182C23.853 37.7182 23.961 37.7182 24.081 37.7182C24.1051 37.8974 24.081 38.0527 23.925 38.1603C23.757 38.2678 23.5889 38.2559 23.4209 38.1603C23.3248 38.1125 23.2768 38.0169 23.2768 37.9094C23.2768 37.7063 23.2648 37.5032 23.2768 37.3001C23.2888 37.0969 23.4209 36.9894 23.6369 36.9775C23.841 36.9655 24.009 37.0611 24.057 37.2403C24.0811 37.3598 24.0811 37.4793 24.0931 37.6346ZM23.6489 37.4315C23.7209 37.3478 23.7329 37.2762 23.6489 37.1806C23.6489 37.2881 23.6489 37.3598 23.6489 37.4315Z" fill="#191B20"/>
<path fill-rule="evenodd" clip-rule="evenodd" d="M16.6614 37.6346C16.4934 37.6346 16.3613 37.6346 16.2173 37.6346C16.2173 37.766 16.2173 37.8855 16.2173 38.0288C16.3373 37.9333 16.2533 37.8138 16.3253 37.7182C16.4213 37.7182 16.5294 37.7182 16.6494 37.7182C16.6734 37.8974 16.6494 38.0527 16.4934 38.1603C16.3253 38.2678 16.1573 38.2559 15.9892 38.1603C15.8932 38.1125 15.8452 38.0169 15.8452 37.9094C15.8452 37.7063 15.8332 37.5032 15.8452 37.3001C15.8572 37.0969 15.9892 36.9894 16.2053 36.9775C16.4093 36.9655 16.5774 37.0611 16.6254 37.2403C16.6494 37.3598 16.6494 37.4793 16.6614 37.6346ZM16.2173 37.4315C16.2293 37.4315 16.2413 37.4315 16.2653 37.4315C16.2773 37.3598 16.3133 37.2881 16.2173 37.1925C16.2173 37.2881 16.2173 37.3598 16.2173 37.4315Z" fill="#191B20"/>
<path fill-rule="evenodd" clip-rule="evenodd" d="M14.6807 37.6345C14.5246 37.6345 14.3926 37.6345 14.2485 37.6345C14.2485 37.7659 14.2485 37.8854 14.2485 38.0288C14.3686 37.9332 14.2966 37.8137 14.3566 37.7181C14.4526 37.7181 14.5606 37.7181 14.6807 37.7181C14.7047 37.8973 14.6807 38.0526 14.5246 38.1602C14.3566 38.2677 14.1885 38.2558 14.0205 38.1602C13.9244 38.1124 13.8764 38.0168 13.8764 37.9093C13.8764 37.7062 13.8644 37.5031 13.8764 37.3C13.8884 37.0968 14.0205 36.9893 14.2365 36.9774C14.4406 36.9654 14.6086 37.073 14.6567 37.2522C14.6687 37.3 14.6807 37.3477 14.6807 37.3955C14.6807 37.4672 14.6807 37.527 14.6807 37.6345ZM14.2485 37.4314C14.2605 37.4314 14.2725 37.4314 14.2966 37.4314C14.3206 37.3597 14.3446 37.2761 14.2485 37.1924C14.2485 37.288 14.2485 37.3597 14.2485 37.4314Z" fill="#191B20"/>
<path fill-rule="evenodd" clip-rule="evenodd" d="M29.7457 37.4552C29.7577 37.3596 29.7817 37.276 29.6977 37.1685C29.6857 37.288 29.6737 37.3596 29.6617 37.4552C29.5657 37.4552 29.4696 37.4552 29.3616 37.4552C29.3376 37.288 29.3376 37.1326 29.5057 37.0371C29.6737 36.9415 29.8538 36.9415 30.0098 37.049C30.0698 37.0848 30.1178 37.1685 30.1298 37.2282C30.1418 37.5508 30.1298 37.8614 30.1298 38.196C30.0338 38.196 29.9498 38.2079 29.8538 38.196C29.7697 38.184 29.7097 38.184 29.6257 38.2079C29.4936 38.2557 29.3736 38.1721 29.3616 38.0406C29.3496 37.957 29.3496 37.8614 29.3496 37.7778C29.3496 37.6822 29.3976 37.6225 29.4816 37.5866C29.5657 37.5508 29.6497 37.503 29.7457 37.4552ZM29.7337 38.0048C29.7337 37.8973 29.7337 37.8017 29.7337 37.6703C29.6377 37.7897 29.6497 37.8973 29.7337 38.0048Z" fill="#191B20"/>
<path fill-rule="evenodd" clip-rule="evenodd" d="M33.2638 37.7181C33.3598 37.7181 33.4558 37.7181 33.5519 37.7181C33.6359 37.9809 33.5399 38.1601 33.2998 38.2199C33.0357 38.2796 32.8076 38.1601 32.7836 37.9092C32.7596 37.7061 32.7596 37.503 32.7836 37.2999C32.8076 37.0849 32.9637 36.9773 33.1798 36.9773C33.4078 36.9893 33.5519 37.1087 33.5759 37.3357C33.5879 37.4313 33.5759 37.5269 33.5759 37.6225C33.4318 37.6344 33.2998 37.6344 33.1557 37.6464C33.1557 37.7778 33.1557 37.8853 33.1557 38.0407C33.2758 37.9331 33.2038 37.8256 33.2638 37.7181ZM33.1918 37.4313C33.1918 37.3596 33.1918 37.288 33.1918 37.1685C33.1077 37.288 33.1197 37.3596 33.1918 37.4313Z" fill="#191B20"/>
<path fill-rule="evenodd" clip-rule="evenodd" d="M29.3984 36.0933C29.3984 35.7946 29.3984 35.5078 29.3984 35.2211C29.7585 35.2211 30.0946 35.2211 30.4667 35.2211C30.4787 35.5078 30.4908 35.7946 30.4547 36.0933C30.1066 36.0933 29.7705 36.0933 29.3984 36.0933ZM30.1907 35.472C29.9986 35.4839 29.8426 35.4481 29.6745 35.4959C29.6745 35.6154 29.6745 35.7109 29.6745 35.8185C29.8546 35.8185 30.0226 35.8185 30.1907 35.8185C30.1907 35.699 30.1907 35.6034 30.1907 35.472Z" fill="#191B20"/>
<path fill-rule="evenodd" clip-rule="evenodd" d="M15.6545 37.3716C15.5345 37.3716 15.4145 37.3716 15.2824 37.3716C15.2704 37.3119 15.2584 37.2522 15.2464 37.1924C15.2224 37.2044 15.1864 37.2044 15.1864 37.2163C15.1504 37.2999 15.1744 37.3716 15.2704 37.4194C15.3545 37.4553 15.4385 37.503 15.5225 37.5508C15.6785 37.6345 15.6905 37.7778 15.6665 37.9451C15.6425 38.1004 15.5825 38.1721 15.4265 38.2079C15.3545 38.2199 15.2824 38.2318 15.1984 38.2199C14.9823 38.196 14.8023 38.1243 14.8503 37.7898C14.9583 37.7898 15.0544 37.7778 15.1744 37.7659C15.1504 37.6823 15.0784 37.6703 15.0304 37.6464C14.8143 37.5389 14.8263 37.3597 14.8623 37.1685C14.8623 37.1446 14.8743 37.1327 14.8863 37.1088C14.9703 36.9774 15.2344 36.9296 15.4505 37.0013C15.6185 37.0729 15.6665 37.1566 15.6545 37.3716ZM15.2704 38.0048C15.2824 38.0048 15.3064 38.0048 15.3184 38.0048C15.3424 37.8734 15.3424 37.8734 15.2584 37.8017C15.2584 37.8734 15.2704 37.9451 15.2704 38.0048Z" fill="#191B20"/>
<path fill-rule="evenodd" clip-rule="evenodd" d="M34.1263 37.8019C34.0662 37.7541 34.0062 37.6943 33.9462 37.6585C33.8502 37.5987 33.7782 37.5271 33.7542 37.4076C33.7181 37.1925 33.8022 37.0372 34.0182 37.0014C34.1023 36.9894 34.1983 36.9775 34.2823 37.0014C34.5104 37.0372 34.5704 37.1209 34.5584 37.3837C34.4984 37.3837 34.4384 37.3956 34.3783 37.3956C34.3183 37.3956 34.2703 37.3956 34.2103 37.3956C34.1863 37.324 34.1743 37.2642 34.1383 37.1806C34.1023 37.2284 34.0783 37.2642 34.0783 37.2762C34.0903 37.324 34.1143 37.3837 34.1503 37.4076C34.2343 37.4673 34.3303 37.5032 34.4143 37.551C34.5224 37.6107 34.5824 37.7063 34.5944 37.8258C34.6064 38.0528 34.5104 38.1842 34.2943 38.2081C34.1743 38.22 34.0422 38.2081 33.9342 38.1722C33.7662 38.1125 33.7422 37.9572 33.7542 37.778C33.8742 37.7899 34.0062 37.7899 34.1263 37.8019C34.1503 37.8735 34.1743 37.9333 34.1983 38.0408C34.2823 37.8496 34.2703 37.8258 34.1263 37.8019Z" fill="#191B20"/>
<path fill-rule="evenodd" clip-rule="evenodd" d="M19.0991 37.8019C19.039 37.7541 18.979 37.6943 18.919 37.6585C18.823 37.5987 18.751 37.5271 18.727 37.4076C18.6789 37.1925 18.775 37.0372 18.991 37.0014C19.0751 36.9894 19.1711 36.9775 19.2551 37.0014C19.4832 37.0372 19.5432 37.1209 19.5312 37.3837C19.4232 37.3837 19.3031 37.3837 19.1831 37.3837C19.1711 37.3359 19.1471 37.2762 19.1231 37.1806C19.0871 37.2284 19.0631 37.2642 19.0631 37.2762C19.0751 37.324 19.0991 37.3837 19.1351 37.4076C19.2071 37.4673 19.3031 37.5032 19.3872 37.539C19.4952 37.5868 19.5552 37.6704 19.5792 37.7899C19.6152 38.0169 19.5072 38.1842 19.2791 38.2081C19.1591 38.22 19.027 38.2081 18.919 38.1722C18.751 38.1125 18.727 37.9572 18.739 37.778C18.859 37.7899 18.979 37.7899 19.0991 37.8019C19.1231 37.8616 19.1471 37.9452 19.1711 38.0408C19.2551 37.8496 19.2551 37.8258 19.0991 37.8019Z" fill="#191B20"/>
<path fill-rule="evenodd" clip-rule="evenodd" d="M15.0766 33.9548C15.0766 34.0503 15.0766 34.1101 15.0766 34.1937C14.9926 34.1937 14.9206 34.2057 14.8486 34.2057C14.7526 34.2176 14.6565 34.1937 14.5485 34.2535C14.5005 34.2893 14.4045 34.2773 14.3324 34.2535C14.0804 34.1818 13.9243 34.1818 13.6842 34.2535C13.6242 34.2773 13.5282 34.2893 13.4802 34.2535C13.3361 34.1698 13.1801 34.2057 13.0241 34.1937C12.988 34.1937 12.952 34.1818 12.916 34.1818C12.916 34.0981 12.916 34.0264 12.916 33.9428C12.976 33.9428 13.0481 33.9428 13.1081 33.9309C13.2281 33.9189 13.3481 33.9548 13.4562 33.8711C13.5042 33.8353 13.6002 33.8472 13.6722 33.8711C13.9003 33.9428 14.0804 33.9428 14.3204 33.8711C14.3804 33.8472 14.4765 33.8353 14.5245 33.8711C14.6565 33.9548 14.8006 33.9189 14.9446 33.9309C14.9806 33.9428 15.0286 33.9548 15.0766 33.9548Z" fill="#191B20"/>
<path fill-rule="evenodd" clip-rule="evenodd" d="M17.515 38.196C17.3709 38.196 17.2509 38.196 17.1309 38.196C17.1309 37.7181 17.1309 37.2402 17.1309 36.7504C17.2509 36.7504 17.3709 36.7504 17.515 36.7504C17.515 37.2283 17.515 37.7062 17.515 38.196Z" fill="#191B20"/>
<path fill-rule="evenodd" clip-rule="evenodd" d="M25.9283 38.196C25.8083 38.196 25.7002 38.196 25.5802 38.196C25.5802 38.1482 25.5682 38.0885 25.5682 38.0407C25.5682 37.8256 25.5682 37.6106 25.5682 37.3955C25.5682 37.3358 25.5802 37.2761 25.5562 37.2402C25.5082 37.1566 25.5322 37.0849 25.5682 37.0013C25.6642 36.7743 25.6762 36.7504 25.9283 36.7504C25.9523 36.7504 25.9763 36.7504 26.0003 36.7623C26.0963 36.8937 25.9763 36.9415 25.8923 36.9893C26.0363 37.0849 26.0363 37.0849 25.9643 37.2641C25.9523 37.3 25.9523 37.3597 25.9523 37.4075C25.9523 37.6106 25.9523 37.8137 25.9523 38.0168C25.9403 38.0526 25.9403 38.1243 25.9283 38.196Z" fill="#191B20"/>
<path fill-rule="evenodd" clip-rule="evenodd" d="M19.7582 36.8459C19.8662 36.8459 19.9622 36.8459 20.0703 36.8459C20.1183 36.9056 20.0703 37.0131 20.1903 37.037C20.2503 37.049 20.2503 37.1684 20.1783 37.2043C20.1183 37.2282 20.0943 37.264 20.1063 37.3238C20.1063 37.5149 20.1063 37.7061 20.1063 37.8972C20.1063 37.945 20.1423 37.9928 20.1783 38.0287C20.2263 38.0884 20.2383 38.0764 20.2263 38.1959L20.2143 38.2079C19.8062 38.2557 19.7462 38.1959 19.7462 37.8017C19.7462 37.6702 19.7462 37.5388 19.7462 37.4193C19.7462 37.3835 19.7582 37.3476 19.7462 37.3238C19.6261 37.1445 19.6861 37.0012 19.7582 36.8459Z" fill="#191B20"/>
<path fill-rule="evenodd" clip-rule="evenodd" d="M23.1682 38.2079C23.0242 38.2079 22.9522 38.2079 22.8681 38.2079C22.6881 38.196 22.6281 38.1362 22.6161 37.957C22.6041 37.7898 22.6161 37.6105 22.6161 37.4433C22.6161 37.3596 22.568 37.276 22.5801 37.1924C22.5801 37.0849 22.6161 36.9773 22.6281 36.8578C22.7481 36.8578 22.8441 36.8578 22.9522 36.8578C23.0242 36.8937 22.9522 37.0132 23.0722 37.0371C23.1322 37.049 23.1322 37.1804 23.0722 37.2043C22.9882 37.2402 22.9882 37.2999 22.9882 37.3596C22.9882 37.5269 22.9882 37.6942 22.9882 37.8734C22.9882 37.9451 23.0002 38.0048 23.0842 38.0407C23.1202 38.0407 23.1322 38.1243 23.1682 38.2079Z" fill="#191B20"/>
<path fill-rule="evenodd" clip-rule="evenodd" d="M21.3066 37.9809C21.3906 38.0287 21.4986 38.0526 21.4386 38.184C21.4266 38.1959 21.4146 38.1959 21.4026 38.1959C20.9825 38.2318 20.9345 38.184 20.9345 37.7539C20.9345 37.6344 20.9345 37.503 20.9345 37.3835C20.9345 37.3596 20.9465 37.3238 20.9345 37.2999C20.8625 37.1445 20.8985 37.0012 20.9585 36.8459C21.0545 36.8459 21.1626 36.8459 21.2826 36.8459C21.3426 36.8817 21.2826 36.9892 21.3906 37.0251C21.4506 37.037 21.4506 37.1445 21.3666 37.2043C21.3306 37.2282 21.3066 37.276 21.3066 37.3118C21.3066 37.5388 21.3066 37.7539 21.3066 37.9809Z" fill="#191B20"/>
<path fill-rule="evenodd" clip-rule="evenodd" d="M27.5488 37.0132C27.6929 37.0252 27.8369 36.9535 27.9449 37.0849C27.993 37.061 28.053 37.0252 28.137 36.9893C28.137 37.1327 28.137 37.2641 28.137 37.3956C27.9329 37.4075 27.9089 37.5628 27.9209 37.742C27.9329 37.8854 27.9209 38.0407 27.9209 38.196C27.7889 38.196 27.6809 38.196 27.5608 38.196C27.5488 37.8018 27.5488 37.4195 27.5488 37.0132Z" fill="#191B20"/>
<path fill-rule="evenodd" clip-rule="evenodd" d="M12.5805 37.0134C12.5805 37.4076 12.5805 37.79 12.5805 38.1842C12.4605 38.1842 12.3525 38.1842 12.2324 38.1842C12.2324 37.79 12.2324 37.4076 12.2324 37.0134C12.3405 37.0134 12.4605 37.0134 12.5805 37.0134Z" fill="#191B20"/>
<path fill-rule="evenodd" clip-rule="evenodd" d="M35.0883 37.0134C35.0883 37.4076 35.0883 37.79 35.0883 38.1962C34.9683 38.1962 34.8602 38.1962 34.7642 38.1962C34.7282 38.0528 34.7162 37.2523 34.7522 37.0134C34.8482 37.0134 34.9563 37.0134 35.0883 37.0134Z" fill="#191B20"/>
<path fill-rule="evenodd" clip-rule="evenodd" d="M20.7192 38.1959C20.5992 38.1959 20.4911 38.1959 20.3711 38.1959C20.3711 37.8017 20.3711 37.4194 20.3711 37.0251C20.4791 37.0251 20.5872 37.0251 20.7192 37.0251C20.7192 37.4074 20.7192 37.7897 20.7192 38.1959Z" fill="#191B20"/>
<path fill-rule="evenodd" clip-rule="evenodd" d="M29.3984 34.4804C29.3984 34.3848 29.3984 34.3131 29.3984 34.2295C29.7585 34.2295 30.1066 34.2295 30.4788 34.2295C30.4788 34.3012 30.4908 34.3729 30.4908 34.4804C30.1186 34.4923 29.7585 34.4923 29.3984 34.4804Z" fill="#191B20"/>
<path fill-rule="evenodd" clip-rule="evenodd" d="M26.6484 34.4564C26.6484 34.3728 26.6484 34.3011 26.6484 34.2055C26.9365 34.1816 27.2246 34.1936 27.5247 34.2055C27.5247 34.3011 27.5247 34.3728 27.5247 34.4564C27.2366 34.4564 26.9485 34.4564 26.6484 34.4564Z" fill="#191B20"/>
<path fill-rule="evenodd" clip-rule="evenodd" d="M30.3581 33.8831C30.3581 33.9667 30.3581 34.0503 30.3581 34.134C30.07 34.134 29.7939 34.134 29.5059 34.134C29.5059 34.0503 29.5059 33.9667 29.5059 33.8831C29.7939 33.8831 30.07 33.8831 30.3581 33.8831Z" fill="#191B20"/>
<path fill-rule="evenodd" clip-rule="evenodd" d="M30.3701 35.1256C30.07 35.1256 29.7939 35.1256 29.5059 35.1256C29.5059 35.042 29.5059 34.9703 29.5059 34.8867C29.7819 34.8867 30.058 34.8867 30.3581 34.8867C30.3581 34.9583 30.3581 35.03 30.3701 35.1256Z" fill="#191B20"/>
<path fill-rule="evenodd" clip-rule="evenodd" d="M30.3701 34.5519C30.3701 34.6475 30.3581 34.7192 30.3581 34.7909C30.07 34.7909 29.7939 34.7909 29.5059 34.7909C29.5059 34.7073 29.5059 34.6356 29.5059 34.5519C29.7939 34.5519 30.07 34.5519 30.3701 34.5519Z" fill="#191B20"/>
<path fill-rule="evenodd" clip-rule="evenodd" d="M26.7324 35.1256C26.7324 35.042 26.7324 34.9822 26.7324 34.8867C26.9605 34.8628 27.1886 34.8747 27.4166 34.8747C27.4166 34.9584 27.4166 35.03 27.4166 35.1137C27.2006 35.1256 26.9845 35.1256 26.7324 35.1256Z" fill="#191B20"/>
<path fill-rule="evenodd" clip-rule="evenodd" d="M26.7324 34.791C26.7324 34.7074 26.7324 34.6477 26.7324 34.5521C26.9605 34.5163 27.1886 34.5282 27.4286 34.5401C27.4286 34.6238 27.4286 34.6955 27.4286 34.7791C27.2006 34.791 26.9845 34.791 26.7324 34.791Z" fill="#191B20"/>
<path fill-rule="evenodd" clip-rule="evenodd" d="M27.4289 33.8951C27.4289 33.9907 27.4289 34.0623 27.4289 34.146C27.3089 34.146 27.2008 34.146 27.0808 34.146C26.9728 34.146 26.8647 34.146 26.7327 34.146C26.7327 34.0623 26.7207 33.9907 26.7207 33.8951C26.9608 33.8712 27.1888 33.8831 27.4289 33.8951Z" fill="#191B20"/>
<path fill-rule="evenodd" clip-rule="evenodd" d="M20.7195 36.7504C20.7195 36.8101 20.7195 36.8579 20.7195 36.9176C20.5994 36.9176 20.4914 36.9176 20.3714 36.9176C20.3714 36.8698 20.3594 36.8101 20.3594 36.7504C20.4794 36.7504 20.5874 36.7504 20.7195 36.7504Z" fill="#191B20"/>
<path fill-rule="evenodd" clip-rule="evenodd" d="M35.0864 36.7504C35.0864 36.8101 35.0864 36.8579 35.0864 36.9176C34.9663 36.9176 34.8583 36.9176 34.7383 36.9176C34.7383 36.8579 34.7383 36.8101 34.7383 36.7504C34.8463 36.7504 34.9663 36.7504 35.0864 36.7504Z" fill="#191B20"/>
<path fill-rule="evenodd" clip-rule="evenodd" d="M12.5808 36.7504C12.5808 36.8101 12.5808 36.8579 12.5808 36.9176C12.4728 36.9176 12.3527 36.9176 12.2327 36.9176C12.2327 36.8698 12.2207 36.8221 12.2207 36.7504C12.3407 36.7504 12.4488 36.7504 12.5808 36.7504Z" fill="#191B20"/>
</svg>
