<svg width="48" height="48" viewBox="0 0 48 48" fill="none" xmlns="http://www.w3.org/2000/svg">
<path d="M23.1721 33.1902H23.7602V32.9154C23.7602 32.9034 23.7722 32.8915 23.7842 32.8915C23.8683 32.8915 23.9163 32.9034 23.9163 32.9154C23.9163 32.9273 23.9163 32.9393 23.9043 32.9393C23.8923 32.9393 23.8923 32.9512 23.8923 32.9751V33.1902H24.4444C24.4684 33.1902 24.4804 33.2021 24.4804 33.2141V33.9548C24.4804 33.9668 24.4684 33.9787 24.4444 33.9787H24.3844C24.3604 33.9787 24.3604 33.9668 24.3604 33.9548V33.8353H23.9043V34.361C23.9043 34.373 23.8923 34.373 23.8683 34.373H23.8082C23.7962 34.373 23.7842 34.361 23.7842 34.361V33.8353H23.2921V33.9548C23.2921 33.9668 23.2801 33.9668 23.2561 33.9668H23.1961C23.1841 33.9668 23.1721 33.9668 23.1721 33.9548V33.226C23.1481 33.2021 23.1601 33.1902 23.1721 33.1902ZM23.2681 33.7159H23.7602V33.3096H23.2681V33.7159ZM23.8803 33.7159H24.3364V33.3096H23.8803V33.7159Z" fill="#191B20"/>
<path d="M25.5249 33.2618H26.7132C26.7252 33.2618 26.7252 33.2737 26.7252 33.2857V33.3335C26.7252 33.3454 26.7252 33.3574 26.7132 33.3574H26.5212V33.5605H26.8333C26.8453 33.5605 26.8453 33.5724 26.8453 33.5844V33.6321C26.8453 33.6441 26.8453 33.656 26.8333 33.656H26.5212V33.8591H26.8093C26.8213 33.8591 26.8213 33.8591 26.8213 33.8711V33.9189C26.8213 33.9308 26.8213 33.9428 26.8093 33.9428H26.1731V34.0862H26.7132C26.7252 34.0862 26.7252 34.0981 26.7252 34.0981V34.1459C26.7252 34.1578 26.7252 34.1698 26.7132 34.1698H26.1731V34.349C26.1731 34.3609 26.1611 34.3729 26.1491 34.3729H26.0891C26.0771 34.3729 26.0651 34.3729 26.0651 34.349V34.1698H25.5369C25.5249 34.1698 25.5249 34.1578 25.5249 34.1459V34.11C25.5249 34.0981 25.5249 34.0981 25.5369 34.0981H26.0651V33.9547H25.4169C25.4049 33.9547 25.4049 33.9428 25.4049 33.9308V33.8711C25.4049 33.8591 25.4049 33.8591 25.4169 33.8591H25.7169V33.656H25.3929C25.3809 33.656 25.3809 33.6441 25.3809 33.6321V33.5844C25.3809 33.5724 25.3809 33.5605 25.3929 33.5605H25.7169V33.3574H25.5249C25.5129 33.3574 25.5129 33.3454 25.5129 33.3335V33.2857C25.5129 33.2737 25.5129 33.2618 25.5249 33.2618ZM25.4049 33.0109H25.813V32.9034C25.813 32.8914 25.825 32.8795 25.837 32.8795C25.921 32.8795 25.957 32.8795 25.957 32.9034C25.957 32.9153 25.957 32.9272 25.945 32.9272C25.933 32.9272 25.933 32.9392 25.933 32.9631V33.0109H26.3051V32.9034C26.3051 32.8914 26.3171 32.8795 26.3291 32.8795C26.4131 32.8795 26.4492 32.8795 26.4492 32.9034C26.4492 32.9153 26.4492 32.9272 26.4372 32.9272C26.4252 32.9272 26.4252 32.9392 26.4252 32.9631V33.0109H26.8333C26.8453 33.0109 26.8453 33.0228 26.8453 33.0348V33.0826C26.8453 33.0945 26.8453 33.1065 26.8333 33.1065H26.4252V33.202C26.4252 33.214 26.4132 33.2259 26.4012 33.2259H26.3411C26.3291 33.2259 26.3171 33.2259 26.3171 33.202V33.1065H25.945V33.202C25.945 33.214 25.933 33.2259 25.921 33.2259H25.861C25.849 33.2259 25.837 33.2259 25.837 33.202V33.1065H25.4289C25.4169 33.1065 25.4169 33.0945 25.4169 33.0826V33.0348C25.3929 33.0228 25.3929 33.0109 25.4049 33.0109ZM26.0651 33.3574H25.849V33.5605H26.0651V33.3574ZM25.837 33.8472H26.0531V33.6441H25.837V33.8472ZM26.4132 33.3574H26.1731V33.5605H26.4132V33.3574ZM26.1731 33.8472H26.4132V33.6441H26.1731V33.8472Z" fill="#191B20"/>
<path d="M28.5978 33.4172C28.5978 33.5367 28.6098 33.6203 28.6218 33.692H29.102C29.114 33.692 29.126 33.7039 29.126 33.7159V33.7637C29.126 33.7756 29.126 33.7876 29.102 33.7876H28.6458C28.6578 33.8353 28.6818 33.8831 28.6938 33.9309C28.7179 33.9907 28.7539 34.0385 28.7899 34.0743C28.8139 34.1101 28.8499 34.146 28.8859 34.1699C28.9339 34.2057 28.9579 34.2177 28.9819 34.2177C28.9939 34.2177 29.0059 34.2057 29.0299 34.1818C29.0539 34.146 29.0659 34.0862 29.0659 34.0146C29.0659 34.0026 29.078 33.9907 29.078 33.9907C29.078 33.9907 29.09 33.9907 29.102 34.0026C29.114 34.0146 29.138 34.0146 29.15 34.0265C29.162 34.0385 29.174 34.0385 29.174 34.0385C29.162 34.134 29.138 34.2057 29.114 34.2535C29.078 34.3132 29.0539 34.3491 29.0059 34.3491C28.9819 34.3491 28.9579 34.3491 28.9339 34.3371C28.9099 34.3252 28.8739 34.3132 28.8499 34.2893C28.8139 34.2655 28.7659 34.2177 28.7058 34.1699C28.6698 34.1221 28.6338 34.0743 28.6098 34.0265C28.5858 33.9668 28.5618 33.919 28.5498 33.8831C28.5378 33.8473 28.5258 33.8115 28.5138 33.7756H27.9856V34.1818C28.0096 34.1818 28.0216 34.1699 28.0457 34.1699C28.1897 34.134 28.3097 34.0982 28.4418 34.0504H28.4538C28.4658 34.0504 28.4658 34.0504 28.4658 34.0743C28.4658 34.134 28.4658 34.1699 28.4538 34.1699C28.2377 34.2296 28.0216 34.3013 27.7936 34.3491C27.7696 34.373 27.7576 34.3969 27.7456 34.3969C27.7336 34.3969 27.7096 34.3491 27.6855 34.2535C27.7336 34.2416 27.7936 34.2296 27.8656 34.2177V32.9751C27.8656 32.9632 27.8776 32.9512 27.8896 32.9512H28.9819C28.9939 32.9512 29.0059 32.9632 29.0059 32.9751V33.4052C29.0059 33.4172 28.9939 33.4291 28.9819 33.4291H28.5978V33.4172ZM27.9976 33.3097H28.9099V33.0468H27.9976V33.3097ZM27.9976 33.4172V33.692H28.5138C28.5018 33.6203 28.4898 33.5247 28.4898 33.4172H27.9976Z" fill="#191B20"/>
<path d="M30.098 32.9512H31.3944C31.4064 32.9512 31.4184 32.9512 31.4184 32.9751V34.3491C31.4184 34.361 31.4064 34.361 31.3944 34.361H31.3344C31.3104 34.361 31.3104 34.361 31.3104 34.3491V34.3013H30.194V34.3491C30.194 34.361 30.182 34.361 30.17 34.361H30.11C30.086 34.361 30.086 34.361 30.086 34.3491V32.9632C30.074 32.9512 30.074 32.9512 30.098 32.9512ZM30.182 34.1938H31.2984V33.0349H30.182V34.1938ZM30.7462 33.8592C30.7582 33.8592 30.7582 33.8712 30.7582 33.8831C30.7582 33.9309 30.7582 33.9548 30.7462 33.9668C30.6142 34.0026 30.4821 34.0385 30.3501 34.0623C30.3381 34.0982 30.3261 34.1101 30.3141 34.1101C30.3021 34.1101 30.2901 34.0743 30.2541 33.9787C30.3141 33.9668 30.3981 33.9548 30.4821 33.9309C30.5782 33.907 30.6622 33.8831 30.7462 33.8592ZM30.2781 33.226H30.8062C30.8062 33.1902 30.8062 33.1543 30.8062 33.1185C30.8062 33.1065 30.8062 33.0946 30.8182 33.0946L30.9143 33.1066C30.9383 33.1066 30.9383 33.1065 30.9383 33.1185C30.9383 33.1304 30.9383 33.1424 30.9263 33.1424C30.9143 33.1424 30.9143 33.1663 30.9143 33.1782V33.2141H31.1183C31.0943 33.1902 31.0703 33.1782 31.0343 33.1543C31.0103 33.1424 30.9863 33.1304 30.9743 33.1185C30.9743 33.1065 30.9863 33.0946 31.0223 33.0468C31.0223 33.0349 31.0343 33.0349 31.0343 33.0349C31.0703 33.0588 31.0943 33.0707 31.1183 33.0827C31.1423 33.1065 31.1663 33.1185 31.1783 33.1304C31.1783 33.1304 31.1783 33.1304 31.1663 33.1424C31.1423 33.1663 31.1303 33.1902 31.1183 33.2021H31.2263C31.2383 33.2021 31.2383 33.2141 31.2383 33.226V33.2738C31.2383 33.2858 31.2383 33.2977 31.2263 33.2977H30.9023C30.9023 33.3574 30.9023 33.4052 30.9143 33.453C30.9143 33.5247 30.9263 33.5964 30.9503 33.6681C30.9623 33.7039 30.9623 33.7278 30.9743 33.7517C30.9983 33.7159 31.0103 33.6681 31.0343 33.6203C31.0583 33.5606 31.0823 33.5008 31.0943 33.4411C31.0943 33.4291 31.1063 33.4291 31.1063 33.4291C31.1903 33.453 31.2383 33.4769 31.2383 33.4889C31.2383 33.5008 31.2263 33.5128 31.2143 33.5128C31.2023 33.5128 31.1903 33.5247 31.1903 33.5367C31.1663 33.6203 31.1303 33.692 31.0943 33.7637C31.0703 33.8115 31.0463 33.8473 31.0223 33.8831C31.0343 33.919 31.0583 33.9429 31.0703 33.9668C31.0943 33.9787 31.1063 33.9907 31.1183 33.9907C31.1303 33.9907 31.1303 33.9787 31.1423 33.9548C31.1543 33.9309 31.1663 33.8951 31.1783 33.8592C31.1783 33.8592 31.1903 33.8712 31.2023 33.8712C31.2143 33.8951 31.2263 33.907 31.2503 33.919C31.2623 33.9309 31.2624 33.9429 31.2624 33.9548C31.2384 34.0026 31.2263 34.0385 31.2023 34.0743C31.1783 34.1101 31.1423 34.134 31.1183 34.134C31.1063 34.134 31.0943 34.134 31.0823 34.1221C31.0583 34.1101 31.0343 34.0982 31.0103 34.0623C30.9863 34.0385 30.9623 34.0146 30.9503 33.9787C30.9022 34.0265 30.8542 34.0743 30.7942 34.1101C30.7942 34.1101 30.7822 34.1101 30.7702 34.1101C30.7582 34.1101 30.7462 34.0982 30.7342 34.0982C30.7222 34.0862 30.7102 34.0623 30.6982 34.0504C30.6862 34.0504 30.6862 34.0385 30.6862 34.0265C30.6862 34.0265 30.6862 34.0265 30.6982 34.0146C30.7222 34.0026 30.7582 33.9907 30.7822 33.9668C30.8302 33.9309 30.8662 33.907 30.9023 33.8592C30.8903 33.8234 30.8782 33.7756 30.8662 33.7278C30.8422 33.6442 30.8302 33.5606 30.8182 33.4769C30.8182 33.4291 30.8062 33.3694 30.8062 33.2977H30.2661C30.2541 33.2977 30.2541 33.2858 30.2541 33.2738V33.226C30.2661 33.238 30.2781 33.226 30.2781 33.226ZM30.3261 33.4291H30.7102C30.7222 33.4291 30.7342 33.4411 30.7342 33.453V33.7756C30.7342 33.7876 30.7222 33.7995 30.7102 33.7995H30.3261C30.3021 33.7995 30.3021 33.7995 30.3021 33.7756V33.453C30.3021 33.4291 30.3021 33.4291 30.3261 33.4291ZM30.6262 33.5247H30.4101V33.692H30.6262V33.5247Z" fill="#191B20"/>
<path d="M32.5718 32.9152H33.5681C33.5801 32.9152 33.5921 32.9272 33.5921 32.9391V33.417C33.5921 33.429 33.5801 33.429 33.5681 33.429H33.5081C33.4961 33.429 33.4841 33.429 33.4841 33.417V33.4051H33.124V33.5126H33.7962C33.8082 33.5126 33.8082 33.5245 33.8082 33.5365V33.5843C33.8082 33.5962 33.8082 33.6082 33.7962 33.6082H32.3558C32.3437 33.6082 32.3438 33.5962 32.3438 33.5843V33.5365C32.3438 33.5245 32.3437 33.5126 32.3558 33.5126H33.0159V33.4051H32.6678V33.417C32.6678 33.429 32.6558 33.429 32.6438 33.429H32.5838C32.5718 33.429 32.5598 33.429 32.5598 33.417V32.9391C32.5358 32.9272 32.5478 32.9152 32.5718 32.9152ZM32.7519 34.0502L32.8359 34.1219C32.8479 34.1339 32.8479 34.1339 32.8479 34.1458C32.8479 34.1458 32.8479 34.1458 32.8359 34.1578C32.8239 34.1578 32.8119 34.1578 32.7999 34.1697C32.7639 34.2055 32.7159 34.2414 32.6678 34.2653C32.6078 34.3011 32.5478 34.337 32.4638 34.3728C32.4518 34.3728 32.4398 34.3728 32.4398 34.3609C32.4158 34.3489 32.3918 34.325 32.3798 34.3131C32.3677 34.3131 32.3678 34.3011 32.3678 34.3011C32.3678 34.3011 32.3677 34.2892 32.3798 34.2892C32.4158 34.2772 32.4518 34.2653 32.4758 34.2533C32.5358 34.2294 32.5838 34.1936 32.6198 34.1697C32.6558 34.1458 32.6918 34.11 32.7399 34.0741C32.7399 34.0502 32.7519 34.0502 32.7519 34.0502ZM32.6078 33.6918H33.5321C33.5441 33.6918 33.5561 33.6918 33.5561 33.7157V33.9905C33.5561 34.0024 33.5441 34.0144 33.5321 34.0144H33.124V34.2653C33.124 34.3489 33.0519 34.3848 32.9199 34.3848H32.8719C32.8599 34.3848 32.8599 34.3728 32.8599 34.3609C32.8599 34.337 32.8479 34.3131 32.8359 34.2772V34.2653C32.8599 34.2772 32.8839 34.2772 32.9079 34.2772C32.9679 34.2772 32.9919 34.2533 32.9919 34.2175V34.0144H32.5958C32.5838 34.0144 32.5718 34.0144 32.5718 33.9905V33.7157C32.5838 33.6918 32.5958 33.6918 32.6078 33.6918ZM32.6558 33.1183H33.4841V33.0108H32.6558V33.1183ZM32.6558 33.3095H33.4841V33.202H32.6558V33.3095ZM33.4481 33.7874H32.7039V33.9188H33.4481V33.7874ZM33.364 34.0502C33.4481 34.0861 33.5201 34.1339 33.5801 34.1578C33.6401 34.2055 33.7001 34.2414 33.7482 34.2772C33.7482 34.2772 33.7482 34.2772 33.7362 34.2892C33.7001 34.337 33.6881 34.3609 33.6881 34.3609C33.6161 34.3011 33.5441 34.2533 33.4721 34.2055C33.4121 34.1697 33.352 34.1458 33.316 34.1339C33.316 34.1219 33.328 34.11 33.364 34.0622C33.352 34.0502 33.364 34.0502 33.364 34.0502Z" fill="#191B20"/>
<path d="M34.7205 33.226H34.9846C34.9966 33.226 35.0086 33.238 35.0086 33.2499V33.5127C35.0086 33.5247 34.9966 33.5366 34.9846 33.5366H34.8765C34.9246 33.5605 34.9486 33.5844 34.9486 33.5844C34.9486 33.5964 34.9486 33.5964 34.9366 33.5964C34.9246 33.5964 34.9125 33.6083 34.9125 33.6083C34.9005 33.6203 34.9005 33.6322 34.8885 33.6442H35.0566C35.0686 33.6322 35.0686 33.6322 35.0686 33.6203C35.0806 33.5964 35.0926 33.5605 35.1046 33.5247H35.0806C35.0686 33.5247 35.0566 33.5127 35.0566 33.5008V33.238C35.0566 33.226 35.0686 33.2141 35.0806 33.2141H35.3447C35.3567 33.2141 35.3687 33.226 35.3687 33.238V33.5008C35.3687 33.5127 35.3567 33.5247 35.3447 33.5247H35.1286C35.1886 33.5486 35.2246 33.5605 35.2246 33.5725C35.2246 33.5844 35.2246 33.5844 35.2006 33.5844C35.1886 33.5844 35.1886 33.5964 35.1766 33.5964C35.1646 33.6083 35.1646 33.6203 35.1526 33.6322H35.3687C35.3807 33.6322 35.3807 33.6322 35.3807 33.6561V33.7039C35.3807 33.7159 35.3807 33.7278 35.3687 33.7278H35.1526V33.8353H35.3687C35.3807 33.8353 35.3807 33.8473 35.3807 33.8592V33.907C35.3807 33.9309 35.3807 33.9309 35.3687 33.9309H35.1526V34.0145H35.3687C35.3807 34.0145 35.3807 34.0145 35.3807 34.0384V34.0862C35.3807 34.0982 35.3807 34.1101 35.3687 34.1101H35.1526V34.2176H35.3927C35.4047 34.2176 35.4047 34.2296 35.4047 34.2415V34.2893C35.4047 34.3013 35.4047 34.3132 35.3927 34.3132H34.8285V34.3491C34.8285 34.361 34.8165 34.373 34.8045 34.373H34.7445C34.7325 34.373 34.7205 34.373 34.7205 34.3491V33.8114C34.6965 33.8234 34.6725 33.8473 34.6485 33.8712C34.6365 33.8712 34.6245 33.8712 34.6245 33.8592C34.6125 33.8473 34.6005 33.8353 34.5765 33.8234C34.5645 33.8234 34.5645 33.8114 34.5645 33.8114C34.5885 33.7875 34.6245 33.7636 34.6485 33.7397C34.6845 33.7039 34.7205 33.6681 34.7445 33.6322C34.7685 33.5964 34.7925 33.5605 34.7925 33.5366H34.6725C34.6605 33.5366 34.6485 33.5247 34.6485 33.5127V33.2499C34.6965 33.238 34.7085 33.226 34.7205 33.226ZM34.6725 32.999H34.8525V32.9034C34.8525 32.8915 34.8525 32.8915 34.8765 32.8915C34.9486 32.8915 34.9966 32.9034 34.9966 32.9154C34.9966 32.9273 34.9966 32.9393 34.9846 32.9393C34.9726 32.9393 34.9726 32.9512 34.9726 32.9632V32.999H35.1646V32.9034C35.1646 32.8915 35.1766 32.8915 35.1886 32.8915C35.2607 32.8915 35.3087 32.9034 35.3087 32.9154C35.3087 32.9273 35.3087 32.9393 35.2967 32.9393C35.2847 32.9393 35.2847 32.9512 35.2847 32.9632V32.999H35.4527C35.4647 32.999 35.4647 32.999 35.4647 33.011V33.0587C35.4647 33.0707 35.4647 33.0826 35.4527 33.0826H35.2847V33.1543C35.2847 33.1663 35.2727 33.1782 35.2606 33.1782H35.2006C35.1886 33.1782 35.1766 33.1663 35.1766 33.1543V33.0826H34.9846V33.1543C34.9846 33.1663 34.9726 33.1782 34.9606 33.1782H34.9005C34.8885 33.1782 34.8765 33.1663 34.8765 33.1543V33.0826H34.6965C34.6845 33.0826 34.6845 33.0707 34.6845 33.0587V33.011C34.6605 33.011 34.6605 32.999 34.6725 32.999ZM34.9125 33.3096H34.7925V33.4411H34.9125V33.3096ZM35.0686 33.7397H34.8645V33.8473H35.0686V33.7397ZM34.8645 34.0265H35.0686V33.9429H34.8645V34.0265ZM34.8645 34.2296H35.0686V34.1221H34.8645V34.2296ZM35.2967 33.3096H35.1766V33.453H35.2967V33.3096ZM35.5367 32.9512H36.0529C36.0769 32.9512 36.0769 32.9632 36.0769 32.9751V33.8234C36.0769 33.8353 36.0649 33.8353 36.0529 33.8353H35.9449V34.2296C35.9449 34.2415 35.9449 34.2535 35.9569 34.2535H36.0289C36.0529 34.2535 36.0649 34.1938 36.0889 34.0623L36.1729 34.1221C36.1369 34.2774 36.1009 34.361 36.0529 34.361H35.9208C35.8728 34.361 35.8488 34.3371 35.8488 34.2893V33.8473H35.7648V33.9548C35.7648 34.0265 35.7528 34.0982 35.7408 34.1579C35.7288 34.2057 35.7048 34.2654 35.6688 34.3013C35.6448 34.3252 35.6207 34.361 35.5727 34.3849C35.5607 34.3849 35.5487 34.3849 35.5487 34.373C35.5367 34.361 35.5247 34.3371 35.5127 34.3252C35.5127 34.3132 35.5007 34.3132 35.5007 34.3013C35.5727 34.2535 35.6208 34.1938 35.6448 34.1221C35.6568 34.0743 35.6688 34.0145 35.6688 33.9548V33.8473H35.5607C35.5367 33.8473 35.5367 33.8353 35.5367 33.8353V32.9871C35.5127 32.9632 35.5127 32.9512 35.5367 32.9512ZM35.6208 33.2141H35.9569V33.0468H35.6208V33.2141ZM35.6208 33.4769H35.9569V33.3216H35.6208V33.4769ZM35.9569 33.5725H35.6208V33.7278H35.9569V33.5725Z" fill="#191B20"/>
<path d="M37.4444 32.9631C37.4084 32.987 37.3724 33.0109 37.3124 33.0228C37.2884 33.0348 37.2524 33.0348 37.2164 33.0348V33.1423H37.4444C37.4564 33.1423 37.4564 33.1423 37.4564 33.1542V33.202C37.4564 33.214 37.4564 33.2259 37.4444 33.2259H37.2164V33.3334H37.4444C37.4564 33.3334 37.4564 33.3334 37.4564 33.3454V33.3932C37.4564 33.4051 37.4564 33.4171 37.4444 33.4171H37.2164V33.5366H38.1766V33.4171H37.9846C37.9726 33.4171 37.9726 33.4051 37.9726 33.3932V33.3454C37.9726 33.3334 37.9726 33.3334 37.9846 33.3334H38.1766V33.2259H37.9846C37.9726 33.2259 37.9726 33.214 37.9726 33.202V33.1542C37.9726 33.1423 37.9726 33.1423 37.9846 33.1423H38.1766V33.0228H37.9846C37.9726 33.0228 37.9726 33.0109 37.9726 32.9989V32.9392C37.9726 32.9272 37.9726 32.9272 37.9846 32.9272H38.2727C38.2847 32.9272 38.2967 32.9392 38.2967 32.9392V33.5485H38.4047C38.4167 33.5485 38.4287 33.5485 38.4287 33.5724V33.8352C38.4287 33.8472 38.4167 33.8591 38.4047 33.8591H38.3447C38.3327 33.8591 38.3207 33.8472 38.3207 33.8352V33.656H37.0963V33.8352C37.0963 33.8472 37.0843 33.8591 37.0723 33.8591H37.0123C36.9883 33.8591 36.9883 33.8472 36.9883 33.8352V33.5724C36.9883 33.5604 37.0003 33.5485 37.0123 33.5485H37.1203V32.9272C37.1203 32.9153 37.1323 32.9033 37.1443 32.9033L37.2044 32.9272C37.2524 32.9272 37.2884 32.9272 37.3004 32.9153C37.3484 32.9033 37.3844 32.8914 37.4084 32.8675H37.4204C37.4204 32.8675 37.4324 32.8675 37.4444 32.8794C37.4804 32.9272 37.5044 32.9511 37.5044 32.9511C37.5044 32.9631 37.5044 32.975 37.4924 32.975L37.4444 32.9631ZM37.3484 33.7277H38.0086C38.0206 33.7277 38.0326 33.7277 38.0326 33.7397C38.0566 33.7516 38.0686 33.7755 38.0686 33.7755L37.7925 34.0144C37.7925 34.0144 37.7925 34.0144 37.7805 34.0144V34.0264H38.3927C38.4047 34.0264 38.4047 34.0383 38.4047 34.0383V34.0861C38.4047 34.0981 38.4047 34.11 38.3927 34.11H37.7805V34.2534C37.7805 34.3251 37.7205 34.3729 37.6125 34.3729H37.5044C37.5044 34.3729 37.4924 34.3609 37.4924 34.349C37.4924 34.3251 37.4804 34.3012 37.4684 34.2773C37.4684 34.2653 37.4684 34.2653 37.4804 34.2653C37.5284 34.2773 37.5764 34.2773 37.6125 34.2773C37.6485 34.2773 37.6605 34.2534 37.6605 34.2176V34.11H37.0243C37.0123 34.11 37.0123 34.0981 37.0123 34.0861V34.0383C37.0123 34.0264 37.0123 34.0264 37.0243 34.0264H37.6605V33.9308C37.6605 33.9189 37.6725 33.9069 37.6845 33.9069L37.7205 33.9189L37.8525 33.8113H37.3364C37.3244 33.8113 37.3124 33.7994 37.3124 33.7874V33.7516C37.3364 33.7277 37.3364 33.7277 37.3484 33.7277ZM37.8285 32.8914L37.9005 32.9392C37.9125 32.9511 37.9125 32.9511 37.9125 32.9631C37.9125 32.9631 37.9125 32.975 37.9005 32.975C37.8885 32.975 37.8765 32.975 37.8645 32.987C37.8405 33.0109 37.8285 33.0348 37.8045 33.0467C37.8525 33.0706 37.8885 33.1064 37.9246 33.1303C37.9246 33.1303 37.9245 33.1303 37.9125 33.1423C37.8885 33.1781 37.8765 33.202 37.8645 33.202C37.8165 33.1662 37.7805 33.1423 37.7325 33.1064C37.6845 33.1423 37.6365 33.1781 37.5765 33.214C37.5645 33.214 37.5644 33.214 37.5524 33.202C37.5284 33.1901 37.5164 33.1781 37.5044 33.1662C37.4924 33.1662 37.4924 33.1542 37.4924 33.1542C37.4924 33.1542 37.4924 33.1542 37.5044 33.1423C37.5404 33.1303 37.5644 33.1184 37.5885 33.1064C37.6125 33.0945 37.6365 33.0825 37.6605 33.0587C37.6005 33.0228 37.5524 32.9989 37.5164 32.987C37.5164 32.987 37.5284 32.9631 37.5524 32.9392L37.5645 32.9272C37.6245 32.9511 37.6845 32.975 37.7205 33.0109C37.7565 32.975 37.7925 32.9392 37.8285 32.8914C37.8285 32.8914 37.8285 32.9033 37.8285 32.8914ZM37.8285 33.214L37.9005 33.2618C37.9125 33.2737 37.9125 33.2737 37.9125 33.2737C37.9125 33.2737 37.9125 33.2857 37.9005 33.2857C37.8885 33.2857 37.8765 33.2976 37.8645 33.2976C37.8405 33.3215 37.8285 33.3334 37.8045 33.3573C37.8405 33.3812 37.8765 33.4171 37.9125 33.441C37.9125 33.441 37.9125 33.441 37.9005 33.4529C37.8765 33.4888 37.8525 33.5127 37.8525 33.5127C37.8165 33.4768 37.7685 33.4529 37.7325 33.4171C37.6845 33.4529 37.6365 33.4888 37.5645 33.5127C37.5525 33.5127 37.5524 33.5127 37.5404 33.5007C37.5164 33.4888 37.5044 33.4768 37.4924 33.4649C37.4804 33.4649 37.4804 33.4529 37.4804 33.4529C37.4804 33.4529 37.4804 33.4529 37.4924 33.441C37.5284 33.429 37.5524 33.4171 37.5765 33.4051C37.6005 33.3932 37.6245 33.3693 37.6485 33.3573C37.5885 33.3215 37.5404 33.2976 37.5044 33.2857C37.5044 33.2857 37.5164 33.2618 37.5404 33.2259L37.5524 33.214C37.6125 33.2498 37.6725 33.2737 37.7205 33.2976C37.7565 33.2976 37.7925 33.2618 37.8285 33.214C37.8285 33.214 37.8285 33.2259 37.8285 33.214Z" fill="#191B20"/>
<path d="M40.0247 32.8555L40.1447 32.9152C40.1567 32.9272 40.1567 32.9272 40.1567 32.9391C40.1567 32.951 40.1447 32.951 40.1207 32.951H40.1087C40.1807 32.9988 40.2287 33.0466 40.2887 33.0705C40.3728 33.1183 40.4448 33.1542 40.5168 33.19C40.6008 33.2258 40.6849 33.2497 40.7689 33.2617C40.7689 33.2736 40.7689 33.2736 40.7569 33.2736C40.7329 33.2975 40.7089 33.3214 40.6849 33.3334C40.6849 33.3334 40.6728 33.3453 40.6608 33.3453C40.5528 33.3095 40.4448 33.2736 40.3368 33.2258V33.2736C40.3368 33.2856 40.3368 33.2975 40.3248 33.2975H39.6766C39.6646 33.2975 39.6646 33.2856 39.6646 33.2736V33.2258C39.6045 33.2617 39.5445 33.2856 39.4845 33.3095C39.4245 33.3334 39.3645 33.3573 39.3285 33.3692C39.3165 33.3692 39.3045 33.3692 39.3045 33.3573C39.2925 33.3334 39.2684 33.3095 39.2564 33.2975C39.2444 33.2856 39.2324 33.2856 39.2324 33.2856C39.2324 33.2856 39.2324 33.2856 39.2444 33.2736C39.3405 33.2497 39.4125 33.2258 39.4725 33.2019C39.5565 33.1661 39.6406 33.1303 39.7246 33.0825C39.7846 33.0466 39.8326 33.0227 39.8686 32.9869C39.9046 32.951 39.9406 32.9272 39.9766 32.8794C40.0127 32.8674 40.0127 32.8555 40.0247 32.8555ZM39.4725 33.3812H40.5768C40.5888 33.3812 40.6008 33.3931 40.6008 33.4051V33.7515C40.6008 33.7635 40.5888 33.7635 40.5768 33.7635H39.4725C39.4605 33.7635 39.4485 33.7635 39.4485 33.7515V33.4051C39.4485 33.3931 39.4485 33.3812 39.4725 33.3812ZM39.7246 33.6679C39.7246 33.6559 39.7126 33.644 39.7126 33.6321C39.7006 33.5962 39.6766 33.5484 39.6646 33.5126C39.6646 33.5126 39.6886 33.5006 39.7246 33.4767H39.5685V33.6679H39.7246V33.6679ZM39.5805 33.8232H40.4568C40.4688 33.8232 40.4808 33.8352 40.4808 33.8471V34.3609C40.4808 34.3728 40.4688 34.3728 40.4568 34.3728H40.3968C40.3848 34.3728 40.3728 34.3609 40.3728 34.3609V34.325H39.6766V34.3609C39.6766 34.3728 39.6645 34.3728 39.6525 34.3728H39.5925C39.5805 34.3728 39.5685 34.3609 39.5685 34.3609V33.8471C39.5565 33.8352 39.5685 33.8232 39.5805 33.8232ZM39.6766 34.0383H40.3728V33.9307H39.6766V34.0383ZM39.6766 34.2294H40.3728V34.1219H39.6766V34.2294ZM39.7246 33.2019H40.3127C40.3007 33.19 40.2887 33.19 40.2767 33.1781C40.2167 33.1422 40.1327 33.0825 40.0247 32.9988C39.9767 33.0466 39.9166 33.0825 39.8686 33.1064C39.8326 33.1422 39.7846 33.178 39.7246 33.2019ZM39.9646 33.6679V33.4767H39.7606C39.7846 33.5126 39.7966 33.5484 39.8086 33.5843C39.8206 33.6082 39.8326 33.644 39.8326 33.6679H39.9646ZM40.2167 33.6679C40.2287 33.6321 40.2407 33.6082 40.2527 33.5843C40.2647 33.5484 40.2767 33.5126 40.2887 33.4767H40.0727V33.6679H40.2167ZM40.4928 33.6679V33.4767H40.3368L40.3968 33.5006C40.4088 33.5006 40.4208 33.5126 40.4208 33.5245C40.4208 33.5365 40.4208 33.5365 40.4088 33.5365C40.3968 33.5365 40.3968 33.5365 40.3848 33.5484C40.3728 33.5962 40.3608 33.6321 40.3488 33.6679H40.4928V33.6679Z" fill="#191B20"/>
<path d="M29.907 26.4396H28.3945V31.3023H29.907V26.4396Z" fill="#191B20"/>
<path d="M30.998 26.4396H32.5105V30.1075H34.8632V31.3142H30.998V26.4396Z" fill="#191B20"/>
<path d="M38.5617 30.5138H36.8452L36.6051 31.3143H35.0566L36.8932 26.4517H38.5377L40.3742 31.3143H38.7897L38.5617 30.5138ZM38.2376 29.4624L37.6974 27.7181L37.1693 29.4624H38.2376Z" fill="#191B20"/>
<path d="M23.1836 26.5114H27.7809V27.7181H26.2325V31.374H24.732V27.7181H23.1836V26.5114Z" fill="#191B20"/>
<path d="M8.09603 10.908V11.4218C11.469 12.0191 13.9657 14.2892 15.5862 18.196C15.9943 19.1876 16.2584 20.2629 16.3544 21.4099C13.0535 21.159 10.5087 19.3788 8.6962 16.0335C8.46814 15.6034 8.26407 15.1613 8.07202 14.6954L8 24.3728L17.2187 22.5329L18.5271 10.2031L8.09603 10.908Z" fill="#191B20"/>
<path d="M28.7427 11.7922L19.824 10.0001L18.4316 19.1757C19.0558 17.6823 20.0041 16.38 21.2645 15.3047C22.2848 14.4326 23.4491 13.7994 24.7455 13.417C24.6254 17.6584 22.993 20.8006 19.8721 22.8675C19.56 23.0706 19.2359 23.2498 18.8998 23.3932L28.6106 23.8233L28.7427 11.7922Z" fill="#191B20"/>
<path d="M17.0514 23.5005L8.2168 26.0454L10.7495 38.411L20.7605 35.1254L17.0514 23.5005ZM16.6072 26.3321C16.3672 26.6069 16.6192 27.0967 16.6553 27.2998C16.6913 27.503 16.1991 28.2915 16.1991 28.2915C16.1991 28.2915 15.4549 28.8291 15.4549 29.4504C15.4549 30.442 14.4346 32.1625 14.3266 32.3895C14.0145 33.0466 13.1863 33.7515 13.1863 33.7515C13.1863 33.7515 12.9582 34.3966 12.5621 34.5759C12.1539 34.7551 12.5381 35.9498 12.346 35.9976C12.1539 36.0573 12.238 36.2843 12.238 36.2843L11.9499 36.1888L11.7458 36.2963L11.6978 35.9737C11.6978 35.9737 11.5658 35.6631 11.7218 35.4839C11.8779 35.3047 11.3257 34.779 11.3257 34.7073C11.3377 34.6356 10.9896 34.1338 10.8696 34.2174C10.7495 34.3011 10.2214 33.5723 10.3054 33.4767C10.4014 33.3811 10.0773 32.3775 10.0773 32.3775C10.0773 32.3775 9.83727 32.0549 9.82527 31.9116C9.81327 31.7682 10.0173 31.3142 10.0173 31.3142C10.0173 31.3142 10.0173 31.0991 10.1494 30.7407C10.2934 30.3823 10.1614 30 10.1614 30C10.1614 30 10.0893 29.6296 10.3654 29.6296C10.6415 29.6296 10.9656 28.8052 10.9656 28.8052C10.9656 28.8052 11.3137 28.3512 11.4337 28.2556C11.5538 28.172 11.8419 27.6822 11.8419 27.6822L12.382 26.8697C12.382 26.8697 12.6461 26.6547 12.7541 26.6547C12.8622 26.6666 13.1142 26.6427 13.1502 26.4994C13.1983 26.356 13.4143 25.9856 13.4623 25.8661C13.4983 25.7467 13.7264 25.4002 13.8464 25.3405C13.9665 25.2807 14.3266 25.2329 14.3626 25.1612C14.3986 25.0896 14.7227 25.1971 14.7947 25.1971C14.8787 25.209 15.1908 25.0896 15.2028 25.0179C15.2148 24.9462 15.2989 24.8028 15.3709 24.7431C15.4309 24.6714 15.5509 24.6117 15.839 24.6834C16.1391 24.755 16.0311 24.9462 16.0311 24.9462C16.0311 24.9462 16.2471 25.0179 16.1031 25.0776C15.9591 25.1374 16.8713 25.4002 16.8713 25.4002C16.7273 25.7586 17.2314 25.7228 17.2434 25.8064C17.2554 25.8781 16.8593 26.0693 16.6072 26.3321Z" fill="#191B20"/>
</svg>
