<svg width="42" height="42" viewBox="0 0 42 42" fill="none" xmlns="http://www.w3.org/2000/svg">
<path fill-rule="evenodd" clip-rule="evenodd" d="M17.8587 12.4411C17.3704 13.0751 16.882 13.7196 16.383 14.3536C14.2598 17.1116 12.1365 19.8695 10.0132 22.6274C8.4208 24.6879 6.83897 26.759 5.24652 28.8301C4.48215 29.8234 3.71778 30.8166 2.9534 31.8099C2.87909 31.9156 2.79416 31.9473 2.66676 31.9473C2.17841 31.9367 1.69006 31.9473 1.20171 31.9473C1.14863 31.9473 1.09555 31.9473 1 31.9473C1.1274 31.7782 1.23356 31.6409 1.32911 31.5035C2.87909 29.4852 4.43968 27.4564 5.98967 25.4382C7.65643 23.272 9.32319 21.1058 10.9899 18.9502C12.593 16.8685 14.1961 14.7869 15.7991 12.6947C16.4467 11.8493 17.0943 11.004 17.7419 10.1586C17.8162 10.0635 17.8906 10.0213 18.0073 10.0213C20.1412 10.0213 22.2857 10.0213 24.4196 10.0213C24.4833 10.0213 24.5576 10.0213 24.6319 10.0213C24.6319 17.3335 24.6319 24.6245 24.6319 31.9262C22.3813 31.9262 20.1412 31.9262 17.8906 31.9262C17.8906 25.4382 17.8906 18.9502 17.8906 12.4516C17.8906 12.4516 17.8799 12.4516 17.8587 12.4411Z" fill="#191B20"/>
<path fill-rule="evenodd" clip-rule="evenodd" d="M26.2559 32C26.2559 24.6984 26.2559 17.4073 26.2559 10.1057C28.5065 10.1057 30.7572 10.1057 33.0078 10.1057C33.0078 17.3968 33.0078 24.6878 33.0078 32C30.7678 32 28.5171 32 26.2559 32Z" fill="#191B20"/>
<path fill-rule="evenodd" clip-rule="evenodd" d="M34.6211 31.9049C34.6211 24.6033 34.6211 17.3228 34.6211 10.0106C34.6742 10.0106 34.7273 10 34.7803 10C35.9375 10 37.1053 10 38.2625 10C38.4005 10 38.5491 10.0528 38.6871 10.1057C40.3645 10.7714 41.458 12.4726 41.3837 14.269C41.3837 14.4063 41.3731 14.5543 41.3731 14.6916C41.3731 20.3554 41.3731 26.0086 41.3731 31.6724C41.3731 31.7464 41.3731 31.8204 41.3731 31.8943C39.1224 31.9049 36.8824 31.9049 34.6211 31.9049Z" fill="#191B20"/>
<path fill-rule="evenodd" clip-rule="evenodd" d="M13.2202 31.9683C12.8593 31.5985 12.5089 31.2392 12.148 30.88C11.6066 30.341 11.0545 29.8233 10.5237 29.2844C9.37714 28.122 8.99495 26.7695 9.46207 25.195C10.099 23.05 12.3603 22.025 14.3668 22.6062C15.8743 23.0394 16.9997 24.3814 17.1483 25.9453C17.2757 27.2344 16.8616 28.3334 15.9593 29.2421C15.0993 30.1086 14.2288 30.9645 13.3689 31.831C13.337 31.8627 13.2946 31.9049 13.2202 31.9683ZM13.7935 27.1922C13.8041 27.2556 13.8148 27.2873 13.8254 27.3295C13.8997 27.6677 14.0695 27.8262 14.4199 27.8579C14.8021 27.8896 15.1099 27.7311 15.3647 27.4458C15.8956 26.854 15.8849 25.6917 15.5134 25.0365C14.7384 23.6734 12.8699 23.61 11.8932 24.2229C11.0651 24.7407 10.7148 25.5226 10.6829 26.4525C10.6617 27.1816 10.874 27.8367 11.4155 28.3651C12.2754 29.2104 13.7192 29.1047 14.5154 28.8194C14.5579 28.8089 14.6004 28.756 14.6004 28.7138C14.611 28.6187 14.6004 28.513 14.6004 28.4179C14.5579 28.4179 14.5473 28.4073 14.5367 28.4179C14.4624 28.439 14.3987 28.4707 14.3243 28.4919C13.7086 28.6715 13.0928 28.7349 12.4771 28.5341C11.6172 28.2488 11.2031 27.5937 11.1182 26.7378C10.9908 25.5332 11.7658 24.2863 13.1778 24.2229C14.3987 24.1701 15.2798 24.9309 15.3223 26.1249C15.3329 26.537 15.2798 26.9386 14.9826 27.2661C14.8339 27.4246 14.6534 27.5409 14.4199 27.4563C14.1969 27.3718 14.1651 27.1605 14.1757 26.9597C14.1969 26.5159 14.2288 26.0721 14.2606 25.6177C14.2713 25.4381 14.2925 25.2479 14.3031 25.0682C14.1651 25.0682 14.0483 25.0471 13.9422 25.0788C13.8891 25.0999 13.8891 25.2267 13.8678 25.3113C13.7935 25.2479 13.7192 25.1739 13.6343 25.1316C13.2521 24.9203 12.7107 25.0154 12.3816 25.3747C11.8826 25.9136 11.8083 26.5476 11.9888 27.2239C12.0949 27.6148 12.4028 27.8262 12.8062 27.8579C13.2096 27.8896 13.5069 27.6994 13.6874 27.3401C13.7404 27.2978 13.7617 27.2556 13.7935 27.1922Z" fill="#191B20"/>
<path fill-rule="evenodd" clip-rule="evenodd" d="M12.3691 26.6532C12.3798 26.2728 12.4753 25.9347 12.6982 25.6494C12.8469 25.4592 13.0486 25.3852 13.2821 25.3852C13.5157 25.3958 13.7174 25.5226 13.7599 25.755C13.866 26.2517 13.8023 26.7272 13.5263 27.1604C13.3671 27.4034 13.1335 27.5197 12.8363 27.4563C12.539 27.3929 12.4328 27.1498 12.3798 26.8857C12.3691 26.8011 12.3691 26.7272 12.3691 26.6532Z" fill="#191B20"/>
</svg>
