<svg width="48" height="48" viewBox="0 0 48 48" fill="none" xmlns="http://www.w3.org/2000/svg">
<g clip-path="url(#clip0_160_136)">
<path d="M8.7207 11.8879L8.84305 11.7927C9.76743 11.9286 10.3384 12.2413 10.5423 12.7171C10.6646 12.989 10.6374 13.2201 10.4471 13.3832C10.2568 13.5599 10.0393 13.5599 9.76743 13.3832C9.65868 12.9074 9.34602 12.4452 8.82945 11.983C8.78867 11.9422 8.74789 11.915 8.7207 11.8879ZM11.6298 11.5752L11.8337 11.616C11.7385 11.9422 11.5482 12.5404 11.2899 13.4104C10.8413 14.8921 10.5831 15.7485 10.5287 15.9932C10.4199 16.401 10.352 16.7273 10.352 17.0127C10.352 17.1351 10.4199 17.4342 10.5559 17.9371C10.6646 18.3721 10.719 18.7799 10.7054 19.1606C10.6782 19.6364 10.5015 19.9218 10.1617 20.0034C10.0937 20.017 10.0393 20.0306 9.97134 20.0306C9.76743 20.0306 9.63149 19.8811 9.57712 19.5684C9.56352 19.514 9.56352 19.4596 9.56352 19.4189C9.71306 18.2634 9.69946 17.5021 9.50915 17.0943C9.46837 17.0263 9.44118 16.9856 9.41399 16.9584C9.29165 16.8768 9.10133 16.8088 8.82945 16.7681V16.5234H9.31883C9.44118 16.5234 9.52274 16.4826 9.56352 16.401C9.57712 16.3602 9.60431 16.3195 9.63149 16.2651C9.80821 15.9524 10.284 14.8377 11.086 12.8938C11.2492 12.4996 11.4259 12.0782 11.6298 11.5752ZM9.30524 9.07392L9.42758 8.97876C10.4063 9.14189 11.0317 9.46814 11.2764 9.95752C11.4259 10.243 11.4123 10.4741 11.222 10.6644C11.0453 10.8547 10.8142 10.8547 10.5423 10.6916C10.3656 10.175 9.95775 9.63127 9.30524 9.07392ZM18.4675 11.0314L19.0656 10.243L19.9764 11.0178C20.058 11.0858 20.1124 11.1538 20.1803 11.2082C20.126 11.3305 20.0172 11.3849 19.8405 11.3985H16.4284C15.9934 12.0374 15.5584 12.5675 15.137 12.9754L15.0147 12.8394C15.3137 12.3229 15.5448 11.8335 15.7351 11.3713C15.6944 11.3849 15.6536 11.3849 15.5992 11.3849H13.4378V12.7307C13.4378 13.0161 13.4378 13.2336 13.4242 13.3832H14.2262L14.7428 12.8258L15.7351 13.6415C15.6264 13.7502 15.4633 13.8182 15.2322 13.8454C15.205 16.6865 15.069 18.4537 14.8244 19.147C14.7564 19.3373 14.6612 19.5004 14.5661 19.6092C14.2806 19.9082 13.8864 20.0578 13.3834 20.0578C13.3698 19.7451 13.3154 19.5276 13.2203 19.4189C13.0843 19.2965 12.8125 19.1878 12.4046 19.1062V18.8751C12.8804 18.9159 13.2611 18.9431 13.5329 18.9431C13.7097 18.9295 13.832 18.8887 13.9 18.8071C14.1039 18.6032 14.2398 17.5701 14.3078 15.6941C14.3214 15.164 14.335 14.4843 14.3486 13.6822H13.397C13.2611 16.5098 12.4318 18.6304 10.8957 20.0578L10.7598 19.9218C11.8881 18.2634 12.4862 16.0612 12.5406 13.3152V12.7307V11.3713C12.1735 11.3713 11.8473 11.3985 11.589 11.4664L11.2628 10.8411C11.8609 10.9635 12.4182 11.0314 12.9484 11.0314V11.0722V11.0314C12.9484 10.2294 12.8804 9.50892 12.7309 8.85641L14.3078 9.04673C14.2806 9.22345 14.1447 9.3322 13.8864 9.37298H13.8592V11.0314H14.4029L14.9331 10.2702L15.7487 11.0178C15.7759 11.045 15.8031 11.0722 15.8303 11.0994C16.1158 10.3653 16.3333 9.63127 16.4828 8.91079L17.8694 9.35939C17.8014 9.48173 17.6655 9.52252 17.448 9.50892C17.2713 9.94393 17.013 10.4469 16.6459 11.0178H18.4675V11.0314ZM18.4811 12.6083L18.9977 12.1189L19.9221 12.9754C19.8405 13.0433 19.6774 13.0841 19.4463 13.0977C18.9569 13.4376 18.4675 13.7502 17.9509 14.0493L18.4947 14.1037C18.4539 14.2668 18.318 14.3755 18.0733 14.4163V15.7213H18.685L19.2152 14.9737L20.0716 15.7621C20.1124 15.8029 20.1532 15.8437 20.1803 15.8845C20.1532 15.9932 20.0444 16.0476 19.8677 16.0612H18.0869V18.7799C18.0869 19.2693 17.9645 19.5956 17.7334 19.7723C17.5295 19.9082 17.2305 19.9898 16.8227 20.0306C16.7955 19.7315 16.7139 19.514 16.6052 19.3645C16.442 19.215 16.1566 19.1062 15.7623 19.0518V18.8751C15.7759 18.8751 16.1702 18.9023 16.9586 18.9431C17.0945 18.9295 17.1761 18.8479 17.1761 18.712V16.0612H17.0945C16.51 16.0612 16.0206 16.0884 15.5992 16.1563L15.2594 15.531C15.9391 15.6534 16.578 15.7213 17.1761 15.7213V15.7621V13.9541L17.6247 13.9949C17.9238 13.6415 18.182 13.3016 18.3995 12.9618H17.5975C17.013 12.9618 16.5236 12.989 16.1022 13.0569L15.7487 12.4044C16.4828 12.5268 17.1625 12.5947 17.8014 12.5947H18.4811V12.6083Z" fill="black"/>
<path d="M37.5801 9.83517L38.0287 9.27783L39.0075 10.0391C38.8851 10.1342 38.7356 10.2022 38.5317 10.2294V16.1291C38.5317 16.1971 38.4229 16.2651 38.2054 16.3331C38.0559 16.3874 37.9064 16.4146 37.7432 16.4146H37.6073V16.0068H37.5257V16.0748V18.8751C37.5801 18.9839 37.6481 19.0382 37.716 19.0382H38.0695H38.4093C38.4909 19.011 38.5453 18.9703 38.5724 18.9023C38.6404 18.7256 38.7492 18.2226 38.8987 17.4206H39.0482L39.1026 18.9431C39.2793 19.0382 39.3745 19.1742 39.3745 19.3373C39.3745 19.6636 39.0346 19.8403 38.3549 19.8675C38.2462 19.8811 38.1374 19.8811 38.0287 19.8811H37.4713C37.0635 19.8811 36.8052 19.7723 36.7237 19.5684C36.6829 19.4596 36.6829 19.3101 36.6829 19.1198V16.0068H36.0984C36.0168 17.3254 35.6498 18.3178 35.0109 18.9567C34.5623 19.3917 33.9369 19.7587 33.1485 20.0442L33.0805 19.8675C34.0185 19.3373 34.6302 18.6712 34.9157 17.8556C35.0788 17.3798 35.1604 16.7545 35.1876 16.0068H35.174C35.174 16.1427 35.1876 16.2107 35.2148 16.2243C35.174 16.3602 35.0244 16.4554 34.7662 16.5234C34.6574 16.5506 34.5487 16.5641 34.4263 16.5641C34.2904 16.5641 34.1952 16.5098 34.1544 16.3874C34.1408 16.3602 34.1408 16.3466 34.1408 16.3331C34.236 15.0552 34.2768 14.0085 34.2768 13.1793V10.3381C34.236 10.3789 34.168 10.4061 34.0729 10.4061H32.4688C32.4688 10.6372 32.4824 10.7867 32.5096 10.8411C32.4552 11.0178 32.2105 11.113 31.7891 11.1266H31.7619C31.626 11.113 31.558 11.045 31.558 10.8955C31.5852 10.6916 31.6124 10.5285 31.6124 10.4061H30.2666C30.2666 10.6372 30.2802 10.8003 30.3074 10.8819C30.185 11.0314 29.9403 11.1266 29.5461 11.1402C29.4102 11.1266 29.3422 11.0586 29.3286 10.9091C29.3694 10.7052 29.383 10.5421 29.383 10.4061C28.88 10.4061 28.445 10.4333 28.0644 10.5013L27.7109 9.86236C28.2955 9.98471 28.8528 10.0527 29.3694 10.0527V10.1071V10.0527C29.3694 9.64486 29.3014 9.25064 29.1519 8.85642L30.6064 9.03314C30.5928 9.20986 30.4705 9.31861 30.2666 9.35939V10.0391L31.6124 10.0935V10.0391C31.6124 9.63127 31.5308 9.23704 31.3949 8.84282L32.863 9.01954C32.8494 9.19626 32.7271 9.30501 32.5096 9.34579H32.4688V10.0255H33.0261L33.4883 9.44095L34.236 10.0935C34.2496 10.1071 34.2632 10.1071 34.2768 10.1206C34.2768 9.87596 34.1952 9.61767 34.0593 9.3322L35.3099 9.82158H37.5801V9.83517ZM32.5775 18.8751L33.0941 18.2226L33.9505 18.9159C34.0049 18.9567 34.0457 18.9975 34.0729 19.0246C34.0457 19.147 33.9369 19.2014 33.7466 19.215H29.6685C29.6685 19.4596 29.6821 19.6092 29.7092 19.6771C29.6821 19.7995 29.5461 19.8946 29.3014 19.9762C29.1791 20.017 29.0567 20.0306 28.9344 20.0306C28.7984 20.0306 28.7169 19.9626 28.6625 19.8403C28.6489 19.8267 28.6489 19.7995 28.6489 19.7859C28.7441 18.5081 28.7849 17.4613 28.7849 16.6457V16.3195C28.5402 16.6457 28.2683 16.9312 27.9828 17.1623L27.7925 17.0399C28.4178 16.1699 28.9072 15.0552 29.2606 13.6958L30.4433 14.0901C30.3617 14.2668 30.2258 14.3483 29.9947 14.3347C29.8996 14.5387 29.7908 14.7562 29.6685 15.0008L29.8044 15.0552H31.0007C31.0958 14.5387 31.1638 14.1308 31.2046 13.859L32.496 14.0357C32.4416 14.2124 32.2921 14.3212 32.061 14.3483C31.8843 14.5658 31.6668 14.8105 31.4085 15.0688H32.5368L33.0261 14.4843L33.8826 15.1504C33.9097 15.1776 33.9369 15.2048 33.9505 15.2184C33.8962 15.3407 33.7874 15.4087 33.6243 15.4223H31.7211V16.3195H32.428L32.8766 15.7485L33.6787 16.4418C33.6922 16.4554 33.6922 16.4554 33.7058 16.469C33.6515 16.5913 33.5563 16.6457 33.4068 16.6593H31.7211V17.5837H32.428L32.8902 17.0263L33.6651 17.6788C33.6922 17.706 33.7058 17.7196 33.733 17.7332C33.6922 17.8556 33.5835 17.9235 33.4204 17.9371H31.7347V18.8751H32.5775ZM29.8724 11.5888L30.2802 11.1946L31.123 11.8471C31.0414 11.9286 30.9055 11.9966 30.7152 12.0238V13.5327C30.7016 13.6007 30.5792 13.6551 30.321 13.723C30.2258 13.7502 30.1578 13.7638 30.1035 13.7638H29.9947V13.3968H29.0703C29.0703 13.5191 29.0839 13.5871 29.1111 13.6007C29.0703 13.723 28.9344 13.8182 28.7305 13.8862C28.6353 13.9133 28.5402 13.9269 28.445 13.9269C28.3363 13.9133 28.2819 13.8318 28.2683 13.6822C28.2955 13.5735 28.3227 13.4919 28.3227 13.424C28.3227 12.5811 28.2411 11.8335 28.1052 11.181L29.2199 11.616H29.8724V11.5888ZM29.0703 13.0297H29.9947V11.9422H29.0703V13.0297ZM30.8647 15.4223H29.6549V16.3195L30.8647 16.3602V15.4223ZM30.8647 16.6593H29.6549V17.5837H30.8647V16.6593ZM30.8647 17.9371H29.6549V18.8751H30.8647V17.9371ZM32.863 11.5888L33.2572 11.181L34.1137 11.8471C34.0457 11.9286 33.9097 11.9966 33.6922 12.0374V13.4919C33.6787 13.5599 33.5563 13.6143 33.298 13.6822C33.2029 13.7094 33.1213 13.723 33.0669 13.723H32.9582V13.4104H32.0338C32.0474 13.4647 32.061 13.4919 32.0746 13.4919C32.0338 13.6143 31.8843 13.7094 31.6396 13.7502C31.558 13.7638 31.4764 13.7774 31.4085 13.7774C31.3133 13.7638 31.2725 13.6958 31.2589 13.5463C31.2861 13.5055 31.2997 13.4647 31.2997 13.424C31.2997 12.6219 31.2182 11.8743 31.0686 11.181L32.1969 11.616H32.863V11.5888ZM32.0338 13.0297H32.9582V11.9422H32.0338V13.0297ZM37.6209 10.1614H35.1604V11.7247L37.6209 11.7791V10.1614ZM37.6209 12.0918H35.1604V13.6822H37.6209V12.0918ZM35.1604 14.0357V15.667L37.6209 15.7077V14.0357H35.1604Z" fill="black"/>
<path d="M13.1529 30.5523L13.683 29.8997L14.5394 30.593C14.5938 30.6338 14.6346 30.6746 14.6618 30.7018C14.6074 30.8377 14.5122 30.8921 14.3491 30.9057H11.1953L11.1138 30.6202C10.4341 31.2455 9.7136 31.7621 8.95235 32.1563L8.81641 32.034C9.75438 31.3271 10.5972 30.3483 11.3313 29.0977C11.576 28.6899 11.7663 28.3093 11.9158 27.9558L13.4111 28.3093C13.3432 28.4588 13.18 28.5268 12.9218 28.554C14.3763 28.8938 15.2871 29.3968 15.6677 30.0493C15.858 30.3891 15.858 30.661 15.6813 30.8785C15.5182 31.0688 15.3143 31.0824 15.056 30.9465C15.0424 30.9329 15.0424 30.9329 15.0288 30.9193C14.7433 30.3076 14.2404 29.7094 13.4927 29.1385C13.2752 28.9618 13.0441 28.8122 12.813 28.6763C12.31 29.3968 11.7799 30.0221 11.1953 30.5658H13.1529V30.5523ZM14.2404 31.7757L14.7297 31.2591L15.8037 32.0612C15.6949 32.1835 15.5182 32.2651 15.2871 32.3195V34.8479C15.2735 34.9159 15.1376 34.9839 14.8521 35.0654C14.7162 35.1062 14.6074 35.1198 14.5122 35.1198H14.3763V34.7392H11.1002C11.0866 34.9703 11.0458 35.2014 11.005 35.4596L11.7255 35.7587H14.3083L14.7841 35.2557L15.8444 36.0442C15.7357 36.1529 15.5726 36.2345 15.3551 36.2753C15.3551 36.4384 15.3823 37.2404 15.4502 38.6542C15.3551 38.7766 15.1376 38.8581 14.8249 38.9397C14.7297 38.9669 14.6346 38.9669 14.5666 38.9669C14.4443 38.9533 14.3899 38.8717 14.3763 38.7222C14.4171 38.5183 14.4307 38.3687 14.4307 38.2464H11.576C11.576 38.4775 11.5896 38.6542 11.6303 38.763C11.576 38.9125 11.4264 39.0212 11.1546 39.0892C11.0458 39.1164 10.9235 39.13 10.8147 39.13C10.6924 39.13 10.6108 39.0756 10.57 38.9533C10.5564 38.9261 10.5564 38.8989 10.5564 38.8853C10.638 37.8658 10.6788 37.1045 10.6788 36.5879C10.3117 37.4715 9.76798 38.192 9.0475 38.7222L8.89797 38.5998C9.75438 37.4851 10.203 35.9626 10.2574 34.0323C10.271 33.8556 10.271 33.6653 10.271 33.4477C10.271 32.6865 10.1894 31.966 10.0399 31.2863L11.3449 31.7757H14.2404V31.7757ZM11.1274 34.3721H14.3763V33.4342H11.1681V33.4477C11.1681 33.5701 11.1546 33.7604 11.141 34.0187C11.141 34.1682 11.1274 34.2906 11.1274 34.3721ZM14.3763 32.1291H11.1681V33.0671L14.3763 33.1215V32.1291V32.1291ZM11.5624 37.8794H14.4171V36.1122H11.5624V37.8794V37.8794ZM17.4485 29.4919V33.4477C17.4485 33.5973 17.4893 34.5081 17.5573 36.1801V36.2889C17.4621 36.452 17.2718 36.5607 16.9863 36.6287C16.8912 36.6559 16.8096 36.6695 16.7416 36.6695C16.5921 36.6695 16.4834 36.6015 16.4426 36.4928C16.429 36.4656 16.429 36.452 16.429 36.4248C16.5241 35.0382 16.5785 33.9915 16.5785 33.271V31.2184C16.5785 30.4299 16.497 29.6822 16.3474 28.989L17.8699 29.1657C17.8292 29.3424 17.6932 29.4511 17.4757 29.4919H17.4485V29.4919ZM19.6779 28.6763V37.8386C19.6779 38.328 19.5556 38.6542 19.3245 38.8309C19.107 38.9805 18.7671 39.0892 18.3185 39.13C18.2642 38.8037 18.1826 38.5862 18.0602 38.4503C17.8427 38.2872 17.5165 38.1784 17.0815 38.1105V37.9337C17.0951 37.9337 17.5573 37.9609 18.4681 38.0153C18.6448 38.0017 18.7399 37.9201 18.7399 37.7706V30.3891C18.7399 29.5871 18.6584 28.8394 18.5088 28.1461L20.1129 28.3636C20.0721 28.554 19.9362 28.6491 19.7051 28.6763H19.6779Z" fill="black"/>
<path d="M36.7232 29.2472L37.3757 28.4724C37.3893 28.486 37.7699 28.785 38.5312 29.3968C38.504 29.5191 38.3953 29.5871 38.2049 29.6007H35.391L36.5057 29.8862C36.4785 30.0493 36.3426 30.1172 36.1115 30.1172H36.0707C35.7716 30.4571 35.4182 30.7833 35.0104 31.1368H37.3349L37.9738 30.3619L38.9934 31.1776C39.0478 31.2184 39.1021 31.2727 39.1429 31.3135C39.0885 31.4359 38.9934 31.5038 38.8303 31.5174H29.8175C29.2466 31.5174 28.7436 31.5582 28.3222 31.6126L27.9688 30.9465C28.7436 31.0824 29.4369 31.1504 30.035 31.1504H31.6935C31.6799 31.1368 31.6391 31.1096 31.5711 31.0552C31.5847 30.593 31.4216 30.1308 31.0682 29.6686C31.0546 29.6415 31.041 29.6279 31.0274 29.6279H30.5108C29.9399 29.6279 29.4369 29.6551 29.0155 29.723L28.6756 29.0841C29.4097 29.2065 30.0894 29.2744 30.7283 29.2744L33.0936 29.3288V29.2744C33.0936 28.853 33.0257 28.4452 32.8761 28.0646L34.521 28.2549C34.4802 28.4316 34.3307 28.5404 34.0588 28.5811V29.2744H36.7232V29.2472ZM29.7495 36.2481H29.9399C30.1846 37.1589 30.035 37.8794 29.5049 38.3959C29.3825 38.5319 29.2466 38.627 29.1106 38.695C28.7436 38.8309 28.4717 38.8173 28.2814 38.6542C28.227 38.5998 28.1863 38.5455 28.1591 38.4775C28.0775 38.1784 28.2134 37.9473 28.5669 37.8114C29.0019 37.6619 29.3417 37.3764 29.5592 36.955C29.668 36.7239 29.736 36.4792 29.7495 36.2481ZM36.0435 32.3195L36.5329 31.7621L37.634 32.6049C37.5253 32.7137 37.3485 32.7952 37.1174 32.836V35.5684C37.1038 35.6364 36.9543 35.7179 36.6688 35.7995C36.5193 35.8403 36.397 35.8539 36.2882 35.8539H36.1523V35.3781H31.0138C31.0138 35.514 31.0274 35.5956 31.0546 35.5956C31.0274 35.7043 30.8642 35.7995 30.5924 35.8946C30.4564 35.9354 30.3341 35.9626 30.2253 35.9626C30.103 35.9626 30.0214 35.8946 30.0078 35.7723C29.9942 35.7587 29.9942 35.7451 29.9942 35.7179C30.0486 35.079 30.0758 34.5353 30.0758 34.0731C30.0758 33.2302 30.0078 32.4826 29.8583 31.8301L31.0953 32.3331H36.0435V32.3195ZM32.0061 36.4928V38.0153C32.0061 38.124 32.0469 38.1784 32.1421 38.192C32.2236 38.2056 32.3596 38.2192 32.5635 38.2192H34.0724C34.8609 38.2192 35.3094 38.2192 35.4182 38.2056C35.5677 38.192 35.6765 38.1376 35.7309 38.0697C35.8396 37.893 35.9755 37.4851 36.1387 36.8598H36.2746L36.3154 38.1105C36.5737 38.2056 36.7096 38.328 36.7096 38.4775C36.7096 38.695 36.5465 38.8445 36.2338 38.9261C35.8668 39.0212 35.1191 39.0756 34.0044 39.0756H32.414C31.7343 39.0756 31.3264 38.9805 31.1769 38.7901C31.0818 38.6678 31.041 38.4775 31.041 38.2192C31.041 37.4172 30.973 36.7103 30.8235 36.0578L32.3732 36.2481C32.3324 36.3704 32.21 36.452 32.0061 36.4928ZM36.1659 32.6729H31.0274V33.6653L36.1659 33.7196V32.6729ZM31.0274 35.0382H36.1659V34.0187H31.0274V35.0382V35.0382ZM35.0376 29.6007H31.4488C32.1013 29.8454 32.4547 30.158 32.5227 30.5523C32.5635 30.8105 32.4819 31.0009 32.2916 31.1368H34.6162C34.8337 30.3619 34.9696 29.8454 35.0376 29.6007ZM32.5771 35.8811L32.6858 35.7723C33.7326 35.8539 34.4123 36.1393 34.7249 36.6423C34.9288 36.9414 34.9424 37.1861 34.7657 37.39C34.6162 37.5803 34.3987 37.6075 34.1268 37.4851C33.9229 37.0229 33.4743 36.5336 32.7674 36.017C32.6994 35.9626 32.6315 35.9218 32.5771 35.8811ZM36.397 36.2889L36.5193 36.1937C37.7428 36.4928 38.5176 36.9822 38.8846 37.6347C39.0885 38.0153 39.1021 38.3144 38.939 38.5591C38.7759 38.763 38.5584 38.7901 38.2729 38.6406C38.2593 38.627 38.2457 38.627 38.2185 38.6134C38.0418 37.9881 37.566 37.322 36.7776 36.6151C36.6552 36.4928 36.5193 36.384 36.397 36.2889Z" fill="black"/>
<path d="M40.0001 23.8233H27.0859V24.1631H40.0001V23.8233Z" fill="black"/>
<path d="M24.1641 27.0858H23.8242V40H24.1641V27.0858Z" fill="black"/>
<path d="M20.9142 23.8233H8V24.1631H20.9142V23.8233Z" fill="black"/>
<path d="M24.1641 8H23.8242V20.9142H24.1641V8Z" fill="black"/>
</g>
<defs>
<clipPath id="clip0_160_136">
<rect width="32" height="32" fill="white" transform="translate(8 8)"/>
</clipPath>
</defs>
</svg>
