<svg width="42" height="42" viewBox="0 0 42 42" fill="none" xmlns="http://www.w3.org/2000/svg">
<g clip-path="url(#clip0_160_136)">
<path d="M5.7207 8.88785L5.84305 8.79269C6.76743 8.92863 7.33838 9.24129 7.54228 9.71708C7.66463 9.98896 7.63744 10.2201 7.44713 10.3832C7.25681 10.5599 7.03931 10.5599 6.76743 10.3832C6.65868 9.90739 6.34602 9.4452 5.82945 8.98301C5.78867 8.94223 5.74789 8.91504 5.7207 8.88785ZM8.62979 8.57519L8.8337 8.61597C8.73855 8.94223 8.54823 9.54036 8.28995 10.4104C7.84135 11.8921 7.58307 12.7485 7.52869 12.9932C7.41994 13.401 7.35197 13.7273 7.35197 14.0127C7.35197 14.1351 7.41994 14.4342 7.55588 14.9371C7.66463 15.3721 7.719 15.7799 7.70541 16.1606C7.67822 16.6364 7.5015 16.9218 7.16165 17.0034C7.09369 17.017 7.03931 17.0306 6.97134 17.0306C6.76743 17.0306 6.63149 16.8811 6.57712 16.5684C6.56352 16.514 6.56352 16.4596 6.56352 16.4189C6.71306 15.2634 6.69946 14.5021 6.50915 14.0943C6.46837 14.0263 6.44118 13.9856 6.41399 13.9584C6.29165 13.8768 6.10133 13.8088 5.82945 13.7681V13.5234H6.31883C6.44118 13.5234 6.52274 13.4826 6.56352 13.401C6.57712 13.3602 6.60431 13.3195 6.63149 13.2651C6.80821 12.9524 7.284 11.8377 8.08604 9.8938C8.24917 9.49958 8.42589 9.07816 8.62979 8.57519ZM6.30524 6.07392L6.42759 5.97876C7.40634 6.14189 8.03166 6.46814 8.27635 6.95752C8.42589 7.24299 8.41229 7.47409 8.22198 7.6644C8.04526 7.85472 7.81416 7.85472 7.54228 7.69159C7.36556 7.17502 6.95775 6.63127 6.30524 6.07392ZM15.4675 8.03144L16.0656 7.24299L16.9764 8.01784C17.058 8.08581 17.1124 8.15378 17.1803 8.20816C17.126 8.3305 17.0172 8.38488 16.8405 8.39847H13.4284C12.9934 9.03738 12.5584 9.56754 12.137 9.97536L12.0147 9.83942C12.3137 9.32285 12.5448 8.83348 12.7351 8.37128C12.6944 8.38488 12.6536 8.38488 12.5992 8.38488H10.4378V9.73067C10.4378 10.0161 10.4378 10.2336 10.4242 10.3832H11.2262L11.7428 9.82583L12.7351 10.6415C12.6264 10.7502 12.4633 10.8182 12.2322 10.8454C12.205 13.6865 12.069 15.4537 11.8244 16.147C11.7564 16.3373 11.6612 16.5004 11.5661 16.6092C11.2806 16.9082 10.8864 17.0578 10.3834 17.0578C10.3698 16.7451 10.3154 16.5276 10.2203 16.4189C10.0843 16.2965 9.81246 16.1878 9.40465 16.1062V15.8751C9.88043 15.9159 10.2611 15.9431 10.5329 15.9431C10.7097 15.9295 10.832 15.8887 10.9 15.8071C11.1039 15.6032 11.2398 14.5701 11.3078 12.6941C11.3214 12.164 11.335 11.4843 11.3486 10.6822H10.397C10.2611 13.5098 9.43183 15.6304 7.89572 17.0578L7.75979 16.9218C8.88808 15.2634 9.48621 13.0612 9.54058 10.3152V9.73067V8.37128C9.17355 8.37128 8.8473 8.39847 8.58901 8.46644L8.26276 7.84112C8.86089 7.96347 9.41824 8.03144 9.9484 8.03144V8.07222V8.03144C9.9484 7.2294 9.88043 6.50892 9.7309 5.85641L11.3078 6.04673C11.2806 6.22345 11.1447 6.3322 10.8864 6.37298H10.8592V8.03144H11.4029L11.9331 7.27018L12.7487 8.01784C12.7759 8.04503 12.8031 8.07222 12.8303 8.09941C13.1158 7.36534 13.3333 6.63127 13.4828 5.91079L14.8694 6.35939C14.8014 6.48173 14.6655 6.52252 14.448 6.50892C14.2713 6.94393 14.013 7.4469 13.6459 8.01784H15.4675V8.03144ZM15.4811 9.60833L15.9977 9.11895L16.9221 9.97536C16.8405 10.0433 16.6774 10.0841 16.4463 10.0977C15.9569 10.4376 15.4675 10.7502 14.9509 11.0493L15.4947 11.1037C15.4539 11.2668 15.318 11.3755 15.0733 11.4163V12.7213H15.685L16.2152 11.9737L17.0716 12.7621C17.1124 12.8029 17.1532 12.8437 17.1803 12.8845C17.1532 12.9932 17.0444 13.0476 16.8677 13.0612H15.0869V15.7799C15.0869 16.2693 14.9645 16.5956 14.7334 16.7723C14.5295 16.9082 14.2305 16.9898 13.8227 17.0306C13.7955 16.7315 13.7139 16.514 13.6052 16.3645C13.442 16.215 13.1566 16.1062 12.7623 16.0518V15.8751C12.7759 15.8751 13.1702 15.9023 13.9586 15.9431C14.0945 15.9295 14.1761 15.8479 14.1761 15.712V13.0612H14.0945C13.51 13.0612 13.0206 13.0884 12.5992 13.1563L12.2594 12.531C12.9391 12.6534 13.578 12.7213 14.1761 12.7213V12.7621V10.9541L14.6247 10.9949C14.9238 10.6415 15.182 10.3016 15.3995 9.96177H14.5975C14.013 9.96177 13.5236 9.98896 13.1022 10.0569L12.7487 9.40442C13.4828 9.52676 14.1625 9.59473 14.8014 9.59473H15.4811V9.60833Z" fill="black"/>
<path d="M34.5801 6.83517L35.0287 6.27782L36.0075 7.03908C35.8851 7.13424 35.7356 7.20221 35.5317 7.2294V13.1291C35.5317 13.1971 35.4229 13.2651 35.2054 13.333C35.0559 13.3874 34.9064 13.4146 34.7432 13.4146H34.6073V13.0068H34.5257V13.0748V15.8751C34.5801 15.9839 34.6481 16.0382 34.716 16.0382H35.0695H35.4093C35.4909 16.011 35.5453 15.9703 35.5724 15.9023C35.6404 15.7256 35.7492 15.2226 35.8987 14.4206H36.0482L36.1026 15.9431C36.2793 16.0382 36.3745 16.1742 36.3745 16.3373C36.3745 16.6636 36.0346 16.8403 35.3549 16.8675C35.2462 16.8811 35.1374 16.8811 35.0287 16.8811H34.4713C34.0635 16.8811 33.8052 16.7723 33.7237 16.5684C33.6829 16.4596 33.6829 16.3101 33.6829 16.1198V13.0068H33.0984C33.0168 14.3254 32.6498 15.3178 32.0109 15.9567C31.5623 16.3917 30.9369 16.7587 30.1485 17.0442L30.0805 16.8675C31.0185 16.3373 31.6302 15.6712 31.9157 14.8556C32.0788 14.3798 32.1604 13.7545 32.1876 13.0068H32.174C32.174 13.1427 32.1876 13.2107 32.2148 13.2243C32.174 13.3602 32.0244 13.4554 31.7662 13.5234C31.6574 13.5506 31.5487 13.5641 31.4263 13.5641C31.2904 13.5641 31.1952 13.5098 31.1544 13.3874C31.1408 13.3602 31.1408 13.3466 31.1408 13.333C31.236 12.0552 31.2768 11.0085 31.2768 10.1793V7.33815C31.236 7.37893 31.168 7.40612 31.0729 7.40612H29.4688C29.4688 7.63721 29.4824 7.78674 29.5096 7.84112C29.4552 8.01784 29.2105 8.113 28.7891 8.12659H28.7619C28.626 8.113 28.558 8.04503 28.558 7.8955C28.5852 7.69159 28.6124 7.52846 28.6124 7.40612H27.2666C27.2666 7.63721 27.2802 7.80034 27.3074 7.8819C27.185 8.03143 26.9403 8.12659 26.5461 8.14019C26.4102 8.12659 26.3422 8.05862 26.3286 7.90909C26.3694 7.70518 26.383 7.54205 26.383 7.40612C25.88 7.40612 25.445 7.4333 25.0644 7.50127L24.7109 6.86236C25.2955 6.98471 25.8528 7.05267 26.3694 7.05267V7.10705V7.05267C26.3694 6.64486 26.3014 6.25064 26.1519 5.85641L27.6064 6.03313C27.5928 6.20985 27.4705 6.31861 27.2666 6.35939V7.03908L28.6124 7.09346V7.03908C28.6124 6.63126 28.5308 6.23704 28.3949 5.84282L29.863 6.01954C29.8494 6.19626 29.7271 6.30501 29.5096 6.34579H29.4688V7.02549H30.0261L30.4883 6.44095L31.236 7.09346C31.2496 7.10705 31.2632 7.10705 31.2768 7.12064C31.2768 6.87595 31.1952 6.61767 31.0593 6.3322L32.3099 6.82158H34.5801V6.83517ZM29.5775 15.8751L30.0941 15.2226L30.9505 15.9159C31.0049 15.9567 31.0457 15.9974 31.0729 16.0246C31.0457 16.147 30.9369 16.2014 30.7466 16.215H26.6685C26.6685 16.4596 26.6821 16.6092 26.7092 16.6771C26.6821 16.7995 26.5461 16.8946 26.3014 16.9762C26.1791 17.017 26.0567 17.0306 25.9344 17.0306C25.7984 17.0306 25.7169 16.9626 25.6625 16.8403C25.6489 16.8267 25.6489 16.7995 25.6489 16.7859C25.7441 15.5081 25.7849 14.4613 25.7849 13.6457V13.3195C25.5402 13.6457 25.2683 13.9312 24.9828 14.1623L24.7925 14.0399C25.4178 13.1699 25.9072 12.0552 26.2606 10.6958L27.4433 11.0901C27.3617 11.2668 27.2258 11.3483 26.9947 11.3347C26.8996 11.5387 26.7908 11.7562 26.6685 12.0008L26.8044 12.0552H28.0007C28.0958 11.5387 28.1638 11.1308 28.2046 10.859L29.496 11.0357C29.4416 11.2124 29.2921 11.3212 29.061 11.3483C28.8843 11.5658 28.6668 11.8105 28.4085 12.0688H29.5368L30.0261 11.4843L30.8826 12.1504C30.9097 12.1776 30.9369 12.2048 30.9505 12.2183C30.8962 12.3407 30.7874 12.4087 30.6243 12.4223H28.7211V13.3195H29.428L29.8766 12.7485L30.6787 13.4418C30.6922 13.4554 30.6922 13.4554 30.7058 13.469C30.6515 13.5913 30.5563 13.6457 30.4068 13.6593H28.7211V14.5837H29.428L29.8902 14.0263L30.6651 14.6788C30.6922 14.706 30.7058 14.7196 30.733 14.7332C30.6922 14.8556 30.5835 14.9235 30.4204 14.9371H28.7347V15.8751H29.5775ZM26.8724 8.58878L27.2802 8.19456L28.123 8.84707C28.0414 8.92863 27.9055 8.9966 27.7152 9.02379V10.5327C27.7016 10.6007 27.5792 10.6551 27.321 10.723C27.2258 10.7502 27.1578 10.7638 27.1035 10.7638H26.9947V10.3968H26.0703C26.0703 10.5191 26.0839 10.5871 26.1111 10.6007C26.0703 10.723 25.9344 10.8182 25.7305 10.8861C25.6353 10.9133 25.5402 10.9269 25.445 10.9269C25.3363 10.9133 25.2819 10.8318 25.2683 10.6822C25.2955 10.5735 25.3227 10.4919 25.3227 10.424C25.3227 9.58114 25.2411 8.83347 25.1052 8.18097L26.2199 8.61597H26.8724V8.58878ZM26.0703 10.0297H26.9947V8.94222H26.0703V10.0297ZM27.8647 12.4223H26.6549V13.3195L27.8647 13.3602V12.4223ZM27.8647 13.6593H26.6549V14.5837H27.8647V13.6593ZM27.8647 14.9371H26.6549V15.8751H27.8647V14.9371ZM29.863 8.58878L30.2572 8.18097L31.1137 8.84707C31.0457 8.92863 30.9097 8.9966 30.6922 9.03738V10.4919C30.6787 10.5599 30.5563 10.6143 30.298 10.6822C30.2029 10.7094 30.1213 10.723 30.0669 10.723H29.9582V10.4104H29.0338C29.0474 10.4647 29.061 10.4919 29.0746 10.4919C29.0338 10.6143 28.8843 10.7094 28.6396 10.7502C28.558 10.7638 28.4764 10.7774 28.4085 10.7774C28.3133 10.7638 28.2725 10.6958 28.2589 10.5463C28.2861 10.5055 28.2997 10.4647 28.2997 10.424C28.2997 9.62192 28.2182 8.87426 28.0686 8.18097L29.1969 8.61597H29.863V8.58878ZM29.0338 10.0297H29.9582V8.94222H29.0338V10.0297ZM34.6209 7.16143H32.1604V8.72472L34.6209 8.7791V7.16143ZM34.6209 9.09176H32.1604V10.6822H34.6209V9.09176ZM32.1604 11.0357V12.6669L34.6209 12.7077V11.0357H32.1604Z" fill="black"/>
<path d="M10.1529 27.5523L10.683 26.8998L11.5394 27.593C11.5938 27.6338 11.6346 27.6746 11.6618 27.7018C11.6074 27.8377 11.5122 27.8921 11.3491 27.9057H8.19534L8.11377 27.6202C7.43408 28.2455 6.7136 28.7621 5.95235 29.1563L5.81641 29.034C6.75438 28.3271 7.59721 27.3483 8.33127 26.0977C8.57596 25.6899 8.76628 25.3093 8.91581 24.9558L10.4111 25.3093C10.3432 25.4588 10.18 25.5268 9.92176 25.554C11.3763 25.8938 12.2871 26.3968 12.6677 27.0493C12.858 27.3891 12.858 27.661 12.6813 27.8785C12.5182 28.0688 12.3143 28.0824 12.056 27.9465C12.0424 27.9329 12.0424 27.9329 12.0288 27.9193C11.7433 27.3076 11.2404 26.7094 10.4927 26.1385C10.2752 25.9618 10.0441 25.8122 9.81301 25.6763C9.31003 26.3968 8.77987 27.0221 8.19534 27.5659H10.1529V27.5523ZM11.2404 28.7757L11.7297 28.2591L12.8037 29.0612C12.6949 29.1835 12.5182 29.2651 12.2871 29.3195V31.8479C12.2735 31.9159 12.1376 31.9839 11.8521 32.0654C11.7162 32.1062 11.6074 32.1198 11.5122 32.1198H11.3763V31.7392H8.10018C8.08658 31.9703 8.0458 32.2014 8.00502 32.4596L8.7255 32.7587H11.3083L11.7841 32.2557L12.8444 33.0442C12.7357 33.1529 12.5726 33.2345 12.3551 33.2753C12.3551 33.4384 12.3823 34.2404 12.4502 35.6542C12.3551 35.7766 12.1376 35.8581 11.8249 35.9397C11.7297 35.9669 11.6346 35.9669 11.5666 35.9669C11.4443 35.9533 11.3899 35.8717 11.3763 35.7222C11.4171 35.5183 11.4307 35.3687 11.4307 35.2464H8.57596C8.57596 35.4775 8.58956 35.6542 8.63034 35.763C8.57596 35.9125 8.42643 36.0212 8.15455 36.0892C8.0458 36.1164 7.92346 36.13 7.81471 36.13C7.69236 36.13 7.6108 36.0756 7.57002 35.9533C7.55642 35.9261 7.55642 35.8989 7.55642 35.8853C7.63799 34.8658 7.67877 34.1045 7.67877 33.5879C7.31173 34.4715 6.76798 35.192 6.0475 35.7222L5.89797 35.5998C6.75438 34.4851 7.20298 32.9626 7.25736 31.0323C7.27095 30.8556 7.27095 30.6653 7.27095 30.4478C7.27095 29.6865 7.18939 28.966 7.03986 28.2863L8.34487 28.7757H11.2404ZM8.12737 31.3721H11.3763V30.4342H8.16815V30.4478C8.16815 30.5701 8.15455 30.7604 8.14096 31.0187C8.14096 31.1682 8.12737 31.2906 8.12737 31.3721ZM11.3763 29.1291H8.16815V30.0671L11.3763 30.1215V29.1291ZM8.56237 34.8794H11.4171V33.1122H8.56237V34.8794ZM14.4485 26.4919V30.4478C14.4485 30.5973 14.4893 31.5081 14.5573 33.1801V33.2889C14.4621 33.452 14.2718 33.5608 13.9863 33.6287C13.8912 33.6559 13.8096 33.6695 13.7416 33.6695C13.5921 33.6695 13.4834 33.6015 13.4426 33.4928C13.429 33.4656 13.429 33.452 13.429 33.4248C13.5241 32.0382 13.5785 30.9915 13.5785 30.271V28.2184C13.5785 27.4299 13.497 26.6822 13.3474 25.989L14.8699 26.1657C14.8292 26.3424 14.6932 26.4512 14.4757 26.4919H14.4485ZM16.6779 25.6763V34.8386C16.6779 35.328 16.5556 35.6542 16.3245 35.8309C16.107 35.9805 15.7671 36.0892 15.3185 36.13C15.2642 35.8037 15.1826 35.5862 15.0602 35.4503C14.8427 35.2872 14.5165 35.1784 14.0815 35.1105V34.9337C14.0951 34.9337 14.5573 34.9609 15.4681 35.0153C15.6448 35.0017 15.7399 34.9201 15.7399 34.7706V27.3891C15.7399 26.5871 15.6584 25.8394 15.5088 25.1461L17.1129 25.3636C17.0721 25.554 16.9362 25.6491 16.7051 25.6763H16.6779Z" fill="black"/>
<path d="M33.7232 26.2472L34.3757 25.4724C34.3893 25.486 34.7699 25.785 35.5312 26.3968C35.504 26.5191 35.3953 26.5871 35.2049 26.6007H32.391L33.5057 26.8862C33.4785 27.0493 33.3426 27.1173 33.1115 27.1173H33.0707C32.7716 27.4571 32.4182 27.7834 32.0104 28.1368H34.3349L34.9738 27.3619L35.9934 28.1776C36.0478 28.2184 36.1021 28.2727 36.1429 28.3135C36.0885 28.4359 35.9934 28.5038 35.8303 28.5174H26.8175C26.2466 28.5174 25.7436 28.5582 25.3222 28.6126L24.9688 27.9465C25.7436 28.0824 26.4369 28.1504 27.035 28.1504H28.6935C28.6799 28.1368 28.6391 28.1096 28.5711 28.0552C28.5847 27.593 28.4216 27.1308 28.0682 26.6687C28.0546 26.6415 28.041 26.6279 28.0274 26.6279H27.5108C26.9399 26.6279 26.4369 26.6551 26.0155 26.723L25.6756 26.0841C26.4097 26.2065 27.0894 26.2744 27.7283 26.2744L30.0936 26.3288V26.2744C30.0936 25.853 30.0257 25.4452 29.8761 25.0646L31.521 25.2549C31.4802 25.4316 31.3307 25.5404 31.0588 25.5811V26.2744H33.7232V26.2472ZM26.7495 33.2481H26.9399C27.1846 34.1589 27.035 34.8794 26.5049 35.3959C26.3825 35.5319 26.2466 35.627 26.1106 35.695C25.7436 35.8309 25.4717 35.8173 25.2814 35.6542C25.227 35.5998 25.1863 35.5455 25.1591 35.4775C25.0775 35.1784 25.2134 34.9473 25.5669 34.8114C26.0019 34.6619 26.3417 34.3764 26.5592 33.955C26.668 33.7239 26.736 33.4792 26.7495 33.2481ZM33.0435 29.3195L33.5329 28.7621L34.634 29.6049C34.5253 29.7137 34.3485 29.7952 34.1174 29.836V32.5684C34.1038 32.6364 33.9543 32.7179 33.6688 32.7995C33.5193 32.8403 33.397 32.8539 33.2882 32.8539H33.1523V32.3781H28.0138C28.0138 32.514 28.0274 32.5956 28.0546 32.5956C28.0274 32.7043 27.8642 32.7995 27.5924 32.8947C27.4564 32.9354 27.3341 32.9626 27.2253 32.9626C27.103 32.9626 27.0214 32.8947 27.0078 32.7723C26.9942 32.7587 26.9942 32.7451 26.9942 32.7179C27.0486 32.079 27.0758 31.5353 27.0758 31.0731C27.0758 30.2303 27.0078 29.4826 26.8583 28.8301L28.0953 29.3331H33.0435V29.3195ZM29.0061 33.4928V35.0153C29.0061 35.124 29.0469 35.1784 29.1421 35.192C29.2236 35.2056 29.3596 35.2192 29.5635 35.2192H31.0724C31.8609 35.2192 32.3094 35.2192 32.4182 35.2056C32.5677 35.192 32.6765 35.1376 32.7309 35.0697C32.8396 34.893 32.9755 34.4851 33.1387 33.8598H33.2746L33.3154 35.1105C33.5737 35.2056 33.7096 35.328 33.7096 35.4775C33.7096 35.695 33.5465 35.8445 33.2338 35.9261C32.8668 36.0212 32.1191 36.0756 31.0044 36.0756H29.414C28.7343 36.0756 28.3264 35.9805 28.1769 35.7901C28.0818 35.6678 28.041 35.4775 28.041 35.2192C28.041 34.4172 27.973 33.7103 27.8235 33.0578L29.3732 33.2481C29.3324 33.3704 29.21 33.452 29.0061 33.4928ZM33.1659 29.6729H28.0274V30.6653L33.1659 30.7196V29.6729ZM28.0274 32.0382H33.1659V31.0187H28.0274V32.0382ZM32.0376 26.6007H28.4488C29.1013 26.8454 29.4547 27.158 29.5227 27.5523C29.5635 27.8105 29.4819 28.0009 29.2916 28.1368H31.6162C31.8337 27.3619 31.9696 26.8454 32.0376 26.6007ZM29.5771 32.8811L29.6858 32.7723C30.7326 32.8539 31.4123 33.1393 31.7249 33.6423C31.9288 33.9414 31.9424 34.1861 31.7657 34.39C31.6162 34.5803 31.3987 34.6075 31.1268 34.4851C30.9229 34.0229 30.4743 33.5336 29.7674 33.017C29.6994 32.9626 29.6315 32.9218 29.5771 32.8811ZM33.397 33.2889L33.5193 33.1937C34.7428 33.4928 35.5176 33.9822 35.8846 34.6347C36.0885 35.0153 36.1021 35.3144 35.939 35.5591C35.7759 35.763 35.5584 35.7901 35.2729 35.6406C35.2593 35.627 35.2457 35.627 35.2185 35.6134C35.0418 34.9881 34.566 34.322 33.7776 33.6151C33.6552 33.4928 33.5193 33.384 33.397 33.2889Z" fill="black"/>
<path d="M37.0001 20.8233H24.0859V21.1631H37.0001V20.8233Z" fill="black"/>
<path d="M21.1641 24.0858H20.8242V37H21.1641V24.0858Z" fill="black"/>
<path d="M17.9142 20.8233H5V21.1631H17.9142V20.8233Z" fill="black"/>
<path d="M21.1641 5H20.8242V17.9142H21.1641V5Z" fill="black"/>
</g>
<defs>
<clipPath id="clip0_160_136">
<rect width="32" height="32" fill="white" transform="translate(5 5)"/>
</clipPath>
</defs>
</svg>
