<svg width="86" height="16" viewBox="0 0 86 16" fill="none" xmlns="http://www.w3.org/2000/svg">
<path d="M0 7.59837C0 7.38731 0.2 7.17624 0.4 7.17624H84.9C85.1 7.17624 85.3 7.38731 85.3 7.59837C85.3 7.80944 85.1 8.0205 84.9 8.0205H0.4C0.2 8.0205 0 7.80944 0 7.59837Z" fill="#191B20"/>
<path d="M51.3008 0.422133C51.3008 0.211066 51.5008 0 51.7008 0C61.7008 0 64.3008 1.68853 67.2008 3.4826C70.0008 5.27666 73.0008 7.17626 84.8008 7.17626C85.0008 7.17626 85.2008 7.38732 85.2008 7.59839C85.2008 7.80946 85.0008 8.02052 84.8008 8.02052C72.8008 8.02052 69.7008 6.01539 66.7008 4.22133C64.0008 2.42726 61.4008 0.844266 51.6008 0.844266C51.4008 0.844266 51.3008 0.633199 51.3008 0.422133Z" fill="#191B20"/>
<path d="M51.3008 14.8802C51.3008 14.6691 51.5008 14.458 51.7008 14.458C61.5008 14.458 64.0008 12.7695 66.8008 11.081C69.8008 9.18137 72.9008 7.28177 84.9008 7.28177C85.1008 7.28177 85.3008 7.49284 85.3008 7.7039C85.3008 7.91497 85.1008 8.12603 84.9008 8.12603C73.0008 8.0205 70.0008 9.9201 67.1008 11.7142C64.3008 13.5082 61.6008 15.1968 51.6008 15.1968C51.4008 15.1968 51.3008 15.0912 51.3008 14.8802Z" fill="#191B20"/>
</svg>
