<svg width="222" height="40" viewBox="0 0 222 40" fill="none" xmlns="http://www.w3.org/2000/svg">
<path d="M9.77263 10.1783H3.17359L1.66236 14.0078H0L5.59156 0.251953H7.45541L13.047 14.0078H11.3342L9.77263 10.1783ZM3.72771 8.81784H9.21852L6.4983 1.91474H6.44792L3.72771 8.81784Z" fill="black" fill-opacity="0.5"/>
<path d="M20.7539 0.251953H22.4666L27.2522 12.345H27.3026L32.0881 0.251953H33.8009L28.2093 14.0078H26.2951L20.7539 0.251953Z" fill="black" fill-opacity="0.5"/>
<path d="M37.377 0.251953H39.0393V14.0078H37.377V0.251953Z" fill="black" fill-opacity="0.5"/>
<path d="M44.7823 9.92636C44.9838 12.1434 46.7973 12.8992 48.8626 12.8992C50.8272 12.8992 52.2881 11.9419 52.2881 10.2791C52.2881 9.12015 51.6332 8.36434 49.7694 8.01163L47.1499 7.50775C45.2861 7.15504 43.6237 6.29845 43.6237 3.93023C43.6237 1.66279 45.5883 0 48.4093 0C51.3814 0 53.2956 1.25969 53.5978 3.77907H51.9858C51.734 2.21705 50.4242 1.36046 48.4596 1.36046C46.4447 1.36046 45.2357 2.46899 45.2357 3.93023C45.2357 5.2907 45.9913 5.79457 47.704 6.0969L50.4242 6.65116C52.54 7.05426 53.9001 8.06201 53.9001 10.2287C53.9001 12.5969 51.8347 14.2597 48.913 14.2597C45.9409 14.2597 43.4222 12.9496 43.2207 9.97674H44.7823V9.92636Z" fill="black" fill-opacity="0.5"/>
<path d="M58.1816 0.251953H59.844V14.0078H58.1816V0.251953Z" fill="black" fill-opacity="0.5"/>
<path d="M70.3226 14.2597C66.4941 14.2597 64.0762 11.2868 64.0762 7.15504C64.0762 2.97287 66.4941 0 70.3226 0C74.1511 0 76.569 2.97287 76.569 7.10465C76.6194 11.2868 74.1511 14.2597 70.3226 14.2597ZM70.3226 1.41085C67.3001 1.41085 65.7385 3.77907 65.7385 7.10465C65.7385 10.4302 67.3001 12.7984 70.3226 12.7984C73.3451 12.7984 74.8563 10.4302 74.8563 7.10465C74.9067 3.77907 73.3451 1.41085 70.3226 1.41085Z" fill="black" fill-opacity="0.5"/>
<path d="M90.2208 11.2364L90.2712 0.251953H91.8832V14.0078H90.3215L82.4631 2.26746H82.4128V14.0078H80.8008V0.251953H82.8661L90.2208 11.2364Z" fill="black" fill-opacity="0.5"/>
<path d="M1.46094 24.9922H10.2765V26.4031H3.12329V31.4419H9.62159V32.8527H3.12329V38.7985H1.46094V24.9922Z" fill="black" fill-opacity="0.5"/>
<path d="M19.9476 39C16.1191 39 13.7012 36.0271 13.7012 31.8954C13.7012 27.7636 16.1695 24.7907 19.9476 24.7907C23.7257 24.7907 26.194 27.7636 26.194 31.8954C26.2444 36.0271 23.7761 39 19.9476 39ZM19.9476 26.1512C16.9251 26.1512 15.3635 28.5194 15.3635 31.845C15.3635 35.1706 16.9251 37.5388 19.9476 37.5388C22.9701 37.5388 24.4813 35.1706 24.4813 31.845C24.5317 28.5698 22.9701 26.1512 19.9476 26.1512Z" fill="black" fill-opacity="0.5"/>
<path d="M30.4258 38.7481V24.9922H35.7151C38.7879 24.9922 40.551 26.4535 40.551 29.0736C40.551 31.2907 38.9894 32.5504 37.3774 32.9535L41.1555 38.7985H39.2917L35.7151 33.2054H32.0378V38.7985H30.4258V38.7481ZM35.6647 31.7946C37.7301 31.7946 38.9391 30.8876 38.9391 29.0736C38.9391 27.3605 37.7804 26.3527 35.6647 26.3527H32.0881V31.7946H35.6647V31.7946Z" fill="black" fill-opacity="0.5"/>
<path d="M54.9077 26.4031H49.7695V24.9922H61.7083V26.4031H56.5701V38.7985H54.9077V26.4031Z" fill="black" fill-opacity="0.5"/>
<path d="M65.7383 38.7481V24.9922H71.0276C74.1004 24.9922 75.8635 26.4535 75.8635 29.0736C75.8635 31.2907 74.3019 32.5504 72.69 32.9535L76.468 38.7985H74.6042L71.0276 33.2054H67.3503V38.7985H65.7383V38.7481ZM70.9268 31.7946C72.9922 31.7946 74.2012 30.8876 74.2012 29.0736C74.2012 27.3605 73.0426 26.3527 70.9268 26.3527H67.3503V31.7946H70.9268V31.7946Z" fill="black" fill-opacity="0.5"/>
<path d="M88.759 34.9186H82.1599L80.6487 38.7481H78.9863L84.5779 24.9922H86.4417L92.0333 38.7481H90.3206L88.759 34.9186ZM82.714 33.5581H88.2048L85.4846 26.655H85.4343L82.714 33.5581Z" fill="black" fill-opacity="0.5"/>
<path d="M104.981 35.9767L105.031 24.9922H106.643V38.7481H105.082L97.2737 27.0078H97.2233V38.7481H95.6113V24.9922H97.6767L104.981 35.9767Z" fill="black" fill-opacity="0.5"/>
<path d="M112.386 34.7171C112.587 36.9341 114.401 37.6899 116.466 37.6899C118.431 37.6899 119.892 36.7326 119.892 35.0698C119.892 33.9109 119.237 33.155 117.373 32.8023L114.753 32.2985C112.89 31.9457 111.227 31.0892 111.227 28.7209C111.227 26.4535 113.192 24.7907 116.013 24.7907C118.985 24.7907 120.899 26.0504 121.201 28.5698H119.589C119.337 27.0078 118.028 26.1512 116.063 26.1512C114.048 26.1512 112.839 27.2597 112.839 28.7209C112.839 30.0814 113.595 30.5853 115.308 30.8876L118.028 31.4419C120.143 31.845 121.504 32.8527 121.504 35.0194C121.504 37.3876 119.438 39.0504 116.517 39.0504C113.544 39.0504 111.026 37.7403 110.824 34.7675H112.386V34.7171Z" fill="black" fill-opacity="0.5"/>
<path d="M125.785 24.9922H134.601V26.4031H127.448V31.4419H133.946V32.8527H127.448V38.7985H125.785V24.9922Z" fill="black" fill-opacity="0.5"/>
<path d="M144.272 39C140.443 39 138.025 36.0271 138.025 31.8954C138.025 27.7636 140.494 24.7907 144.272 24.7907C148.05 24.7907 150.518 27.7636 150.518 31.8954C150.569 36.0271 148.1 39 144.272 39ZM144.272 26.1512C141.249 26.1512 139.688 28.5194 139.688 31.845C139.688 35.1706 141.249 37.5388 144.272 37.5388C147.294 37.5388 148.806 35.1706 148.806 31.845C148.856 28.5698 147.294 26.1512 144.272 26.1512Z" fill="black" fill-opacity="0.5"/>
<path d="M154.75 38.7481V24.9922H160.039C163.112 24.9922 164.875 26.4535 164.875 29.0736C164.875 31.2907 163.314 32.5504 161.702 32.9535L165.48 38.7985H163.616L160.039 33.2054H156.362V38.7985H154.75V38.7481ZM159.939 31.7946C162.004 31.7946 163.213 30.8876 163.213 29.0736C163.213 27.3605 162.054 26.3527 159.939 26.3527H156.362V31.7946H159.939V31.7946Z" fill="black" fill-opacity="0.5"/>
<path d="M175.605 38.7481L171.122 26.655H171.071V38.7481H169.51V24.9922H172.079L176.31 36.5814H176.361L180.592 24.9922H183.06V38.7481H181.449V26.7054H181.398L176.915 38.7985H175.605V38.7481Z" fill="black" fill-opacity="0.5"/>
<path d="M188.098 24.9922H189.76V38.7481H188.098V24.9922Z" fill="black" fill-opacity="0.5"/>
<path d="M204.167 35.9767L204.217 24.9922H205.829V38.7481H204.267L196.459 27.0078H196.409V38.7481H194.797V24.9922H196.862L204.167 35.9767Z" fill="black" fill-opacity="0.5"/>
<path d="M216.408 24.7907C219.481 24.7907 221.294 26.5039 221.798 29.0233H220.135C219.783 27.3101 218.523 26.2016 216.408 26.2016C213.486 26.2016 211.723 28.469 211.723 31.8954C211.723 35.3217 213.436 37.6395 216.357 37.6395C218.675 37.6395 220.387 36.2287 220.387 33.9613V33.2558H217.113V31.9457H221.999V38.7985H220.69L220.538 36.4806C220.035 37.9419 218.171 39 216.357 39C212.73 39 210.061 36.1783 210.061 31.845C210.061 27.562 212.781 24.7907 216.408 24.7907Z" fill="black" fill-opacity="0.5"/>
</svg>
